<?xml version="1.0" encoding="UTF-8" standalone="no"?>
<!DOCTYPE svg PUBLIC "-//W3C//DTD SVG 1.1//EN"
 "http://www.w3.org/Graphics/SVG/1.1/DTD/svg11.dtd">
<!-- Generated by graphviz version 13.1.2 (20250808.2320)
 -->
<!-- Title: G Pages: 1 -->
<svg width="3055pt" height="947pt"
 viewBox="0.00 0.00 3055.00 947.00" xmlns="http://www.w3.org/2000/svg" xmlns:xlink="http://www.w3.org/1999/xlink">
<g id="graph0" class="graph" transform="scale(1 1) rotate(0) translate(21.6 925.14)">
<title>G</title>
<polygon fill="#111111" stroke="none" points="-21.6,21.6 -21.6,-925.14 3033.85,-925.14 3033.85,21.6 -21.6,21.6"/>
<!-- App.tsx -->
<g id="node1" class="node">
<title>App.tsx</title>
<path fill="none" stroke="#c6c5fe" d="M192.08,-435.91C192.08,-435.91 146.92,-435.91 146.92,-435.91 142.96,-435.91 139,-431.95 139,-427.99 139,-427.99 139,-420.07 139,-420.07 139,-416.12 142.96,-412.16 146.92,-412.16 146.92,-412.16 192.08,-412.16 192.08,-412.16 196.04,-412.16 200,-416.12 200,-420.07 200,-420.07 200,-427.99 200,-427.99 200,-431.95 196.04,-435.91 192.08,-435.91"/>
<text xml:space="preserve" text-anchor="middle" x="169.5" y="-418.61" font-family="Arial" font-size="14.00" fill="#c6c5fe">App.tsx</text>
</g>
<!-- components/Layout/MainLayout.tsx -->
<g id="node2" class="node">
<title>components/Layout/MainLayout.tsx</title>
<path fill="none" stroke="#c6c5fe" d="M719.83,-578.91C719.83,-578.91 505.92,-578.91 505.92,-578.91 501.96,-578.91 498,-574.95 498,-570.99 498,-570.99 498,-563.07 498,-563.07 498,-559.12 501.96,-555.16 505.92,-555.16 505.92,-555.16 719.83,-555.16 719.83,-555.16 723.79,-555.16 727.75,-559.12 727.75,-563.07 727.75,-563.07 727.75,-570.99 727.75,-570.99 727.75,-574.95 723.79,-578.91 719.83,-578.91"/>
<text xml:space="preserve" text-anchor="middle" x="612.88" y="-561.61" font-family="Arial" font-size="14.00" fill="#c6c5fe">components/Layout/MainLayout.tsx</text>
</g>
<!-- App.tsx&#45;&gt;components/Layout/MainLayout.tsx -->
<g id="edge1" class="edge">
<title>App.tsx&#45;&gt;components/Layout/MainLayout.tsx</title>
<path fill="none" stroke="#757575" d="M193.55,-436.26C239.73,-460.21 347.43,-513.38 444,-541.03 460.16,-545.66 477.45,-549.52 494.57,-552.72"/>
<polygon fill="#757575" stroke="#757575" points="493.82,-556.14 504.29,-554.46 495.06,-549.25 493.82,-556.14"/>
</g>
<!-- contexts/AuthContext.tsx -->
<g id="node3" class="node">
<title>contexts/AuthContext.tsx</title>
<path fill="none" stroke="#c6c5fe" d="M1386.71,-337.91C1386.71,-337.91 1237.29,-337.91 1237.29,-337.91 1233.33,-337.91 1229.38,-333.95 1229.38,-329.99 1229.38,-329.99 1229.38,-322.07 1229.38,-322.07 1229.38,-318.12 1233.33,-314.16 1237.29,-314.16 1237.29,-314.16 1386.71,-314.16 1386.71,-314.16 1390.67,-314.16 1394.62,-318.12 1394.62,-322.07 1394.62,-322.07 1394.62,-329.99 1394.62,-329.99 1394.62,-333.95 1390.67,-337.91 1386.71,-337.91"/>
<text xml:space="preserve" text-anchor="middle" x="1312" y="-320.61" font-family="Arial" font-size="14.00" fill="#c6c5fe">contexts/AuthContext.tsx</text>
</g>
<!-- App.tsx&#45;&gt;contexts/AuthContext.tsx -->
<g id="edge2" class="edge">
<title>App.tsx&#45;&gt;contexts/AuthContext.tsx</title>
<path fill="none" stroke="#757575" d="M200.38,-416.56C211.51,-413.94 224.29,-411.13 236,-409.03 327.76,-392.61 351.38,-392.63 444,-382.03 609.84,-363.06 651.22,-356.47 817.75,-345.03 956.73,-335.49 1118.1,-330.4 1217.38,-327.96"/>
<polygon fill="#757575" stroke="#757575" points="1217.45,-331.46 1227.37,-327.72 1217.29,-324.46 1217.45,-331.46"/>
</g>
<!-- contexts/LayoutContext.tsx -->
<g id="node4" class="node">
<title>contexts/LayoutContext.tsx</title>
<path fill="none" stroke="#c6c5fe" d="M2601.71,-680.91C2601.71,-680.91 2439.54,-680.91 2439.54,-680.91 2435.58,-680.91 2431.62,-676.95 2431.62,-672.99 2431.62,-672.99 2431.62,-665.07 2431.62,-665.07 2431.62,-661.12 2435.58,-657.16 2439.54,-657.16 2439.54,-657.16 2601.71,-657.16 2601.71,-657.16 2605.67,-657.16 2609.62,-661.12 2609.62,-665.07 2609.62,-665.07 2609.62,-672.99 2609.62,-672.99 2609.62,-676.95 2605.67,-680.91 2601.71,-680.91"/>
<text xml:space="preserve" text-anchor="middle" x="2520.62" y="-663.61" font-family="Arial" font-size="14.00" fill="#c6c5fe">contexts/LayoutContext.tsx</text>
</g>
<!-- App.tsx&#45;&gt;contexts/LayoutContext.tsx -->
<g id="edge3" class="edge">
<title>App.tsx&#45;&gt;contexts/LayoutContext.tsx</title>
<path fill="none" stroke="#757575" d="M170.78,-436.28C172.24,-472.79 181.2,-582.42 236,-648.03 302.25,-727.36 343.6,-727.48 444,-752.03 818.35,-843.6 925.62,-766.03 1311,-766.03 1311,-766.03 1311,-766.03 1709.62,-766.03 1992.19,-766.03 2066.89,-782 2344.25,-728.03 2392.4,-718.66 2445.51,-699.48 2480.53,-685.52"/>
<polygon fill="#757575" stroke="#757575" points="2481.42,-688.94 2489.38,-681.94 2478.8,-682.45 2481.42,-688.94"/>
</g>
<!-- contexts/ThemeContext.tsx -->
<g id="node5" class="node">
<title>contexts/ThemeContext.tsx</title>
<path fill="none" stroke="#c6c5fe" d="M1046.71,-136.91C1046.71,-136.91 882.29,-136.91 882.29,-136.91 878.33,-136.91 874.38,-132.95 874.38,-128.99 874.38,-128.99 874.38,-121.07 874.38,-121.07 874.38,-117.12 878.33,-113.16 882.29,-113.16 882.29,-113.16 1046.71,-113.16 1046.71,-113.16 1050.67,-113.16 1054.62,-117.12 1054.62,-121.07 1054.62,-121.07 1054.62,-128.99 1054.62,-128.99 1054.62,-132.95 1050.67,-136.91 1046.71,-136.91"/>
<text xml:space="preserve" text-anchor="middle" x="964.5" y="-119.61" font-family="Arial" font-size="14.00" fill="#c6c5fe">contexts/ThemeContext.tsx</text>
</g>
<!-- App.tsx&#45;&gt;contexts/ThemeContext.tsx -->
<g id="edge4" class="edge">
<title>App.tsx&#45;&gt;contexts/ThemeContext.tsx</title>
<path fill="none" stroke="#757575" d="M171.06,-412.02C173.25,-378.19 184.01,-281.02 236,-226.03 304.27,-153.83 346.73,-164.36 444,-144.03 587.2,-114.1 757.33,-114.46 862.88,-118.75"/>
<polygon fill="#757575" stroke="#757575" points="862.5,-122.23 872.64,-119.16 862.8,-115.24 862.5,-122.23"/>
</g>
<!-- features/chat/index.tsx -->
<g id="node6" class="node">
<title>features/chat/index.tsx</title>
<path fill="none" stroke="#c6c5fe" d="M389.58,-638.91C389.58,-638.91 254.42,-638.91 254.42,-638.91 250.46,-638.91 246.5,-634.95 246.5,-630.99 246.5,-630.99 246.5,-623.07 246.5,-623.07 246.5,-619.12 250.46,-615.16 254.42,-615.16 254.42,-615.16 389.58,-615.16 389.58,-615.16 393.54,-615.16 397.5,-619.12 397.5,-623.07 397.5,-623.07 397.5,-630.99 397.5,-630.99 397.5,-634.95 393.54,-638.91 389.58,-638.91"/>
<text xml:space="preserve" text-anchor="middle" x="322" y="-621.61" font-family="Arial" font-size="14.00" fill="#c6c5fe">features/chat/index.tsx</text>
</g>
<!-- App.tsx&#45;&gt;features/chat/index.tsx -->
<g id="edge5" class="edge">
<title>App.tsx&#45;&gt;features/chat/index.tsx</title>
<path fill="none" stroke="#757575" d="M176.3,-436.27C186.78,-457.81 210.17,-503.48 236,-538.03 255.24,-563.77 281.21,-589.98 299.36,-607.23"/>
<polygon fill="#757575" stroke="#757575" points="296.79,-609.61 306.48,-613.9 301.57,-604.51 296.79,-609.61"/>
</g>
<!-- features/settings/index.tsx -->
<g id="node7" class="node">
<title>features/settings/index.tsx</title>
<path fill="none" stroke="#c6c5fe" d="M400.08,-258.91C400.08,-258.91 243.92,-258.91 243.92,-258.91 239.96,-258.91 236,-254.95 236,-250.99 236,-250.99 236,-243.07 236,-243.07 236,-239.12 239.96,-235.16 243.92,-235.16 243.92,-235.16 400.08,-235.16 400.08,-235.16 404.04,-235.16 408,-239.12 408,-243.07 408,-243.07 408,-250.99 408,-250.99 408,-254.95 404.04,-258.91 400.08,-258.91"/>
<text xml:space="preserve" text-anchor="middle" x="322" y="-241.61" font-family="Arial" font-size="14.00" fill="#c6c5fe">features/settings/index.tsx</text>
</g>
<!-- App.tsx&#45;&gt;features/settings/index.tsx -->
<g id="edge6" class="edge">
<title>App.tsx&#45;&gt;features/settings/index.tsx</title>
<path fill="none" stroke="#757575" d="M175.62,-411.8C185.18,-389.9 207.42,-343.27 236,-311.03 251.92,-293.07 273.58,-276.86 291.05,-265.24"/>
<polygon fill="#757575" stroke="#757575" points="292.5,-268.47 298.99,-260.1 288.69,-262.6 292.5,-268.47"/>
</g>
<!-- pages/Login.tsx -->
<g id="node8" class="node">
<title>pages/Login.tsx</title>
<path fill="none" stroke="#c6c5fe" d="M660.21,-414.91C660.21,-414.91 565.54,-414.91 565.54,-414.91 561.58,-414.91 557.62,-410.95 557.62,-406.99 557.62,-406.99 557.62,-399.07 557.62,-399.07 557.62,-395.12 561.58,-391.16 565.54,-391.16 565.54,-391.16 660.21,-391.16 660.21,-391.16 664.17,-391.16 668.12,-395.12 668.12,-399.07 668.12,-399.07 668.12,-406.99 668.12,-406.99 668.12,-410.95 664.17,-414.91 660.21,-414.91"/>
<text xml:space="preserve" text-anchor="middle" x="612.88" y="-397.61" font-family="Arial" font-size="14.00" fill="#c6c5fe">pages/Login.tsx</text>
</g>
<!-- App.tsx&#45;&gt;pages/Login.tsx -->
<g id="edge7" class="edge">
<title>App.tsx&#45;&gt;pages/Login.tsx</title>
<path fill="none" stroke="#757575" d="M200.49,-422.61C270.97,-419.25 448.5,-410.81 545.72,-406.18"/>
<polygon fill="#757575" stroke="#757575" points="545.83,-409.68 555.65,-405.71 545.49,-402.69 545.83,-409.68"/>
</g>
<!-- pages/Register.tsx -->
<g id="node9" class="node">
<title>pages/Register.tsx</title>
<path fill="none" stroke="#c6c5fe" d="M668.46,-456.91C668.46,-456.91 557.29,-456.91 557.29,-456.91 553.33,-456.91 549.38,-452.95 549.38,-448.99 549.38,-448.99 549.38,-441.07 549.38,-441.07 549.38,-437.12 553.33,-433.16 557.29,-433.16 557.29,-433.16 668.46,-433.16 668.46,-433.16 672.42,-433.16 676.38,-437.12 676.38,-441.07 676.38,-441.07 676.38,-448.99 676.38,-448.99 676.38,-452.95 672.42,-456.91 668.46,-456.91"/>
<text xml:space="preserve" text-anchor="middle" x="612.88" y="-439.61" font-family="Arial" font-size="14.00" fill="#c6c5fe">pages/Register.tsx</text>
</g>
<!-- App.tsx&#45;&gt;pages/Register.tsx -->
<g id="edge8" class="edge">
<title>App.tsx&#45;&gt;pages/Register.tsx</title>
<path fill="none" stroke="#757575" d="M200.48,-426.53C211.63,-427.41 224.39,-428.34 236,-429.03 340.65,-435.25 461.84,-439.96 537.68,-442.61"/>
<polygon fill="#757575" stroke="#757575" points="537.37,-446.1 547.48,-442.95 537.61,-439.11 537.37,-446.1"/>
</g>
<!-- components/Layout/AppDrawers.tsx -->
<g id="node12" class="node">
<title>components/Layout/AppDrawers.tsx</title>
<path fill="none" stroke="#c6c5fe" d="M1073.33,-578.91C1073.33,-578.91 855.67,-578.91 855.67,-578.91 851.71,-578.91 847.75,-574.95 847.75,-570.99 847.75,-570.99 847.75,-563.07 847.75,-563.07 847.75,-559.12 851.71,-555.16 855.67,-555.16 855.67,-555.16 1073.33,-555.16 1073.33,-555.16 1077.29,-555.16 1081.25,-559.12 1081.25,-563.07 1081.25,-563.07 1081.25,-570.99 1081.25,-570.99 1081.25,-574.95 1077.29,-578.91 1073.33,-578.91"/>
<text xml:space="preserve" text-anchor="middle" x="964.5" y="-561.61" font-family="Arial" font-size="14.00" fill="#c6c5fe">components/Layout/AppDrawers.tsx</text>
</g>
<!-- components/Layout/MainLayout.tsx&#45;&gt;components/Layout/AppDrawers.tsx -->
<g id="edge18" class="edge">
<title>components/Layout/MainLayout.tsx&#45;&gt;components/Layout/AppDrawers.tsx</title>
<path fill="none" stroke="#757575" d="M727.87,-567.03C762.4,-567.03 800.53,-567.03 835.89,-567.03"/>
<polygon fill="#757575" stroke="#757575" points="835.75,-570.53 845.75,-567.03 835.75,-563.53 835.75,-570.53"/>
</g>
<!-- components/Layout/MainContentWrapper.tsx -->
<g id="node16" class="node">
<title>components/Layout/MainContentWrapper.tsx</title>
<path fill="none" stroke="#c6c5fe" d="M1100.33,-662.91C1100.33,-662.91 828.67,-662.91 828.67,-662.91 824.71,-662.91 820.75,-658.95 820.75,-654.99 820.75,-654.99 820.75,-647.07 820.75,-647.07 820.75,-643.12 824.71,-639.16 828.67,-639.16 828.67,-639.16 1100.33,-639.16 1100.33,-639.16 1104.29,-639.16 1108.25,-643.12 1108.25,-647.07 1108.25,-647.07 1108.25,-654.99 1108.25,-654.99 1108.25,-658.95 1104.29,-662.91 1100.33,-662.91"/>
<text xml:space="preserve" text-anchor="middle" x="964.5" y="-645.61" font-family="Arial" font-size="14.00" fill="#c6c5fe">components/Layout/MainContentWrapper.tsx</text>
</g>
<!-- components/Layout/MainLayout.tsx&#45;&gt;components/Layout/MainContentWrapper.tsx -->
<g id="edge19" class="edge">
<title>components/Layout/MainLayout.tsx&#45;&gt;components/Layout/MainContentWrapper.tsx</title>
<path fill="none" stroke="#757575" d="M728.1,-574.56C746.69,-578.61 765.24,-584.51 781.75,-593.03 802.14,-603.55 797.31,-619.62 817.75,-630.03 821.05,-631.72 824.45,-633.27 827.92,-634.72"/>
<polygon fill="#757575" stroke="#757575" points="826.51,-637.93 837.1,-638.18 828.98,-631.38 826.51,-637.93"/>
</g>
<!-- components/Layout/MainHeader.tsx -->
<g id="node17" class="node">
<title>components/Layout/MainHeader.tsx</title>
<path fill="none" stroke="#c6c5fe" d="M1072.96,-620.91C1072.96,-620.91 856.04,-620.91 856.04,-620.91 852.08,-620.91 848.12,-616.95 848.12,-612.99 848.12,-612.99 848.12,-605.07 848.12,-605.07 848.12,-601.12 852.08,-597.16 856.04,-597.16 856.04,-597.16 1072.96,-597.16 1072.96,-597.16 1076.92,-597.16 1080.88,-601.12 1080.88,-605.07 1080.88,-605.07 1080.88,-612.99 1080.88,-612.99 1080.88,-616.95 1076.92,-620.91 1072.96,-620.91"/>
<text xml:space="preserve" text-anchor="middle" x="964.5" y="-603.61" font-family="Arial" font-size="14.00" fill="#c6c5fe">components/Layout/MainHeader.tsx</text>
</g>
<!-- components/Layout/MainLayout.tsx&#45;&gt;components/Layout/MainHeader.tsx -->
<g id="edge20" class="edge">
<title>components/Layout/MainLayout.tsx&#45;&gt;components/Layout/MainHeader.tsx</title>
<path fill="none" stroke="#757575" d="M716.88,-579.41C758.49,-584.41 806.66,-590.19 849.33,-595.32"/>
<polygon fill="#757575" stroke="#757575" points="848.78,-598.78 859.12,-596.49 849.61,-591.83 848.78,-598.78"/>
</g>
<!-- services/authService.ts -->
<g id="node19" class="node">
<title>services/authService.ts</title>
<path fill="none" stroke="#c6c5fe" d="M1778.08,-300.91C1778.08,-300.91 1639.17,-300.91 1639.17,-300.91 1635.21,-300.91 1631.25,-296.95 1631.25,-292.99 1631.25,-292.99 1631.25,-285.07 1631.25,-285.07 1631.25,-281.12 1635.21,-277.16 1639.17,-277.16 1639.17,-277.16 1778.08,-277.16 1778.08,-277.16 1782.04,-277.16 1786,-281.12 1786,-285.07 1786,-285.07 1786,-292.99 1786,-292.99 1786,-296.95 1782.04,-300.91 1778.08,-300.91"/>
<text xml:space="preserve" text-anchor="middle" x="1708.62" y="-283.61" font-family="Arial" font-size="14.00" fill="#c6c5fe">services/authService.ts</text>
</g>
<!-- contexts/AuthContext.tsx&#45;&gt;services/authService.ts -->
<g id="edge21" class="edge">
<title>contexts/AuthContext.tsx&#45;&gt;services/authService.ts</title>
<path fill="none" stroke="#757575" d="M1394.77,-318.37C1460.39,-312.21 1552.34,-303.59 1619.58,-297.29"/>
<polygon fill="#757575" stroke="#757575" points="1619.85,-300.78 1629.48,-296.36 1619.2,-293.81 1619.85,-300.78"/>
</g>
<!-- features/chat/types/index.ts -->
<g id="node20" class="node">
<title>features/chat/types/index.ts</title>
<path fill="none" stroke="#cfffac" d="M2936.83,-775.91C2936.83,-775.91 2772.42,-775.91 2772.42,-775.91 2768.46,-775.91 2764.5,-771.95 2764.5,-767.99 2764.5,-767.99 2764.5,-760.07 2764.5,-760.07 2764.5,-756.12 2768.46,-752.16 2772.42,-752.16 2772.42,-752.16 2936.83,-752.16 2936.83,-752.16 2940.79,-752.16 2944.75,-756.12 2944.75,-760.07 2944.75,-760.07 2944.75,-767.99 2944.75,-767.99 2944.75,-771.95 2940.79,-775.91 2936.83,-775.91"/>
<text xml:space="preserve" text-anchor="middle" x="2854.62" y="-758.61" font-family="Arial" font-size="14.00" fill="#cfffac">features/chat/types/index.ts</text>
</g>
<!-- contexts/LayoutContext.tsx&#45;&gt;features/chat/types/index.ts -->
<g id="edge22" class="edge">
<title>contexts/LayoutContext.tsx&#45;&gt;features/chat/types/index.ts</title>
<path fill="none" stroke="#757575" d="M2564.69,-681.36C2624.89,-698.58 2734.18,-729.86 2799.72,-748.61"/>
<polygon fill="#757575" stroke="#757575" points="2798.61,-751.93 2809.18,-751.32 2800.53,-745.2 2798.61,-751.93"/>
</g>
<!-- contexts/ThemeContext.tsx&#45;&gt;contexts/AuthContext.tsx -->
<g id="edge23" class="edge">
<title>contexts/ThemeContext.tsx&#45;&gt;contexts/AuthContext.tsx</title>
<path fill="none" stroke="#757575" d="M1002.52,-137.31C1032.64,-147.93 1075.82,-164.62 1111.25,-184.03 1179.07,-221.2 1251.28,-277.17 1287.46,-306.51"/>
<polygon fill="#757575" stroke="#757575" points="1285.13,-309.13 1295.09,-312.75 1289.56,-303.71 1285.13,-309.13"/>
</g>
<!-- services/userSettingsService.ts -->
<g id="node21" class="node">
<title>services/userSettingsService.ts</title>
<path fill="none" stroke="#c6c5fe" d="M1405.83,-114.91C1405.83,-114.91 1218.17,-114.91 1218.17,-114.91 1214.21,-114.91 1210.25,-110.95 1210.25,-106.99 1210.25,-106.99 1210.25,-99.07 1210.25,-99.07 1210.25,-95.12 1214.21,-91.16 1218.17,-91.16 1218.17,-91.16 1405.83,-91.16 1405.83,-91.16 1409.79,-91.16 1413.75,-95.12 1413.75,-99.07 1413.75,-99.07 1413.75,-106.99 1413.75,-106.99 1413.75,-110.95 1409.79,-114.91 1405.83,-114.91"/>
<text xml:space="preserve" text-anchor="middle" x="1312" y="-97.61" font-family="Arial" font-size="14.00" fill="#c6c5fe">services/userSettingsService.ts</text>
</g>
<!-- contexts/ThemeContext.tsx&#45;&gt;services/userSettingsService.ts -->
<g id="edge24" class="edge">
<title>contexts/ThemeContext.tsx&#45;&gt;services/userSettingsService.ts</title>
<path fill="none" stroke="#757575" d="M1054.92,-119.34C1098.79,-116.55 1152.09,-113.15 1198.68,-110.19"/>
<polygon fill="#757575" stroke="#757575" points="1198.79,-113.69 1208.54,-109.56 1198.34,-106.7 1198.79,-113.69"/>
</g>
<!-- features/chat/index.tsx&#45;&gt;components/Layout/MainLayout.tsx -->
<g id="edge44" class="edge">
<title>features/chat/index.tsx&#45;&gt;components/Layout/MainLayout.tsx</title>
<path fill="none" stroke="#757575" d="M362.21,-614.72C385.75,-607.66 416.39,-599.03 444,-593.03 464.52,-588.58 486.61,-584.59 507.82,-581.15"/>
<polygon fill="#757575" stroke="#757575" points="508.33,-584.62 517.65,-579.59 507.23,-577.7 508.33,-584.62"/>
</g>
<!-- features/chat/index.tsx&#45;&gt;components/Layout/MainContentWrapper.tsx -->
<g id="edge43" class="edge">
<title>features/chat/index.tsx&#45;&gt;components/Layout/MainContentWrapper.tsx</title>
<path fill="none" stroke="#757575" d="M397.87,-626.32C413.14,-626.2 429.08,-626.09 444,-626.03 594.11,-625.41 631.99,-615.78 781.75,-626.03 790.81,-626.65 827.84,-631.68 866.13,-637.06"/>
<polygon fill="#757575" stroke="#757575" points="865.59,-640.52 875.98,-638.45 866.57,-633.59 865.59,-640.52"/>
</g>
<!-- features/chat/components/ChatInput.tsx -->
<g id="node22" class="node">
<title>features/chat/components/ChatInput.tsx</title>
<path fill="none" stroke="#cfffac" d="M732.58,-742.91C732.58,-742.91 493.17,-742.91 493.17,-742.91 489.21,-742.91 485.25,-738.95 485.25,-734.99 485.25,-734.99 485.25,-727.07 485.25,-727.07 485.25,-723.12 489.21,-719.16 493.17,-719.16 493.17,-719.16 732.58,-719.16 732.58,-719.16 736.54,-719.16 740.5,-723.12 740.5,-727.07 740.5,-727.07 740.5,-734.99 740.5,-734.99 740.5,-738.95 736.54,-742.91 732.58,-742.91"/>
<text xml:space="preserve" text-anchor="middle" x="612.88" y="-725.61" font-family="Arial" font-size="14.00" fill="#cfffac">features/chat/components/ChatInput.tsx</text>
</g>
<!-- features/chat/index.tsx&#45;&gt;features/chat/components/ChatInput.tsx -->
<g id="edge45" class="edge">
<title>features/chat/index.tsx&#45;&gt;features/chat/components/ChatInput.tsx</title>
<path fill="none" stroke="#757575" d="M336.27,-639.39C357.31,-658.18 400.42,-693.49 444,-710.03 453.58,-713.67 463.66,-716.71 473.94,-719.24"/>
<polygon fill="#757575" stroke="#757575" points="473.15,-722.64 483.67,-721.45 474.7,-715.82 473.15,-722.64"/>
</g>
<!-- features/chat/components/MessageList.tsx -->
<g id="node29" class="node">
<title>features/chat/components/MessageList.tsx</title>
<path fill="none" stroke="#c6c5fe" d="M2271.08,-817.91C2271.08,-817.91 2013.67,-817.91 2013.67,-817.91 2009.71,-817.91 2005.75,-813.95 2005.75,-809.99 2005.75,-809.99 2005.75,-802.07 2005.75,-802.07 2005.75,-798.12 2009.71,-794.16 2013.67,-794.16 2013.67,-794.16 2271.08,-794.16 2271.08,-794.16 2275.04,-794.16 2279,-798.12 2279,-802.07 2279,-802.07 2279,-809.99 2279,-809.99 2279,-813.95 2275.04,-817.91 2271.08,-817.91"/>
<text xml:space="preserve" text-anchor="middle" x="2142.38" y="-800.61" font-family="Arial" font-size="14.00" fill="#c6c5fe">features/chat/components/MessageList.tsx</text>
</g>
<!-- features/chat/index.tsx&#45;&gt;features/chat/components/MessageList.tsx -->
<g id="edge46" class="edge">
<title>features/chat/index.tsx&#45;&gt;features/chat/components/MessageList.tsx</title>
<path fill="none" stroke="#757575" d="M330.15,-639.25C346.41,-665.67 389.04,-727.7 444,-752.03 1028.89,-1010.94 1841.45,-869.81 2075.76,-820.72"/>
<polygon fill="#757575" stroke="#757575" points="2076.26,-824.19 2085.32,-818.7 2074.81,-817.34 2076.26,-824.19"/>
</g>
<!-- features/chat/components/Modals/InspectorModal.tsx -->
<g id="node30" class="node">
<title>features/chat/components/Modals/InspectorModal.tsx</title>
<path fill="none" stroke="#cfffac" d="M773.83,-700.91C773.83,-700.91 451.92,-700.91 451.92,-700.91 447.96,-700.91 444,-696.95 444,-692.99 444,-692.99 444,-685.07 444,-685.07 444,-681.12 447.96,-677.16 451.92,-677.16 451.92,-677.16 773.83,-677.16 773.83,-677.16 777.79,-677.16 781.75,-681.12 781.75,-685.07 781.75,-685.07 781.75,-692.99 781.75,-692.99 781.75,-696.95 777.79,-700.91 773.83,-700.91"/>
<text xml:space="preserve" text-anchor="middle" x="612.88" y="-683.61" font-family="Arial" font-size="14.00" fill="#cfffac">features/chat/components/Modals/InspectorModal.tsx</text>
</g>
<!-- features/chat/index.tsx&#45;&gt;features/chat/components/Modals/InspectorModal.tsx -->
<g id="edge47" class="edge">
<title>features/chat/index.tsx&#45;&gt;features/chat/components/Modals/InspectorModal.tsx</title>
<path fill="none" stroke="#757575" d="M353.34,-639.23C377.52,-648.47 412.44,-660.79 444,-668.03 455.17,-670.6 466.84,-672.87 478.59,-674.87"/>
<polygon fill="#757575" stroke="#757575" points="477.95,-678.31 488.38,-676.47 479.07,-671.41 477.95,-678.31"/>
</g>
<!-- features/chat/components/Modals/PromptModal.tsx -->
<g id="node31" class="node">
<title>features/chat/components/Modals/PromptModal.tsx</title>
<path fill="none" stroke="#cfffac" d="M768.21,-658.91C768.21,-658.91 457.54,-658.91 457.54,-658.91 453.58,-658.91 449.62,-654.95 449.62,-650.99 449.62,-650.99 449.62,-643.07 449.62,-643.07 449.62,-639.12 453.58,-635.16 457.54,-635.16 457.54,-635.16 768.21,-635.16 768.21,-635.16 772.17,-635.16 776.12,-639.12 776.12,-643.07 776.12,-643.07 776.12,-650.99 776.12,-650.99 776.12,-654.95 772.17,-658.91 768.21,-658.91"/>
<text xml:space="preserve" text-anchor="middle" x="612.88" y="-641.61" font-family="Arial" font-size="14.00" fill="#cfffac">features/chat/components/Modals/PromptModal.tsx</text>
</g>
<!-- features/chat/index.tsx&#45;&gt;features/chat/components/Modals/PromptModal.tsx -->
<g id="edge48" class="edge">
<title>features/chat/index.tsx&#45;&gt;features/chat/components/Modals/PromptModal.tsx</title>
<path fill="none" stroke="#757575" d="M397.77,-632.21C410.43,-633.09 424.03,-634.03 438.02,-635"/>
<polygon fill="#757575" stroke="#757575" points="437.58,-638.47 447.8,-635.67 438.07,-631.49 437.58,-638.47"/>
</g>
<!-- features/chat/hooks/useChatLogic.ts -->
<g id="node33" class="node">
<title>features/chat/hooks/useChatLogic.ts</title>
<path fill="none" stroke="#c6c5fe" d="M1073.71,-536.91C1073.71,-536.91 855.29,-536.91 855.29,-536.91 851.33,-536.91 847.38,-532.95 847.38,-528.99 847.38,-528.99 847.38,-521.07 847.38,-521.07 847.38,-517.12 851.33,-513.16 855.29,-513.16 855.29,-513.16 1073.71,-513.16 1073.71,-513.16 1077.67,-513.16 1081.62,-517.12 1081.62,-521.07 1081.62,-521.07 1081.62,-528.99 1081.62,-528.99 1081.62,-532.95 1077.67,-536.91 1073.71,-536.91"/>
<text xml:space="preserve" text-anchor="middle" x="964.5" y="-519.61" font-family="Arial" font-size="14.00" fill="#c6c5fe">features/chat/hooks/useChatLogic.ts</text>
</g>
<!-- features/chat/index.tsx&#45;&gt;features/chat/hooks/useChatLogic.ts -->
<g id="edge49" class="edge">
<title>features/chat/index.tsx&#45;&gt;features/chat/hooks/useChatLogic.ts</title>
<path fill="none" stroke="#757575" d="M335.84,-614.84C356.62,-595.99 399.78,-560.45 444,-546.03 576,-503 736.91,-504.1 844.34,-511.83"/>
<polygon fill="#757575" stroke="#757575" points="843.8,-515.3 854.03,-512.56 844.33,-508.32 843.8,-515.3"/>
</g>
<!-- features/settings/index.tsx&#45;&gt;components/Layout/MainLayout.tsx -->
<g id="edge61" class="edge">
<title>features/settings/index.tsx&#45;&gt;components/Layout/MainLayout.tsx</title>
<path fill="none" stroke="#757575" d="M323.93,-259.31C328.09,-305 349.25,-466.42 444,-541.03 456.61,-550.97 471.45,-557.85 487,-562.53"/>
<polygon fill="#757575" stroke="#757575" points="485.84,-565.84 496.4,-565.04 487.64,-559.08 485.84,-565.84"/>
</g>
<!-- features/settings/index.tsx&#45;&gt;contexts/AuthContext.tsx -->
<g id="edge62" class="edge">
<title>features/settings/index.tsx&#45;&gt;contexts/AuthContext.tsx</title>
<path fill="none" stroke="#757575" d="M408.23,-257.33C420.23,-258.65 432.42,-259.93 444,-261.03 740.05,-289.24 814.7,-288.79 1111.25,-311.03 1145.99,-313.64 1184.13,-316.5 1217.69,-319.02"/>
<polygon fill="#757575" stroke="#757575" points="1217.14,-322.49 1227.37,-319.75 1217.66,-315.51 1217.14,-322.49"/>
</g>
<!-- features/settings/index.tsx&#45;&gt;components/Layout/MainContentWrapper.tsx -->
<g id="edge60" class="edge">
<title>features/settings/index.tsx&#45;&gt;components/Layout/MainContentWrapper.tsx</title>
<path fill="none" stroke="#757575" d="M325.99,-259.28C335.81,-296.7 370.65,-410.35 444,-466.03 566.87,-559.31 663.69,-446.74 781.75,-546.03 812.84,-572.18 785.53,-605.31 817.75,-630.03 819.08,-631.05 820.44,-632.04 821.82,-632.98"/>
<polygon fill="#757575" stroke="#757575" points="819.63,-635.75 830,-637.91 823.25,-629.75 819.63,-635.75"/>
</g>
<!-- features/settings/index.tsx&#45;&gt;services/userSettingsService.ts -->
<g id="edge67" class="edge">
<title>features/settings/index.tsx&#45;&gt;services/userSettingsService.ts</title>
<path fill="none" stroke="#757575" d="M327.12,-234.97C339.08,-202.14 377.22,-111.19 444,-75.03 724.17,76.66 1133.36,-41.48 1267.01,-87.08"/>
<polygon fill="#757575" stroke="#757575" points="1265.59,-90.29 1276.18,-90.25 1267.88,-83.67 1265.59,-90.29"/>
</g>
<!-- features/settings/components/AnalyticsTab.tsx -->
<g id="node35" class="node">
<title>features/settings/components/AnalyticsTab.tsx</title>
<path fill="none" stroke="#c6c5fe" d="M1103.33,-216.91C1103.33,-216.91 825.67,-216.91 825.67,-216.91 821.71,-216.91 817.75,-212.95 817.75,-208.99 817.75,-208.99 817.75,-201.07 817.75,-201.07 817.75,-197.12 821.71,-193.16 825.67,-193.16 825.67,-193.16 1103.33,-193.16 1103.33,-193.16 1107.29,-193.16 1111.25,-197.12 1111.25,-201.07 1111.25,-201.07 1111.25,-208.99 1111.25,-208.99 1111.25,-212.95 1107.29,-216.91 1103.33,-216.91"/>
<text xml:space="preserve" text-anchor="middle" x="964.5" y="-199.61" font-family="Arial" font-size="14.00" fill="#c6c5fe">features/settings/components/AnalyticsTab.tsx</text>
</g>
<!-- features/settings/index.tsx&#45;&gt;features/settings/components/AnalyticsTab.tsx -->
<g id="edge63" class="edge">
<title>features/settings/index.tsx&#45;&gt;features/settings/components/AnalyticsTab.tsx</title>
<path fill="none" stroke="#757575" d="M408.38,-241.43C509.72,-234.79 680.73,-223.58 806.22,-215.35"/>
<polygon fill="#757575" stroke="#757575" points="806.2,-218.86 815.95,-214.71 805.74,-211.87 806.2,-218.86"/>
</g>
<!-- features/settings/components/ApiKeysTab.tsx -->
<g id="node38" class="node">
<title>features/settings/components/ApiKeysTab.tsx</title>
<path fill="none" stroke="#c6c5fe" d="M1101.08,-94.91C1101.08,-94.91 827.92,-94.91 827.92,-94.91 823.96,-94.91 820,-90.95 820,-86.99 820,-86.99 820,-79.07 820,-79.07 820,-75.12 823.96,-71.16 827.92,-71.16 827.92,-71.16 1101.08,-71.16 1101.08,-71.16 1105.04,-71.16 1109,-75.12 1109,-79.07 1109,-79.07 1109,-86.99 1109,-86.99 1109,-90.95 1105.04,-94.91 1101.08,-94.91"/>
<text xml:space="preserve" text-anchor="middle" x="964.5" y="-77.61" font-family="Arial" font-size="14.00" fill="#c6c5fe">features/settings/components/ApiKeysTab.tsx</text>
</g>
<!-- features/settings/index.tsx&#45;&gt;features/settings/components/ApiKeysTab.tsx -->
<g id="edge64" class="edge">
<title>features/settings/index.tsx&#45;&gt;features/settings/components/ApiKeysTab.tsx</title>
<path fill="none" stroke="#757575" d="M332.8,-234.91C351.66,-212.55 395.44,-165.2 444,-144.03 559.16,-93.84 701.55,-80.08 808.12,-78.03"/>
<polygon fill="#757575" stroke="#757575" points="808.17,-81.53 818.11,-77.88 808.06,-74.54 808.17,-81.53"/>
</g>
<!-- features/settings/components/AppearanceTab.tsx -->
<g id="node39" class="node">
<title>features/settings/components/AppearanceTab.tsx</title>
<path fill="none" stroke="#c6c5fe" d="M761.08,-176.91C761.08,-176.91 464.67,-176.91 464.67,-176.91 460.71,-176.91 456.75,-172.95 456.75,-168.99 456.75,-168.99 456.75,-161.07 456.75,-161.07 456.75,-157.12 460.71,-153.16 464.67,-153.16 464.67,-153.16 761.08,-153.16 761.08,-153.16 765.04,-153.16 769,-157.12 769,-161.07 769,-161.07 769,-168.99 769,-168.99 769,-172.95 765.04,-176.91 761.08,-176.91"/>
<text xml:space="preserve" text-anchor="middle" x="612.88" y="-159.61" font-family="Arial" font-size="14.00" fill="#c6c5fe">features/settings/components/AppearanceTab.tsx</text>
</g>
<!-- features/settings/index.tsx&#45;&gt;features/settings/components/AppearanceTab.tsx -->
<g id="edge65" class="edge">
<title>features/settings/index.tsx&#45;&gt;features/settings/components/AppearanceTab.tsx</title>
<path fill="none" stroke="#757575" d="M345.53,-234.88C369.34,-222.55 408.32,-203.78 444,-193.03 462.21,-187.55 481.88,-183.05 501.12,-179.39"/>
<polygon fill="#757575" stroke="#757575" points="501.68,-182.85 510.89,-177.61 500.42,-175.96 501.68,-182.85"/>
</g>
<!-- features/settings/components/ProfileTab.tsx -->
<g id="node40" class="node">
<title>features/settings/components/ProfileTab.tsx</title>
<path fill="none" stroke="#c6c5fe" d="M1095.46,-258.91C1095.46,-258.91 833.54,-258.91 833.54,-258.91 829.58,-258.91 825.62,-254.95 825.62,-250.99 825.62,-250.99 825.62,-243.07 825.62,-243.07 825.62,-239.12 829.58,-235.16 833.54,-235.16 833.54,-235.16 1095.46,-235.16 1095.46,-235.16 1099.42,-235.16 1103.38,-239.12 1103.38,-243.07 1103.38,-243.07 1103.38,-250.99 1103.38,-250.99 1103.38,-254.95 1099.42,-258.91 1095.46,-258.91"/>
<text xml:space="preserve" text-anchor="middle" x="964.5" y="-241.61" font-family="Arial" font-size="14.00" fill="#c6c5fe">features/settings/components/ProfileTab.tsx</text>
</g>
<!-- features/settings/index.tsx&#45;&gt;features/settings/components/ProfileTab.tsx -->
<g id="edge66" class="edge">
<title>features/settings/index.tsx&#45;&gt;features/settings/components/ProfileTab.tsx</title>
<path fill="none" stroke="#757575" d="M408.38,-247.03C511.86,-247.03 688.01,-247.03 814.14,-247.03"/>
<polygon fill="#757575" stroke="#757575" points="813.91,-250.53 823.91,-247.03 813.91,-243.53 813.91,-250.53"/>
</g>
<!-- pages/Login.tsx&#45;&gt;contexts/AuthContext.tsx -->
<g id="edge71" class="edge">
<title>pages/Login.tsx&#45;&gt;contexts/AuthContext.tsx</title>
<path fill="none" stroke="#757575" d="M668.58,-396.99C787.37,-383.87 1070.11,-352.64 1217.7,-336.34"/>
<polygon fill="#757575" stroke="#757575" points="1217.89,-339.84 1227.45,-335.26 1217.13,-332.88 1217.89,-339.84"/>
</g>
<!-- components/Auth/LoginForm.tsx -->
<g id="node10" class="node">
<title>components/Auth/LoginForm.tsx</title>
<path fill="none" stroke="#c6c5fe" d="M1062.46,-414.91C1062.46,-414.91 866.54,-414.91 866.54,-414.91 862.58,-414.91 858.62,-410.95 858.62,-406.99 858.62,-406.99 858.62,-399.07 858.62,-399.07 858.62,-395.12 862.58,-391.16 866.54,-391.16 866.54,-391.16 1062.46,-391.16 1062.46,-391.16 1066.42,-391.16 1070.38,-395.12 1070.38,-399.07 1070.38,-399.07 1070.38,-406.99 1070.38,-406.99 1070.38,-410.95 1066.42,-414.91 1062.46,-414.91"/>
<text xml:space="preserve" text-anchor="middle" x="964.5" y="-397.61" font-family="Arial" font-size="14.00" fill="#c6c5fe">components/Auth/LoginForm.tsx</text>
</g>
<!-- pages/Login.tsx&#45;&gt;components/Auth/LoginForm.tsx -->
<g id="edge70" class="edge">
<title>pages/Login.tsx&#45;&gt;components/Auth/LoginForm.tsx</title>
<path fill="none" stroke="#757575" d="M668.5,-403.03C716.05,-403.03 786.57,-403.03 846.75,-403.03"/>
<polygon fill="#757575" stroke="#757575" points="846.73,-406.53 856.73,-403.03 846.73,-399.53 846.73,-406.53"/>
</g>
<!-- pages/Register.tsx&#45;&gt;contexts/AuthContext.tsx -->
<g id="edge73" class="edge">
<title>pages/Register.tsx&#45;&gt;contexts/AuthContext.tsx</title>
<path fill="none" stroke="#757575" d="M676.7,-457.05C794.71,-478.14 1043.7,-515.14 1111.25,-466.03 1153.2,-435.54 1108.13,-389.08 1147.25,-355.03 1166.69,-338.11 1192.49,-329.46 1217.85,-325.38"/>
<polygon fill="#757575" stroke="#757575" points="1218.12,-328.87 1227.56,-324.06 1217.18,-321.94 1218.12,-328.87"/>
</g>
<!-- components/Auth/RegisterForm.tsx -->
<g id="node11" class="node">
<title>components/Auth/RegisterForm.tsx</title>
<path fill="none" stroke="#c6c5fe" d="M1071.08,-456.91C1071.08,-456.91 857.92,-456.91 857.92,-456.91 853.96,-456.91 850,-452.95 850,-448.99 850,-448.99 850,-441.07 850,-441.07 850,-437.12 853.96,-433.16 857.92,-433.16 857.92,-433.16 1071.08,-433.16 1071.08,-433.16 1075.04,-433.16 1079,-437.12 1079,-441.07 1079,-441.07 1079,-448.99 1079,-448.99 1079,-452.95 1075.04,-456.91 1071.08,-456.91"/>
<text xml:space="preserve" text-anchor="middle" x="964.5" y="-439.61" font-family="Arial" font-size="14.00" fill="#c6c5fe">components/Auth/RegisterForm.tsx</text>
</g>
<!-- pages/Register.tsx&#45;&gt;components/Auth/RegisterForm.tsx -->
<g id="edge72" class="edge">
<title>pages/Register.tsx&#45;&gt;components/Auth/RegisterForm.tsx</title>
<path fill="none" stroke="#757575" d="M676.78,-445.03C721.76,-445.03 783.77,-445.03 838.62,-445.03"/>
<polygon fill="#757575" stroke="#757575" points="838.34,-448.53 848.34,-445.03 838.34,-441.53 838.34,-448.53"/>
</g>
<!-- components/Auth/LoginForm.tsx&#45;&gt;contexts/AuthContext.tsx -->
<g id="edge9" class="edge">
<title>components/Auth/LoginForm.tsx&#45;&gt;contexts/AuthContext.tsx</title>
<path fill="none" stroke="#757575" d="M1063.69,-390.69C1079.86,-387.2 1096.23,-382.73 1111.25,-377.03 1128.78,-370.38 1129.71,-361.67 1147.25,-355.03 1169.51,-346.61 1194.42,-340.6 1217.95,-336.33"/>
<polygon fill="#757575" stroke="#757575" points="1218.26,-339.82 1227.53,-334.68 1217.08,-332.93 1218.26,-339.82"/>
</g>
<!-- components/Auth/RegisterForm.tsx&#45;&gt;contexts/AuthContext.tsx -->
<g id="edge10" class="edge">
<title>components/Auth/RegisterForm.tsx&#45;&gt;contexts/AuthContext.tsx</title>
<path fill="none" stroke="#757575" d="M1079.45,-439.55C1090.8,-435.87 1101.65,-430.83 1111.25,-424.03 1139.47,-404.03 1119.35,-375.48 1147.25,-355.03 1167.54,-340.16 1193,-332.05 1217.75,-327.82"/>
<polygon fill="#757575" stroke="#757575" points="1218.17,-331.3 1227.55,-326.37 1217.14,-324.37 1218.17,-331.3"/>
</g>
<!-- components/Layout/AppDrawers.tsx&#45;&gt;contexts/LayoutContext.tsx -->
<g id="edge11" class="edge">
<title>components/Layout/AppDrawers.tsx&#45;&gt;contexts/LayoutContext.tsx</title>
<path fill="none" stroke="#757575" d="M1081.6,-557.8C1091.93,-554.77 1101.97,-550.91 1111.25,-546.03 1132.13,-535.05 1125.64,-516.49 1147.25,-507.03 1269.1,-453.68 2219.93,-478.72 2344.25,-526.03 2412.38,-551.96 2473.88,-615.43 2502.57,-648.4"/>
<polygon fill="#757575" stroke="#757575" points="2499.63,-650.35 2508.79,-655.68 2504.96,-645.8 2499.63,-650.35"/>
</g>
<!-- features/chat/components/ControlPanel/index.tsx -->
<g id="node13" class="node">
<title>features/chat/components/ControlPanel/index.tsx</title>
<path fill="none" stroke="#c6c5fe" d="M1459.46,-539.91C1459.46,-539.91 1164.54,-539.91 1164.54,-539.91 1160.58,-539.91 1156.62,-535.95 1156.62,-531.99 1156.62,-531.99 1156.62,-524.07 1156.62,-524.07 1156.62,-520.12 1160.58,-516.16 1164.54,-516.16 1164.54,-516.16 1459.46,-516.16 1459.46,-516.16 1463.42,-516.16 1467.38,-520.12 1467.38,-524.07 1467.38,-524.07 1467.38,-531.99 1467.38,-531.99 1467.38,-535.95 1463.42,-539.91 1459.46,-539.91"/>
<text xml:space="preserve" text-anchor="middle" x="1312" y="-522.61" font-family="Arial" font-size="14.00" fill="#c6c5fe">features/chat/components/ControlPanel/index.tsx</text>
</g>
<!-- components/Layout/AppDrawers.tsx&#45;&gt;features/chat/components/ControlPanel/index.tsx -->
<g id="edge12" class="edge">
<title>components/Layout/AppDrawers.tsx&#45;&gt;features/chat/components/ControlPanel/index.tsx</title>
<path fill="none" stroke="#757575" d="M1074.82,-554.69C1111.62,-550.54 1152.87,-545.88 1190.48,-541.64"/>
<polygon fill="#757575" stroke="#757575" points="1190.46,-545.16 1200,-540.56 1189.67,-538.21 1190.46,-545.16"/>
</g>
<!-- features/chat/components/drawer/HistorySidebar.tsx -->
<g id="node14" class="node">
<title>features/chat/components/drawer/HistorySidebar.tsx</title>
<path fill="none" stroke="#c6c5fe" d="M1468.83,-459.91C1468.83,-459.91 1155.17,-459.91 1155.17,-459.91 1151.21,-459.91 1147.25,-455.95 1147.25,-451.99 1147.25,-451.99 1147.25,-444.07 1147.25,-444.07 1147.25,-440.12 1151.21,-436.16 1155.17,-436.16 1155.17,-436.16 1468.83,-436.16 1468.83,-436.16 1472.79,-436.16 1476.75,-440.12 1476.75,-444.07 1476.75,-444.07 1476.75,-451.99 1476.75,-451.99 1476.75,-455.95 1472.79,-459.91 1468.83,-459.91"/>
<text xml:space="preserve" text-anchor="middle" x="1312" y="-442.61" font-family="Arial" font-size="14.00" fill="#c6c5fe">features/chat/components/drawer/HistorySidebar.tsx</text>
</g>
<!-- components/Layout/AppDrawers.tsx&#45;&gt;features/chat/components/drawer/HistorySidebar.tsx -->
<g id="edge13" class="edge">
<title>components/Layout/AppDrawers.tsx&#45;&gt;features/chat/components/drawer/HistorySidebar.tsx</title>
<path fill="none" stroke="#757575" d="M1081.41,-561.1C1092.07,-557.44 1102.23,-552.54 1111.25,-546.03 1140.26,-525.1 1118.39,-495.18 1147.25,-474.03 1151.73,-470.75 1156.47,-467.81 1161.39,-465.19"/>
<polygon fill="#757575" stroke="#757575" points="1162.88,-468.36 1170.39,-460.89 1159.86,-462.05 1162.88,-468.36"/>
</g>
<!-- features/chat/components/ControlPanel/ManualContextTab.tsx -->
<g id="node25" class="node">
<title>features/chat/components/ControlPanel/ManualContextTab.tsx</title>
<path fill="none" stroke="#c6c5fe" d="M1896.58,-539.91C1896.58,-539.91 1520.67,-539.91 1520.67,-539.91 1516.71,-539.91 1512.75,-535.95 1512.75,-531.99 1512.75,-531.99 1512.75,-524.07 1512.75,-524.07 1512.75,-520.12 1516.71,-516.16 1520.67,-516.16 1520.67,-516.16 1896.58,-516.16 1896.58,-516.16 1900.54,-516.16 1904.5,-520.12 1904.5,-524.07 1904.5,-524.07 1904.5,-531.99 1904.5,-531.99 1904.5,-535.95 1900.54,-539.91 1896.58,-539.91"/>
<text xml:space="preserve" text-anchor="middle" x="1708.62" y="-522.61" font-family="Arial" font-size="14.00" fill="#c6c5fe">features/chat/components/ControlPanel/ManualContextTab.tsx</text>
</g>
<!-- features/chat/components/ControlPanel/index.tsx&#45;&gt;features/chat/components/ControlPanel/ManualContextTab.tsx -->
<g id="edge31" class="edge">
<title>features/chat/components/ControlPanel/index.tsx&#45;&gt;features/chat/components/ControlPanel/ManualContextTab.tsx</title>
<path fill="none" stroke="#757575" d="M1467.83,-528.03C1478.85,-528.03 1490.04,-528.03 1501.28,-528.03"/>
<polygon fill="#757575" stroke="#757575" points="1501.01,-531.53 1511.01,-528.03 1501.01,-524.53 1501.01,-531.53"/>
</g>
<!-- features/chat/components/ControlPanel/useControlPanelLogic.ts -->
<g id="node27" class="node">
<title>features/chat/components/ControlPanel/useControlPanelLogic.ts</title>
<path fill="none" stroke="#c6c5fe" d="M2336.33,-609.91C2336.33,-609.91 1948.42,-609.91 1948.42,-609.91 1944.46,-609.91 1940.5,-605.95 1940.5,-601.99 1940.5,-601.99 1940.5,-594.07 1940.5,-594.07 1940.5,-590.12 1944.46,-586.16 1948.42,-586.16 1948.42,-586.16 2336.33,-586.16 2336.33,-586.16 2340.29,-586.16 2344.25,-590.12 2344.25,-594.07 2344.25,-594.07 2344.25,-601.99 2344.25,-601.99 2344.25,-605.95 2340.29,-609.91 2336.33,-609.91"/>
<text xml:space="preserve" text-anchor="middle" x="2142.38" y="-592.61" font-family="Arial" font-size="14.00" fill="#c6c5fe">features/chat/components/ControlPanel/useControlPanelLogic.ts</text>
</g>
<!-- features/chat/components/ControlPanel/index.tsx&#45;&gt;features/chat/components/ControlPanel/useControlPanelLogic.ts -->
<g id="edge33" class="edge">
<title>features/chat/components/ControlPanel/index.tsx&#45;&gt;features/chat/components/ControlPanel/useControlPanelLogic.ts</title>
<path fill="none" stroke="#757575" d="M1442.05,-540.37C1454.12,-543.92 1465.89,-548.4 1476.75,-554.03 1497.12,-564.59 1491.66,-581.99 1512.75,-591.03 1590.93,-624.56 1806.99,-619.85 1964.02,-611.04"/>
<polygon fill="#757575" stroke="#757575" points="1963.92,-614.55 1973.71,-610.49 1963.52,-607.56 1963.92,-614.55"/>
</g>
<!-- features/chat/components/ControlPanel/ParametersTab.tsx -->
<g id="node28" class="node">
<title>features/chat/components/ControlPanel/ParametersTab.tsx</title>
<path fill="none" stroke="#c6c5fe" d="M1886.08,-581.91C1886.08,-581.91 1531.17,-581.91 1531.17,-581.91 1527.21,-581.91 1523.25,-577.95 1523.25,-573.99 1523.25,-573.99 1523.25,-566.07 1523.25,-566.07 1523.25,-562.12 1527.21,-558.16 1531.17,-558.16 1531.17,-558.16 1886.08,-558.16 1886.08,-558.16 1890.04,-558.16 1894,-562.12 1894,-566.07 1894,-566.07 1894,-573.99 1894,-573.99 1894,-577.95 1890.04,-581.91 1886.08,-581.91"/>
<text xml:space="preserve" text-anchor="middle" x="1708.62" y="-564.61" font-family="Arial" font-size="14.00" fill="#c6c5fe">features/chat/components/ControlPanel/ParametersTab.tsx</text>
</g>
<!-- features/chat/components/ControlPanel/index.tsx&#45;&gt;features/chat/components/ControlPanel/ParametersTab.tsx -->
<g id="edge32" class="edge">
<title>features/chat/components/ControlPanel/index.tsx&#45;&gt;features/chat/components/ControlPanel/ParametersTab.tsx</title>
<path fill="none" stroke="#757575" d="M1429.27,-540.41C1476.72,-545.46 1531.75,-551.31 1580.29,-556.48"/>
<polygon fill="#757575" stroke="#757575" points="1579.69,-559.94 1590,-557.51 1580.43,-552.98 1579.69,-559.94"/>
</g>
<!-- features/chat/components/drawer/HistorySidebar.tsx&#45;&gt;contexts/LayoutContext.tsx -->
<g id="edge37" class="edge">
<title>features/chat/components/drawer/HistorySidebar.tsx&#45;&gt;contexts/LayoutContext.tsx</title>
<path fill="none" stroke="#757575" d="M1476.99,-445.1C1748.17,-441.29 2267.85,-438.83 2344.25,-474.03 2424.52,-511.02 2483.89,-604.02 2507.9,-646.83"/>
<polygon fill="#757575" stroke="#757575" points="2504.76,-648.38 2512.63,-655.47 2510.9,-645.02 2504.76,-648.38"/>
</g>
<!-- services/chatHistoryService.ts -->
<g id="node32" class="node">
<title>services/chatHistoryService.ts</title>
<path fill="none" stroke="#c6c5fe" d="M1798.71,-419.91C1798.71,-419.91 1618.54,-419.91 1618.54,-419.91 1614.58,-419.91 1610.62,-415.95 1610.62,-411.99 1610.62,-411.99 1610.62,-404.07 1610.62,-404.07 1610.62,-400.12 1614.58,-396.16 1618.54,-396.16 1618.54,-396.16 1798.71,-396.16 1798.71,-396.16 1802.67,-396.16 1806.62,-400.12 1806.62,-404.07 1806.62,-404.07 1806.62,-411.99 1806.62,-411.99 1806.62,-415.95 1802.67,-419.91 1798.71,-419.91"/>
<text xml:space="preserve" text-anchor="middle" x="1708.62" y="-402.61" font-family="Arial" font-size="14.00" fill="#c6c5fe">services/chatHistoryService.ts</text>
</g>
<!-- features/chat/components/drawer/HistorySidebar.tsx&#45;&gt;services/chatHistoryService.ts -->
<g id="edge38" class="edge">
<title>features/chat/components/drawer/HistorySidebar.tsx&#45;&gt;services/chatHistoryService.ts</title>
<path fill="none" stroke="#757575" d="M1434.89,-435.68C1487.3,-430.37 1548.07,-424.21 1598.93,-419.05"/>
<polygon fill="#757575" stroke="#757575" points="1599.19,-422.54 1608.79,-418.05 1598.48,-415.58 1599.19,-422.54"/>
</g>
<!-- components/Layout/LayoutToggleButton.tsx -->
<g id="node15" class="node">
<title>components/Layout/LayoutToggleButton.tsx</title>
<path fill="none" stroke="#cfffac" d="M1443.33,-619.91C1443.33,-619.91 1180.67,-619.91 1180.67,-619.91 1176.71,-619.91 1172.75,-615.95 1172.75,-611.99 1172.75,-611.99 1172.75,-604.07 1172.75,-604.07 1172.75,-600.12 1176.71,-596.16 1180.67,-596.16 1180.67,-596.16 1443.33,-596.16 1443.33,-596.16 1447.29,-596.16 1451.25,-600.12 1451.25,-604.07 1451.25,-604.07 1451.25,-611.99 1451.25,-611.99 1451.25,-615.95 1447.29,-619.91 1443.33,-619.91"/>
<text xml:space="preserve" text-anchor="middle" x="1312" y="-602.61" font-family="Arial" font-size="14.00" fill="#cfffac">components/Layout/LayoutToggleButton.tsx</text>
</g>
<!-- components/Layout/MainContentWrapper.tsx&#45;&gt;contexts/LayoutContext.tsx -->
<g id="edge14" class="edge">
<title>components/Layout/MainContentWrapper.tsx&#45;&gt;contexts/LayoutContext.tsx</title>
<path fill="none" stroke="#757575" d="M997.39,-663.34C1033.22,-676.44 1093.4,-696.34 1147.25,-704.03 1410.58,-741.64 2079.54,-730.19 2344.25,-704.03 2383.25,-700.18 2426.43,-691.62 2460.18,-683.93"/>
<polygon fill="#757575" stroke="#757575" points="2460.83,-687.37 2469.78,-681.7 2459.24,-680.55 2460.83,-687.37"/>
</g>
<!-- components/Layout/MainHeader.tsx&#45;&gt;contexts/LayoutContext.tsx -->
<g id="edge17" class="edge">
<title>components/Layout/MainHeader.tsx&#45;&gt;contexts/LayoutContext.tsx</title>
<path fill="none" stroke="#757575" d="M1081.36,-617.91C1091.79,-621.01 1101.92,-624.98 1111.25,-630.03 1132.57,-641.59 1125.16,-661.03 1147.25,-671.03 1262.03,-723 2124.12,-687.72 2420.17,-673.9"/>
<polygon fill="#757575" stroke="#757575" points="2419.97,-677.41 2429.79,-673.45 2419.64,-670.42 2419.97,-677.41"/>
</g>
<!-- components/Layout/MainHeader.tsx&#45;&gt;components/Layout/LayoutToggleButton.tsx -->
<g id="edge15" class="edge">
<title>components/Layout/MainHeader.tsx&#45;&gt;components/Layout/LayoutToggleButton.tsx</title>
<path fill="none" stroke="#757575" d="M1081.03,-608.7C1106.69,-608.62 1134.25,-608.54 1161.06,-608.47"/>
<polygon fill="#757575" stroke="#757575" points="1161,-611.97 1170.99,-608.44 1160.98,-604.97 1161,-611.97"/>
</g>
<!-- components/Logo.tsx -->
<g id="node18" class="node">
<title>components/Logo.tsx</title>
<path fill="none" stroke="#cfffac" d="M1376.58,-661.91C1376.58,-661.91 1247.42,-661.91 1247.42,-661.91 1243.46,-661.91 1239.5,-657.95 1239.5,-653.99 1239.5,-653.99 1239.5,-646.07 1239.5,-646.07 1239.5,-642.12 1243.46,-638.16 1247.42,-638.16 1247.42,-638.16 1376.58,-638.16 1376.58,-638.16 1380.54,-638.16 1384.5,-642.12 1384.5,-646.07 1384.5,-646.07 1384.5,-653.99 1384.5,-653.99 1384.5,-657.95 1380.54,-661.91 1376.58,-661.91"/>
<text xml:space="preserve" text-anchor="middle" x="1312" y="-644.61" font-family="Arial" font-size="14.00" fill="#cfffac">components/Logo.tsx</text>
</g>
<!-- components/Layout/MainHeader.tsx&#45;&gt;components/Logo.tsx -->
<g id="edge16" class="edge">
<title>components/Layout/MainHeader.tsx&#45;&gt;components/Logo.tsx</title>
<path fill="none" stroke="#757575" d="M1069.63,-621.39C1120.31,-627.4 1180.39,-634.53 1227.93,-640.18"/>
<polygon fill="#757575" stroke="#757575" points="1227.27,-643.62 1237.61,-641.32 1228.1,-636.67 1227.27,-643.62"/>
</g>
<!-- services/api.ts -->
<g id="node44" class="node">
<title>services/api.ts</title>
<path fill="none" stroke="#cfffac" d="M2185.21,-279.91C2185.21,-279.91 2099.54,-279.91 2099.54,-279.91 2095.58,-279.91 2091.62,-275.95 2091.62,-271.99 2091.62,-271.99 2091.62,-264.07 2091.62,-264.07 2091.62,-260.12 2095.58,-256.16 2099.54,-256.16 2099.54,-256.16 2185.21,-256.16 2185.21,-256.16 2189.17,-256.16 2193.12,-260.12 2193.12,-264.07 2193.12,-264.07 2193.12,-271.99 2193.12,-271.99 2193.12,-275.95 2189.17,-279.91 2185.21,-279.91"/>
<text xml:space="preserve" text-anchor="middle" x="2142.38" y="-262.61" font-family="Arial" font-size="14.00" fill="#cfffac">services/api.ts</text>
</g>
<!-- services/authService.ts&#45;&gt;services/api.ts -->
<g id="edge75" class="edge">
<title>services/authService.ts&#45;&gt;services/api.ts</title>
<path fill="none" stroke="#757575" d="M1786.32,-285.3C1870.1,-281.23 2002.64,-274.78 2079.88,-271.02"/>
<polygon fill="#757575" stroke="#757575" points="2079.99,-274.52 2089.81,-270.54 2079.65,-267.53 2079.99,-274.52"/>
</g>
<!-- services/userSettingsService.ts&#45;&gt;services/api.ts -->
<g id="edge79" class="edge">
<title>services/userSettingsService.ts&#45;&gt;services/api.ts</title>
<path fill="none" stroke="#757575" d="M1414.12,-110.54C1532.83,-120.81 1735.04,-142.84 1904.5,-184.03 1975.94,-201.4 2055.95,-232.29 2102.31,-251.38"/>
<polygon fill="#757575" stroke="#757575" points="2100.81,-254.55 2111.39,-255.16 2103.49,-248.09 2100.81,-254.55"/>
</g>
<!-- features/chat/components/ChatMessage.tsx -->
<g id="node23" class="node">
<title>features/chat/components/ChatMessage.tsx</title>
<path fill="none" stroke="#c6c5fe" d="M2653.08,-817.91C2653.08,-817.91 2388.17,-817.91 2388.17,-817.91 2384.21,-817.91 2380.25,-813.95 2380.25,-809.99 2380.25,-809.99 2380.25,-802.07 2380.25,-802.07 2380.25,-798.12 2384.21,-794.16 2388.17,-794.16 2388.17,-794.16 2653.08,-794.16 2653.08,-794.16 2657.04,-794.16 2661,-798.12 2661,-802.07 2661,-802.07 2661,-809.99 2661,-809.99 2661,-813.95 2657.04,-817.91 2653.08,-817.91"/>
<text xml:space="preserve" text-anchor="middle" x="2520.62" y="-800.61" font-family="Arial" font-size="14.00" fill="#c6c5fe">features/chat/components/ChatMessage.tsx</text>
</g>
<!-- features/chat/components/ChatMessage.tsx&#45;&gt;features/chat/types/index.ts -->
<g id="edge26" class="edge">
<title>features/chat/components/ChatMessage.tsx&#45;&gt;features/chat/types/index.ts</title>
<path fill="none" stroke="#757575" d="M2619.44,-793.66C2661.49,-788.34 2710.61,-782.13 2752.97,-776.77"/>
<polygon fill="#757575" stroke="#757575" points="2753.17,-780.27 2762.66,-775.54 2752.3,-773.32 2753.17,-780.27"/>
</g>
<!-- features/chat/components/MarkdownRenderer.tsx -->
<g id="node24" class="node">
<title>features/chat/components/MarkdownRenderer.tsx</title>
<path fill="none" stroke="#cfffac" d="M3004.33,-817.91C3004.33,-817.91 2704.92,-817.91 2704.92,-817.91 2700.96,-817.91 2697,-813.95 2697,-809.99 2697,-809.99 2697,-802.07 2697,-802.07 2697,-798.12 2700.96,-794.16 2704.92,-794.16 2704.92,-794.16 3004.33,-794.16 3004.33,-794.16 3008.29,-794.16 3012.25,-798.12 3012.25,-802.07 3012.25,-802.07 3012.25,-809.99 3012.25,-809.99 3012.25,-813.95 3008.29,-817.91 3004.33,-817.91"/>
<text xml:space="preserve" text-anchor="middle" x="2854.62" y="-800.61" font-family="Arial" font-size="14.00" fill="#cfffac">features/chat/components/MarkdownRenderer.tsx</text>
</g>
<!-- features/chat/components/ChatMessage.tsx&#45;&gt;features/chat/components/MarkdownRenderer.tsx -->
<g id="edge25" class="edge">
<title>features/chat/components/ChatMessage.tsx&#45;&gt;features/chat/components/MarkdownRenderer.tsx</title>
<path fill="none" stroke="#757575" d="M2661.46,-806.03C2669.35,-806.03 2677.32,-806.03 2685.3,-806.03"/>
<polygon fill="#757575" stroke="#757575" points="2685.06,-809.53 2695.06,-806.03 2685.06,-802.53 2685.06,-809.53"/>
</g>
<!-- features/chat/components/ControlPanel/PanelSection.tsx -->
<g id="node26" class="node">
<title>features/chat/components/ControlPanel/PanelSection.tsx</title>
<path fill="none" stroke="#cfffac" d="M2313.46,-558.91C2313.46,-558.91 1971.29,-558.91 1971.29,-558.91 1967.33,-558.91 1963.38,-554.95 1963.38,-550.99 1963.38,-550.99 1963.38,-543.07 1963.38,-543.07 1963.38,-539.12 1967.33,-535.16 1971.29,-535.16 1971.29,-535.16 2313.46,-535.16 2313.46,-535.16 2317.42,-535.16 2321.38,-539.12 2321.38,-543.07 2321.38,-543.07 2321.38,-550.99 2321.38,-550.99 2321.38,-554.95 2317.42,-558.91 2313.46,-558.91"/>
<text xml:space="preserve" text-anchor="middle" x="2142.38" y="-541.61" font-family="Arial" font-size="14.00" fill="#cfffac">features/chat/components/ControlPanel/PanelSection.tsx</text>
</g>
<!-- features/chat/components/ControlPanel/ManualContextTab.tsx&#45;&gt;features/chat/components/ControlPanel/PanelSection.tsx -->
<g id="edge27" class="edge">
<title>features/chat/components/ControlPanel/ManualContextTab.tsx&#45;&gt;features/chat/components/ControlPanel/PanelSection.tsx</title>
<path fill="none" stroke="#757575" d="M1904.97,-536.63C1920.52,-537.31 1936.2,-538 1951.7,-538.69"/>
<polygon fill="#757575" stroke="#757575" points="1951.3,-542.17 1961.44,-539.11 1951.61,-535.18 1951.3,-542.17"/>
</g>
<!-- features/chat/components/ControlPanel/ManualContextTab.tsx&#45;&gt;features/chat/components/ControlPanel/useControlPanelLogic.ts -->
<g id="edge28" class="edge">
<title>features/chat/components/ControlPanel/ManualContextTab.tsx&#45;&gt;features/chat/components/ControlPanel/useControlPanelLogic.ts</title>
<path fill="none" stroke="#757575" d="M1870.14,-540.39C1881.87,-542.8 1893.44,-545.65 1904.5,-549.03 1921.8,-554.32 1923.31,-562.39 1940.5,-568.03 1960.4,-574.56 1981.88,-579.67 2003.13,-583.68"/>
<polygon fill="#757575" stroke="#757575" points="2002.27,-587.08 2012.73,-585.4 2003.51,-580.19 2002.27,-587.08"/>
</g>
<!-- features/chat/components/ControlPanel/useControlPanelLogic.ts&#45;&gt;contexts/LayoutContext.tsx -->
<g id="edge34" class="edge">
<title>features/chat/components/ControlPanel/useControlPanelLogic.ts&#45;&gt;contexts/LayoutContext.tsx</title>
<path fill="none" stroke="#757575" d="M2214.09,-610.36C2252.61,-617.16 2301.08,-625.86 2344.25,-634.03 2378.5,-640.52 2416.43,-648.05 2448.24,-654.46"/>
<polygon fill="#757575" stroke="#757575" points="2447.24,-657.82 2457.73,-656.37 2448.62,-650.96 2447.24,-657.82"/>
</g>
<!-- features/chat/components/ControlPanel/ParametersTab.tsx&#45;&gt;features/chat/components/ControlPanel/PanelSection.tsx -->
<g id="edge29" class="edge">
<title>features/chat/components/ControlPanel/ParametersTab.tsx&#45;&gt;features/chat/components/ControlPanel/PanelSection.tsx</title>
<path fill="none" stroke="#757575" d="M1894.29,-560.2C1913.25,-559.19 1932.54,-558.16 1951.56,-557.14"/>
<polygon fill="#757575" stroke="#757575" points="1951.72,-560.64 1961.52,-556.61 1951.35,-553.65 1951.72,-560.64"/>
</g>
<!-- features/chat/components/ControlPanel/ParametersTab.tsx&#45;&gt;features/chat/components/ControlPanel/useControlPanelLogic.ts -->
<g id="edge30" class="edge">
<title>features/chat/components/ControlPanel/ParametersTab.tsx&#45;&gt;features/chat/components/ControlPanel/useControlPanelLogic.ts</title>
<path fill="none" stroke="#757575" d="M1894.29,-582.01C1909.17,-582.97 1924.24,-583.95 1939.23,-584.92"/>
<polygon fill="#757575" stroke="#757575" points="1938.95,-588.41 1949.16,-585.57 1939.41,-581.43 1938.95,-588.41"/>
</g>
<!-- features/chat/components/MessageList.tsx&#45;&gt;features/chat/types/index.ts -->
<g id="edge36" class="edge">
<title>features/chat/components/MessageList.tsx&#45;&gt;features/chat/types/index.ts</title>
<path fill="none" stroke="#757575" d="M2271.15,-793.67C2306.47,-790.53 2344.82,-787.39 2380.25,-785.03 2508.62,-776.5 2656.81,-770.55 2752.7,-767.22"/>
<polygon fill="#757575" stroke="#757575" points="2752.74,-770.72 2762.62,-766.88 2752.5,-763.73 2752.74,-770.72"/>
</g>
<!-- features/chat/components/MessageList.tsx&#45;&gt;features/chat/components/ChatMessage.tsx -->
<g id="edge35" class="edge">
<title>features/chat/components/MessageList.tsx&#45;&gt;features/chat/components/ChatMessage.tsx</title>
<path fill="none" stroke="#757575" d="M2279.48,-806.03C2308.49,-806.03 2339.29,-806.03 2368.81,-806.03"/>
<polygon fill="#757575" stroke="#757575" points="2368.55,-809.53 2378.55,-806.03 2368.55,-802.53 2368.55,-809.53"/>
</g>
<!-- services/chatHistoryService.ts&#45;&gt;services/api.ts -->
<g id="edge76" class="edge">
<title>services/chatHistoryService.ts&#45;&gt;services/api.ts</title>
<path fill="none" stroke="#757575" d="M1793.57,-395.72C1828.32,-389.58 1868.77,-381.07 1904.5,-370.03 1979.16,-346.97 2062.1,-307.95 2107.34,-285.45"/>
<polygon fill="#757575" stroke="#757575" points="2108.75,-288.66 2116.12,-281.05 2105.61,-282.4 2108.75,-288.66"/>
</g>
<!-- features/chat/hooks/useChatLogic.ts&#45;&gt;contexts/AuthContext.tsx -->
<g id="edge39" class="edge">
<title>features/chat/hooks/useChatLogic.ts&#45;&gt;contexts/AuthContext.tsx</title>
<path fill="none" stroke="#757575" d="M1082.09,-517.25C1092.81,-512.85 1102.8,-506.93 1111.25,-499.03 1159.47,-454.01 1099.01,-400.03 1147.25,-355.03 1166.29,-337.28 1192.22,-328.43 1217.84,-324.42"/>
<polygon fill="#757575" stroke="#757575" points="1218.2,-327.91 1227.67,-323.14 1217.3,-320.97 1218.2,-327.91"/>
</g>
<!-- features/chat/hooks/useChatLogic.ts&#45;&gt;contexts/LayoutContext.tsx -->
<g id="edge40" class="edge">
<title>features/chat/hooks/useChatLogic.ts&#45;&gt;contexts/LayoutContext.tsx</title>
<path fill="none" stroke="#757575" d="M1056.53,-537.35C1085.51,-541.19 1117.72,-545.38 1147.25,-549.03 1293.55,-567.13 1341.72,-527.89 1476.75,-587.03 1496.09,-595.5 1493.15,-610.19 1512.75,-618.03 1595.39,-651.11 2182.43,-663.82 2420.1,-667.65"/>
<polygon fill="#757575" stroke="#757575" points="2419.92,-671.15 2429.98,-667.81 2420.04,-664.15 2419.92,-671.15"/>
</g>
<!-- features/chat/hooks/useChatLogic.ts&#45;&gt;services/chatHistoryService.ts -->
<g id="edge41" class="edge">
<title>features/chat/hooks/useChatLogic.ts&#45;&gt;services/chatHistoryService.ts</title>
<path fill="none" stroke="#757575" d="M1081.91,-514.73C1092.41,-510.78 1102.4,-505.65 1111.25,-499.03 1139.91,-477.61 1117.14,-446.36 1147.25,-427.03 1219.39,-380.74 1457.46,-389.15 1599.03,-398.9"/>
<polygon fill="#757575" stroke="#757575" points="1598.59,-402.38 1608.81,-399.59 1599.08,-395.4 1598.59,-402.38"/>
</g>
<!-- services/chatService.ts -->
<g id="node34" class="node">
<title>services/chatService.ts</title>
<path fill="none" stroke="#c6c5fe" d="M1777.71,-360.91C1777.71,-360.91 1639.54,-360.91 1639.54,-360.91 1635.58,-360.91 1631.62,-356.95 1631.62,-352.99 1631.62,-352.99 1631.62,-345.07 1631.62,-345.07 1631.62,-341.12 1635.58,-337.16 1639.54,-337.16 1639.54,-337.16 1777.71,-337.16 1777.71,-337.16 1781.67,-337.16 1785.62,-341.12 1785.62,-345.07 1785.62,-345.07 1785.62,-352.99 1785.62,-352.99 1785.62,-356.95 1781.67,-360.91 1777.71,-360.91"/>
<text xml:space="preserve" text-anchor="middle" x="1708.62" y="-343.61" font-family="Arial" font-size="14.00" fill="#c6c5fe">services/chatService.ts</text>
</g>
<!-- features/chat/hooks/useChatLogic.ts&#45;&gt;services/chatService.ts -->
<g id="edge42" class="edge">
<title>features/chat/hooks/useChatLogic.ts&#45;&gt;services/chatService.ts</title>
<path fill="none" stroke="#757575" d="M1076.53,-512.73C1089.24,-507.76 1101.21,-501.05 1111.25,-492.03 1147.96,-459.08 1108.1,-417.05 1147.25,-387.03 1183.8,-359.01 1471.68,-351.65 1619.97,-349.72"/>
<polygon fill="#757575" stroke="#757575" points="1619.8,-353.22 1629.75,-349.6 1619.71,-346.22 1619.8,-353.22"/>
</g>
<!-- services/chatService.ts&#45;&gt;services/api.ts -->
<g id="edge77" class="edge">
<title>services/chatService.ts&#45;&gt;services/api.ts</title>
<path fill="none" stroke="#757575" d="M1775.2,-336.73C1858.11,-321.18 1999.74,-294.6 2080.41,-279.47"/>
<polygon fill="#757575" stroke="#757575" points="2080.7,-282.98 2089.89,-277.69 2079.41,-276.1 2080.7,-282.98"/>
</g>
<!-- features/settings/components/SettingsSection.tsx -->
<g id="node36" class="node">
<title>features/settings/components/SettingsSection.tsx</title>
<path fill="none" stroke="#cfffac" d="M1459.83,-176.91C1459.83,-176.91 1164.17,-176.91 1164.17,-176.91 1160.21,-176.91 1156.25,-172.95 1156.25,-168.99 1156.25,-168.99 1156.25,-161.07 1156.25,-161.07 1156.25,-157.12 1160.21,-153.16 1164.17,-153.16 1164.17,-153.16 1459.83,-153.16 1459.83,-153.16 1463.79,-153.16 1467.75,-157.12 1467.75,-161.07 1467.75,-161.07 1467.75,-168.99 1467.75,-168.99 1467.75,-172.95 1463.79,-176.91 1459.83,-176.91"/>
<text xml:space="preserve" text-anchor="middle" x="1312" y="-159.61" font-family="Arial" font-size="14.00" fill="#cfffac">features/settings/components/SettingsSection.tsx</text>
</g>
<!-- features/settings/components/AnalyticsTab.tsx&#45;&gt;features/settings/components/SettingsSection.tsx -->
<g id="edge50" class="edge">
<title>features/settings/components/AnalyticsTab.tsx&#45;&gt;features/settings/components/SettingsSection.tsx</title>
<path fill="none" stroke="#757575" d="M1071.98,-192.71C1110.32,-188.27 1153.79,-183.23 1193.05,-178.69"/>
<polygon fill="#757575" stroke="#757575" points="1193.24,-182.19 1202.77,-177.56 1192.44,-175.24 1193.24,-182.19"/>
</g>
<!-- services/analyticsService.ts -->
<g id="node37" class="node">
<title>services/analyticsService.ts</title>
<path fill="none" stroke="#c6c5fe" d="M1791.21,-216.91C1791.21,-216.91 1626.04,-216.91 1626.04,-216.91 1622.08,-216.91 1618.12,-212.95 1618.12,-208.99 1618.12,-208.99 1618.12,-201.07 1618.12,-201.07 1618.12,-197.12 1622.08,-193.16 1626.04,-193.16 1626.04,-193.16 1791.21,-193.16 1791.21,-193.16 1795.17,-193.16 1799.12,-197.12 1799.12,-201.07 1799.12,-201.07 1799.12,-208.99 1799.12,-208.99 1799.12,-212.95 1795.17,-216.91 1791.21,-216.91"/>
<text xml:space="preserve" text-anchor="middle" x="1708.62" y="-199.61" font-family="Arial" font-size="14.00" fill="#c6c5fe">services/analyticsService.ts</text>
</g>
<!-- features/settings/components/AnalyticsTab.tsx&#45;&gt;services/analyticsService.ts -->
<g id="edge51" class="edge">
<title>features/settings/components/AnalyticsTab.tsx&#45;&gt;services/analyticsService.ts</title>
<path fill="none" stroke="#757575" d="M1111.68,-205.03C1257.81,-205.03 1478.65,-205.03 1606.45,-205.03"/>
<polygon fill="#757575" stroke="#757575" points="1606.25,-208.53 1616.25,-205.03 1606.25,-201.53 1606.25,-208.53"/>
</g>
<!-- services/analyticsService.ts&#45;&gt;services/api.ts -->
<g id="edge74" class="edge">
<title>services/analyticsService.ts&#45;&gt;services/api.ts</title>
<path fill="none" stroke="#757575" d="M1799.53,-213.43C1832.59,-216.86 1870.31,-221.16 1904.5,-226.03 1964.41,-234.56 2032.38,-246.89 2080.1,-255.98"/>
<polygon fill="#757575" stroke="#757575" points="2079.2,-259.38 2089.68,-257.82 2080.52,-252.5 2079.2,-259.38"/>
</g>
<!-- features/settings/components/ApiKeysTab.tsx&#45;&gt;services/userSettingsService.ts -->
<g id="edge53" class="edge">
<title>features/settings/components/ApiKeysTab.tsx&#45;&gt;services/userSettingsService.ts</title>
<path fill="none" stroke="#757575" d="M1109.02,-91.34C1138.89,-93.07 1169.96,-94.87 1198.52,-96.52"/>
<polygon fill="#757575" stroke="#757575" points="1198.06,-100 1208.24,-97.08 1198.46,-93.01 1198.06,-100"/>
</g>
<!-- features/settings/components/ApiKeysTab.tsx&#45;&gt;features/settings/components/SettingsSection.tsx -->
<g id="edge52" class="edge">
<title>features/settings/components/ApiKeysTab.tsx&#45;&gt;features/settings/components/SettingsSection.tsx</title>
<path fill="none" stroke="#757575" d="M1079.44,-95.33C1090.32,-97.73 1101.08,-100.6 1111.25,-104.03 1128.59,-109.88 1130.23,-117.31 1147.25,-124.03 1174.92,-134.96 1206.4,-143.67 1234.31,-150.2"/>
<polygon fill="#757575" stroke="#757575" points="1233.22,-153.54 1243.75,-152.35 1234.77,-146.72 1233.22,-153.54"/>
</g>
<!-- features/settings/components/AppearanceTab.tsx&#45;&gt;contexts/ThemeContext.tsx -->
<g id="edge54" class="edge">
<title>features/settings/components/AppearanceTab.tsx&#45;&gt;contexts/ThemeContext.tsx</title>
<path fill="none" stroke="#757575" d="M721.63,-152.71C766.57,-147.56 818.48,-141.62 862.67,-136.57"/>
<polygon fill="#757575" stroke="#757575" points="862.98,-140.06 872.52,-135.44 862.18,-133.1 862.98,-140.06"/>
</g>
<!-- features/settings/components/AppearanceTab.tsx&#45;&gt;features/settings/components/SettingsSection.tsx -->
<g id="edge55" class="edge">
<title>features/settings/components/AppearanceTab.tsx&#45;&gt;features/settings/components/SettingsSection.tsx</title>
<path fill="none" stroke="#757575" d="M769.46,-165.03C880.91,-165.03 1030.81,-165.03 1144.65,-165.03"/>
<polygon fill="#757575" stroke="#757575" points="1144.38,-168.53 1154.38,-165.03 1144.38,-161.53 1144.38,-168.53"/>
</g>
<!-- features/settings/components/ProfileTab.tsx&#45;&gt;contexts/AuthContext.tsx -->
<g id="edge56" class="edge">
<title>features/settings/components/ProfileTab.tsx&#45;&gt;contexts/AuthContext.tsx</title>
<path fill="none" stroke="#757575" d="M1069.21,-259.34C1083.65,-262.82 1098.05,-267.3 1111.25,-273.03 1129.59,-281.01 1128.83,-292.24 1147.25,-300.03 1169.22,-309.33 1194.12,-315.34 1217.76,-319.2"/>
<polygon fill="#757575" stroke="#757575" points="1216.97,-322.62 1227.39,-320.66 1218.02,-315.7 1216.97,-322.62"/>
</g>
<!-- features/settings/components/ProfileTab.tsx&#45;&gt;services/authService.ts -->
<g id="edge58" class="edge">
<title>features/settings/components/ProfileTab.tsx&#45;&gt;services/authService.ts</title>
<path fill="none" stroke="#757575" d="M1103.41,-258.05C1118.21,-259.11 1133.04,-260.13 1147.25,-261.03 1314.14,-271.63 1509.2,-280.6 1619.6,-285.37"/>
<polygon fill="#757575" stroke="#757575" points="1619.34,-288.86 1629.48,-285.79 1619.64,-281.87 1619.34,-288.86"/>
</g>
<!-- features/settings/components/ProfileTab.tsx&#45;&gt;features/settings/components/SettingsSection.tsx -->
<g id="edge57" class="edge">
<title>features/settings/components/ProfileTab.tsx&#45;&gt;features/settings/components/SettingsSection.tsx</title>
<path fill="none" stroke="#757575" d="M1065.44,-234.71C1080.85,-232.21 1096.53,-229.32 1111.25,-226.03 1165.11,-214 1225.53,-194.72 1265.67,-181.06"/>
<polygon fill="#757575" stroke="#757575" points="1266.68,-184.41 1275,-177.85 1264.41,-177.79 1266.68,-184.41"/>
</g>
<!-- services/userService.ts -->
<g id="node41" class="node">
<title>services/userService.ts</title>
<path fill="none" stroke="#c6c5fe" d="M1778.08,-258.91C1778.08,-258.91 1639.17,-258.91 1639.17,-258.91 1635.21,-258.91 1631.25,-254.95 1631.25,-250.99 1631.25,-250.99 1631.25,-243.07 1631.25,-243.07 1631.25,-239.12 1635.21,-235.16 1639.17,-235.16 1639.17,-235.16 1778.08,-235.16 1778.08,-235.16 1782.04,-235.16 1786,-239.12 1786,-243.07 1786,-243.07 1786,-250.99 1786,-250.99 1786,-254.95 1782.04,-258.91 1778.08,-258.91"/>
<text xml:space="preserve" text-anchor="middle" x="1708.62" y="-241.61" font-family="Arial" font-size="14.00" fill="#c6c5fe">services/userService.ts</text>
</g>
<!-- features/settings/components/ProfileTab.tsx&#45;&gt;services/userService.ts -->
<g id="edge59" class="edge">
<title>features/settings/components/ProfileTab.tsx&#45;&gt;services/userService.ts</title>
<path fill="none" stroke="#757575" d="M1103.78,-247.03C1254.8,-247.03 1492.12,-247.03 1619.62,-247.03"/>
<polygon fill="#757575" stroke="#757575" points="1619.35,-250.53 1629.35,-247.03 1619.35,-243.53 1619.35,-250.53"/>
</g>
<!-- services/userService.ts&#45;&gt;services/api.ts -->
<g id="edge78" class="edge">
<title>services/userService.ts&#45;&gt;services/api.ts</title>
<path fill="none" stroke="#757575" d="M1786.32,-250.76C1870.1,-254.84 2002.64,-261.29 2079.88,-265.04"/>
<polygon fill="#757575" stroke="#757575" points="2079.65,-268.54 2089.81,-265.53 2079.99,-261.54 2079.65,-268.54"/>
</g>
<!-- index.tsx -->
<g id="node42" class="node">
<title>index.tsx</title>
<path fill="none" stroke="#c6c5fe" d="M78.21,-456.91C78.21,-456.91 24.79,-456.91 24.79,-456.91 20.83,-456.91 16.88,-452.95 16.88,-448.99 16.88,-448.99 16.88,-441.07 16.88,-441.07 16.88,-437.12 20.83,-433.16 24.79,-433.16 24.79,-433.16 78.21,-433.16 78.21,-433.16 82.17,-433.16 86.12,-437.12 86.12,-441.07 86.12,-441.07 86.12,-448.99 86.12,-448.99 86.12,-452.95 82.17,-456.91 78.21,-456.91"/>
<text xml:space="preserve" text-anchor="middle" x="51.5" y="-439.61" font-family="Arial" font-size="14.00" fill="#c6c5fe">index.tsx</text>
</g>
<!-- index.tsx&#45;&gt;App.tsx -->
<g id="edge68" class="edge">
<title>index.tsx&#45;&gt;App.tsx</title>
<path fill="none" stroke="#757575" d="M86.36,-438.9C99.32,-436.56 114.23,-433.86 127.77,-431.41"/>
<polygon fill="#757575" stroke="#757575" points="128.03,-434.92 137.25,-429.69 126.78,-428.03 128.03,-434.92"/>
</g>
<!-- main.tsx -->
<g id="node43" class="node">
<title>main.tsx</title>
<path fill="none" stroke="#c6c5fe" d="M77.08,-414.91C77.08,-414.91 25.92,-414.91 25.92,-414.91 21.96,-414.91 18,-410.95 18,-406.99 18,-406.99 18,-399.07 18,-399.07 18,-395.12 21.96,-391.16 25.92,-391.16 25.92,-391.16 77.08,-391.16 77.08,-391.16 81.04,-391.16 85,-395.12 85,-399.07 85,-399.07 85,-406.99 85,-406.99 85,-410.95 81.04,-414.91 77.08,-414.91"/>
<text xml:space="preserve" text-anchor="middle" x="51.5" y="-397.61" font-family="Arial" font-size="14.00" fill="#c6c5fe">main.tsx</text>
</g>
<!-- main.tsx&#45;&gt;App.tsx -->
<g id="edge69" class="edge">
<title>main.tsx&#45;&gt;App.tsx</title>
<path fill="none" stroke="#757575" d="M85.43,-408.99C98.51,-411.36 113.7,-414.11 127.49,-416.61"/>
<polygon fill="#757575" stroke="#757575" points="126.71,-420.02 137.17,-418.36 127.95,-413.14 126.71,-420.02"/>
</g>
<!-- theme.d.ts -->
<g id="node45" class="node">
<title>theme.d.ts</title>
<path fill="none" stroke="#cfffac" d="M83.46,-498.91C83.46,-498.91 19.54,-498.91 19.54,-498.91 15.58,-498.91 11.62,-494.95 11.62,-490.99 11.62,-490.99 11.62,-483.07 11.62,-483.07 11.62,-479.12 15.58,-475.16 19.54,-475.16 19.54,-475.16 83.46,-475.16 83.46,-475.16 87.42,-475.16 91.38,-479.12 91.38,-483.07 91.38,-483.07 91.38,-490.99 91.38,-490.99 91.38,-494.95 87.42,-498.91 83.46,-498.91"/>
<text xml:space="preserve" text-anchor="middle" x="51.5" y="-481.61" font-family="Arial" font-size="14.00" fill="#cfffac">theme.d.ts</text>
</g>
<!-- utils/storage.ts -->
<g id="node46" class="node">
<title>utils/storage.ts</title>
<path fill="none" stroke="#cfffac" d="M95.08,-540.91C95.08,-540.91 7.92,-540.91 7.92,-540.91 3.96,-540.91 0,-536.95 0,-532.99 0,-532.99 0,-525.07 0,-525.07 0,-521.12 3.96,-517.16 7.92,-517.16 7.92,-517.16 95.08,-517.16 95.08,-517.16 99.04,-517.16 103,-521.12 103,-525.07 103,-525.07 103,-532.99 103,-532.99 103,-536.95 99.04,-540.91 95.08,-540.91"/>
<text xml:space="preserve" text-anchor="middle" x="51.5" y="-523.61" font-family="Arial" font-size="14.00" fill="#cfffac">utils/storage.ts</text>
</g>
<!-- vite&#45;env.d.ts -->
<g id="node47" class="node">
<title>vite&#45;env.d.ts</title>
<path fill="none" stroke="#cfffac" d="M87.58,-582.91C87.58,-582.91 15.42,-582.91 15.42,-582.91 11.46,-582.91 7.5,-578.95 7.5,-574.99 7.5,-574.99 7.5,-567.07 7.5,-567.07 7.5,-563.12 11.46,-559.16 15.42,-559.16 15.42,-559.16 87.58,-559.16 87.58,-559.16 91.54,-559.16 95.5,-563.12 95.5,-567.07 95.5,-567.07 95.5,-574.99 95.5,-574.99 95.5,-578.95 91.54,-582.91 87.58,-582.91"/>
<text xml:space="preserve" text-anchor="middle" x="51.5" y="-565.61" font-family="Arial" font-size="14.00" fill="#cfffac">vite&#45;env.d.ts</text>
</g>
</g>
</svg>
