<?xml version="1.0" encoding="UTF-8" standalone="no"?>
<!DOCTYPE svg PUBLIC "-//W3C//DTD SVG 1.1//EN"
 "http://www.w3.org/Graphics/SVG/1.1/DTD/svg11.dtd">
<!-- Generated by graphviz version 13.1.2 (20250808.2320)
 -->
<!-- Title: G Pages: 1 -->
<svg width="3057pt" height="1099pt"
 viewBox="0.00 0.00 3057.00 1099.00" xmlns="http://www.w3.org/2000/svg" xmlns:xlink="http://www.w3.org/1999/xlink">
<g id="graph0" class="graph" transform="scale(1 1) rotate(0) translate(21.6 1076.93)">
<title>G</title>
<polygon fill="#111111" stroke="none" points="-21.6,21.6 -21.6,-1076.93 3035.35,-1076.93 3035.35,21.6 -21.6,21.6"/>
<!-- App.tsx -->
<g id="node1" class="node">
<title>App.tsx</title>
<path fill="none" stroke="#c6c5fe" d="M192.08,-300.75C192.08,-300.75 146.92,-300.75 146.92,-300.75 142.96,-300.75 139,-296.79 139,-292.83 139,-292.83 139,-284.92 139,-284.92 139,-280.96 142.96,-277 146.92,-277 146.92,-277 192.08,-277 192.08,-277 196.04,-277 200,-280.96 200,-284.92 200,-284.92 200,-292.83 200,-292.83 200,-296.79 196.04,-300.75 192.08,-300.75"/>
<text xml:space="preserve" text-anchor="middle" x="169.5" y="-283.45" font-family="Arial" font-size="14.00" fill="#c6c5fe">App.tsx</text>
</g>
<!-- components/Layout/MainLayout.tsx -->
<g id="node2" class="node">
<title>components/Layout/MainLayout.tsx</title>
<path fill="none" stroke="#c6c5fe" d="M719.83,-694.75C719.83,-694.75 505.92,-694.75 505.92,-694.75 501.96,-694.75 498,-690.79 498,-686.83 498,-686.83 498,-678.92 498,-678.92 498,-674.96 501.96,-671 505.92,-671 505.92,-671 719.83,-671 719.83,-671 723.79,-671 727.75,-674.96 727.75,-678.92 727.75,-678.92 727.75,-686.83 727.75,-686.83 727.75,-690.79 723.79,-694.75 719.83,-694.75"/>
<text xml:space="preserve" text-anchor="middle" x="612.88" y="-677.45" font-family="Arial" font-size="14.00" fill="#c6c5fe">components/Layout/MainLayout.tsx</text>
</g>
<!-- App.tsx&#45;&gt;components/Layout/MainLayout.tsx -->
<g id="edge1" class="edge">
<title>App.tsx&#45;&gt;components/Layout/MainLayout.tsx</title>
<path fill="none" stroke="#757575" d="M176.59,-301.1C186.98,-321.23 209.59,-361.98 236,-390.88 347.63,-512.99 514.57,-622.71 582.02,-664.72"/>
<polygon fill="#757575" stroke="#757575" points="579.96,-667.57 590.31,-669.85 583.65,-661.61 579.96,-667.57"/>
</g>
<!-- contexts/AuthContext.tsx -->
<g id="node3" class="node">
<title>contexts/AuthContext.tsx</title>
<path fill="none" stroke="#c6c5fe" d="M1386.71,-166.75C1386.71,-166.75 1237.29,-166.75 1237.29,-166.75 1233.33,-166.75 1229.38,-162.79 1229.38,-158.83 1229.38,-158.83 1229.38,-150.92 1229.38,-150.92 1229.38,-146.96 1233.33,-143 1237.29,-143 1237.29,-143 1386.71,-143 1386.71,-143 1390.67,-143 1394.62,-146.96 1394.62,-150.92 1394.62,-150.92 1394.62,-158.83 1394.62,-158.83 1394.62,-162.79 1390.67,-166.75 1386.71,-166.75"/>
<text xml:space="preserve" text-anchor="middle" x="1312" y="-149.45" font-family="Arial" font-size="14.00" fill="#c6c5fe">contexts/AuthContext.tsx</text>
</g>
<!-- App.tsx&#45;&gt;contexts/AuthContext.tsx -->
<g id="edge2" class="edge">
<title>App.tsx&#45;&gt;contexts/AuthContext.tsx</title>
<path fill="none" stroke="#757575" d="M200.35,-282.92C292.09,-264.84 578.15,-210.28 817.75,-183.88 956.57,-168.58 1118.31,-161.01 1217.68,-157.52"/>
<polygon fill="#757575" stroke="#757575" points="1217.79,-161.02 1227.67,-157.18 1217.55,-154.03 1217.79,-161.02"/>
</g>
<!-- contexts/LayoutContext.tsx -->
<g id="node4" class="node">
<title>contexts/LayoutContext.tsx</title>
<path fill="none" stroke="#c6c5fe" d="M2603.21,-837.75C2603.21,-837.75 2441.04,-837.75 2441.04,-837.75 2437.08,-837.75 2433.12,-833.79 2433.12,-829.83 2433.12,-829.83 2433.12,-821.92 2433.12,-821.92 2433.12,-817.96 2437.08,-814 2441.04,-814 2441.04,-814 2603.21,-814 2603.21,-814 2607.17,-814 2611.12,-817.96 2611.12,-821.92 2611.12,-821.92 2611.12,-829.83 2611.12,-829.83 2611.12,-833.79 2607.17,-837.75 2603.21,-837.75"/>
<text xml:space="preserve" text-anchor="middle" x="2522.12" y="-820.45" font-family="Arial" font-size="14.00" fill="#c6c5fe">contexts/LayoutContext.tsx</text>
</g>
<!-- App.tsx&#45;&gt;contexts/LayoutContext.tsx -->
<g id="edge3" class="edge">
<title>App.tsx&#45;&gt;contexts/LayoutContext.tsx</title>
<path fill="none" stroke="#757575" d="M170.96,-300.92C173.65,-366.77 188.86,-683.35 236,-766.88 333.18,-939.08 414.15,-1004.88 611.88,-1004.88 611.88,-1004.88 611.88,-1004.88 965.5,-1004.88 1272.76,-1004.88 2050.65,-1008.46 2345.75,-922.88 2403.29,-906.19 2462.77,-868.07 2495.54,-844.89"/>
<polygon fill="#757575" stroke="#757575" points="2497.52,-847.78 2503.6,-839.1 2493.43,-842.1 2497.52,-847.78"/>
</g>
<!-- contexts/ThemeContext.tsx -->
<g id="node5" class="node">
<title>contexts/ThemeContext.tsx</title>
<path fill="none" stroke="#c6c5fe" d="M1046.71,-301.75C1046.71,-301.75 882.29,-301.75 882.29,-301.75 878.33,-301.75 874.38,-297.79 874.38,-293.83 874.38,-293.83 874.38,-285.92 874.38,-285.92 874.38,-281.96 878.33,-278 882.29,-278 882.29,-278 1046.71,-278 1046.71,-278 1050.67,-278 1054.62,-281.96 1054.62,-285.92 1054.62,-285.92 1054.62,-293.83 1054.62,-293.83 1054.62,-297.79 1050.67,-301.75 1046.71,-301.75"/>
<text xml:space="preserve" text-anchor="middle" x="964.5" y="-284.45" font-family="Arial" font-size="14.00" fill="#c6c5fe">contexts/ThemeContext.tsx</text>
</g>
<!-- App.tsx&#45;&gt;contexts/ThemeContext.tsx -->
<g id="edge4" class="edge">
<title>App.tsx&#45;&gt;contexts/ThemeContext.tsx</title>
<path fill="none" stroke="#757575" d="M200.14,-288.91C307.77,-289.05 681.15,-289.52 862.75,-289.75"/>
<polygon fill="#757575" stroke="#757575" points="862.65,-293.25 872.66,-289.76 862.66,-286.25 862.65,-293.25"/>
</g>
<!-- features/chat/index.tsx -->
<g id="node6" class="node">
<title>features/chat/index.tsx</title>
<path fill="none" stroke="#c6c5fe" d="M389.58,-757.75C389.58,-757.75 254.42,-757.75 254.42,-757.75 250.46,-757.75 246.5,-753.79 246.5,-749.83 246.5,-749.83 246.5,-741.92 246.5,-741.92 246.5,-737.96 250.46,-734 254.42,-734 254.42,-734 389.58,-734 389.58,-734 393.54,-734 397.5,-737.96 397.5,-741.92 397.5,-741.92 397.5,-749.83 397.5,-749.83 397.5,-753.79 393.54,-757.75 389.58,-757.75"/>
<text xml:space="preserve" text-anchor="middle" x="322" y="-740.45" font-family="Arial" font-size="14.00" fill="#c6c5fe">features/chat/index.tsx</text>
</g>
<!-- App.tsx&#45;&gt;features/chat/index.tsx -->
<g id="edge5" class="edge">
<title>App.tsx&#45;&gt;features/chat/index.tsx</title>
<path fill="none" stroke="#757575" d="M172.56,-301.04C179.28,-339.74 202.13,-463.12 236,-560.88 257.09,-621.75 291.24,-689.73 309.16,-723.83"/>
<polygon fill="#757575" stroke="#757575" points="305.88,-725.13 313.66,-732.32 312.07,-721.85 305.88,-725.13"/>
</g>
<!-- features/settings/index.tsx -->
<g id="node7" class="node">
<title>features/settings/index.tsx</title>
<path fill="none" stroke="#c6c5fe" d="M400.08,-381.75C400.08,-381.75 243.92,-381.75 243.92,-381.75 239.96,-381.75 236,-377.79 236,-373.83 236,-373.83 236,-365.92 236,-365.92 236,-361.96 239.96,-358 243.92,-358 243.92,-358 400.08,-358 400.08,-358 404.04,-358 408,-361.96 408,-365.92 408,-365.92 408,-373.83 408,-373.83 408,-377.79 404.04,-381.75 400.08,-381.75"/>
<text xml:space="preserve" text-anchor="middle" x="322" y="-364.45" font-family="Arial" font-size="14.00" fill="#c6c5fe">features/settings/index.tsx</text>
</g>
<!-- App.tsx&#45;&gt;features/settings/index.tsx -->
<g id="edge6" class="edge">
<title>App.tsx&#45;&gt;features/settings/index.tsx</title>
<path fill="none" stroke="#757575" d="M193.36,-301.18C218.7,-314.82 259.77,-336.92 288.46,-352.36"/>
<polygon fill="#757575" stroke="#757575" points="286.62,-355.35 297.09,-357.01 289.94,-349.18 286.62,-355.35"/>
</g>
<!-- pages/Login.tsx -->
<g id="node8" class="node">
<title>pages/Login.tsx</title>
<path fill="none" stroke="#c6c5fe" d="M660.21,-63.75C660.21,-63.75 565.54,-63.75 565.54,-63.75 561.58,-63.75 557.62,-59.79 557.62,-55.83 557.62,-55.83 557.62,-47.92 557.62,-47.92 557.62,-43.96 561.58,-40 565.54,-40 565.54,-40 660.21,-40 660.21,-40 664.17,-40 668.12,-43.96 668.12,-47.92 668.12,-47.92 668.12,-55.83 668.12,-55.83 668.12,-59.79 664.17,-63.75 660.21,-63.75"/>
<text xml:space="preserve" text-anchor="middle" x="612.88" y="-46.45" font-family="Arial" font-size="14.00" fill="#c6c5fe">pages/Login.tsx</text>
</g>
<!-- App.tsx&#45;&gt;pages/Login.tsx -->
<g id="edge7" class="edge">
<title>App.tsx&#45;&gt;pages/Login.tsx</title>
<path fill="none" stroke="#757575" d="M170.75,-276.53C172.16,-242.8 181.07,-148.66 236,-103.88 323.93,-32.19 463.66,-33.42 545.7,-41.9"/>
<polygon fill="#757575" stroke="#757575" points="545.3,-45.38 555.62,-43 546.07,-38.42 545.3,-45.38"/>
</g>
<!-- pages/Register.tsx -->
<g id="node9" class="node">
<title>pages/Register.tsx</title>
<path fill="none" stroke="#c6c5fe" d="M668.46,-141.75C668.46,-141.75 557.29,-141.75 557.29,-141.75 553.33,-141.75 549.38,-137.79 549.38,-133.83 549.38,-133.83 549.38,-125.92 549.38,-125.92 549.38,-121.96 553.33,-118 557.29,-118 557.29,-118 668.46,-118 668.46,-118 672.42,-118 676.38,-121.96 676.38,-125.92 676.38,-125.92 676.38,-133.83 676.38,-133.83 676.38,-137.79 672.42,-141.75 668.46,-141.75"/>
<text xml:space="preserve" text-anchor="middle" x="612.88" y="-124.45" font-family="Arial" font-size="14.00" fill="#c6c5fe">pages/Register.tsx</text>
</g>
<!-- App.tsx&#45;&gt;pages/Register.tsx -->
<g id="edge8" class="edge">
<title>App.tsx&#45;&gt;pages/Register.tsx</title>
<path fill="none" stroke="#757575" d="M172.4,-276.68C177.32,-249.6 193.26,-184.56 236,-155.88 328.2,-93.99 463.41,-102.75 544.04,-115.67"/>
<polygon fill="#757575" stroke="#757575" points="543.11,-119.06 553.56,-117.27 544.27,-112.16 543.11,-119.06"/>
</g>
<!-- components/Layout/AppDrawers.tsx -->
<g id="node12" class="node">
<title>components/Layout/AppDrawers.tsx</title>
<path fill="none" stroke="#c6c5fe" d="M1073.33,-719.75C1073.33,-719.75 855.67,-719.75 855.67,-719.75 851.71,-719.75 847.75,-715.79 847.75,-711.83 847.75,-711.83 847.75,-703.92 847.75,-703.92 847.75,-699.96 851.71,-696 855.67,-696 855.67,-696 1073.33,-696 1073.33,-696 1077.29,-696 1081.25,-699.96 1081.25,-703.92 1081.25,-703.92 1081.25,-711.83 1081.25,-711.83 1081.25,-715.79 1077.29,-719.75 1073.33,-719.75"/>
<text xml:space="preserve" text-anchor="middle" x="964.5" y="-702.45" font-family="Arial" font-size="14.00" fill="#c6c5fe">components/Layout/AppDrawers.tsx</text>
</g>
<!-- components/Layout/MainLayout.tsx&#45;&gt;components/Layout/AppDrawers.tsx -->
<g id="edge18" class="edge">
<title>components/Layout/MainLayout.tsx&#45;&gt;components/Layout/AppDrawers.tsx</title>
<path fill="none" stroke="#757575" d="M727.87,-691.03C762.4,-693.49 800.53,-696.22 835.89,-698.75"/>
<polygon fill="#757575" stroke="#757575" points="835.53,-702.23 845.75,-699.46 836.03,-695.25 835.53,-702.23"/>
</g>
<!-- components/Layout/MainContentWrapper.tsx -->
<g id="node16" class="node">
<title>components/Layout/MainContentWrapper.tsx</title>
<path fill="none" stroke="#c6c5fe" d="M1100.33,-860.75C1100.33,-860.75 828.67,-860.75 828.67,-860.75 824.71,-860.75 820.75,-856.79 820.75,-852.83 820.75,-852.83 820.75,-844.92 820.75,-844.92 820.75,-840.96 824.71,-837 828.67,-837 828.67,-837 1100.33,-837 1100.33,-837 1104.29,-837 1108.25,-840.96 1108.25,-844.92 1108.25,-844.92 1108.25,-852.83 1108.25,-852.83 1108.25,-856.79 1104.29,-860.75 1100.33,-860.75"/>
<text xml:space="preserve" text-anchor="middle" x="964.5" y="-843.45" font-family="Arial" font-size="14.00" fill="#c6c5fe">components/Layout/MainContentWrapper.tsx</text>
</g>
<!-- components/Layout/MainLayout.tsx&#45;&gt;components/Layout/MainContentWrapper.tsx -->
<g id="edge19" class="edge">
<title>components/Layout/MainLayout.tsx&#45;&gt;components/Layout/MainContentWrapper.tsx</title>
<path fill="none" stroke="#757575" d="M727.93,-679.24C747.59,-683.35 766.56,-690.91 781.75,-703.88 825.41,-741.12 774.44,-790.22 817.75,-827.88 818.69,-828.69 819.65,-829.49 820.62,-830.26"/>
<polygon fill="#757575" stroke="#757575" points="818.33,-832.93 828.55,-835.74 822.31,-827.17 818.33,-832.93"/>
</g>
<!-- components/Layout/MainHeader.tsx -->
<g id="node17" class="node">
<title>components/Layout/MainHeader.tsx</title>
<path fill="none" stroke="#c6c5fe" d="M1072.96,-818.75C1072.96,-818.75 856.04,-818.75 856.04,-818.75 852.08,-818.75 848.12,-814.79 848.12,-810.83 848.12,-810.83 848.12,-802.92 848.12,-802.92 848.12,-798.96 852.08,-795 856.04,-795 856.04,-795 1072.96,-795 1072.96,-795 1076.92,-795 1080.88,-798.96 1080.88,-802.92 1080.88,-802.92 1080.88,-810.83 1080.88,-810.83 1080.88,-814.79 1076.92,-818.75 1072.96,-818.75"/>
<text xml:space="preserve" text-anchor="middle" x="964.5" y="-801.45" font-family="Arial" font-size="14.00" fill="#c6c5fe">components/Layout/MainHeader.tsx</text>
</g>
<!-- components/Layout/MainLayout.tsx&#45;&gt;components/Layout/MainHeader.tsx -->
<g id="edge20" class="edge">
<title>components/Layout/MainLayout.tsx&#45;&gt;components/Layout/MainHeader.tsx</title>
<path fill="none" stroke="#757575" d="M728.13,-689.63C746.43,-692.85 764.88,-697.42 781.75,-703.88 799.94,-710.84 801.13,-718.71 817.75,-728.88 854.65,-751.46 898.62,-774.49 928.55,-789.61"/>
<polygon fill="#757575" stroke="#757575" points="926.65,-792.57 937.16,-793.93 929.8,-786.32 926.65,-792.57"/>
</g>
<!-- services/authService.ts -->
<g id="node19" class="node">
<title>services/authService.ts</title>
<path fill="none" stroke="#c6c5fe" d="M1778.83,-206.75C1778.83,-206.75 1639.92,-206.75 1639.92,-206.75 1635.96,-206.75 1632,-202.79 1632,-198.83 1632,-198.83 1632,-190.92 1632,-190.92 1632,-186.96 1635.96,-183 1639.92,-183 1639.92,-183 1778.83,-183 1778.83,-183 1782.79,-183 1786.75,-186.96 1786.75,-190.92 1786.75,-190.92 1786.75,-198.83 1786.75,-198.83 1786.75,-202.79 1782.79,-206.75 1778.83,-206.75"/>
<text xml:space="preserve" text-anchor="middle" x="1709.38" y="-189.45" font-family="Arial" font-size="14.00" fill="#c6c5fe">services/authService.ts</text>
</g>
<!-- contexts/AuthContext.tsx&#45;&gt;services/authService.ts -->
<g id="edge21" class="edge">
<title>contexts/AuthContext.tsx&#45;&gt;services/authService.ts</title>
<path fill="none" stroke="#757575" d="M1394.92,-163.16C1460.67,-169.81 1552.8,-179.14 1620.16,-185.95"/>
<polygon fill="#757575" stroke="#757575" points="1619.78,-189.43 1630.09,-186.95 1620.49,-182.47 1619.78,-189.43"/>
</g>
<!-- features/chat/types/index.ts -->
<g id="node20" class="node">
<title>features/chat/types/index.ts</title>
<path fill="none" stroke="#cfffac" d="M2938.33,-976.75C2938.33,-976.75 2773.92,-976.75 2773.92,-976.75 2769.96,-976.75 2766,-972.79 2766,-968.83 2766,-968.83 2766,-960.92 2766,-960.92 2766,-956.96 2769.96,-953 2773.92,-953 2773.92,-953 2938.33,-953 2938.33,-953 2942.29,-953 2946.25,-956.96 2946.25,-960.92 2946.25,-960.92 2946.25,-968.83 2946.25,-968.83 2946.25,-972.79 2942.29,-976.75 2938.33,-976.75"/>
<text xml:space="preserve" text-anchor="middle" x="2856.12" y="-959.45" font-family="Arial" font-size="14.00" fill="#cfffac">features/chat/types/index.ts</text>
</g>
<!-- contexts/LayoutContext.tsx&#45;&gt;features/chat/types/index.ts -->
<g id="edge22" class="edge">
<title>contexts/LayoutContext.tsx&#45;&gt;features/chat/types/index.ts</title>
<path fill="none" stroke="#757575" d="M2552.59,-838.21C2612.39,-863.25 2748.05,-920.05 2815.51,-948.29"/>
<polygon fill="#757575" stroke="#757575" points="2813.76,-951.35 2824.33,-951.98 2816.46,-944.89 2813.76,-951.35"/>
</g>
<!-- contexts/ThemeContext.tsx&#45;&gt;contexts/AuthContext.tsx -->
<g id="edge23" class="edge">
<title>contexts/ThemeContext.tsx&#45;&gt;contexts/AuthContext.tsx</title>
<path fill="none" stroke="#757575" d="M1055.01,-282.38C1073.9,-279.31 1093.48,-274.98 1111.25,-268.88 1129.09,-262.75 1229.44,-203.54 1280.77,-172.96"/>
<polygon fill="#757575" stroke="#757575" points="1282.54,-175.98 1289.33,-167.85 1278.95,-169.97 1282.54,-175.98"/>
</g>
<!-- services/userSettingsService.ts -->
<g id="node21" class="node">
<title>services/userSettingsService.ts</title>
<path fill="none" stroke="#c6c5fe" d="M1405.83,-364.75C1405.83,-364.75 1218.17,-364.75 1218.17,-364.75 1214.21,-364.75 1210.25,-360.79 1210.25,-356.83 1210.25,-356.83 1210.25,-348.92 1210.25,-348.92 1210.25,-344.96 1214.21,-341 1218.17,-341 1218.17,-341 1405.83,-341 1405.83,-341 1409.79,-341 1413.75,-344.96 1413.75,-348.92 1413.75,-348.92 1413.75,-356.83 1413.75,-356.83 1413.75,-360.79 1409.79,-364.75 1405.83,-364.75"/>
<text xml:space="preserve" text-anchor="middle" x="1312" y="-347.45" font-family="Arial" font-size="14.00" fill="#c6c5fe">services/userSettingsService.ts</text>
</g>
<!-- contexts/ThemeContext.tsx&#45;&gt;services/userSettingsService.ts -->
<g id="edge24" class="edge">
<title>contexts/ThemeContext.tsx&#45;&gt;services/userSettingsService.ts</title>
<path fill="none" stroke="#757575" d="M1033.35,-302.25C1090.4,-312.65 1172.01,-327.53 1231.99,-338.47"/>
<polygon fill="#757575" stroke="#757575" points="1231.35,-341.91 1241.82,-340.26 1232.61,-335.02 1231.35,-341.91"/>
</g>
<!-- features/chat/index.tsx&#45;&gt;components/Layout/MainLayout.tsx -->
<g id="edge47" class="edge">
<title>features/chat/index.tsx&#45;&gt;components/Layout/MainLayout.tsx</title>
<path fill="none" stroke="#757575" d="M352.82,-733.56C377,-724.05 412.17,-711.3 444,-703.88 457.68,-700.68 472.1,-697.95 486.51,-695.62"/>
<polygon fill="#757575" stroke="#757575" points="486.68,-699.13 496.03,-694.14 485.61,-692.22 486.68,-699.13"/>
</g>
<!-- features/chat/index.tsx&#45;&gt;components/Layout/MainContentWrapper.tsx -->
<g id="edge46" class="edge">
<title>features/chat/index.tsx&#45;&gt;components/Layout/MainContentWrapper.tsx</title>
<path fill="none" stroke="#757575" d="M335.4,-758.22C355.91,-777.71 399.12,-814.92 444,-829.88 580.45,-875.35 748.33,-871.57 855.63,-862.24"/>
<polygon fill="#757575" stroke="#757575" points="855.64,-865.75 865.29,-861.36 855.01,-858.78 855.64,-865.75"/>
</g>
<!-- features/chat/components/ChatInput.tsx -->
<g id="node22" class="node">
<title>features/chat/components/ChatInput.tsx</title>
<path fill="none" stroke="#cfffac" d="M732.58,-820.75C732.58,-820.75 493.17,-820.75 493.17,-820.75 489.21,-820.75 485.25,-816.79 485.25,-812.83 485.25,-812.83 485.25,-804.92 485.25,-804.92 485.25,-800.96 489.21,-797 493.17,-797 493.17,-797 732.58,-797 732.58,-797 736.54,-797 740.5,-800.96 740.5,-804.92 740.5,-804.92 740.5,-812.83 740.5,-812.83 740.5,-816.79 736.54,-820.75 732.58,-820.75"/>
<text xml:space="preserve" text-anchor="middle" x="612.88" y="-803.45" font-family="Arial" font-size="14.00" fill="#cfffac">features/chat/components/ChatInput.tsx</text>
</g>
<!-- features/chat/index.tsx&#45;&gt;features/chat/components/ChatInput.tsx -->
<g id="edge48" class="edge">
<title>features/chat/index.tsx&#45;&gt;features/chat/components/ChatInput.tsx</title>
<path fill="none" stroke="#757575" d="M352.82,-758.19C377,-767.7 412.17,-780.45 444,-787.88 454.95,-790.43 466.37,-792.69 477.89,-794.69"/>
<polygon fill="#757575" stroke="#757575" points="477.01,-798.09 487.45,-796.27 478.16,-791.18 477.01,-798.09"/>
</g>
<!-- features/chat/components/MessageList.tsx -->
<g id="node32" class="node">
<title>features/chat/components/MessageList.tsx</title>
<path fill="none" stroke="#c6c5fe" d="M2272.58,-1018.75C2272.58,-1018.75 2015.17,-1018.75 2015.17,-1018.75 2011.21,-1018.75 2007.25,-1014.79 2007.25,-1010.83 2007.25,-1010.83 2007.25,-1002.92 2007.25,-1002.92 2007.25,-998.96 2011.21,-995 2015.17,-995 2015.17,-995 2272.58,-995 2272.58,-995 2276.54,-995 2280.5,-998.96 2280.5,-1002.92 2280.5,-1002.92 2280.5,-1010.83 2280.5,-1010.83 2280.5,-1014.79 2276.54,-1018.75 2272.58,-1018.75"/>
<text xml:space="preserve" text-anchor="middle" x="2143.88" y="-1001.45" font-family="Arial" font-size="14.00" fill="#c6c5fe">features/chat/components/MessageList.tsx</text>
</g>
<!-- features/chat/index.tsx&#45;&gt;features/chat/components/MessageList.tsx -->
<g id="edge49" class="edge">
<title>features/chat/index.tsx&#45;&gt;features/chat/components/MessageList.tsx</title>
<path fill="none" stroke="#757575" d="M331.27,-758.16C348.74,-782.95 392.08,-838.69 444,-862.88 1003.77,-1123.68 1779.47,-1055.03 2047.39,-1020.7"/>
<polygon fill="#757575" stroke="#757575" points="2047.65,-1024.19 2057.12,-1019.44 2046.75,-1017.25 2047.65,-1024.19"/>
</g>
<!-- features/chat/components/Modals/InspectorModal.tsx -->
<g id="node33" class="node">
<title>features/chat/components/Modals/InspectorModal.tsx</title>
<path fill="none" stroke="#cfffac" d="M773.83,-778.75C773.83,-778.75 451.92,-778.75 451.92,-778.75 447.96,-778.75 444,-774.79 444,-770.83 444,-770.83 444,-762.92 444,-762.92 444,-758.96 447.96,-755 451.92,-755 451.92,-755 773.83,-755 773.83,-755 777.79,-755 781.75,-758.96 781.75,-762.92 781.75,-762.92 781.75,-770.83 781.75,-770.83 781.75,-774.79 777.79,-778.75 773.83,-778.75"/>
<text xml:space="preserve" text-anchor="middle" x="612.88" y="-761.45" font-family="Arial" font-size="14.00" fill="#cfffac">features/chat/components/Modals/InspectorModal.tsx</text>
</g>
<!-- features/chat/index.tsx&#45;&gt;features/chat/components/Modals/InspectorModal.tsx -->
<g id="edge50" class="edge">
<title>features/chat/index.tsx&#45;&gt;features/chat/components/Modals/InspectorModal.tsx</title>
<path fill="none" stroke="#757575" d="M397.77,-751.31C408.78,-752.11 420.49,-752.96 432.55,-753.84"/>
<polygon fill="#757575" stroke="#757575" points="431.98,-757.31 442.21,-754.54 432.49,-750.33 431.98,-757.31"/>
</g>
<!-- features/chat/components/Modals/PromptModal.tsx -->
<g id="node34" class="node">
<title>features/chat/components/Modals/PromptModal.tsx</title>
<path fill="none" stroke="#cfffac" d="M768.21,-736.75C768.21,-736.75 457.54,-736.75 457.54,-736.75 453.58,-736.75 449.62,-732.79 449.62,-728.83 449.62,-728.83 449.62,-720.92 449.62,-720.92 449.62,-716.96 453.58,-713 457.54,-713 457.54,-713 768.21,-713 768.21,-713 772.17,-713 776.12,-716.96 776.12,-720.92 776.12,-720.92 776.12,-728.83 776.12,-728.83 776.12,-732.79 772.17,-736.75 768.21,-736.75"/>
<text xml:space="preserve" text-anchor="middle" x="612.88" y="-719.45" font-family="Arial" font-size="14.00" fill="#cfffac">features/chat/components/Modals/PromptModal.tsx</text>
</g>
<!-- features/chat/index.tsx&#45;&gt;features/chat/components/Modals/PromptModal.tsx -->
<g id="edge51" class="edge">
<title>features/chat/index.tsx&#45;&gt;features/chat/components/Modals/PromptModal.tsx</title>
<path fill="none" stroke="#757575" d="M397.77,-740.44C410.43,-739.52 424.03,-738.53 438.02,-737.51"/>
<polygon fill="#757575" stroke="#757575" points="438.08,-741.02 447.8,-736.8 437.57,-734.04 438.08,-741.02"/>
</g>
<!-- features/chat/hooks/useChatLogic.ts -->
<g id="node36" class="node">
<title>features/chat/hooks/useChatLogic.ts</title>
<path fill="none" stroke="#c6c5fe" d="M1073.71,-577.75C1073.71,-577.75 855.29,-577.75 855.29,-577.75 851.33,-577.75 847.38,-573.79 847.38,-569.83 847.38,-569.83 847.38,-561.92 847.38,-561.92 847.38,-557.96 851.33,-554 855.29,-554 855.29,-554 1073.71,-554 1073.71,-554 1077.67,-554 1081.62,-557.96 1081.62,-561.92 1081.62,-561.92 1081.62,-569.83 1081.62,-569.83 1081.62,-573.79 1077.67,-577.75 1073.71,-577.75"/>
<text xml:space="preserve" text-anchor="middle" x="964.5" y="-560.45" font-family="Arial" font-size="14.00" fill="#c6c5fe">features/chat/hooks/useChatLogic.ts</text>
</g>
<!-- features/chat/index.tsx&#45;&gt;features/chat/hooks/useChatLogic.ts -->
<g id="edge52" class="edge">
<title>features/chat/index.tsx&#45;&gt;features/chat/hooks/useChatLogic.ts</title>
<path fill="none" stroke="#757575" d="M336.37,-733.67C357.53,-715.06 400.8,-679.87 444,-661.88 571.15,-608.9 727.91,-585.04 835.78,-574.37"/>
<polygon fill="#757575" stroke="#757575" points="835.91,-577.87 845.53,-573.43 835.24,-570.9 835.91,-577.87"/>
</g>
<!-- features/settings/index.tsx&#45;&gt;components/Layout/MainLayout.tsx -->
<g id="edge66" class="edge">
<title>features/settings/index.tsx&#45;&gt;components/Layout/MainLayout.tsx</title>
<path fill="none" stroke="#757575" d="M331.07,-382.2C349.52,-410.01 396.86,-479.22 444,-530.88 491.24,-582.64 554.08,-636.01 587.89,-663.65"/>
<polygon fill="#757575" stroke="#757575" points="585.48,-666.2 595.45,-669.79 589.9,-660.77 585.48,-666.2"/>
</g>
<!-- features/settings/index.tsx&#45;&gt;contexts/AuthContext.tsx -->
<g id="edge67" class="edge">
<title>features/settings/index.tsx&#45;&gt;contexts/AuthContext.tsx</title>
<path fill="none" stroke="#757575" d="M332.03,-357.65C350.21,-334.06 393.84,-282.62 444,-259.88 715.84,-136.64 815.25,-222.21 1111.25,-183.88 1146.38,-179.33 1184.9,-173.85 1218.67,-168.88"/>
<polygon fill="#757575" stroke="#757575" points="1219.05,-172.37 1228.43,-167.44 1218.02,-165.44 1219.05,-172.37"/>
</g>
<!-- features/settings/index.tsx&#45;&gt;components/Layout/MainContentWrapper.tsx -->
<g id="edge65" class="edge">
<title>features/settings/index.tsx&#45;&gt;components/Layout/MainContentWrapper.tsx</title>
<path fill="none" stroke="#757575" d="M400.77,-382.21C403.29,-383.62 405.71,-385.17 408,-386.88 435.42,-407.31 420.59,-429.95 444,-454.88 564.52,-583.22 679.85,-518.3 781.75,-661.88 825.45,-723.44 762.52,-776.41 817.75,-827.88 818.4,-828.48 819.06,-829.07 819.72,-829.65"/>
<polygon fill="#757575" stroke="#757575" points="817.55,-832.4 827.65,-835.6 821.75,-826.8 817.55,-832.4"/>
</g>
<!-- features/settings/index.tsx&#45;&gt;services/userSettingsService.ts -->
<g id="edge72" class="edge">
<title>features/settings/index.tsx&#45;&gt;services/userSettingsService.ts</title>
<path fill="none" stroke="#757575" d="M406.24,-382.22C550.77,-401.41 857.04,-432.13 1111.25,-390.88 1127.9,-388.17 1130.87,-382.88 1147.25,-378.88 1165.72,-374.36 1185.55,-370.45 1204.82,-367.13"/>
<polygon fill="#757575" stroke="#757575" points="1205.31,-370.59 1214.6,-365.49 1204.15,-363.69 1205.31,-370.59"/>
</g>
<!-- features/settings/components/AnalyticsTab.tsx -->
<g id="node38" class="node">
<title>features/settings/components/AnalyticsTab.tsx</title>
<path fill="none" stroke="#c6c5fe" d="M1103.33,-381.75C1103.33,-381.75 825.67,-381.75 825.67,-381.75 821.71,-381.75 817.75,-377.79 817.75,-373.83 817.75,-373.83 817.75,-365.92 817.75,-365.92 817.75,-361.96 821.71,-358 825.67,-358 825.67,-358 1103.33,-358 1103.33,-358 1107.29,-358 1111.25,-361.96 1111.25,-365.92 1111.25,-365.92 1111.25,-373.83 1111.25,-373.83 1111.25,-377.79 1107.29,-381.75 1103.33,-381.75"/>
<text xml:space="preserve" text-anchor="middle" x="964.5" y="-364.45" font-family="Arial" font-size="14.00" fill="#c6c5fe">features/settings/components/AnalyticsTab.tsx</text>
</g>
<!-- features/settings/index.tsx&#45;&gt;features/settings/components/AnalyticsTab.tsx -->
<g id="edge68" class="edge">
<title>features/settings/index.tsx&#45;&gt;features/settings/components/AnalyticsTab.tsx</title>
<path fill="none" stroke="#757575" d="M408.38,-369.88C509.72,-369.88 680.73,-369.88 806.22,-369.88"/>
<polygon fill="#757575" stroke="#757575" points="805.94,-373.38 815.94,-369.88 805.94,-366.38 805.94,-373.38"/>
</g>
<!-- features/settings/components/ApiKeysTab.tsx -->
<g id="node41" class="node">
<title>features/settings/components/ApiKeysTab.tsx</title>
<path fill="none" stroke="#c6c5fe" d="M1101.08,-461.75C1101.08,-461.75 827.92,-461.75 827.92,-461.75 823.96,-461.75 820,-457.79 820,-453.83 820,-453.83 820,-445.92 820,-445.92 820,-441.96 823.96,-438 827.92,-438 827.92,-438 1101.08,-438 1101.08,-438 1105.04,-438 1109,-441.96 1109,-445.92 1109,-445.92 1109,-453.83 1109,-453.83 1109,-457.79 1105.04,-461.75 1101.08,-461.75"/>
<text xml:space="preserve" text-anchor="middle" x="964.5" y="-444.45" font-family="Arial" font-size="14.00" fill="#c6c5fe">features/settings/components/ApiKeysTab.tsx</text>
</g>
<!-- features/settings/index.tsx&#45;&gt;features/settings/components/ApiKeysTab.tsx -->
<g id="edge69" class="edge">
<title>features/settings/index.tsx&#45;&gt;features/settings/components/ApiKeysTab.tsx</title>
<path fill="none" stroke="#757575" d="M344,-382.15C367.49,-395.16 407.09,-415.04 444,-423.88 564.01,-452.59 703.92,-458.06 808.29,-456.92"/>
<polygon fill="#757575" stroke="#757575" points="808.08,-460.42 818.04,-456.79 807.99,-453.42 808.08,-460.42"/>
</g>
<!-- features/settings/components/AppearanceTab.tsx -->
<g id="node43" class="node">
<title>features/settings/components/AppearanceTab.tsx</title>
<path fill="none" stroke="#c6c5fe" d="M761.08,-341.75C761.08,-341.75 464.67,-341.75 464.67,-341.75 460.71,-341.75 456.75,-337.79 456.75,-333.83 456.75,-333.83 456.75,-325.92 456.75,-325.92 456.75,-321.96 460.71,-318 464.67,-318 464.67,-318 761.08,-318 761.08,-318 765.04,-318 769,-321.96 769,-325.92 769,-325.92 769,-333.83 769,-333.83 769,-337.79 765.04,-341.75 761.08,-341.75"/>
<text xml:space="preserve" text-anchor="middle" x="612.88" y="-324.45" font-family="Arial" font-size="14.00" fill="#c6c5fe">features/settings/components/AppearanceTab.tsx</text>
</g>
<!-- features/settings/index.tsx&#45;&gt;features/settings/components/AppearanceTab.tsx -->
<g id="edge70" class="edge">
<title>features/settings/index.tsx&#45;&gt;features/settings/components/AppearanceTab.tsx</title>
<path fill="none" stroke="#757575" d="M408.5,-358.04C440.79,-353.57 477.81,-348.44 511.35,-343.79"/>
<polygon fill="#757575" stroke="#757575" points="511.66,-347.29 521.08,-342.45 510.7,-340.35 511.66,-347.29"/>
</g>
<!-- features/settings/components/ProfileTab.tsx -->
<g id="node44" class="node">
<title>features/settings/components/ProfileTab.tsx</title>
<path fill="none" stroke="#c6c5fe" d="M1095.46,-259.75C1095.46,-259.75 833.54,-259.75 833.54,-259.75 829.58,-259.75 825.62,-255.79 825.62,-251.83 825.62,-251.83 825.62,-243.92 825.62,-243.92 825.62,-239.96 829.58,-236 833.54,-236 833.54,-236 1095.46,-236 1095.46,-236 1099.42,-236 1103.38,-239.96 1103.38,-243.92 1103.38,-243.92 1103.38,-251.83 1103.38,-251.83 1103.38,-255.79 1099.42,-259.75 1095.46,-259.75"/>
<text xml:space="preserve" text-anchor="middle" x="964.5" y="-242.45" font-family="Arial" font-size="14.00" fill="#c6c5fe">features/settings/components/ProfileTab.tsx</text>
</g>
<!-- features/settings/index.tsx&#45;&gt;features/settings/components/ProfileTab.tsx -->
<g id="edge71" class="edge">
<title>features/settings/index.tsx&#45;&gt;features/settings/components/ProfileTab.tsx</title>
<path fill="none" stroke="#757575" d="M341.82,-357.74C364.91,-343.51 405.7,-320.38 444,-308.88 511.02,-288.73 685.66,-270.73 814.03,-259.6"/>
<polygon fill="#757575" stroke="#757575" points="813.96,-263.12 823.62,-258.77 813.36,-256.14 813.96,-263.12"/>
</g>
<!-- pages/Login.tsx&#45;&gt;contexts/AuthContext.tsx -->
<g id="edge76" class="edge">
<title>pages/Login.tsx&#45;&gt;contexts/AuthContext.tsx</title>
<path fill="none" stroke="#757575" d="M668.41,-47.65C760.81,-41.89 953.49,-35.91 1111.25,-70.88 1173.36,-84.64 1240.57,-116.87 1279.05,-137.17"/>
<polygon fill="#757575" stroke="#757575" points="1277.31,-140.21 1287.77,-141.84 1280.61,-134.03 1277.31,-140.21"/>
</g>
<!-- components/Auth/LoginForm.tsx -->
<g id="node10" class="node">
<title>components/Auth/LoginForm.tsx</title>
<path fill="none" stroke="#c6c5fe" d="M1062.46,-23.75C1062.46,-23.75 866.54,-23.75 866.54,-23.75 862.58,-23.75 858.62,-19.79 858.62,-15.83 858.62,-15.83 858.62,-7.92 858.62,-7.92 858.62,-3.96 862.58,0 866.54,0 866.54,0 1062.46,0 1062.46,0 1066.42,0 1070.38,-3.96 1070.38,-7.92 1070.38,-7.92 1070.38,-15.83 1070.38,-15.83 1070.38,-19.79 1066.42,-23.75 1062.46,-23.75"/>
<text xml:space="preserve" text-anchor="middle" x="964.5" y="-6.45" font-family="Arial" font-size="14.00" fill="#c6c5fe">components/Auth/LoginForm.tsx</text>
</g>
<!-- pages/Login.tsx&#45;&gt;components/Auth/LoginForm.tsx -->
<g id="edge75" class="edge">
<title>pages/Login.tsx&#45;&gt;components/Auth/LoginForm.tsx</title>
<path fill="none" stroke="#757575" d="M668.5,-45.62C716.15,-40.17 786.87,-32.08 847.12,-25.19"/>
<polygon fill="#757575" stroke="#757575" points="847.2,-28.7 856.74,-24.09 846.41,-21.75 847.2,-28.7"/>
</g>
<!-- pages/Register.tsx&#45;&gt;contexts/AuthContext.tsx -->
<g id="edge78" class="edge">
<title>pages/Register.tsx&#45;&gt;contexts/AuthContext.tsx</title>
<path fill="none" stroke="#757575" d="M676.66,-132.13C799.75,-136.54 1073.33,-146.35 1217.67,-151.53"/>
<polygon fill="#757575" stroke="#757575" points="1217.48,-155.02 1227.6,-151.88 1217.73,-148.03 1217.48,-155.02"/>
</g>
<!-- components/Auth/RegisterForm.tsx -->
<g id="node11" class="node">
<title>components/Auth/RegisterForm.tsx</title>
<path fill="none" stroke="#c6c5fe" d="M1071.08,-103.75C1071.08,-103.75 857.92,-103.75 857.92,-103.75 853.96,-103.75 850,-99.79 850,-95.83 850,-95.83 850,-87.92 850,-87.92 850,-83.96 853.96,-80 857.92,-80 857.92,-80 1071.08,-80 1071.08,-80 1075.04,-80 1079,-83.96 1079,-87.92 1079,-87.92 1079,-95.83 1079,-95.83 1079,-99.79 1075.04,-103.75 1071.08,-103.75"/>
<text xml:space="preserve" text-anchor="middle" x="964.5" y="-86.45" font-family="Arial" font-size="14.00" fill="#c6c5fe">components/Auth/RegisterForm.tsx</text>
</g>
<!-- pages/Register.tsx&#45;&gt;components/Auth/RegisterForm.tsx -->
<g id="edge77" class="edge">
<title>pages/Register.tsx&#45;&gt;components/Auth/RegisterForm.tsx</title>
<path fill="none" stroke="#757575" d="M676.78,-123.04C721.76,-118.15 783.77,-111.41 838.62,-105.45"/>
<polygon fill="#757575" stroke="#757575" points="838.78,-108.95 848.35,-104.39 838.03,-101.99 838.78,-108.95"/>
</g>
<!-- components/Auth/LoginForm.tsx&#45;&gt;contexts/AuthContext.tsx -->
<g id="edge9" class="edge">
<title>components/Auth/LoginForm.tsx&#45;&gt;contexts/AuthContext.tsx</title>
<path fill="none" stroke="#757575" d="M1062.43,-24.21C1078.99,-27.71 1095.82,-32.18 1111.25,-37.88 1178.58,-62.7 1249.15,-109.81 1285.7,-136.04"/>
<polygon fill="#757575" stroke="#757575" points="1283.28,-138.61 1293.43,-141.65 1287.39,-132.95 1283.28,-138.61"/>
</g>
<!-- components/Auth/RegisterForm.tsx&#45;&gt;contexts/AuthContext.tsx -->
<g id="edge10" class="edge">
<title>components/Auth/RegisterForm.tsx&#45;&gt;contexts/AuthContext.tsx</title>
<path fill="none" stroke="#757575" d="M1035.2,-104.21C1059.3,-108.5 1086.47,-113.37 1111.25,-117.88 1151.66,-125.22 1196.64,-133.54 1233.67,-140.43"/>
<polygon fill="#757575" stroke="#757575" points="1232.93,-143.85 1243.4,-142.24 1234.21,-136.97 1232.93,-143.85"/>
</g>
<!-- components/Layout/AppDrawers.tsx&#45;&gt;contexts/LayoutContext.tsx -->
<g id="edge11" class="edge">
<title>components/Layout/AppDrawers.tsx&#45;&gt;contexts/LayoutContext.tsx</title>
<path fill="none" stroke="#757575" d="M1013.47,-720.18C1049.98,-729.25 1101.55,-741.42 1147.25,-749.88 1292.65,-776.77 1337.53,-746.06 1476.75,-795.88 1494.4,-802.19 1494.75,-812.61 1512.75,-817.88 1690.42,-869.88 2160.63,-827.4 2345.75,-826.88 2370.31,-826.8 2396.79,-826.68 2421.56,-826.54"/>
<polygon fill="#757575" stroke="#757575" points="2421.31,-830.04 2431.29,-826.49 2421.27,-823.04 2421.31,-830.04"/>
</g>
<!-- features/chat/components/ControlPanel/index.tsx -->
<g id="node13" class="node">
<title>features/chat/components/ControlPanel/index.tsx</title>
<path fill="none" stroke="#c6c5fe" d="M1459.46,-740.75C1459.46,-740.75 1164.54,-740.75 1164.54,-740.75 1160.58,-740.75 1156.62,-736.79 1156.62,-732.83 1156.62,-732.83 1156.62,-724.92 1156.62,-724.92 1156.62,-720.96 1160.58,-717 1164.54,-717 1164.54,-717 1459.46,-717 1459.46,-717 1463.42,-717 1467.38,-720.96 1467.38,-724.92 1467.38,-724.92 1467.38,-732.83 1467.38,-732.83 1467.38,-736.79 1463.42,-740.75 1459.46,-740.75"/>
<text xml:space="preserve" text-anchor="middle" x="1312" y="-723.45" font-family="Arial" font-size="14.00" fill="#c6c5fe">features/chat/components/ControlPanel/index.tsx</text>
</g>
<!-- components/Layout/AppDrawers.tsx&#45;&gt;features/chat/components/ControlPanel/index.tsx -->
<g id="edge12" class="edge">
<title>components/Layout/AppDrawers.tsx&#45;&gt;features/chat/components/ControlPanel/index.tsx</title>
<path fill="none" stroke="#757575" d="M1081.51,-714.93C1101.96,-716.17 1123.6,-717.48 1145.1,-718.79"/>
<polygon fill="#757575" stroke="#757575" points="1144.62,-722.27 1154.82,-719.38 1145.05,-715.28 1144.62,-722.27"/>
</g>
<!-- features/chat/components/drawer/HistorySidebar.tsx -->
<g id="node14" class="node">
<title>features/chat/components/drawer/HistorySidebar.tsx</title>
<path fill="none" stroke="#c6c5fe" d="M1468.83,-698.75C1468.83,-698.75 1155.17,-698.75 1155.17,-698.75 1151.21,-698.75 1147.25,-694.79 1147.25,-690.83 1147.25,-690.83 1147.25,-682.92 1147.25,-682.92 1147.25,-678.96 1151.21,-675 1155.17,-675 1155.17,-675 1468.83,-675 1468.83,-675 1472.79,-675 1476.75,-678.96 1476.75,-682.92 1476.75,-682.92 1476.75,-690.83 1476.75,-690.83 1476.75,-694.79 1472.79,-698.75 1468.83,-698.75"/>
<text xml:space="preserve" text-anchor="middle" x="1312" y="-681.45" font-family="Arial" font-size="14.00" fill="#c6c5fe">features/chat/components/drawer/HistorySidebar.tsx</text>
</g>
<!-- components/Layout/AppDrawers.tsx&#45;&gt;features/chat/components/drawer/HistorySidebar.tsx -->
<g id="edge13" class="edge">
<title>components/Layout/AppDrawers.tsx&#45;&gt;features/chat/components/drawer/HistorySidebar.tsx</title>
<path fill="none" stroke="#757575" d="M1081.51,-700.82C1098.88,-699.77 1117.11,-698.66 1135.38,-697.55"/>
<polygon fill="#757575" stroke="#757575" points="1135.48,-701.05 1145.25,-696.95 1135.06,-694.06 1135.48,-701.05"/>
</g>
<!-- features/chat/components/ControlPanel/ManualContextTab.tsx -->
<g id="node25" class="node">
<title>features/chat/components/ControlPanel/ManualContextTab.tsx</title>
<path fill="none" stroke="#c6c5fe" d="M1897.33,-779.75C1897.33,-779.75 1521.42,-779.75 1521.42,-779.75 1517.46,-779.75 1513.5,-775.79 1513.5,-771.83 1513.5,-771.83 1513.5,-763.92 1513.5,-763.92 1513.5,-759.96 1517.46,-756 1521.42,-756 1521.42,-756 1897.33,-756 1897.33,-756 1901.29,-756 1905.25,-759.96 1905.25,-763.92 1905.25,-763.92 1905.25,-771.83 1905.25,-771.83 1905.25,-775.79 1901.29,-779.75 1897.33,-779.75"/>
<text xml:space="preserve" text-anchor="middle" x="1709.38" y="-762.45" font-family="Arial" font-size="14.00" fill="#c6c5fe">features/chat/components/ControlPanel/ManualContextTab.tsx</text>
</g>
<!-- features/chat/components/ControlPanel/index.tsx&#45;&gt;features/chat/components/ControlPanel/ManualContextTab.tsx -->
<g id="edge33" class="edge">
<title>features/chat/components/ControlPanel/index.tsx&#45;&gt;features/chat/components/ControlPanel/ManualContextTab.tsx</title>
<path fill="none" stroke="#757575" d="M1438.37,-741.24C1480.92,-745.44 1528.65,-750.15 1572.02,-754.42"/>
<polygon fill="#757575" stroke="#757575" points="1571.43,-757.88 1581.73,-755.38 1572.12,-750.92 1571.43,-757.88"/>
</g>
<!-- features/chat/components/ControlPanel/useControlPanelLogic.ts -->
<g id="node27" class="node">
<title>features/chat/components/ControlPanel/useControlPanelLogic.ts</title>
<path fill="none" stroke="#c6c5fe" d="M2337.83,-817.75C2337.83,-817.75 1949.92,-817.75 1949.92,-817.75 1945.96,-817.75 1942,-813.79 1942,-809.83 1942,-809.83 1942,-801.92 1942,-801.92 1942,-797.96 1945.96,-794 1949.92,-794 1949.92,-794 2337.83,-794 2337.83,-794 2341.79,-794 2345.75,-797.96 2345.75,-801.92 2345.75,-801.92 2345.75,-809.83 2345.75,-809.83 2345.75,-813.79 2341.79,-817.75 2337.83,-817.75"/>
<text xml:space="preserve" text-anchor="middle" x="2143.88" y="-800.45" font-family="Arial" font-size="14.00" fill="#c6c5fe">features/chat/components/ControlPanel/useControlPanelLogic.ts</text>
</g>
<!-- features/chat/components/ControlPanel/index.tsx&#45;&gt;features/chat/components/ControlPanel/useControlPanelLogic.ts -->
<g id="edge36" class="edge">
<title>features/chat/components/ControlPanel/index.tsx&#45;&gt;features/chat/components/ControlPanel/useControlPanelLogic.ts</title>
<path fill="none" stroke="#757575" d="M1440.09,-741.21C1452.81,-744.75 1465.26,-749.22 1476.75,-754.88 1496.5,-764.59 1492.41,-780.47 1512.75,-788.88 1585.89,-819.1 1777.51,-820.6 1930.4,-816.18"/>
<polygon fill="#757575" stroke="#757575" points="1930.4,-819.69 1940.29,-815.89 1930.18,-812.69 1930.4,-819.69"/>
</g>
<!-- features/chat/components/ControlPanel/ModelSelectionTab.tsx -->
<g id="node28" class="node">
<title>features/chat/components/ControlPanel/ModelSelectionTab.tsx</title>
<path fill="none" stroke="#c6c5fe" d="M1898.08,-619.75C1898.08,-619.75 1520.67,-619.75 1520.67,-619.75 1516.71,-619.75 1512.75,-615.79 1512.75,-611.83 1512.75,-611.83 1512.75,-603.92 1512.75,-603.92 1512.75,-599.96 1516.71,-596 1520.67,-596 1520.67,-596 1898.08,-596 1898.08,-596 1902.04,-596 1906,-599.96 1906,-603.92 1906,-603.92 1906,-611.83 1906,-611.83 1906,-615.79 1902.04,-619.75 1898.08,-619.75"/>
<text xml:space="preserve" text-anchor="middle" x="1709.38" y="-602.45" font-family="Arial" font-size="14.00" fill="#c6c5fe">features/chat/components/ControlPanel/ModelSelectionTab.tsx</text>
</g>
<!-- features/chat/components/ControlPanel/index.tsx&#45;&gt;features/chat/components/ControlPanel/ModelSelectionTab.tsx -->
<g id="edge34" class="edge">
<title>features/chat/components/ControlPanel/index.tsx&#45;&gt;features/chat/components/ControlPanel/ModelSelectionTab.tsx</title>
<path fill="none" stroke="#757575" d="M1438,-716.54C1451.19,-714.14 1464.31,-711.28 1476.75,-707.88 1550.7,-687.6 1631.83,-648.29 1675.73,-625.46"/>
<polygon fill="#757575" stroke="#757575" points="1677.24,-628.62 1684.47,-620.87 1673.99,-622.42 1677.24,-628.62"/>
</g>
<!-- features/chat/components/ControlPanel/ParametersTab.tsx -->
<g id="node31" class="node">
<title>features/chat/components/ControlPanel/ParametersTab.tsx</title>
<path fill="none" stroke="#c6c5fe" d="M1886.83,-737.75C1886.83,-737.75 1531.92,-737.75 1531.92,-737.75 1527.96,-737.75 1524,-733.79 1524,-729.83 1524,-729.83 1524,-721.92 1524,-721.92 1524,-717.96 1527.96,-714 1531.92,-714 1531.92,-714 1886.83,-714 1886.83,-714 1890.79,-714 1894.75,-717.96 1894.75,-721.92 1894.75,-721.92 1894.75,-729.83 1894.75,-729.83 1894.75,-733.79 1890.79,-737.75 1886.83,-737.75"/>
<text xml:space="preserve" text-anchor="middle" x="1709.38" y="-720.45" font-family="Arial" font-size="14.00" fill="#c6c5fe">features/chat/components/ControlPanel/ParametersTab.tsx</text>
</g>
<!-- features/chat/components/ControlPanel/index.tsx&#45;&gt;features/chat/components/ControlPanel/ParametersTab.tsx -->
<g id="edge35" class="edge">
<title>features/chat/components/ControlPanel/index.tsx&#45;&gt;features/chat/components/ControlPanel/ParametersTab.tsx</title>
<path fill="none" stroke="#757575" d="M1467.84,-727.7C1482.42,-727.59 1497.32,-727.48 1512.21,-727.36"/>
<polygon fill="#757575" stroke="#757575" points="1512.11,-730.86 1522.08,-727.29 1512.05,-723.86 1512.11,-730.86"/>
</g>
<!-- features/chat/components/drawer/HistorySidebar.tsx&#45;&gt;contexts/LayoutContext.tsx -->
<g id="edge40" class="edge">
<title>features/chat/components/drawer/HistorySidebar.tsx&#45;&gt;contexts/LayoutContext.tsx</title>
<path fill="none" stroke="#757575" d="M1477.14,-678.27C1726.71,-667.13 2189.15,-654.59 2345.75,-704.88 2409.22,-725.25 2470.24,-776.9 2500.8,-805.7"/>
<polygon fill="#757575" stroke="#757575" points="2498.21,-808.06 2507.84,-812.46 2503.05,-803.01 2498.21,-808.06"/>
</g>
<!-- services/chatHistoryService.ts -->
<g id="node35" class="node">
<title>services/chatHistoryService.ts</title>
<path fill="none" stroke="#c6c5fe" d="M1799.46,-577.75C1799.46,-577.75 1619.29,-577.75 1619.29,-577.75 1615.33,-577.75 1611.38,-573.79 1611.38,-569.83 1611.38,-569.83 1611.38,-561.92 1611.38,-561.92 1611.38,-557.96 1615.33,-554 1619.29,-554 1619.29,-554 1799.46,-554 1799.46,-554 1803.42,-554 1807.38,-557.96 1807.38,-561.92 1807.38,-561.92 1807.38,-569.83 1807.38,-569.83 1807.38,-573.79 1803.42,-577.75 1799.46,-577.75"/>
<text xml:space="preserve" text-anchor="middle" x="1709.38" y="-560.45" font-family="Arial" font-size="14.00" fill="#c6c5fe">services/chatHistoryService.ts</text>
</g>
<!-- features/chat/components/drawer/HistorySidebar.tsx&#45;&gt;services/chatHistoryService.ts -->
<g id="edge41" class="edge">
<title>features/chat/components/drawer/HistorySidebar.tsx&#45;&gt;services/chatHistoryService.ts</title>
<path fill="none" stroke="#757575" d="M1331.89,-674.5C1366.26,-652.66 1442.05,-607.63 1512.75,-586.88 1540.38,-578.76 1571.03,-573.72 1599.71,-570.6"/>
<polygon fill="#757575" stroke="#757575" points="1599.92,-574.09 1609.51,-569.61 1599.21,-567.13 1599.92,-574.09"/>
</g>
<!-- components/Layout/LayoutToggleButton.tsx -->
<g id="node15" class="node">
<title>components/Layout/LayoutToggleButton.tsx</title>
<path fill="none" stroke="#cfffac" d="M1443.33,-858.75C1443.33,-858.75 1180.67,-858.75 1180.67,-858.75 1176.71,-858.75 1172.75,-854.79 1172.75,-850.83 1172.75,-850.83 1172.75,-842.92 1172.75,-842.92 1172.75,-838.96 1176.71,-835 1180.67,-835 1180.67,-835 1443.33,-835 1443.33,-835 1447.29,-835 1451.25,-838.96 1451.25,-842.92 1451.25,-842.92 1451.25,-850.83 1451.25,-850.83 1451.25,-854.79 1447.29,-858.75 1443.33,-858.75"/>
<text xml:space="preserve" text-anchor="middle" x="1312" y="-841.45" font-family="Arial" font-size="14.00" fill="#cfffac">components/Layout/LayoutToggleButton.tsx</text>
</g>
<!-- components/Layout/MainContentWrapper.tsx&#45;&gt;contexts/LayoutContext.tsx -->
<g id="edge14" class="edge">
<title>components/Layout/MainContentWrapper.tsx&#45;&gt;contexts/LayoutContext.tsx</title>
<path fill="none" stroke="#757575" d="M992.81,-861.16C1027.76,-876.14 1090.59,-900.62 1147.25,-909.88 1356.97,-944.13 2025.96,-950.2 2345.75,-889.88 2395.97,-880.4 2450.86,-858.32 2485.62,-842.75"/>
<polygon fill="#757575" stroke="#757575" points="2486.7,-846.1 2494.35,-838.78 2483.8,-839.73 2486.7,-846.1"/>
</g>
<!-- components/Layout/MainHeader.tsx&#45;&gt;contexts/LayoutContext.tsx -->
<g id="edge17" class="edge">
<title>components/Layout/MainHeader.tsx&#45;&gt;contexts/LayoutContext.tsx</title>
<path fill="none" stroke="#757575" d="M1081.1,-801.83C1209.56,-797.86 1407.99,-797.05 1476.75,-825.88 1497.05,-834.38 1492.3,-851.74 1512.75,-859.88 1684.76,-928.26 2161.49,-877.57 2345.75,-859.88 2384.17,-856.19 2426.67,-848.05 2460.21,-840.66"/>
<polygon fill="#757575" stroke="#757575" points="2460.76,-844.13 2469.75,-838.52 2459.23,-837.3 2460.76,-844.13"/>
</g>
<!-- components/Layout/MainHeader.tsx&#45;&gt;components/Layout/LayoutToggleButton.tsx -->
<g id="edge15" class="edge">
<title>components/Layout/MainHeader.tsx&#45;&gt;components/Layout/LayoutToggleButton.tsx</title>
<path fill="none" stroke="#757575" d="M1071.98,-819.2C1110.32,-823.64 1153.79,-828.67 1193.05,-833.22"/>
<polygon fill="#757575" stroke="#757575" points="1192.44,-836.67 1202.77,-834.35 1193.24,-829.72 1192.44,-836.67"/>
</g>
<!-- components/Logo.tsx -->
<g id="node18" class="node">
<title>components/Logo.tsx</title>
<path fill="none" stroke="#cfffac" d="M1376.58,-900.75C1376.58,-900.75 1247.42,-900.75 1247.42,-900.75 1243.46,-900.75 1239.5,-896.79 1239.5,-892.83 1239.5,-892.83 1239.5,-884.92 1239.5,-884.92 1239.5,-880.96 1243.46,-877 1247.42,-877 1247.42,-877 1376.58,-877 1376.58,-877 1380.54,-877 1384.5,-880.96 1384.5,-884.92 1384.5,-884.92 1384.5,-892.83 1384.5,-892.83 1384.5,-896.79 1380.54,-900.75 1376.58,-900.75"/>
<text xml:space="preserve" text-anchor="middle" x="1312" y="-883.45" font-family="Arial" font-size="14.00" fill="#cfffac">components/Logo.tsx</text>
</g>
<!-- components/Layout/MainHeader.tsx&#45;&gt;components/Logo.tsx -->
<g id="edge16" class="edge">
<title>components/Layout/MainHeader.tsx&#45;&gt;components/Logo.tsx</title>
<path fill="none" stroke="#757575" d="M1081.29,-815.87C1091.74,-818.95 1101.89,-822.88 1111.25,-827.88 1132.35,-839.14 1126.07,-856.77 1147.25,-867.88 1171.68,-880.68 1200.89,-886.83 1227.83,-889.51"/>
<polygon fill="#757575" stroke="#757575" points="1227.45,-892.99 1237.71,-890.33 1228.03,-886.01 1227.45,-892.99"/>
</g>
<!-- services/api.ts -->
<g id="node42" class="node">
<title>services/api.ts</title>
<path fill="none" stroke="#cfffac" d="M2564.96,-366.75C2564.96,-366.75 2479.29,-366.75 2479.29,-366.75 2475.33,-366.75 2471.38,-362.79 2471.38,-358.83 2471.38,-358.83 2471.38,-350.92 2471.38,-350.92 2471.38,-346.96 2475.33,-343 2479.29,-343 2479.29,-343 2564.96,-343 2564.96,-343 2568.92,-343 2572.88,-346.96 2572.88,-350.92 2572.88,-350.92 2572.88,-358.83 2572.88,-358.83 2572.88,-362.79 2568.92,-366.75 2564.96,-366.75"/>
<text xml:space="preserve" text-anchor="middle" x="2522.12" y="-349.45" font-family="Arial" font-size="14.00" fill="#cfffac">services/api.ts</text>
</g>
<!-- services/authService.ts&#45;&gt;services/api.ts -->
<g id="edge82" class="edge">
<title>services/authService.ts&#45;&gt;services/api.ts</title>
<path fill="none" stroke="#757575" d="M1786.92,-185C1909.1,-172.21 2153.93,-158.93 2345.75,-226.88 2410.43,-249.78 2471.8,-304.83 2501.86,-334.73"/>
<polygon fill="#757575" stroke="#757575" points="2499.24,-337.06 2508.76,-341.72 2504.22,-332.14 2499.24,-337.06"/>
</g>
<!-- services/userSettingsService.ts&#45;&gt;services/api.ts -->
<g id="edge86" class="edge">
<title>services/userSettingsService.ts&#45;&gt;services/api.ts</title>
<path fill="none" stroke="#757575" d="M1414.18,-353.04C1656.41,-353.44 2263.94,-354.45 2459.47,-354.77"/>
<polygon fill="#757575" stroke="#757575" points="2459.41,-358.27 2469.41,-354.79 2459.42,-351.27 2459.41,-358.27"/>
</g>
<!-- features/chat/components/ChatMessage.tsx -->
<g id="node23" class="node">
<title>features/chat/components/ChatMessage.tsx</title>
<path fill="none" stroke="#c6c5fe" d="M2654.58,-1018.75C2654.58,-1018.75 2389.67,-1018.75 2389.67,-1018.75 2385.71,-1018.75 2381.75,-1014.79 2381.75,-1010.83 2381.75,-1010.83 2381.75,-1002.92 2381.75,-1002.92 2381.75,-998.96 2385.71,-995 2389.67,-995 2389.67,-995 2654.58,-995 2654.58,-995 2658.54,-995 2662.5,-998.96 2662.5,-1002.92 2662.5,-1002.92 2662.5,-1010.83 2662.5,-1010.83 2662.5,-1014.79 2658.54,-1018.75 2654.58,-1018.75"/>
<text xml:space="preserve" text-anchor="middle" x="2522.12" y="-1001.45" font-family="Arial" font-size="14.00" fill="#c6c5fe">features/chat/components/ChatMessage.tsx</text>
</g>
<!-- features/chat/components/ChatMessage.tsx&#45;&gt;features/chat/types/index.ts -->
<g id="edge26" class="edge">
<title>features/chat/components/ChatMessage.tsx&#45;&gt;features/chat/types/index.ts</title>
<path fill="none" stroke="#757575" d="M2620.94,-994.5C2662.99,-989.18 2712.11,-982.97 2754.47,-977.61"/>
<polygon fill="#757575" stroke="#757575" points="2754.67,-981.11 2764.16,-976.38 2753.8,-974.17 2754.67,-981.11"/>
</g>
<!-- features/chat/components/MarkdownRenderer.tsx -->
<g id="node24" class="node">
<title>features/chat/components/MarkdownRenderer.tsx</title>
<path fill="none" stroke="#cfffac" d="M3005.83,-1018.75C3005.83,-1018.75 2706.42,-1018.75 2706.42,-1018.75 2702.46,-1018.75 2698.5,-1014.79 2698.5,-1010.83 2698.5,-1010.83 2698.5,-1002.92 2698.5,-1002.92 2698.5,-998.96 2702.46,-995 2706.42,-995 2706.42,-995 3005.83,-995 3005.83,-995 3009.79,-995 3013.75,-998.96 3013.75,-1002.92 3013.75,-1002.92 3013.75,-1010.83 3013.75,-1010.83 3013.75,-1014.79 3009.79,-1018.75 3005.83,-1018.75"/>
<text xml:space="preserve" text-anchor="middle" x="2856.12" y="-1001.45" font-family="Arial" font-size="14.00" fill="#cfffac">features/chat/components/MarkdownRenderer.tsx</text>
</g>
<!-- features/chat/components/ChatMessage.tsx&#45;&gt;features/chat/components/MarkdownRenderer.tsx -->
<g id="edge25" class="edge">
<title>features/chat/components/ChatMessage.tsx&#45;&gt;features/chat/components/MarkdownRenderer.tsx</title>
<path fill="none" stroke="#757575" d="M2662.96,-1006.88C2670.85,-1006.88 2678.82,-1006.88 2686.8,-1006.88"/>
<polygon fill="#757575" stroke="#757575" points="2686.56,-1010.38 2696.56,-1006.88 2686.56,-1003.38 2686.56,-1010.38"/>
</g>
<!-- features/chat/components/ControlPanel/PanelSection.tsx -->
<g id="node26" class="node">
<title>features/chat/components/ControlPanel/PanelSection.tsx</title>
<path fill="none" stroke="#cfffac" d="M2314.96,-775.75C2314.96,-775.75 1972.79,-775.75 1972.79,-775.75 1968.83,-775.75 1964.88,-771.79 1964.88,-767.83 1964.88,-767.83 1964.88,-759.92 1964.88,-759.92 1964.88,-755.96 1968.83,-752 1972.79,-752 1972.79,-752 2314.96,-752 2314.96,-752 2318.92,-752 2322.88,-755.96 2322.88,-759.92 2322.88,-759.92 2322.88,-767.83 2322.88,-767.83 2322.88,-771.79 2318.92,-775.75 2314.96,-775.75"/>
<text xml:space="preserve" text-anchor="middle" x="2143.88" y="-758.45" font-family="Arial" font-size="14.00" fill="#cfffac">features/chat/components/ControlPanel/PanelSection.tsx</text>
</g>
<!-- features/chat/components/ControlPanel/ManualContextTab.tsx&#45;&gt;features/chat/components/ControlPanel/PanelSection.tsx -->
<g id="edge27" class="edge">
<title>features/chat/components/ControlPanel/ManualContextTab.tsx&#45;&gt;features/chat/components/ControlPanel/PanelSection.tsx</title>
<path fill="none" stroke="#757575" d="M1905.75,-766.07C1921.51,-765.92 1937.42,-765.78 1953.14,-765.63"/>
<polygon fill="#757575" stroke="#757575" points="1953.07,-769.13 1963.04,-765.54 1953.01,-762.13 1953.07,-769.13"/>
</g>
<!-- features/chat/components/ControlPanel/ManualContextTab.tsx&#45;&gt;features/chat/components/ControlPanel/useControlPanelLogic.ts -->
<g id="edge28" class="edge">
<title>features/chat/components/ControlPanel/ManualContextTab.tsx&#45;&gt;features/chat/components/ControlPanel/useControlPanelLogic.ts</title>
<path fill="none" stroke="#757575" d="M1851.09,-780.24C1895.76,-784.16 1945.35,-788.52 1990.78,-792.51"/>
<polygon fill="#757575" stroke="#757575" points="1990.46,-796 2000.73,-793.39 1991.07,-789.02 1990.46,-796"/>
</g>
<!-- features/chat/components/ControlPanel/useControlPanelLogic.ts&#45;&gt;contexts/LayoutContext.tsx -->
<g id="edge37" class="edge">
<title>features/chat/components/ControlPanel/useControlPanelLogic.ts&#45;&gt;contexts/LayoutContext.tsx</title>
<path fill="none" stroke="#757575" d="M2346.22,-816.58C2372.34,-817.97 2398.13,-819.34 2421.54,-820.58"/>
<polygon fill="#757575" stroke="#757575" points="2421.15,-824.07 2431.33,-821.1 2421.53,-817.08 2421.15,-824.07"/>
</g>
<!-- features/chat/components/ControlPanel/ModelSelectionTab.tsx&#45;&gt;contexts/LayoutContext.tsx -->
<g id="edge29" class="edge">
<title>features/chat/components/ControlPanel/ModelSelectionTab.tsx&#45;&gt;contexts/LayoutContext.tsx</title>
<path fill="none" stroke="#757575" d="M1906.4,-599.63C2063.74,-595.98 2270.37,-598.78 2345.75,-633.88 2425,-670.78 2484.7,-761.71 2509.08,-803.82"/>
<polygon fill="#757575" stroke="#757575" points="2505.92,-805.34 2513.89,-812.32 2512.02,-801.89 2505.92,-805.34"/>
</g>
<!-- services/aiProvidersService.ts -->
<g id="node29" class="node">
<title>services/aiProvidersService.ts</title>
<path fill="none" stroke="#c6c5fe" d="M2233.96,-505.75C2233.96,-505.75 2053.79,-505.75 2053.79,-505.75 2049.83,-505.75 2045.88,-501.79 2045.88,-497.83 2045.88,-497.83 2045.88,-489.92 2045.88,-489.92 2045.88,-485.96 2049.83,-482 2053.79,-482 2053.79,-482 2233.96,-482 2233.96,-482 2237.92,-482 2241.88,-485.96 2241.88,-489.92 2241.88,-489.92 2241.88,-497.83 2241.88,-497.83 2241.88,-501.79 2237.92,-505.75 2233.96,-505.75"/>
<text xml:space="preserve" text-anchor="middle" x="2143.88" y="-488.45" font-family="Arial" font-size="14.00" fill="#c6c5fe">services/aiProvidersService.ts</text>
</g>
<!-- features/chat/components/ControlPanel/ModelSelectionTab.tsx&#45;&gt;services/aiProvidersService.ts -->
<g id="edge30" class="edge">
<title>features/chat/components/ControlPanel/ModelSelectionTab.tsx&#45;&gt;services/aiProvidersService.ts</title>
<path fill="none" stroke="#757575" d="M1880.99,-595.56C1889.57,-593.08 1897.95,-590.21 1906,-586.88 1924.98,-579.02 1923.9,-567.6 1942,-557.88 1983.55,-535.54 2034.18,-519.47 2074.21,-509.02"/>
<polygon fill="#757575" stroke="#757575" points="2074.91,-512.45 2083.74,-506.6 2073.18,-505.67 2074.91,-512.45"/>
</g>
<!-- types/ai.ts -->
<g id="node30" class="node">
<title>types/ai.ts</title>
<path fill="none" stroke="#cfffac" d="M2552.58,-545.75C2552.58,-545.75 2491.67,-545.75 2491.67,-545.75 2487.71,-545.75 2483.75,-541.79 2483.75,-537.83 2483.75,-537.83 2483.75,-529.92 2483.75,-529.92 2483.75,-525.96 2487.71,-522 2491.67,-522 2491.67,-522 2552.58,-522 2552.58,-522 2556.54,-522 2560.5,-525.96 2560.5,-529.92 2560.5,-529.92 2560.5,-537.83 2560.5,-537.83 2560.5,-541.79 2556.54,-545.75 2552.58,-545.75"/>
<text xml:space="preserve" text-anchor="middle" x="2522.12" y="-528.45" font-family="Arial" font-size="14.00" fill="#cfffac">types/ai.ts</text>
</g>
<!-- features/chat/components/ControlPanel/ModelSelectionTab.tsx&#45;&gt;types/ai.ts -->
<g id="edge31" class="edge">
<title>features/chat/components/ControlPanel/ModelSelectionTab.tsx&#45;&gt;types/ai.ts</title>
<path fill="none" stroke="#757575" d="M1845.62,-595.53C2029.8,-578.72 2350.52,-549.45 2472.32,-538.33"/>
<polygon fill="#757575" stroke="#757575" points="2472.32,-541.84 2481.96,-537.45 2471.69,-534.87 2472.32,-541.84"/>
</g>
<!-- services/aiProvidersService.ts&#45;&gt;types/ai.ts -->
<g id="edge80" class="edge">
<title>services/aiProvidersService.ts&#45;&gt;types/ai.ts</title>
<path fill="none" stroke="#757575" d="M2242.26,-504.23C2316,-512.07 2414.2,-522.51 2472.24,-528.68"/>
<polygon fill="#757575" stroke="#757575" points="2471.82,-532.15 2482.13,-529.73 2472.56,-525.19 2471.82,-532.15"/>
</g>
<!-- services/aiProvidersService.ts&#45;&gt;services/api.ts -->
<g id="edge79" class="edge">
<title>services/aiProvidersService.ts&#45;&gt;services/api.ts</title>
<path fill="none" stroke="#757575" d="M2242.22,-490C2275.79,-486.39 2313.14,-479.8 2345.75,-467.88 2406.12,-445.8 2467.08,-400.02 2498.79,-374.02"/>
<polygon fill="#757575" stroke="#757575" points="2500.69,-376.99 2506.13,-367.9 2496.21,-371.61 2500.69,-376.99"/>
</g>
<!-- features/chat/components/ControlPanel/ParametersTab.tsx&#45;&gt;contexts/LayoutContext.tsx -->
<g id="edge32" class="edge">
<title>features/chat/components/ControlPanel/ParametersTab.tsx&#45;&gt;contexts/LayoutContext.tsx</title>
<path fill="none" stroke="#757575" d="M1846.03,-713.5C1976.13,-705.36 2177.11,-702.61 2345.75,-742.88 2400.68,-755.99 2458.88,-787.53 2492.51,-807.73"/>
<polygon fill="#757575" stroke="#757575" points="2490.48,-810.59 2500.83,-812.81 2494.12,-804.62 2490.48,-810.59"/>
</g>
<!-- features/chat/components/MessageList.tsx&#45;&gt;features/chat/types/index.ts -->
<g id="edge39" class="edge">
<title>features/chat/components/MessageList.tsx&#45;&gt;features/chat/types/index.ts</title>
<path fill="none" stroke="#757575" d="M2272.65,-994.51C2307.97,-991.37 2346.32,-988.23 2381.75,-985.88 2510.12,-977.34 2658.31,-971.4 2754.2,-968.06"/>
<polygon fill="#757575" stroke="#757575" points="2754.24,-971.56 2764.12,-967.72 2754,-964.57 2754.24,-971.56"/>
</g>
<!-- features/chat/components/MessageList.tsx&#45;&gt;features/chat/components/ChatMessage.tsx -->
<g id="edge38" class="edge">
<title>features/chat/components/MessageList.tsx&#45;&gt;features/chat/components/ChatMessage.tsx</title>
<path fill="none" stroke="#757575" d="M2280.98,-1006.88C2309.99,-1006.88 2340.79,-1006.88 2370.31,-1006.88"/>
<polygon fill="#757575" stroke="#757575" points="2370.05,-1010.38 2380.05,-1006.88 2370.05,-1003.38 2370.05,-1010.38"/>
</g>
<!-- services/chatHistoryService.ts&#45;&gt;services/api.ts -->
<g id="edge83" class="edge">
<title>services/chatHistoryService.ts&#45;&gt;services/api.ts</title>
<path fill="none" stroke="#757575" d="M1807.87,-570.43C1841.44,-567.67 1877.68,-559.46 1906,-539.88 1933.81,-520.65 1913.83,-491.56 1942,-472.88 2017.09,-423.05 2258.68,-458.12 2345.75,-434.88 2399.08,-420.64 2456.49,-391.54 2490.58,-372.64"/>
<polygon fill="#757575" stroke="#757575" points="2492.06,-375.82 2499.07,-367.87 2488.63,-369.72 2492.06,-375.82"/>
</g>
<!-- features/chat/hooks/useChatLogic.ts&#45;&gt;contexts/AuthContext.tsx -->
<g id="edge42" class="edge">
<title>features/chat/hooks/useChatLogic.ts&#45;&gt;contexts/AuthContext.tsx</title>
<path fill="none" stroke="#757575" d="M998.89,-553.56C1032.93,-539.18 1084.43,-511.98 1111.25,-470.88 1165.15,-388.26 1091.6,-333.32 1147.25,-251.88 1174.4,-212.15 1223.65,-186.23 1261.07,-171.27"/>
<polygon fill="#757575" stroke="#757575" points="1262.28,-174.55 1270.36,-167.69 1259.77,-168.02 1262.28,-174.55"/>
</g>
<!-- features/chat/hooks/useChatLogic.ts&#45;&gt;contexts/LayoutContext.tsx -->
<g id="edge43" class="edge">
<title>features/chat/hooks/useChatLogic.ts&#45;&gt;contexts/LayoutContext.tsx</title>
<path fill="none" stroke="#757575" d="M1055.37,-578.22C1163.64,-592.62 1351.15,-616.1 1512.75,-628.88 1605.1,-636.18 2260.17,-629.4 2345.75,-664.88 2417.64,-694.68 2478.66,-767.74 2505.9,-804.3"/>
<polygon fill="#757575" stroke="#757575" points="2503.06,-806.34 2511.78,-812.36 2508.71,-802.22 2503.06,-806.34"/>
</g>
<!-- features/chat/hooks/useChatLogic.ts&#45;&gt;services/chatHistoryService.ts -->
<g id="edge44" class="edge">
<title>features/chat/hooks/useChatLogic.ts&#45;&gt;services/chatHistoryService.ts</title>
<path fill="none" stroke="#757575" d="M1081.98,-565.88C1223.77,-565.88 1461.35,-565.88 1599.57,-565.88"/>
<polygon fill="#757575" stroke="#757575" points="1599.48,-569.38 1609.48,-565.88 1599.48,-562.38 1599.48,-569.38"/>
</g>
<!-- services/chatService.ts -->
<g id="node37" class="node">
<title>services/chatService.ts</title>
<path fill="none" stroke="#c6c5fe" d="M2212.96,-425.75C2212.96,-425.75 2074.79,-425.75 2074.79,-425.75 2070.83,-425.75 2066.88,-421.79 2066.88,-417.83 2066.88,-417.83 2066.88,-409.92 2066.88,-409.92 2066.88,-405.96 2070.83,-402 2074.79,-402 2074.79,-402 2212.96,-402 2212.96,-402 2216.92,-402 2220.88,-405.96 2220.88,-409.92 2220.88,-409.92 2220.88,-417.83 2220.88,-417.83 2220.88,-421.79 2216.92,-425.75 2212.96,-425.75"/>
<text xml:space="preserve" text-anchor="middle" x="2143.88" y="-408.45" font-family="Arial" font-size="14.00" fill="#c6c5fe">services/chatService.ts</text>
</g>
<!-- features/chat/hooks/useChatLogic.ts&#45;&gt;services/chatService.ts -->
<g id="edge45" class="edge">
<title>features/chat/hooks/useChatLogic.ts&#45;&gt;services/chatService.ts</title>
<path fill="none" stroke="#757575" d="M1044.43,-553.52C1210.3,-527.87 1607.34,-468.14 1942,-430.88 1979.04,-426.75 2020.01,-423.12 2055.25,-420.28"/>
<polygon fill="#757575" stroke="#757575" points="2055.27,-423.79 2064.96,-419.5 2054.72,-416.81 2055.27,-423.79"/>
</g>
<!-- services/chatService.ts&#45;&gt;services/api.ts -->
<g id="edge84" class="edge">
<title>services/chatService.ts&#45;&gt;services/api.ts</title>
<path fill="none" stroke="#757575" d="M2221.33,-405.02C2258.89,-400.41 2304.77,-394.38 2345.75,-387.88 2383.82,-381.83 2426.32,-373.87 2459.94,-367.28"/>
<polygon fill="#757575" stroke="#757575" points="2460.37,-370.76 2469.5,-365.39 2459.01,-363.89 2460.37,-370.76"/>
</g>
<!-- features/settings/components/SettingsSection.tsx -->
<g id="node39" class="node">
<title>features/settings/components/SettingsSection.tsx</title>
<path fill="none" stroke="#cfffac" d="M1459.83,-284.75C1459.83,-284.75 1164.17,-284.75 1164.17,-284.75 1160.21,-284.75 1156.25,-280.79 1156.25,-276.83 1156.25,-276.83 1156.25,-268.92 1156.25,-268.92 1156.25,-264.96 1160.21,-261 1164.17,-261 1164.17,-261 1459.83,-261 1459.83,-261 1463.79,-261 1467.75,-264.96 1467.75,-268.92 1467.75,-268.92 1467.75,-276.83 1467.75,-276.83 1467.75,-280.79 1463.79,-284.75 1459.83,-284.75"/>
<text xml:space="preserve" text-anchor="middle" x="1312" y="-267.45" font-family="Arial" font-size="14.00" fill="#cfffac">features/settings/components/SettingsSection.tsx</text>
</g>
<!-- features/settings/components/AnalyticsTab.tsx&#45;&gt;features/settings/components/SettingsSection.tsx -->
<g id="edge53" class="edge">
<title>features/settings/components/AnalyticsTab.tsx&#45;&gt;features/settings/components/SettingsSection.tsx</title>
<path fill="none" stroke="#757575" d="M1080.56,-357.56C1091.33,-354.01 1101.75,-349.52 1111.25,-343.88 1133.27,-330.79 1125.11,-311.75 1147.25,-298.88 1153.69,-295.13 1160.49,-291.88 1167.53,-289.06"/>
<polygon fill="#757575" stroke="#757575" points="1168.39,-292.47 1176.57,-285.74 1165.98,-285.9 1168.39,-292.47"/>
</g>
<!-- services/analyticsService.ts -->
<g id="node40" class="node">
<title>services/analyticsService.ts</title>
<path fill="none" stroke="#c6c5fe" d="M2226.46,-307.75C2226.46,-307.75 2061.29,-307.75 2061.29,-307.75 2057.33,-307.75 2053.38,-303.79 2053.38,-299.83 2053.38,-299.83 2053.38,-291.92 2053.38,-291.92 2053.38,-287.96 2057.33,-284 2061.29,-284 2061.29,-284 2226.46,-284 2226.46,-284 2230.42,-284 2234.38,-287.96 2234.38,-291.92 2234.38,-291.92 2234.38,-299.83 2234.38,-299.83 2234.38,-303.79 2230.42,-307.75 2226.46,-307.75"/>
<text xml:space="preserve" text-anchor="middle" x="2143.88" y="-290.45" font-family="Arial" font-size="14.00" fill="#c6c5fe">services/analyticsService.ts</text>
</g>
<!-- features/settings/components/AnalyticsTab.tsx&#45;&gt;services/analyticsService.ts -->
<g id="edge54" class="edge">
<title>features/settings/components/AnalyticsTab.tsx&#45;&gt;services/analyticsService.ts</title>
<path fill="none" stroke="#757575" d="M1013.35,-357.55C1049.78,-348.73 1101.33,-337.46 1147.25,-331.88 1472.3,-292.31 1861.08,-291.57 2041.57,-293.88"/>
<polygon fill="#757575" stroke="#757575" points="2041.33,-297.37 2051.38,-294.01 2041.42,-290.37 2041.33,-297.37"/>
</g>
<!-- services/analyticsService.ts&#45;&gt;services/api.ts -->
<g id="edge81" class="edge">
<title>services/analyticsService.ts&#45;&gt;services/api.ts</title>
<path fill="none" stroke="#757575" d="M2234.53,-306.36C2269.32,-310.73 2309.46,-316.12 2345.75,-321.88 2383.82,-327.92 2426.32,-335.88 2459.94,-342.47"/>
<polygon fill="#757575" stroke="#757575" points="2459.01,-345.86 2469.5,-344.36 2460.37,-338.99 2459.01,-345.86"/>
</g>
<!-- features/settings/components/ApiKeysTab.tsx&#45;&gt;services/aiProvidersService.ts -->
<g id="edge56" class="edge">
<title>features/settings/components/ApiKeysTab.tsx&#45;&gt;services/aiProvidersService.ts</title>
<path fill="none" stroke="#757575" d="M1109.41,-450.92C1294.02,-452.87 1624.06,-458.39 1906,-473.88 1947.91,-476.18 1993.9,-479.81 2034.12,-483.35"/>
<polygon fill="#757575" stroke="#757575" points="2033.8,-486.83 2044.07,-484.23 2034.42,-479.86 2033.8,-486.83"/>
</g>
<!-- features/settings/components/ApiKeysTab.tsx&#45;&gt;types/ai.ts -->
<g id="edge58" class="edge">
<title>features/settings/components/ApiKeysTab.tsx&#45;&gt;types/ai.ts</title>
<path fill="none" stroke="#757575" d="M1083.25,-462.22C1104.54,-464.26 1126.55,-466.24 1147.25,-467.88 1499.99,-495.76 1588.53,-498.63 1942,-514.88 2138.27,-523.9 2372.15,-530.21 2472.01,-532.7"/>
<polygon fill="#757575" stroke="#757575" points="2471.91,-536.2 2481.99,-532.95 2472.08,-529.2 2471.91,-536.2"/>
</g>
<!-- features/settings/components/ApiKeysTab.tsx&#45;&gt;features/settings/components/SettingsSection.tsx -->
<g id="edge55" class="edge">
<title>features/settings/components/ApiKeysTab.tsx&#45;&gt;features/settings/components/SettingsSection.tsx</title>
<path fill="none" stroke="#757575" d="M1017.7,-437.55C1047.6,-428.47 1084.4,-413.66 1111.25,-390.88 1134.67,-371 1123.45,-351.29 1147.25,-331.88 1172.79,-311.03 1206.31,-297.24 1236.36,-288.27"/>
<polygon fill="#757575" stroke="#757575" points="1237.13,-291.69 1245.79,-285.6 1235.22,-284.96 1237.13,-291.69"/>
</g>
<!-- features/settings/components/ApiKeysTab.tsx&#45;&gt;services/api.ts -->
<g id="edge57" class="edge">
<title>features/settings/components/ApiKeysTab.tsx&#45;&gt;services/api.ts</title>
<path fill="none" stroke="#757575" d="M1109.41,-441.09C1438.08,-421.02 2232.95,-372.47 2459.77,-358.62"/>
<polygon fill="#757575" stroke="#757575" points="2459.8,-362.13 2469.56,-358.02 2459.37,-355.14 2459.8,-362.13"/>
</g>
<!-- features/settings/components/AppearanceTab.tsx&#45;&gt;contexts/ThemeContext.tsx -->
<g id="edge59" class="edge">
<title>features/settings/components/AppearanceTab.tsx&#45;&gt;contexts/ThemeContext.tsx</title>
<path fill="none" stroke="#757575" d="M721.63,-317.55C766.57,-312.41 818.48,-306.47 862.67,-301.41"/>
<polygon fill="#757575" stroke="#757575" points="862.98,-304.9 872.52,-300.28 862.18,-297.94 862.98,-304.9"/>
</g>
<!-- features/settings/components/AppearanceTab.tsx&#45;&gt;features/settings/components/SettingsSection.tsx -->
<g id="edge60" class="edge">
<title>features/settings/components/AppearanceTab.tsx&#45;&gt;features/settings/components/SettingsSection.tsx</title>
<path fill="none" stroke="#757575" d="M769.41,-335.18C868.1,-335.78 998.07,-331.47 1111.25,-310.88 1127.84,-307.86 1130.87,-302.88 1147.25,-298.88 1165.72,-294.36 1185.55,-290.45 1204.82,-287.13"/>
<polygon fill="#757575" stroke="#757575" points="1205.31,-290.59 1214.6,-285.49 1204.15,-283.69 1205.31,-290.59"/>
</g>
<!-- features/settings/components/ProfileTab.tsx&#45;&gt;contexts/AuthContext.tsx -->
<g id="edge61" class="edge">
<title>features/settings/components/ProfileTab.tsx&#45;&gt;contexts/AuthContext.tsx</title>
<path fill="none" stroke="#757575" d="M1078.79,-235.58C1090.14,-232.04 1101.17,-227.56 1111.25,-221.88 1132.37,-209.97 1126.01,-192.58 1147.25,-180.88 1168.58,-169.12 1193.69,-162.29 1217.76,-158.42"/>
<polygon fill="#757575" stroke="#757575" points="1218.2,-161.89 1227.6,-157.01 1217.2,-154.97 1218.2,-161.89"/>
</g>
<!-- features/settings/components/ProfileTab.tsx&#45;&gt;services/authService.ts -->
<g id="edge63" class="edge">
<title>features/settings/components/ProfileTab.tsx&#45;&gt;services/authService.ts</title>
<path fill="none" stroke="#757575" d="M1103.49,-238.03C1254.7,-227.24 1492.72,-210.26 1620.43,-201.15"/>
<polygon fill="#757575" stroke="#757575" points="1620.45,-204.66 1630.18,-200.45 1619.95,-197.67 1620.45,-204.66"/>
</g>
<!-- features/settings/components/ProfileTab.tsx&#45;&gt;features/settings/components/SettingsSection.tsx -->
<g id="edge62" class="edge">
<title>features/settings/components/ProfileTab.tsx&#45;&gt;features/settings/components/SettingsSection.tsx</title>
<path fill="none" stroke="#757575" d="M1103.54,-257.86C1116.98,-258.84 1130.7,-259.83 1144.38,-260.82"/>
<polygon fill="#757575" stroke="#757575" points="1144.11,-264.31 1154.34,-261.54 1144.62,-257.33 1144.11,-264.31"/>
</g>
<!-- services/userService.ts -->
<g id="node45" class="node">
<title>services/userService.ts</title>
<path fill="none" stroke="#c6c5fe" d="M1778.83,-249.75C1778.83,-249.75 1639.92,-249.75 1639.92,-249.75 1635.96,-249.75 1632,-245.79 1632,-241.83 1632,-241.83 1632,-233.92 1632,-233.92 1632,-229.96 1635.96,-226 1639.92,-226 1639.92,-226 1778.83,-226 1778.83,-226 1782.79,-226 1786.75,-229.96 1786.75,-233.92 1786.75,-233.92 1786.75,-241.83 1786.75,-241.83 1786.75,-245.79 1782.79,-249.75 1778.83,-249.75"/>
<text xml:space="preserve" text-anchor="middle" x="1709.38" y="-232.45" font-family="Arial" font-size="14.00" fill="#c6c5fe">services/userService.ts</text>
</g>
<!-- features/settings/components/ProfileTab.tsx&#45;&gt;services/userService.ts -->
<g id="edge64" class="edge">
<title>features/settings/components/ProfileTab.tsx&#45;&gt;services/userService.ts</title>
<path fill="none" stroke="#757575" d="M1103.49,-246.02C1254.7,-243.98 1492.72,-240.78 1620.43,-239.06"/>
<polygon fill="#757575" stroke="#757575" points="1620.22,-242.56 1630.17,-238.93 1620.13,-235.56 1620.22,-242.56"/>
</g>
<!-- services/userService.ts&#45;&gt;services/api.ts -->
<g id="edge85" class="edge">
<title>services/userService.ts&#45;&gt;services/api.ts</title>
<path fill="none" stroke="#757575" d="M1787.04,-233.35C1907.83,-228.22 2148.95,-226.07 2345.75,-274.88 2399.47,-288.2 2456.98,-317.7 2490.96,-336.91"/>
<polygon fill="#757575" stroke="#757575" points="2488.99,-339.82 2499.4,-341.76 2492.47,-333.75 2488.99,-339.82"/>
</g>
<!-- index.tsx -->
<g id="node46" class="node">
<title>index.tsx</title>
<path fill="none" stroke="#c6c5fe" d="M78.21,-321.75C78.21,-321.75 24.79,-321.75 24.79,-321.75 20.83,-321.75 16.88,-317.79 16.88,-313.83 16.88,-313.83 16.88,-305.92 16.88,-305.92 16.88,-301.96 20.83,-298 24.79,-298 24.79,-298 78.21,-298 78.21,-298 82.17,-298 86.12,-301.96 86.12,-305.92 86.12,-305.92 86.12,-313.83 86.12,-313.83 86.12,-317.79 82.17,-321.75 78.21,-321.75"/>
<text xml:space="preserve" text-anchor="middle" x="51.5" y="-304.45" font-family="Arial" font-size="14.00" fill="#c6c5fe">index.tsx</text>
</g>
<!-- index.tsx&#45;&gt;App.tsx -->
<g id="edge73" class="edge">
<title>index.tsx&#45;&gt;App.tsx</title>
<path fill="none" stroke="#757575" d="M86.36,-303.74C99.32,-301.4 114.23,-298.7 127.77,-296.25"/>
<polygon fill="#757575" stroke="#757575" points="128.03,-299.76 137.25,-294.53 126.78,-292.87 128.03,-299.76"/>
</g>
<!-- main.tsx -->
<g id="node47" class="node">
<title>main.tsx</title>
<path fill="none" stroke="#c6c5fe" d="M77.08,-279.75C77.08,-279.75 25.92,-279.75 25.92,-279.75 21.96,-279.75 18,-275.79 18,-271.83 18,-271.83 18,-263.92 18,-263.92 18,-259.96 21.96,-256 25.92,-256 25.92,-256 77.08,-256 77.08,-256 81.04,-256 85,-259.96 85,-263.92 85,-263.92 85,-271.83 85,-271.83 85,-275.79 81.04,-279.75 77.08,-279.75"/>
<text xml:space="preserve" text-anchor="middle" x="51.5" y="-262.45" font-family="Arial" font-size="14.00" fill="#c6c5fe">main.tsx</text>
</g>
<!-- main.tsx&#45;&gt;App.tsx -->
<g id="edge74" class="edge">
<title>main.tsx&#45;&gt;App.tsx</title>
<path fill="none" stroke="#757575" d="M85.43,-273.84C98.51,-276.2 113.7,-278.95 127.49,-281.45"/>
<polygon fill="#757575" stroke="#757575" points="126.71,-284.87 137.17,-283.2 127.95,-277.98 126.71,-284.87"/>
</g>
<!-- theme.d.ts -->
<g id="node48" class="node">
<title>theme.d.ts</title>
<path fill="none" stroke="#cfffac" d="M83.46,-363.75C83.46,-363.75 19.54,-363.75 19.54,-363.75 15.58,-363.75 11.62,-359.79 11.62,-355.83 11.62,-355.83 11.62,-347.92 11.62,-347.92 11.62,-343.96 15.58,-340 19.54,-340 19.54,-340 83.46,-340 83.46,-340 87.42,-340 91.38,-343.96 91.38,-347.92 91.38,-347.92 91.38,-355.83 91.38,-355.83 91.38,-359.79 87.42,-363.75 83.46,-363.75"/>
<text xml:space="preserve" text-anchor="middle" x="51.5" y="-346.45" font-family="Arial" font-size="14.00" fill="#cfffac">theme.d.ts</text>
</g>
<!-- utils/storage.ts -->
<g id="node49" class="node">
<title>utils/storage.ts</title>
<path fill="none" stroke="#cfffac" d="M95.08,-405.75C95.08,-405.75 7.92,-405.75 7.92,-405.75 3.96,-405.75 0,-401.79 0,-397.83 0,-397.83 0,-389.92 0,-389.92 0,-385.96 3.96,-382 7.92,-382 7.92,-382 95.08,-382 95.08,-382 99.04,-382 103,-385.96 103,-389.92 103,-389.92 103,-397.83 103,-397.83 103,-401.79 99.04,-405.75 95.08,-405.75"/>
<text xml:space="preserve" text-anchor="middle" x="51.5" y="-388.45" font-family="Arial" font-size="14.00" fill="#cfffac">utils/storage.ts</text>
</g>
<!-- vite&#45;env.d.ts -->
<g id="node50" class="node">
<title>vite&#45;env.d.ts</title>
<path fill="none" stroke="#cfffac" d="M87.58,-447.75C87.58,-447.75 15.42,-447.75 15.42,-447.75 11.46,-447.75 7.5,-443.79 7.5,-439.83 7.5,-439.83 7.5,-431.92 7.5,-431.92 7.5,-427.96 11.46,-424 15.42,-424 15.42,-424 87.58,-424 87.58,-424 91.54,-424 95.5,-427.96 95.5,-431.92 95.5,-431.92 95.5,-439.83 95.5,-439.83 95.5,-443.79 91.54,-447.75 87.58,-447.75"/>
<text xml:space="preserve" text-anchor="middle" x="51.5" y="-430.45" font-family="Arial" font-size="14.00" fill="#cfffac">vite&#45;env.d.ts</text>
</g>
</g>
</svg>
