<?xml version="1.0" encoding="UTF-8" standalone="no"?>
<!DOCTYPE svg PUBLIC "-//W3C//DTD SVG 1.1//EN"
 "http://www.w3.org/Graphics/SVG/1.1/DTD/svg11.dtd">
<!-- Generated by graphviz version 13.1.2 (20250808.2320)
 -->
<!-- Title: G Pages: 1 -->
<svg width="2471pt" height="1261pt"
 viewBox="0.00 0.00 2471.00 1261.00" xmlns="http://www.w3.org/2000/svg" xmlns:xlink="http://www.w3.org/1999/xlink">
<g id="graph0" class="graph" transform="scale(1 1) rotate(0) translate(21.6 1239.16)">
<title>G</title>
<polygon fill="#111111" stroke="none" points="-21.6,21.6 -21.6,-1239.16 2449.6,-1239.16 2449.6,21.6 -21.6,21.6"/>
<!-- audit/builders/AuditRecordBuilder.ts -->
<g id="node1" class="node">
<title>audit/builders/AuditRecordBuilder.ts</title>
<path fill="none" stroke="#c6c5fe" d="M1754.08,-1217.56C1754.08,-1217.56 1540.17,-1217.56 1540.17,-1217.56 1536.21,-1217.56 1532.25,-1213.6 1532.25,-1209.65 1532.25,-1209.65 1532.25,-1201.73 1532.25,-1201.73 1532.25,-1197.77 1536.21,-1193.81 1540.17,-1193.81 1540.17,-1193.81 1754.08,-1193.81 1754.08,-1193.81 1758.04,-1193.81 1762,-1197.77 1762,-1201.73 1762,-1201.73 1762,-1209.65 1762,-1209.65 1762,-1213.6 1758.04,-1217.56 1754.08,-1217.56"/>
<text xml:space="preserve" text-anchor="middle" x="1647.12" y="-1200.26" font-family="Arial" font-size="14.00" fill="#c6c5fe">audit/builders/AuditRecordBuilder.ts</text>
</g>
<!-- audit/domain/AuditRecord.ts -->
<g id="node2" class="node">
<title>audit/domain/AuditRecord.ts</title>
<path fill="none" stroke="#cfffac" d="M2007.08,-1197.56C2007.08,-1197.56 1836.67,-1197.56 1836.67,-1197.56 1832.71,-1197.56 1828.75,-1193.6 1828.75,-1189.65 1828.75,-1189.65 1828.75,-1181.73 1828.75,-1181.73 1828.75,-1177.77 1832.71,-1173.81 1836.67,-1173.81 1836.67,-1173.81 2007.08,-1173.81 2007.08,-1173.81 2011.04,-1173.81 2015,-1177.77 2015,-1181.73 2015,-1181.73 2015,-1189.65 2015,-1189.65 2015,-1193.6 2011.04,-1197.56 2007.08,-1197.56"/>
<text xml:space="preserve" text-anchor="middle" x="1921.88" y="-1180.26" font-family="Arial" font-size="14.00" fill="#cfffac">audit/domain/AuditRecord.ts</text>
</g>
<!-- audit/builders/AuditRecordBuilder.ts&#45;&gt;audit/domain/AuditRecord.ts -->
<g id="edge1" class="edge">
<title>audit/builders/AuditRecordBuilder.ts&#45;&gt;audit/domain/AuditRecord.ts</title>
<path fill="none" stroke="#757575" d="M1762.22,-1197.32C1780.38,-1195.99 1799.09,-1194.62 1817.01,-1193.3"/>
<polygon fill="#757575" stroke="#757575" points="1817.12,-1196.8 1826.84,-1192.58 1816.61,-1189.82 1817.12,-1196.8"/>
</g>
<!-- audit/domain/AuditEnums.ts -->
<g id="node3" class="node">
<title>audit/domain/AuditEnums.ts</title>
<path fill="none" stroke="#cfffac" d="M207.21,-765.56C207.21,-765.56 37.54,-765.56 37.54,-765.56 33.58,-765.56 29.62,-761.6 29.62,-757.65 29.62,-757.65 29.62,-749.73 29.62,-749.73 29.62,-745.77 33.58,-741.81 37.54,-741.81 37.54,-741.81 207.21,-741.81 207.21,-741.81 211.17,-741.81 215.12,-745.77 215.12,-749.73 215.12,-749.73 215.12,-757.65 215.12,-757.65 215.12,-761.6 211.17,-765.56 207.21,-765.56"/>
<text xml:space="preserve" text-anchor="middle" x="122.38" y="-748.26" font-family="Arial" font-size="14.00" fill="#cfffac">audit/domain/AuditEnums.ts</text>
</g>
<!-- audit/domain/AuditRecordCoverage.ts -->
<g id="node4" class="node">
<title>audit/domain/AuditRecordCoverage.ts</title>
<path fill="none" stroke="#cfffac" d="M236.83,-807.56C236.83,-807.56 7.92,-807.56 7.92,-807.56 3.96,-807.56 0,-803.6 0,-799.65 0,-799.65 0,-791.73 0,-791.73 0,-787.77 3.96,-783.81 7.92,-783.81 7.92,-783.81 236.83,-783.81 236.83,-783.81 240.79,-783.81 244.75,-787.77 244.75,-791.73 244.75,-791.73 244.75,-799.65 244.75,-799.65 244.75,-803.6 240.79,-807.56 236.83,-807.56"/>
<text xml:space="preserve" text-anchor="middle" x="122.38" y="-790.26" font-family="Arial" font-size="14.00" fill="#cfffac">audit/domain/AuditRecordCoverage.ts</text>
</g>
<!-- audit/domain/AuditTypes.ts -->
<g id="node5" class="node">
<title>audit/domain/AuditTypes.ts</title>
<path fill="none" stroke="#cfffac" d="M203.83,-849.56C203.83,-849.56 40.92,-849.56 40.92,-849.56 36.96,-849.56 33,-845.6 33,-841.65 33,-841.65 33,-833.73 33,-833.73 33,-829.77 36.96,-825.81 40.92,-825.81 40.92,-825.81 203.83,-825.81 203.83,-825.81 207.79,-825.81 211.75,-829.77 211.75,-833.73 211.75,-833.73 211.75,-841.65 211.75,-841.65 211.75,-845.6 207.79,-849.56 203.83,-849.56"/>
<text xml:space="preserve" text-anchor="middle" x="122.38" y="-832.26" font-family="Arial" font-size="14.00" fill="#cfffac">audit/domain/AuditTypes.ts</text>
</g>
<!-- audit/index.ts -->
<g id="node6" class="node">
<title>audit/index.ts</title>
<path fill="none" stroke="#c6c5fe" d="M1425.33,-1197.56C1425.33,-1197.56 1345.67,-1197.56 1345.67,-1197.56 1341.71,-1197.56 1337.75,-1193.6 1337.75,-1189.65 1337.75,-1189.65 1337.75,-1181.73 1337.75,-1181.73 1337.75,-1177.77 1341.71,-1173.81 1345.67,-1173.81 1345.67,-1173.81 1425.33,-1173.81 1425.33,-1173.81 1429.29,-1173.81 1433.25,-1177.77 1433.25,-1181.73 1433.25,-1181.73 1433.25,-1189.65 1433.25,-1189.65 1433.25,-1193.6 1429.29,-1197.56 1425.33,-1197.56"/>
<text xml:space="preserve" text-anchor="middle" x="1385.5" y="-1180.26" font-family="Arial" font-size="14.00" fill="#c6c5fe">audit/index.ts</text>
</g>
<!-- audit/index.ts&#45;&gt;audit/builders/AuditRecordBuilder.ts -->
<g id="edge2" class="edge">
<title>audit/index.ts&#45;&gt;audit/builders/AuditRecordBuilder.ts</title>
<path fill="none" stroke="#757575" d="M1433.52,-1189.31C1458.11,-1191.2 1489.52,-1193.62 1520.59,-1196.02"/>
<polygon fill="#757575" stroke="#757575" points="1520.27,-1199.5 1530.51,-1196.78 1520.8,-1192.52 1520.27,-1199.5"/>
</g>
<!-- audit/index.ts&#45;&gt;audit/domain/AuditRecord.ts -->
<g id="edge3" class="edge">
<title>audit/index.ts&#45;&gt;audit/domain/AuditRecord.ts</title>
<path fill="none" stroke="#757575" d="M1433.58,-1185.22C1457.13,-1185.01 1486.07,-1184.79 1512,-1184.69 1632.11,-1184.21 1662.14,-1184.25 1782.25,-1184.69 1793.56,-1184.73 1805.38,-1184.79 1817.16,-1184.86"/>
<polygon fill="#757575" stroke="#757575" points="1816.88,-1188.36 1826.9,-1184.92 1816.92,-1181.36 1816.88,-1188.36"/>
</g>
<!-- audit/utils/sentContextParser.ts -->
<g id="node7" class="node">
<title>audit/utils/sentContextParser.ts</title>
<path fill="none" stroke="#cfffac" d="M215.46,-891.56C215.46,-891.56 29.29,-891.56 29.29,-891.56 25.33,-891.56 21.38,-887.6 21.38,-883.65 21.38,-883.65 21.38,-875.73 21.38,-875.73 21.38,-871.77 25.33,-867.81 29.29,-867.81 29.29,-867.81 215.46,-867.81 215.46,-867.81 219.42,-867.81 223.38,-871.77 223.38,-875.73 223.38,-875.73 223.38,-883.65 223.38,-883.65 223.38,-887.6 219.42,-891.56 215.46,-891.56"/>
<text xml:space="preserve" text-anchor="middle" x="122.38" y="-874.26" font-family="Arial" font-size="14.00" fill="#cfffac">audit/utils/sentContextParser.ts</text>
</g>
<!-- config/database.ts -->
<g id="node8" class="node">
<title>config/database.ts</title>
<path fill="none" stroke="#cfffac" d="M177.21,-933.56C177.21,-933.56 67.54,-933.56 67.54,-933.56 63.58,-933.56 59.62,-929.6 59.62,-925.65 59.62,-925.65 59.62,-917.73 59.62,-917.73 59.62,-913.77 63.58,-909.81 67.54,-909.81 67.54,-909.81 177.21,-909.81 177.21,-909.81 181.17,-909.81 185.12,-913.77 185.12,-917.73 185.12,-917.73 185.12,-925.65 185.12,-925.65 185.12,-929.6 181.17,-933.56 177.21,-933.56"/>
<text xml:space="preserve" text-anchor="middle" x="122.38" y="-916.26" font-family="Arial" font-size="14.00" fill="#cfffac">config/database.ts</text>
</g>
<!-- config/env.ts -->
<g id="node9" class="node">
<title>config/env.ts</title>
<path fill="none" stroke="#c6c5fe" d="M412.96,-1117.56C412.96,-1117.56 337.79,-1117.56 337.79,-1117.56 333.83,-1117.56 329.88,-1113.6 329.88,-1109.65 329.88,-1109.65 329.88,-1101.73 329.88,-1101.73 329.88,-1097.77 333.83,-1093.81 337.79,-1093.81 337.79,-1093.81 412.96,-1093.81 412.96,-1093.81 416.92,-1093.81 420.88,-1097.77 420.88,-1101.73 420.88,-1101.73 420.88,-1109.65 420.88,-1109.65 420.88,-1113.6 416.92,-1117.56 412.96,-1117.56"/>
<text xml:space="preserve" text-anchor="middle" x="375.38" y="-1100.26" font-family="Arial" font-size="14.00" fill="#c6c5fe">config/env.ts</text>
</g>
<!-- utils/logger.ts -->
<g id="node10" class="node">
<title>utils/logger.ts</title>
<path fill="none" stroke="#cfffac" d="M1424.96,-963.56C1424.96,-963.56 1346.04,-963.56 1346.04,-963.56 1342.08,-963.56 1338.12,-959.6 1338.12,-955.65 1338.12,-955.65 1338.12,-947.73 1338.12,-947.73 1338.12,-943.77 1342.08,-939.81 1346.04,-939.81 1346.04,-939.81 1424.96,-939.81 1424.96,-939.81 1428.92,-939.81 1432.88,-943.77 1432.88,-947.73 1432.88,-947.73 1432.88,-955.65 1432.88,-955.65 1432.88,-959.6 1428.92,-963.56 1424.96,-963.56"/>
<text xml:space="preserve" text-anchor="middle" x="1385.5" y="-946.26" font-family="Arial" font-size="14.00" fill="#cfffac">utils/logger.ts</text>
</g>
<!-- config/env.ts&#45;&gt;utils/logger.ts -->
<g id="edge4" class="edge">
<title>config/env.ts&#45;&gt;utils/logger.ts</title>
<path fill="none" stroke="#757575" d="M421.25,-1108.46C523.48,-1113.84 781.13,-1122.01 991.75,-1083.69 1126.44,-1059.18 1277.93,-998.16 1346.8,-968.46"/>
<polygon fill="#757575" stroke="#757575" points="1347.97,-971.77 1355.74,-964.57 1345.18,-965.35 1347.97,-971.77"/>
</g>
<!-- config/providerMap.ts -->
<g id="node11" class="node">
<title>config/providerMap.ts</title>
<path fill="none" stroke="#cfffac" d="M1986.83,-67.56C1986.83,-67.56 1856.92,-67.56 1856.92,-67.56 1852.96,-67.56 1849,-63.6 1849,-59.65 1849,-59.65 1849,-51.73 1849,-51.73 1849,-47.77 1852.96,-43.81 1856.92,-43.81 1856.92,-43.81 1986.83,-43.81 1986.83,-43.81 1990.79,-43.81 1994.75,-47.77 1994.75,-51.73 1994.75,-51.73 1994.75,-59.65 1994.75,-59.65 1994.75,-63.6 1990.79,-67.56 1986.83,-67.56"/>
<text xml:space="preserve" text-anchor="middle" x="1921.88" y="-50.26" font-family="Arial" font-size="14.00" fill="#cfffac">config/providerMap.ts</text>
</g>
<!-- controllers/aiController.ts -->
<g id="node12" class="node">
<title>controllers/aiController.ts</title>
<path fill="none" stroke="#c6c5fe" d="M1217.71,-494.56C1217.71,-494.56 1069.04,-494.56 1069.04,-494.56 1065.08,-494.56 1061.12,-490.6 1061.12,-486.65 1061.12,-486.65 1061.12,-478.73 1061.12,-478.73 1061.12,-474.77 1065.08,-470.81 1069.04,-470.81 1069.04,-470.81 1217.71,-470.81 1217.71,-470.81 1221.67,-470.81 1225.62,-474.77 1225.62,-478.73 1225.62,-478.73 1225.62,-486.65 1225.62,-486.65 1225.62,-490.6 1221.67,-494.56 1217.71,-494.56"/>
<text xml:space="preserve" text-anchor="middle" x="1143.38" y="-477.26" font-family="Arial" font-size="14.00" fill="#c6c5fe">controllers/aiController.ts</text>
</g>
<!-- controllers/aiController.ts&#45;&gt;utils/logger.ts -->
<g id="edge6" class="edge">
<title>controllers/aiController.ts&#45;&gt;utils/logger.ts</title>
<path fill="none" stroke="#757575" d="M1165.17,-495C1190.73,-511.15 1233.82,-541.82 1259,-578.69 1338.48,-695.09 1371.36,-866.1 1381.13,-928.12"/>
<polygon fill="#757575" stroke="#757575" points="1377.65,-928.48 1382.6,-937.84 1384.57,-927.43 1377.65,-928.48"/>
</g>
<!-- lib/prisma.ts -->
<g id="node13" class="node">
<title>lib/prisma.ts</title>
<path fill="none" stroke="#cfffac" d="M1958.33,-495.56C1958.33,-495.56 1885.42,-495.56 1885.42,-495.56 1881.46,-495.56 1877.5,-491.6 1877.5,-487.65 1877.5,-487.65 1877.5,-479.73 1877.5,-479.73 1877.5,-475.77 1881.46,-471.81 1885.42,-471.81 1885.42,-471.81 1958.33,-471.81 1958.33,-471.81 1962.29,-471.81 1966.25,-475.77 1966.25,-479.73 1966.25,-479.73 1966.25,-487.65 1966.25,-487.65 1966.25,-491.6 1962.29,-495.56 1958.33,-495.56"/>
<text xml:space="preserve" text-anchor="middle" x="1921.88" y="-478.26" font-family="Arial" font-size="14.00" fill="#cfffac">lib/prisma.ts</text>
</g>
<!-- controllers/aiController.ts&#45;&gt;lib/prisma.ts -->
<g id="edge5" class="edge">
<title>controllers/aiController.ts&#45;&gt;lib/prisma.ts</title>
<path fill="none" stroke="#757575" d="M1226.01,-482.79C1384.73,-483 1731.15,-483.44 1865.8,-483.62"/>
<polygon fill="#757575" stroke="#757575" points="1865.51,-487.12 1875.51,-483.63 1865.52,-480.12 1865.51,-487.12"/>
</g>
<!-- controllers/analyticsController.ts -->
<g id="node14" class="node">
<title>controllers/analyticsController.ts</title>
<path fill="none" stroke="#c6c5fe" d="M983.83,-455.56C983.83,-455.56 793.17,-455.56 793.17,-455.56 789.21,-455.56 785.25,-451.6 785.25,-447.65 785.25,-447.65 785.25,-439.73 785.25,-439.73 785.25,-435.77 789.21,-431.81 793.17,-431.81 793.17,-431.81 983.83,-431.81 983.83,-431.81 987.79,-431.81 991.75,-435.77 991.75,-439.73 991.75,-439.73 991.75,-447.65 991.75,-447.65 991.75,-451.6 987.79,-455.56 983.83,-455.56"/>
<text xml:space="preserve" text-anchor="middle" x="888.5" y="-438.26" font-family="Arial" font-size="14.00" fill="#c6c5fe">controllers/analyticsController.ts</text>
</g>
<!-- services/analyticsService.ts -->
<g id="node15" class="node">
<title>services/analyticsService.ts</title>
<path fill="none" stroke="#c6c5fe" d="M1468.08,-455.56C1468.08,-455.56 1302.92,-455.56 1302.92,-455.56 1298.96,-455.56 1295,-451.6 1295,-447.65 1295,-447.65 1295,-439.73 1295,-439.73 1295,-435.77 1298.96,-431.81 1302.92,-431.81 1302.92,-431.81 1468.08,-431.81 1468.08,-431.81 1472.04,-431.81 1476,-435.77 1476,-439.73 1476,-439.73 1476,-447.65 1476,-447.65 1476,-451.6 1472.04,-455.56 1468.08,-455.56"/>
<text xml:space="preserve" text-anchor="middle" x="1385.5" y="-438.26" font-family="Arial" font-size="14.00" fill="#c6c5fe">services/analyticsService.ts</text>
</g>
<!-- controllers/analyticsController.ts&#45;&gt;services/analyticsService.ts -->
<g id="edge7" class="edge">
<title>controllers/analyticsController.ts&#45;&gt;services/analyticsService.ts</title>
<path fill="none" stroke="#757575" d="M992.06,-443.69C1077.35,-443.69 1198.08,-443.69 1283.05,-443.69"/>
<polygon fill="#757575" stroke="#757575" points="1283.02,-447.19 1293.02,-443.69 1283.02,-440.19 1283.02,-447.19"/>
</g>
<!-- services/analyticsService.ts&#45;&gt;lib/prisma.ts -->
<g id="edge82" class="edge">
<title>services/analyticsService.ts&#45;&gt;lib/prisma.ts</title>
<path fill="none" stroke="#757575" d="M1476.16,-448.68C1556.41,-453.36 1677.27,-460.94 1782.25,-469.69 1809.84,-471.99 1840.48,-475.03 1865.91,-477.69"/>
<polygon fill="#757575" stroke="#757575" points="1865.39,-481.15 1875.7,-478.72 1866.12,-474.19 1865.39,-481.15"/>
</g>
<!-- controllers/auditController.ts -->
<g id="node16" class="node">
<title>controllers/auditController.ts</title>
<path fill="none" stroke="#c6c5fe" d="M1227.08,-1197.56C1227.08,-1197.56 1059.67,-1197.56 1059.67,-1197.56 1055.71,-1197.56 1051.75,-1193.6 1051.75,-1189.65 1051.75,-1189.65 1051.75,-1181.73 1051.75,-1181.73 1051.75,-1177.77 1055.71,-1173.81 1059.67,-1173.81 1059.67,-1173.81 1227.08,-1173.81 1227.08,-1173.81 1231.04,-1173.81 1235,-1177.77 1235,-1181.73 1235,-1181.73 1235,-1189.65 1235,-1189.65 1235,-1193.6 1231.04,-1197.56 1227.08,-1197.56"/>
<text xml:space="preserve" text-anchor="middle" x="1143.38" y="-1180.26" font-family="Arial" font-size="14.00" fill="#c6c5fe">controllers/auditController.ts</text>
</g>
<!-- controllers/auditController.ts&#45;&gt;audit/index.ts -->
<g id="edge8" class="edge">
<title>controllers/auditController.ts&#45;&gt;audit/index.ts</title>
<path fill="none" stroke="#757575" d="M1235.5,-1185.69C1265.91,-1185.69 1298.96,-1185.69 1326.19,-1185.69"/>
<polygon fill="#757575" stroke="#757575" points="1325.97,-1189.19 1335.97,-1185.69 1325.97,-1182.19 1325.97,-1189.19"/>
</g>
<!-- controllers/auditController.ts&#45;&gt;utils/logger.ts -->
<g id="edge10" class="edge">
<title>controllers/auditController.ts&#45;&gt;utils/logger.ts</title>
<path fill="none" stroke="#757575" d="M1232.99,-1173.33C1242.25,-1169.83 1251.14,-1165.36 1259,-1159.69 1276.24,-1147.24 1344.22,-1025.28 1372.28,-974.11"/>
<polygon fill="#757575" stroke="#757575" points="1375.33,-975.84 1377.05,-965.39 1369.18,-972.48 1375.33,-975.84"/>
</g>
<!-- controllers/auditController.ts&#45;&gt;lib/prisma.ts -->
<g id="edge9" class="edge">
<title>controllers/auditController.ts&#45;&gt;lib/prisma.ts</title>
<path fill="none" stroke="#757575" d="M1219.54,-1173.34C1233,-1169.82 1246.67,-1165.34 1259,-1159.69 1521.93,-1039.12 1597.99,-995.66 1782.25,-772.69 1853.13,-686.91 1897.86,-558.8 1914.05,-506.83"/>
<polygon fill="#757575" stroke="#757575" points="1917.38,-507.9 1916.95,-497.31 1910.68,-505.86 1917.38,-507.9"/>
</g>
<!-- controllers/authController.ts -->
<g id="node17" class="node">
<title>controllers/authController.ts</title>
<path fill="none" stroke="#c6c5fe" d="M709.83,-961.56C709.83,-961.56 545.42,-961.56 545.42,-961.56 541.46,-961.56 537.5,-957.6 537.5,-953.65 537.5,-953.65 537.5,-945.73 537.5,-945.73 537.5,-941.77 541.46,-937.81 545.42,-937.81 545.42,-937.81 709.83,-937.81 709.83,-937.81 713.79,-937.81 717.75,-941.77 717.75,-945.73 717.75,-945.73 717.75,-953.65 717.75,-953.65 717.75,-957.6 713.79,-961.56 709.83,-961.56"/>
<text xml:space="preserve" text-anchor="middle" x="627.62" y="-944.26" font-family="Arial" font-size="14.00" fill="#c6c5fe">controllers/authController.ts</text>
</g>
<!-- controllers/authController.ts&#45;&gt;utils/logger.ts -->
<g id="edge14" class="edge">
<title>controllers/authController.ts&#45;&gt;utils/logger.ts</title>
<path fill="none" stroke="#757575" d="M717.93,-949.92C874.73,-950.34 1195.35,-951.19 1326.56,-951.53"/>
<polygon fill="#757575" stroke="#757575" points="1326.39,-955.03 1336.4,-951.56 1326.41,-948.03 1326.39,-955.03"/>
</g>
<!-- middleware/authMiddleware.ts -->
<g id="node18" class="node">
<title>middleware/authMiddleware.ts</title>
<path fill="none" stroke="#c6c5fe" d="M980.46,-653.56C980.46,-653.56 796.54,-653.56 796.54,-653.56 792.58,-653.56 788.62,-649.6 788.62,-645.65 788.62,-645.65 788.62,-637.73 788.62,-637.73 788.62,-633.77 792.58,-629.81 796.54,-629.81 796.54,-629.81 980.46,-629.81 980.46,-629.81 984.42,-629.81 988.38,-633.77 988.38,-637.73 988.38,-637.73 988.38,-645.65 988.38,-645.65 988.38,-649.6 984.42,-653.56 980.46,-653.56"/>
<text xml:space="preserve" text-anchor="middle" x="888.5" y="-636.26" font-family="Arial" font-size="14.00" fill="#c6c5fe">middleware/authMiddleware.ts</text>
</g>
<!-- controllers/authController.ts&#45;&gt;middleware/authMiddleware.ts -->
<g id="edge11" class="edge">
<title>controllers/authController.ts&#45;&gt;middleware/authMiddleware.ts</title>
<path fill="none" stroke="#757575" d="M718.02,-946.86C729.66,-943.05 740.54,-937.27 749.25,-928.69 810.47,-868.37 744.08,-814.13 785.25,-738.69 803.07,-706.03 835.79,-677.95 859.43,-660.52"/>
<polygon fill="#757575" stroke="#757575" points="861.29,-663.49 867.39,-654.83 857.22,-657.8 861.29,-663.49"/>
</g>
<!-- middleware/errorHandler.ts -->
<g id="node19" class="node">
<title>middleware/errorHandler.ts</title>
<path fill="none" stroke="#c6c5fe" d="M1224.83,-887.56C1224.83,-887.56 1061.92,-887.56 1061.92,-887.56 1057.96,-887.56 1054,-883.6 1054,-879.65 1054,-879.65 1054,-871.73 1054,-871.73 1054,-867.77 1057.96,-863.81 1061.92,-863.81 1061.92,-863.81 1224.83,-863.81 1224.83,-863.81 1228.79,-863.81 1232.75,-867.77 1232.75,-871.73 1232.75,-871.73 1232.75,-879.65 1232.75,-879.65 1232.75,-883.6 1228.79,-887.56 1224.83,-887.56"/>
<text xml:space="preserve" text-anchor="middle" x="1143.38" y="-870.26" font-family="Arial" font-size="14.00" fill="#c6c5fe">middleware/errorHandler.ts</text>
</g>
<!-- controllers/authController.ts&#45;&gt;middleware/errorHandler.ts -->
<g id="edge12" class="edge">
<title>controllers/authController.ts&#45;&gt;middleware/errorHandler.ts</title>
<path fill="none" stroke="#757575" d="M714.33,-937.34C805.68,-924.18 950.04,-903.39 1045.47,-889.64"/>
<polygon fill="#757575" stroke="#757575" points="1045.96,-893.11 1055.36,-888.22 1044.96,-886.18 1045.96,-893.11"/>
</g>
<!-- services/authService.ts -->
<g id="node20" class="node">
<title>services/authService.ts</title>
<path fill="none" stroke="#c6c5fe" d="M957.96,-771.56C957.96,-771.56 819.04,-771.56 819.04,-771.56 815.08,-771.56 811.12,-767.6 811.12,-763.65 811.12,-763.65 811.12,-755.73 811.12,-755.73 811.12,-751.77 815.08,-747.81 819.04,-747.81 819.04,-747.81 957.96,-747.81 957.96,-747.81 961.92,-747.81 965.88,-751.77 965.88,-755.73 965.88,-755.73 965.88,-763.65 965.88,-763.65 965.88,-767.6 961.92,-771.56 957.96,-771.56"/>
<text xml:space="preserve" text-anchor="middle" x="888.5" y="-754.26" font-family="Arial" font-size="14.00" fill="#c6c5fe">services/authService.ts</text>
</g>
<!-- controllers/authController.ts&#45;&gt;services/authService.ts -->
<g id="edge13" class="edge">
<title>controllers/authController.ts&#45;&gt;services/authService.ts</title>
<path fill="none" stroke="#757575" d="M718.16,-941.56C729.06,-938.44 739.71,-934.26 749.25,-928.69 781.01,-910.13 844.06,-822.6 872.71,-781.32"/>
<polygon fill="#757575" stroke="#757575" points="875.56,-783.36 878.36,-773.14 869.8,-779.39 875.56,-783.36"/>
</g>
<!-- middleware/authMiddleware.ts&#45;&gt;middleware/errorHandler.ts -->
<g id="edge33" class="edge">
<title>middleware/authMiddleware.ts&#45;&gt;middleware/errorHandler.ts</title>
<path fill="none" stroke="#757575" d="M902.74,-653.94C943.96,-692.08 1070.28,-808.98 1120.99,-855.89"/>
<polygon fill="#757575" stroke="#757575" points="1118.44,-858.31 1128.16,-862.53 1123.19,-853.17 1118.44,-858.31"/>
</g>
<!-- utils/jwt.ts -->
<g id="node30" class="node">
<title>utils/jwt.ts</title>
<path fill="none" stroke="#cfffac" d="M1172.71,-691.56C1172.71,-691.56 1114.04,-691.56 1114.04,-691.56 1110.08,-691.56 1106.12,-687.6 1106.12,-683.65 1106.12,-683.65 1106.12,-675.73 1106.12,-675.73 1106.12,-671.77 1110.08,-667.81 1114.04,-667.81 1114.04,-667.81 1172.71,-667.81 1172.71,-667.81 1176.67,-667.81 1180.62,-671.77 1180.62,-675.73 1180.62,-675.73 1180.62,-683.65 1180.62,-683.65 1180.62,-687.6 1176.67,-691.56 1172.71,-691.56"/>
<text xml:space="preserve" text-anchor="middle" x="1143.38" y="-674.26" font-family="Arial" font-size="14.00" fill="#cfffac">utils/jwt.ts</text>
</g>
<!-- middleware/authMiddleware.ts&#45;&gt;utils/jwt.ts -->
<g id="edge34" class="edge">
<title>middleware/authMiddleware.ts&#45;&gt;utils/jwt.ts</title>
<path fill="none" stroke="#757575" d="M971.6,-654.02C1012.29,-660.14 1059.98,-667.31 1094.61,-672.51"/>
<polygon fill="#757575" stroke="#757575" points="1093.92,-675.94 1104.33,-673.97 1094.96,-669.02 1093.92,-675.94"/>
</g>
<!-- middleware/errorHandler.ts&#45;&gt;utils/logger.ts -->
<g id="edge35" class="edge">
<title>middleware/errorHandler.ts&#45;&gt;utils/logger.ts</title>
<path fill="none" stroke="#757575" d="M1183.22,-887.98C1224.46,-901.03 1289.76,-921.7 1334.74,-935.94"/>
<polygon fill="#757575" stroke="#757575" points="1333.68,-939.27 1344.27,-938.95 1335.79,-932.6 1333.68,-939.27"/>
</g>
<!-- services/authService.ts&#45;&gt;lib/prisma.ts -->
<g id="edge83" class="edge">
<title>services/authService.ts&#45;&gt;lib/prisma.ts</title>
<path fill="none" stroke="#757575" d="M966.09,-761.74C1169.69,-766.62 1713.54,-775.51 1782.25,-733.69 1867.02,-682.08 1903.94,-558.56 1916.04,-506.96"/>
<polygon fill="#757575" stroke="#757575" points="1919.39,-508.01 1918.16,-497.49 1912.56,-506.48 1919.39,-508.01"/>
</g>
<!-- services/authService.ts&#45;&gt;middleware/errorHandler.ts -->
<g id="edge84" class="edge">
<title>services/authService.ts&#45;&gt;middleware/errorHandler.ts</title>
<path fill="none" stroke="#757575" d="M950.19,-772.04C964.1,-775.71 978.64,-780.24 991.75,-785.69 1038.25,-805.01 1087.51,-836.91 1116.57,-857.08"/>
<polygon fill="#757575" stroke="#757575" points="1114.18,-859.68 1124.38,-862.57 1118.21,-853.95 1114.18,-859.68"/>
</g>
<!-- services/authService.ts&#45;&gt;utils/jwt.ts -->
<g id="edge85" class="edge">
<title>services/authService.ts&#45;&gt;utils/jwt.ts</title>
<path fill="none" stroke="#757575" d="M928.46,-747.36C973.31,-733.17 1046.99,-709.86 1095.09,-694.65"/>
<polygon fill="#757575" stroke="#757575" points="1095.92,-698.06 1104.39,-691.7 1093.8,-691.38 1095.92,-698.06"/>
</g>
<!-- controllers/chatController.ts -->
<g id="node21" class="node">
<title>controllers/chatController.ts</title>
<path fill="none" stroke="#c6c5fe" d="M709.46,-301.56C709.46,-301.56 545.79,-301.56 545.79,-301.56 541.83,-301.56 537.88,-297.6 537.88,-293.65 537.88,-293.65 537.88,-285.73 537.88,-285.73 537.88,-281.77 541.83,-277.81 545.79,-277.81 545.79,-277.81 709.46,-277.81 709.46,-277.81 713.42,-277.81 717.38,-281.77 717.38,-285.73 717.38,-285.73 717.38,-293.65 717.38,-293.65 717.38,-297.6 713.42,-301.56 709.46,-301.56"/>
<text xml:space="preserve" text-anchor="middle" x="627.62" y="-284.26" font-family="Arial" font-size="14.00" fill="#c6c5fe">controllers/chatController.ts</text>
</g>
<!-- controllers/chatController.ts&#45;&gt;config/providerMap.ts -->
<g id="edge15" class="edge">
<title>controllers/chatController.ts&#45;&gt;config/providerMap.ts</title>
<path fill="none" stroke="#757575" d="M639.52,-277.44C663.35,-251.38 723.01,-190.08 785.25,-156.69 930.82,-78.59 977.18,-53.69 1142.38,-53.69 1142.38,-53.69 1142.38,-53.69 1386.5,-53.69 1545.89,-53.69 1732.03,-54.59 1837.22,-55.18"/>
<polygon fill="#757575" stroke="#757575" points="1837.17,-58.68 1847.19,-55.24 1837.21,-51.68 1837.17,-58.68"/>
</g>
<!-- controllers/chatController.ts&#45;&gt;lib/prisma.ts -->
<g id="edge16" class="edge">
<title>controllers/chatController.ts&#45;&gt;lib/prisma.ts</title>
<path fill="none" stroke="#757575" d="M678.22,-301.98C769.47,-323.49 970.39,-365.69 1142.38,-365.69 1142.38,-365.69 1142.38,-365.69 1386.5,-365.69 1562.71,-365.69 1615.44,-332.88 1782.25,-389.69 1828.58,-405.47 1873.92,-441.13 1899.54,-463.72"/>
<polygon fill="#757575" stroke="#757575" points="1897.15,-466.28 1906.92,-470.37 1901.84,-461.08 1897.15,-466.28"/>
</g>
<!-- controllers/chatController.ts&#45;&gt;middleware/authMiddleware.ts -->
<g id="edge17" class="edge">
<title>controllers/chatController.ts&#45;&gt;middleware/authMiddleware.ts</title>
<path fill="none" stroke="#757575" d="M637.09,-301.67C658.07,-331.72 713.36,-413.17 749.25,-486.69 769.24,-527.64 755.79,-547.93 785.25,-582.69 800.82,-601.06 823.65,-615 843.78,-624.7"/>
<polygon fill="#757575" stroke="#757575" points="842.09,-627.77 852.63,-628.76 845,-621.41 842.09,-627.77"/>
</g>
<!-- services/ai/index.ts -->
<g id="node22" class="node">
<title>services/ai/index.ts</title>
<path fill="none" stroke="#c6c5fe" d="M1442.58,-183.56C1442.58,-183.56 1328.42,-183.56 1328.42,-183.56 1324.46,-183.56 1320.5,-179.6 1320.5,-175.65 1320.5,-175.65 1320.5,-167.73 1320.5,-167.73 1320.5,-163.77 1324.46,-159.81 1328.42,-159.81 1328.42,-159.81 1442.58,-159.81 1442.58,-159.81 1446.54,-159.81 1450.5,-163.77 1450.5,-167.73 1450.5,-167.73 1450.5,-175.65 1450.5,-175.65 1450.5,-179.6 1446.54,-183.56 1442.58,-183.56"/>
<text xml:space="preserve" text-anchor="middle" x="1385.5" y="-166.26" font-family="Arial" font-size="14.00" fill="#c6c5fe">services/ai/index.ts</text>
</g>
<!-- controllers/chatController.ts&#45;&gt;services/ai/index.ts -->
<g id="edge18" class="edge">
<title>controllers/chatController.ts&#45;&gt;services/ai/index.ts</title>
<path fill="none" stroke="#757575" d="M642.98,-277.6C669.21,-256.36 727.52,-212.93 785.25,-195.69 967,-141.39 1193.56,-152.22 1309.1,-162.98"/>
<polygon fill="#757575" stroke="#757575" points="1308.47,-166.44 1318.76,-163.91 1309.14,-159.47 1308.47,-166.44"/>
</g>
<!-- services/ai/types.ts -->
<g id="node23" class="node">
<title>services/ai/types.ts</title>
<path fill="none" stroke="#cfffac" d="M2420.08,-147.56C2420.08,-147.56 2305.92,-147.56 2305.92,-147.56 2301.96,-147.56 2298,-143.6 2298,-139.65 2298,-139.65 2298,-131.73 2298,-131.73 2298,-127.77 2301.96,-123.81 2305.92,-123.81 2305.92,-123.81 2420.08,-123.81 2420.08,-123.81 2424.04,-123.81 2428,-127.77 2428,-131.73 2428,-131.73 2428,-139.65 2428,-139.65 2428,-143.6 2424.04,-147.56 2420.08,-147.56"/>
<text xml:space="preserve" text-anchor="middle" x="2363" y="-130.26" font-family="Arial" font-size="14.00" fill="#cfffac">services/ai/types.ts</text>
</g>
<!-- controllers/chatController.ts&#45;&gt;services/ai/types.ts -->
<g id="edge19" class="edge">
<title>controllers/chatController.ts&#45;&gt;services/ai/types.ts</title>
<path fill="none" stroke="#757575" d="M694.02,-277.33C772.84,-262.99 909.46,-239.88 1027.75,-228.69 1469.53,-186.88 1582.22,-212.09 2025.5,-191.69 2130.66,-186.85 2159.51,-202.74 2262,-178.69 2285.49,-173.18 2310.42,-162.47 2329.51,-153.12"/>
<polygon fill="#757575" stroke="#757575" points="2331.04,-156.27 2338.39,-148.64 2327.89,-150.02 2331.04,-156.27"/>
</g>
<!-- services/chat/contextService.ts -->
<g id="node24" class="node">
<title>services/chat/contextService.ts</title>
<path fill="none" stroke="#c6c5fe" d="M981.21,-301.56C981.21,-301.56 795.79,-301.56 795.79,-301.56 791.83,-301.56 787.88,-297.6 787.88,-293.65 787.88,-293.65 787.88,-285.73 787.88,-285.73 787.88,-281.77 791.83,-277.81 795.79,-277.81 795.79,-277.81 981.21,-277.81 981.21,-277.81 985.17,-277.81 989.12,-281.77 989.12,-285.73 989.12,-285.73 989.12,-293.65 989.12,-293.65 989.12,-297.6 985.17,-301.56 981.21,-301.56"/>
<text xml:space="preserve" text-anchor="middle" x="888.5" y="-284.26" font-family="Arial" font-size="14.00" fill="#c6c5fe">services/chat/contextService.ts</text>
</g>
<!-- controllers/chatController.ts&#45;&gt;services/chat/contextService.ts -->
<g id="edge20" class="edge">
<title>controllers/chatController.ts&#45;&gt;services/chat/contextService.ts</title>
<path fill="none" stroke="#757575" d="M717.72,-289.69C736.54,-289.69 756.64,-289.69 776.17,-289.69"/>
<polygon fill="#757575" stroke="#757575" points="776.08,-293.19 786.08,-289.69 776.08,-286.19 776.08,-293.19"/>
</g>
<!-- services/ai/index.ts&#45;&gt;services/ai/types.ts -->
<g id="edge74" class="edge">
<title>services/ai/index.ts&#45;&gt;services/ai/types.ts</title>
<path fill="none" stroke="#757575" d="M1450.75,-174.74C1595.91,-180.73 1960.06,-190.67 2262,-156.69 2274.82,-155.24 2288.42,-152.93 2301.33,-150.35"/>
<polygon fill="#757575" stroke="#757575" points="2301.9,-153.81 2310.97,-148.34 2300.47,-146.95 2301.9,-153.81"/>
</g>
<!-- services/ai/client/azureEmbeddingClient.ts -->
<g id="node43" class="node">
<title>services/ai/client/azureEmbeddingClient.ts</title>
<path fill="none" stroke="#c6c5fe" d="M1774.33,-105.56C1774.33,-105.56 1519.92,-105.56 1519.92,-105.56 1515.96,-105.56 1512,-101.6 1512,-97.65 1512,-97.65 1512,-89.73 1512,-89.73 1512,-85.77 1515.96,-81.81 1519.92,-81.81 1519.92,-81.81 1774.33,-81.81 1774.33,-81.81 1778.29,-81.81 1782.25,-85.77 1782.25,-89.73 1782.25,-89.73 1782.25,-97.65 1782.25,-97.65 1782.25,-101.6 1778.29,-105.56 1774.33,-105.56"/>
<text xml:space="preserve" text-anchor="middle" x="1647.12" y="-88.26" font-family="Arial" font-size="14.00" fill="#c6c5fe">services/ai/client/azureEmbeddingClient.ts</text>
</g>
<!-- services/ai/index.ts&#45;&gt;services/ai/client/azureEmbeddingClient.ts -->
<g id="edge72" class="edge">
<title>services/ai/index.ts&#45;&gt;services/ai/client/azureEmbeddingClient.ts</title>
<path fill="none" stroke="#757575" d="M1408.46,-159.49C1432.97,-146.42 1474.17,-126.01 1512,-114.69 1519.76,-112.36 1527.86,-110.29 1536.06,-108.43"/>
<polygon fill="#757575" stroke="#757575" points="1536.75,-111.86 1545.8,-106.35 1535.29,-105.01 1536.75,-111.86"/>
</g>
<!-- services/ai/providers/factory.ts -->
<g id="node46" class="node">
<title>services/ai/providers/factory.ts</title>
<path fill="none" stroke="#c6c5fe" d="M1737.58,-147.56C1737.58,-147.56 1556.67,-147.56 1556.67,-147.56 1552.71,-147.56 1548.75,-143.6 1548.75,-139.65 1548.75,-139.65 1548.75,-131.73 1548.75,-131.73 1548.75,-127.77 1552.71,-123.81 1556.67,-123.81 1556.67,-123.81 1737.58,-123.81 1737.58,-123.81 1741.54,-123.81 1745.5,-127.77 1745.5,-131.73 1745.5,-131.73 1745.5,-139.65 1745.5,-139.65 1745.5,-143.6 1741.54,-147.56 1737.58,-147.56"/>
<text xml:space="preserve" text-anchor="middle" x="1647.12" y="-130.26" font-family="Arial" font-size="14.00" fill="#c6c5fe">services/ai/providers/factory.ts</text>
</g>
<!-- services/ai/index.ts&#45;&gt;services/ai/providers/factory.ts -->
<g id="edge73" class="edge">
<title>services/ai/index.ts&#45;&gt;services/ai/providers/factory.ts</title>
<path fill="none" stroke="#757575" d="M1450.68,-162.79C1479.42,-158.8 1513.99,-154.01 1546.02,-149.57"/>
<polygon fill="#757575" stroke="#757575" points="1546.3,-153.06 1555.73,-148.22 1545.34,-146.13 1546.3,-153.06"/>
</g>
<!-- services/chat/contextService.ts&#45;&gt;lib/prisma.ts -->
<g id="edge86" class="edge">
<title>services/chat/contextService.ts&#45;&gt;lib/prisma.ts</title>
<path fill="none" stroke="#757575" d="M989.51,-300.26C1002.37,-301.49 1015.37,-302.67 1027.75,-303.69 1195.19,-317.49 1628.32,-284.38 1782.25,-351.69 1837.2,-375.72 1883.57,-431.47 1906.14,-462.27"/>
<polygon fill="#757575" stroke="#757575" points="1903.07,-464 1911.74,-470.09 1908.77,-459.92 1903.07,-464"/>
</g>
<!-- services/chat/contextService.ts&#45;&gt;services/ai/types.ts -->
<g id="edge87" class="edge">
<title>services/chat/contextService.ts&#45;&gt;services/ai/types.ts</title>
<path fill="none" stroke="#757575" d="M989.51,-293.93C1265.46,-304.25 2032.3,-323.3 2262,-227.69 2297.86,-212.76 2328.95,-178.98 2346.58,-156.77"/>
<polygon fill="#757575" stroke="#757575" points="2349.26,-159.04 2352.57,-148.97 2343.71,-154.77 2349.26,-159.04"/>
</g>
<!-- services/ragService.ts -->
<g id="node49" class="node">
<title>services/ragService.ts</title>
<path fill="none" stroke="#c6c5fe" d="M1209.46,-261.56C1209.46,-261.56 1077.29,-261.56 1077.29,-261.56 1073.33,-261.56 1069.38,-257.6 1069.38,-253.65 1069.38,-253.65 1069.38,-245.73 1069.38,-245.73 1069.38,-241.77 1073.33,-237.81 1077.29,-237.81 1077.29,-237.81 1209.46,-237.81 1209.46,-237.81 1213.42,-237.81 1217.38,-241.77 1217.38,-245.73 1217.38,-245.73 1217.38,-253.65 1217.38,-253.65 1217.38,-257.6 1213.42,-261.56 1209.46,-261.56"/>
<text xml:space="preserve" text-anchor="middle" x="1143.38" y="-244.26" font-family="Arial" font-size="14.00" fill="#c6c5fe">services/ragService.ts</text>
</g>
<!-- services/chat/contextService.ts&#45;&gt;services/ragService.ts -->
<g id="edge88" class="edge">
<title>services/chat/contextService.ts&#45;&gt;services/ragService.ts</title>
<path fill="none" stroke="#757575" d="M967.43,-277.36C996.13,-272.82 1028.75,-267.66 1057.99,-263.03"/>
<polygon fill="#757575" stroke="#757575" points="1058.19,-266.55 1067.52,-261.53 1057.1,-259.63 1058.19,-266.55"/>
</g>
<!-- controllers/chatHistoryController.ts -->
<g id="node25" class="node">
<title>controllers/chatHistoryController.ts</title>
<path fill="none" stroke="#c6c5fe" d="M730.46,-877.56C730.46,-877.56 524.79,-877.56 524.79,-877.56 520.83,-877.56 516.88,-873.6 516.88,-869.65 516.88,-869.65 516.88,-861.73 516.88,-861.73 516.88,-857.77 520.83,-853.81 524.79,-853.81 524.79,-853.81 730.46,-853.81 730.46,-853.81 734.42,-853.81 738.38,-857.77 738.38,-861.73 738.38,-861.73 738.38,-869.65 738.38,-869.65 738.38,-873.6 734.42,-877.56 730.46,-877.56"/>
<text xml:space="preserve" text-anchor="middle" x="627.62" y="-860.26" font-family="Arial" font-size="14.00" fill="#c6c5fe">controllers/chatHistoryController.ts</text>
</g>
<!-- controllers/chatHistoryController.ts&#45;&gt;lib/prisma.ts -->
<g id="edge21" class="edge">
<title>controllers/chatHistoryController.ts&#45;&gt;lib/prisma.ts</title>
<path fill="none" stroke="#757575" d="M736.72,-853.38C741.16,-850.88 745.37,-848 749.25,-844.69 787.05,-812.34 745.59,-768.73 785.25,-738.69 848.6,-690.7 1062.9,-719.69 1142.38,-719.69 1142.38,-719.69 1142.38,-719.69 1386.5,-719.69 1568.25,-719.69 1623.6,-705.36 1782.25,-616.69 1834.3,-587.59 1881.26,-534.27 1904.86,-504.75"/>
<polygon fill="#757575" stroke="#757575" points="1907.59,-506.94 1911,-496.91 1902.08,-502.62 1907.59,-506.94"/>
</g>
<!-- controllers/chatHistoryController.ts&#45;&gt;middleware/authMiddleware.ts -->
<g id="edge22" class="edge">
<title>controllers/chatHistoryController.ts&#45;&gt;middleware/authMiddleware.ts</title>
<path fill="none" stroke="#757575" d="M737.57,-853.4C741.73,-850.89 745.66,-848 749.25,-844.69 796.17,-801.43 747.53,-757.16 785.25,-705.69 800.39,-685.02 824.41,-669.49 845.37,-658.91"/>
<polygon fill="#757575" stroke="#757575" points="846.8,-662.1 854.3,-654.62 843.77,-655.79 846.8,-662.1"/>
</g>
<!-- controllers/chatHistoryController.ts&#45;&gt;middleware/errorHandler.ts -->
<g id="edge23" class="edge">
<title>controllers/chatHistoryController.ts&#45;&gt;middleware/errorHandler.ts</title>
<path fill="none" stroke="#757575" d="M738.84,-867.83C828.85,-869.58 954.99,-872.04 1042.18,-873.74"/>
<polygon fill="#757575" stroke="#757575" points="1042.1,-877.24 1052.16,-873.93 1042.23,-870.24 1042.1,-877.24"/>
</g>
<!-- controllers/promptTraceController.ts -->
<g id="node26" class="node">
<title>controllers/promptTraceController.ts</title>
<path fill="none" stroke="#c6c5fe" d="M1251.08,-611.56C1251.08,-611.56 1035.67,-611.56 1035.67,-611.56 1031.71,-611.56 1027.75,-607.6 1027.75,-603.65 1027.75,-603.65 1027.75,-595.73 1027.75,-595.73 1027.75,-591.77 1031.71,-587.81 1035.67,-587.81 1035.67,-587.81 1251.08,-587.81 1251.08,-587.81 1255.04,-587.81 1259,-591.77 1259,-595.73 1259,-595.73 1259,-603.65 1259,-603.65 1259,-607.6 1255.04,-611.56 1251.08,-611.56"/>
<text xml:space="preserve" text-anchor="middle" x="1143.38" y="-594.26" font-family="Arial" font-size="14.00" fill="#c6c5fe">controllers/promptTraceController.ts</text>
</g>
<!-- controllers/promptTraceController.ts&#45;&gt;utils/logger.ts -->
<g id="edge25" class="edge">
<title>controllers/promptTraceController.ts&#45;&gt;utils/logger.ts</title>
<path fill="none" stroke="#757575" d="M1183.46,-612.06C1207.88,-621.49 1238.48,-636.66 1259,-658.69 1334.94,-740.2 1369.06,-874.71 1380.16,-928.45"/>
<polygon fill="#757575" stroke="#757575" points="1376.68,-928.86 1382.05,-937.99 1383.54,-927.5 1376.68,-928.86"/>
</g>
<!-- controllers/promptTraceController.ts&#45;&gt;lib/prisma.ts -->
<g id="edge24" class="edge">
<title>controllers/promptTraceController.ts&#45;&gt;lib/prisma.ts</title>
<path fill="none" stroke="#757575" d="M1259.38,-597.52C1388.28,-592.98 1602.74,-579.06 1782.25,-536.69 1818.11,-528.22 1857.17,-512.67 1884.66,-500.6"/>
<polygon fill="#757575" stroke="#757575" points="1885.88,-503.89 1893.58,-496.62 1883.02,-497.5 1885.88,-503.89"/>
</g>
<!-- controllers/userController.ts -->
<g id="node27" class="node">
<title>controllers/userController.ts</title>
<path fill="none" stroke="#c6c5fe" d="M709.83,-835.56C709.83,-835.56 545.42,-835.56 545.42,-835.56 541.46,-835.56 537.5,-831.6 537.5,-827.65 537.5,-827.65 537.5,-819.73 537.5,-819.73 537.5,-815.77 541.46,-811.81 545.42,-811.81 545.42,-811.81 709.83,-811.81 709.83,-811.81 713.79,-811.81 717.75,-815.77 717.75,-819.73 717.75,-819.73 717.75,-827.65 717.75,-827.65 717.75,-831.6 713.79,-835.56 709.83,-835.56"/>
<text xml:space="preserve" text-anchor="middle" x="627.62" y="-818.26" font-family="Arial" font-size="14.00" fill="#c6c5fe">controllers/userController.ts</text>
</g>
<!-- controllers/userController.ts&#45;&gt;lib/prisma.ts -->
<g id="edge26" class="edge">
<title>controllers/userController.ts&#45;&gt;lib/prisma.ts</title>
<path fill="none" stroke="#757575" d="M699.49,-811.39C717.29,-805.62 735.28,-797.13 749.25,-784.69 778.05,-759.01 754.94,-729.57 785.25,-705.69 828.37,-671.72 973.5,-667.06 1027.75,-658.69 1361.36,-607.2 1464.04,-684.32 1782.25,-571.69 1826.77,-555.93 1871.72,-523.72 1897.9,-502.94"/>
<polygon fill="#757575" stroke="#757575" points="1899.91,-505.82 1905.48,-496.81 1895.51,-500.38 1899.91,-505.82"/>
</g>
<!-- controllers/userController.ts&#45;&gt;middleware/authMiddleware.ts -->
<g id="edge27" class="edge">
<title>controllers/userController.ts&#45;&gt;middleware/authMiddleware.ts</title>
<path fill="none" stroke="#757575" d="M718.18,-816.06C729.65,-811.9 740.45,-805.99 749.25,-797.69 792.85,-756.54 742.41,-709.63 785.25,-667.69 788.31,-664.69 791.66,-662.03 795.23,-659.66"/>
<polygon fill="#757575" stroke="#757575" points="796.83,-662.77 803.8,-654.79 793.38,-656.68 796.83,-662.77"/>
</g>
<!-- controllers/userController.ts&#45;&gt;middleware/errorHandler.ts -->
<g id="edge28" class="edge">
<title>controllers/userController.ts&#45;&gt;middleware/errorHandler.ts</title>
<path fill="none" stroke="#757575" d="M718.11,-832.74C808.73,-841.92 948.56,-856.07 1042.67,-865.6"/>
<polygon fill="#757575" stroke="#757575" points="1042.1,-869.06 1052.41,-866.58 1042.81,-862.09 1042.1,-869.06"/>
</g>
<!-- controllers/userSettingsController.ts -->
<g id="node28" class="node">
<title>controllers/userSettingsController.ts</title>
<path fill="none" stroke="#c6c5fe" d="M734.21,-561.56C734.21,-561.56 521.04,-561.56 521.04,-561.56 517.08,-561.56 513.12,-557.6 513.12,-553.65 513.12,-553.65 513.12,-545.73 513.12,-545.73 513.12,-541.77 517.08,-537.81 521.04,-537.81 521.04,-537.81 734.21,-537.81 734.21,-537.81 738.17,-537.81 742.12,-541.77 742.12,-545.73 742.12,-545.73 742.12,-553.65 742.12,-553.65 742.12,-557.6 738.17,-561.56 734.21,-561.56"/>
<text xml:space="preserve" text-anchor="middle" x="627.62" y="-544.26" font-family="Arial" font-size="14.00" fill="#c6c5fe">controllers/userSettingsController.ts</text>
</g>
<!-- controllers/userSettingsController.ts&#45;&gt;lib/prisma.ts -->
<g id="edge29" class="edge">
<title>controllers/userSettingsController.ts&#45;&gt;lib/prisma.ts</title>
<path fill="none" stroke="#757575" d="M742.39,-542.96C756.82,-542.16 771.38,-541.38 785.25,-540.69 1228.21,-518.41 1339.87,-529.54 1782.25,-497.69 1809.87,-495.7 1840.5,-492.69 1865.94,-489.97"/>
<polygon fill="#757575" stroke="#757575" points="1866.16,-493.47 1875.72,-488.91 1865.4,-486.51 1866.16,-493.47"/>
</g>
<!-- controllers/userSettingsController.ts&#45;&gt;middleware/authMiddleware.ts -->
<g id="edge30" class="edge">
<title>controllers/userSettingsController.ts&#45;&gt;middleware/authMiddleware.ts</title>
<path fill="none" stroke="#757575" d="M717.67,-562.04C728.43,-564.45 739.17,-567.31 749.25,-570.69 788.95,-583.99 831.32,-607.26 858.53,-623.51"/>
<polygon fill="#757575" stroke="#757575" points="856.52,-626.39 866.89,-628.58 860.15,-620.4 856.52,-626.39"/>
</g>
<!-- controllers/userSettingsController.ts&#45;&gt;middleware/errorHandler.ts -->
<g id="edge31" class="edge">
<title>controllers/userSettingsController.ts&#45;&gt;middleware/errorHandler.ts</title>
<path fill="none" stroke="#757575" d="M738.45,-561.95C742.32,-564.48 745.95,-567.38 749.25,-570.69 816.12,-637.73 721.38,-710.78 785.25,-780.69 787.82,-783.5 983.05,-834.4 1083.73,-860.51"/>
<polygon fill="#757575" stroke="#757575" points="1082.61,-863.84 1093.17,-862.96 1084.37,-857.06 1082.61,-863.84"/>
</g>
<!-- services/encryptionService.ts -->
<g id="node29" class="node">
<title>services/encryptionService.ts</title>
<path fill="none" stroke="#cfffac" d="M975.96,-573.56C975.96,-573.56 801.04,-573.56 801.04,-573.56 797.08,-573.56 793.12,-569.6 793.12,-565.65 793.12,-565.65 793.12,-557.73 793.12,-557.73 793.12,-553.77 797.08,-549.81 801.04,-549.81 801.04,-549.81 975.96,-549.81 975.96,-549.81 979.92,-549.81 983.88,-553.77 983.88,-557.73 983.88,-557.73 983.88,-565.65 983.88,-565.65 983.88,-569.6 979.92,-573.56 975.96,-573.56"/>
<text xml:space="preserve" text-anchor="middle" x="888.5" y="-556.26" font-family="Arial" font-size="14.00" fill="#cfffac">services/encryptionService.ts</text>
</g>
<!-- controllers/userSettingsController.ts&#45;&gt;services/encryptionService.ts -->
<g id="edge32" class="edge">
<title>controllers/userSettingsController.ts&#45;&gt;services/encryptionService.ts</title>
<path fill="none" stroke="#757575" d="M742.55,-554.97C755.56,-555.57 768.78,-556.18 781.68,-556.78"/>
<polygon fill="#757575" stroke="#757575" points="781.25,-560.27 791.4,-557.23 781.58,-553.27 781.25,-560.27"/>
</g>
<!-- middleware/validateRequest.ts -->
<g id="node31" class="node">
<title>middleware/validateRequest.ts</title>
<path fill="none" stroke="#c6c5fe" d="M980.83,-1003.56C980.83,-1003.56 796.17,-1003.56 796.17,-1003.56 792.21,-1003.56 788.25,-999.6 788.25,-995.65 788.25,-995.65 788.25,-987.73 788.25,-987.73 788.25,-983.77 792.21,-979.81 796.17,-979.81 796.17,-979.81 980.83,-979.81 980.83,-979.81 984.79,-979.81 988.75,-983.77 988.75,-987.73 988.75,-987.73 988.75,-995.65 988.75,-995.65 988.75,-999.6 984.79,-1003.56 980.83,-1003.56"/>
<text xml:space="preserve" text-anchor="middle" x="888.5" y="-986.26" font-family="Arial" font-size="14.00" fill="#c6c5fe">middleware/validateRequest.ts</text>
</g>
<!-- middleware/validateRequest.ts&#45;&gt;middleware/errorHandler.ts -->
<g id="edge36" class="edge">
<title>middleware/validateRequest.ts&#45;&gt;middleware/errorHandler.ts</title>
<path fill="none" stroke="#757575" d="M916.08,-979.49C961.43,-958.69 1053.8,-916.32 1105.41,-892.65"/>
<polygon fill="#757575" stroke="#757575" points="1106.76,-895.87 1114.39,-888.52 1103.84,-889.51 1106.76,-895.87"/>
</g>
<!-- middleware/validators/authValidator.ts -->
<g id="node32" class="node">
<title>middleware/validators/authValidator.ts</title>
<path fill="none" stroke="#cfffac" d="M741.33,-919.56C741.33,-919.56 513.92,-919.56 513.92,-919.56 509.96,-919.56 506,-915.6 506,-911.65 506,-911.65 506,-903.73 506,-903.73 506,-899.77 509.96,-895.81 513.92,-895.81 513.92,-895.81 741.33,-895.81 741.33,-895.81 745.29,-895.81 749.25,-899.77 749.25,-903.73 749.25,-903.73 749.25,-911.65 749.25,-911.65 749.25,-915.6 745.29,-919.56 741.33,-919.56"/>
<text xml:space="preserve" text-anchor="middle" x="627.62" y="-902.26" font-family="Arial" font-size="14.00" fill="#cfffac">middleware/validators/authValidator.ts</text>
</g>
<!-- routes/aiRoutes.ts -->
<g id="node33" class="node">
<title>routes/aiRoutes.ts</title>
<path fill="none" stroke="#c6c5fe" d="M429.83,-489.56C429.83,-489.56 320.92,-489.56 320.92,-489.56 316.96,-489.56 313,-485.6 313,-481.65 313,-481.65 313,-473.73 313,-473.73 313,-469.77 316.96,-465.81 320.92,-465.81 320.92,-465.81 429.83,-465.81 429.83,-465.81 433.79,-465.81 437.75,-469.77 437.75,-473.73 437.75,-473.73 437.75,-481.65 437.75,-481.65 437.75,-485.6 433.79,-489.56 429.83,-489.56"/>
<text xml:space="preserve" text-anchor="middle" x="375.38" y="-472.26" font-family="Arial" font-size="14.00" fill="#c6c5fe">routes/aiRoutes.ts</text>
</g>
<!-- routes/aiRoutes.ts&#45;&gt;controllers/aiController.ts -->
<g id="edge37" class="edge">
<title>routes/aiRoutes.ts&#45;&gt;controllers/aiController.ts</title>
<path fill="none" stroke="#757575" d="M438.09,-478.09C572.22,-478.97 890.97,-481.05 1049.51,-482.08"/>
<polygon fill="#757575" stroke="#757575" points="1049.11,-485.58 1059.13,-482.14 1049.16,-478.58 1049.11,-485.58"/>
</g>
<!-- routes/analyticsRoutes.ts -->
<g id="node34" class="node">
<title>routes/analyticsRoutes.ts</title>
<path fill="none" stroke="#c6c5fe" d="M703.08,-519.56C703.08,-519.56 552.17,-519.56 552.17,-519.56 548.21,-519.56 544.25,-515.6 544.25,-511.65 544.25,-511.65 544.25,-503.73 544.25,-503.73 544.25,-499.77 548.21,-495.81 552.17,-495.81 552.17,-495.81 703.08,-495.81 703.08,-495.81 707.04,-495.81 711,-499.77 711,-503.73 711,-503.73 711,-511.65 711,-511.65 711,-515.6 707.04,-519.56 703.08,-519.56"/>
<text xml:space="preserve" text-anchor="middle" x="627.62" y="-502.26" font-family="Arial" font-size="14.00" fill="#c6c5fe">routes/analyticsRoutes.ts</text>
</g>
<!-- routes/analyticsRoutes.ts&#45;&gt;controllers/analyticsController.ts -->
<g id="edge38" class="edge">
<title>routes/analyticsRoutes.ts&#45;&gt;controllers/analyticsController.ts</title>
<path fill="none" stroke="#757575" d="M678.54,-495.35C720.8,-484.9 781.52,-469.89 826.63,-458.74"/>
<polygon fill="#757575" stroke="#757575" points="827.4,-462.15 836.27,-456.35 825.72,-455.35 827.4,-462.15"/>
</g>
<!-- routes/analyticsRoutes.ts&#45;&gt;middleware/authMiddleware.ts -->
<g id="edge39" class="edge">
<title>routes/analyticsRoutes.ts&#45;&gt;middleware/authMiddleware.ts</title>
<path fill="none" stroke="#757575" d="M711.48,-512.95C724.82,-516.31 737.94,-521.32 749.25,-528.69 773.42,-544.44 764.21,-562.96 785.25,-582.69 803.71,-599.99 828.15,-614.33 848.51,-624.54"/>
<polygon fill="#757575" stroke="#757575" points="846.84,-627.62 857.37,-628.83 849.9,-621.32 846.84,-627.62"/>
</g>
<!-- routes/auditRoutes.ts -->
<g id="node35" class="node">
<title>routes/auditRoutes.ts</title>
<path fill="none" stroke="#c6c5fe" d="M691.46,-1041.56C691.46,-1041.56 563.79,-1041.56 563.79,-1041.56 559.83,-1041.56 555.88,-1037.6 555.88,-1033.65 555.88,-1033.65 555.88,-1025.73 555.88,-1025.73 555.88,-1021.77 559.83,-1017.81 563.79,-1017.81 563.79,-1017.81 691.46,-1017.81 691.46,-1017.81 695.42,-1017.81 699.38,-1021.77 699.38,-1025.73 699.38,-1025.73 699.38,-1033.65 699.38,-1033.65 699.38,-1037.6 695.42,-1041.56 691.46,-1041.56"/>
<text xml:space="preserve" text-anchor="middle" x="627.62" y="-1024.26" font-family="Arial" font-size="14.00" fill="#c6c5fe">routes/auditRoutes.ts</text>
</g>
<!-- routes/auditRoutes.ts&#45;&gt;controllers/auditController.ts -->
<g id="edge40" class="edge">
<title>routes/auditRoutes.ts&#45;&gt;controllers/auditController.ts</title>
<path fill="none" stroke="#757575" d="M669.37,-1042.06C762.01,-1070.19 988.35,-1138.92 1090.66,-1169.98"/>
<polygon fill="#757575" stroke="#757575" points="1089.59,-1173.32 1100.18,-1172.87 1091.63,-1166.62 1089.59,-1173.32"/>
</g>
<!-- routes/auditRoutes.ts&#45;&gt;middleware/authMiddleware.ts -->
<g id="edge41" class="edge">
<title>routes/auditRoutes.ts&#45;&gt;middleware/authMiddleware.ts</title>
<path fill="none" stroke="#757575" d="M678.09,-1017.37C703.27,-1008.53 732.1,-993.96 749.25,-970.69 811.14,-886.68 736.8,-831.1 785.25,-738.69 802.52,-705.74 835.35,-677.71 859.16,-660.38"/>
<polygon fill="#757575" stroke="#757575" points="861.03,-663.34 867.19,-654.71 857,-657.62 861.03,-663.34"/>
</g>
<!-- routes/authRoutes.ts -->
<g id="node36" class="node">
<title>routes/authRoutes.ts</title>
<path fill="none" stroke="#c6c5fe" d="M437.71,-919.56C437.71,-919.56 313.04,-919.56 313.04,-919.56 309.08,-919.56 305.12,-915.6 305.12,-911.65 305.12,-911.65 305.12,-903.73 305.12,-903.73 305.12,-899.77 309.08,-895.81 313.04,-895.81 313.04,-895.81 437.71,-895.81 437.71,-895.81 441.67,-895.81 445.62,-899.77 445.62,-903.73 445.62,-903.73 445.62,-911.65 445.62,-911.65 445.62,-915.6 441.67,-919.56 437.71,-919.56"/>
<text xml:space="preserve" text-anchor="middle" x="375.38" y="-902.26" font-family="Arial" font-size="14.00" fill="#c6c5fe">routes/authRoutes.ts</text>
</g>
<!-- routes/authRoutes.ts&#45;&gt;controllers/authController.ts -->
<g id="edge42" class="edge">
<title>routes/authRoutes.ts&#45;&gt;controllers/authController.ts</title>
<path fill="none" stroke="#757575" d="M446.08,-919.39C475.71,-924.36 510.53,-930.2 541.64,-935.42"/>
<polygon fill="#757575" stroke="#757575" points="540.99,-938.86 551.43,-937.07 542.15,-931.96 540.99,-938.86"/>
</g>
<!-- routes/authRoutes.ts&#45;&gt;middleware/authMiddleware.ts -->
<g id="edge43" class="edge">
<title>routes/authRoutes.ts&#45;&gt;middleware/authMiddleware.ts</title>
<path fill="none" stroke="#757575" d="M387.66,-895.65C408.79,-873.83 456.66,-827.69 506,-802.69 605.72,-752.15 662.28,-808.93 749.25,-738.69 776.77,-716.46 757.63,-689.8 785.25,-667.69 789.49,-664.29 794.13,-661.33 799.01,-658.75"/>
<polygon fill="#757575" stroke="#757575" points="800.34,-661.99 807.94,-654.61 797.4,-655.64 800.34,-661.99"/>
</g>
<!-- routes/authRoutes.ts&#45;&gt;middleware/validateRequest.ts -->
<g id="edge44" class="edge">
<title>routes/authRoutes.ts&#45;&gt;middleware/validateRequest.ts</title>
<path fill="none" stroke="#757575" d="M395.2,-919.83C419.63,-934.87 464.1,-959.82 506,-970.69 595.05,-993.78 699.57,-998.01 776.67,-997.05"/>
<polygon fill="#757575" stroke="#757575" points="776.39,-1000.55 786.33,-996.89 776.28,-993.55 776.39,-1000.55"/>
</g>
<!-- routes/authRoutes.ts&#45;&gt;middleware/validators/authValidator.ts -->
<g id="edge45" class="edge">
<title>routes/authRoutes.ts&#45;&gt;middleware/validators/authValidator.ts</title>
<path fill="none" stroke="#757575" d="M446.08,-907.69C461.12,-907.69 477.5,-907.69 494.06,-907.69"/>
<polygon fill="#757575" stroke="#757575" points="494.02,-911.19 504.02,-907.69 494.02,-904.19 494.02,-911.19"/>
</g>
<!-- routes/chatHistoryRoutes.ts -->
<g id="node37" class="node">
<title>routes/chatHistoryRoutes.ts</title>
<path fill="none" stroke="#c6c5fe" d="M458.33,-765.56C458.33,-765.56 292.42,-765.56 292.42,-765.56 288.46,-765.56 284.5,-761.6 284.5,-757.65 284.5,-757.65 284.5,-749.73 284.5,-749.73 284.5,-745.77 288.46,-741.81 292.42,-741.81 292.42,-741.81 458.33,-741.81 458.33,-741.81 462.29,-741.81 466.25,-745.77 466.25,-749.73 466.25,-749.73 466.25,-757.65 466.25,-757.65 466.25,-761.6 462.29,-765.56 458.33,-765.56"/>
<text xml:space="preserve" text-anchor="middle" x="375.38" y="-748.26" font-family="Arial" font-size="14.00" fill="#c6c5fe">routes/chatHistoryRoutes.ts</text>
</g>
<!-- routes/chatHistoryRoutes.ts&#45;&gt;middleware/authMiddleware.ts -->
<g id="edge47" class="edge">
<title>routes/chatHistoryRoutes.ts&#45;&gt;middleware/authMiddleware.ts</title>
<path fill="none" stroke="#757575" d="M466.59,-754.29C544.67,-751.63 658.94,-739.96 749.25,-698.69 768.45,-689.91 766.52,-677.44 785.25,-667.69 792.9,-663.7 801.2,-660.3 809.65,-657.41"/>
<polygon fill="#757575" stroke="#757575" points="810.47,-660.82 818.95,-654.47 808.36,-654.15 810.47,-660.82"/>
</g>
<!-- routes/chatHistoryRoutes.ts&#45;&gt;controllers/chatHistoryController.ts -->
<g id="edge46" class="edge">
<title>routes/chatHistoryRoutes.ts&#45;&gt;controllers/chatHistoryController.ts</title>
<path fill="none" stroke="#757575" d="M389.55,-765.99C411.73,-785.96 458.74,-825.14 506,-844.69 510.9,-846.71 515.99,-848.54 521.18,-850.2"/>
<polygon fill="#757575" stroke="#757575" points="519.94,-853.48 530.52,-852.93 521.9,-846.76 519.94,-853.48"/>
</g>
<!-- routes/chatRoutes.ts -->
<g id="node38" class="node">
<title>routes/chatRoutes.ts</title>
<path fill="none" stroke="#c6c5fe" d="M437.33,-601.56C437.33,-601.56 313.42,-601.56 313.42,-601.56 309.46,-601.56 305.5,-597.6 305.5,-593.65 305.5,-593.65 305.5,-585.73 305.5,-585.73 305.5,-581.77 309.46,-577.81 313.42,-577.81 313.42,-577.81 437.33,-577.81 437.33,-577.81 441.29,-577.81 445.25,-581.77 445.25,-585.73 445.25,-585.73 445.25,-593.65 445.25,-593.65 445.25,-597.6 441.29,-601.56 437.33,-601.56"/>
<text xml:space="preserve" text-anchor="middle" x="375.38" y="-584.26" font-family="Arial" font-size="14.00" fill="#c6c5fe">routes/chatRoutes.ts</text>
</g>
<!-- routes/chatRoutes.ts&#45;&gt;middleware/authMiddleware.ts -->
<g id="edge49" class="edge">
<title>routes/chatRoutes.ts&#45;&gt;middleware/authMiddleware.ts</title>
<path fill="none" stroke="#757575" d="M438.49,-602.01C459.82,-605.89 483.89,-609.89 506,-612.69 597.07,-624.2 701,-631.73 777.36,-636.23"/>
<polygon fill="#757575" stroke="#757575" points="776.72,-639.7 786.91,-636.78 777.13,-632.71 776.72,-639.7"/>
</g>
<!-- routes/chatRoutes.ts&#45;&gt;controllers/chatController.ts -->
<g id="edge48" class="edge">
<title>routes/chatRoutes.ts&#45;&gt;controllers/chatController.ts</title>
<path fill="none" stroke="#757575" d="M390.37,-577.36C409.28,-560.42 443.65,-528.64 470,-498.69 526.9,-433.99 585.62,-350.19 612.11,-311.29"/>
<polygon fill="#757575" stroke="#757575" points="614.86,-313.48 617.57,-303.23 609.06,-309.55 614.86,-313.48"/>
</g>
<!-- routes/promptTraceRoutes.ts -->
<g id="node39" class="node">
<title>routes/promptTraceRoutes.ts</title>
<path fill="none" stroke="#c6c5fe" d="M715.46,-603.56C715.46,-603.56 539.79,-603.56 539.79,-603.56 535.83,-603.56 531.88,-599.6 531.88,-595.65 531.88,-595.65 531.88,-587.73 531.88,-587.73 531.88,-583.77 535.83,-579.81 539.79,-579.81 539.79,-579.81 715.46,-579.81 715.46,-579.81 719.42,-579.81 723.38,-583.77 723.38,-587.73 723.38,-587.73 723.38,-595.65 723.38,-595.65 723.38,-599.6 719.42,-603.56 715.46,-603.56"/>
<text xml:space="preserve" text-anchor="middle" x="627.62" y="-586.26" font-family="Arial" font-size="14.00" fill="#c6c5fe">routes/promptTraceRoutes.ts</text>
</g>
<!-- routes/promptTraceRoutes.ts&#45;&gt;middleware/authMiddleware.ts -->
<g id="edge51" class="edge">
<title>routes/promptTraceRoutes.ts&#45;&gt;middleware/authMiddleware.ts</title>
<path fill="none" stroke="#757575" d="M692.62,-604.05C729,-611.07 774.75,-619.91 812.78,-627.25"/>
<polygon fill="#757575" stroke="#757575" points="811.83,-630.64 822.31,-629.1 813.16,-623.76 811.83,-630.64"/>
</g>
<!-- routes/promptTraceRoutes.ts&#45;&gt;controllers/promptTraceController.ts -->
<g id="edge50" class="edge">
<title>routes/promptTraceRoutes.ts&#45;&gt;controllers/promptTraceController.ts</title>
<path fill="none" stroke="#757575" d="M723.75,-593.17C806.09,-594.45 925.8,-596.31 1016.14,-597.72"/>
<polygon fill="#757575" stroke="#757575" points="1016,-601.22 1026.05,-597.88 1016.11,-594.22 1016,-601.22"/>
</g>
<!-- routes/userRoutes.ts -->
<g id="node40" class="node">
<title>routes/userRoutes.ts</title>
<path fill="none" stroke="#c6c5fe" d="M437.71,-723.56C437.71,-723.56 313.04,-723.56 313.04,-723.56 309.08,-723.56 305.12,-719.6 305.12,-715.65 305.12,-715.65 305.12,-707.73 305.12,-707.73 305.12,-703.77 309.08,-699.81 313.04,-699.81 313.04,-699.81 437.71,-699.81 437.71,-699.81 441.67,-699.81 445.62,-703.77 445.62,-707.73 445.62,-707.73 445.62,-715.65 445.62,-715.65 445.62,-719.6 441.67,-723.56 437.71,-723.56"/>
<text xml:space="preserve" text-anchor="middle" x="375.38" y="-706.26" font-family="Arial" font-size="14.00" fill="#c6c5fe">routes/userRoutes.ts</text>
</g>
<!-- routes/userRoutes.ts&#45;&gt;middleware/authMiddleware.ts -->
<g id="edge53" class="edge">
<title>routes/userRoutes.ts&#45;&gt;middleware/authMiddleware.ts</title>
<path fill="none" stroke="#757575" d="M446.03,-705.68C521.12,-698.78 644.03,-686.24 749.25,-669.69 772.74,-665.99 798.3,-661.07 820.98,-656.39"/>
<polygon fill="#757575" stroke="#757575" points="821.65,-659.82 830.72,-654.35 820.22,-652.97 821.65,-659.82"/>
</g>
<!-- routes/userRoutes.ts&#45;&gt;controllers/userController.ts -->
<g id="edge52" class="edge">
<title>routes/userRoutes.ts&#45;&gt;controllers/userController.ts</title>
<path fill="none" stroke="#757575" d="M443.12,-724.01C452.28,-726.47 461.47,-729.34 470,-732.69 518.67,-751.76 570.16,-784.43 600.3,-804.99"/>
<polygon fill="#757575" stroke="#757575" points="598.2,-807.8 608.42,-810.61 602.18,-802.04 598.2,-807.8"/>
</g>
<!-- routes/userSettingsRoutes.ts -->
<g id="node41" class="node">
<title>routes/userSettingsRoutes.ts</title>
<path fill="none" stroke="#c6c5fe" d="M462.08,-681.56C462.08,-681.56 288.67,-681.56 288.67,-681.56 284.71,-681.56 280.75,-677.6 280.75,-673.65 280.75,-673.65 280.75,-665.73 280.75,-665.73 280.75,-661.77 284.71,-657.81 288.67,-657.81 288.67,-657.81 462.08,-657.81 462.08,-657.81 466.04,-657.81 470,-661.77 470,-665.73 470,-665.73 470,-673.65 470,-673.65 470,-677.6 466.04,-681.56 462.08,-681.56"/>
<text xml:space="preserve" text-anchor="middle" x="375.38" y="-664.26" font-family="Arial" font-size="14.00" fill="#c6c5fe">routes/userSettingsRoutes.ts</text>
</g>
<!-- routes/userSettingsRoutes.ts&#45;&gt;middleware/authMiddleware.ts -->
<g id="edge55" class="edge">
<title>routes/userSettingsRoutes.ts&#45;&gt;middleware/authMiddleware.ts</title>
<path fill="none" stroke="#757575" d="M470.42,-664.54C557.05,-659.79 685.64,-652.74 777.11,-647.73"/>
<polygon fill="#757575" stroke="#757575" points="777.05,-651.24 786.85,-647.2 776.67,-644.25 777.05,-651.24"/>
</g>
<!-- routes/userSettingsRoutes.ts&#45;&gt;controllers/userSettingsController.ts -->
<g id="edge54" class="edge">
<title>routes/userSettingsRoutes.ts&#45;&gt;controllers/userSettingsController.ts</title>
<path fill="none" stroke="#757575" d="M399.51,-657.49C419.23,-646.55 447.81,-629.38 470,-610.69 488.29,-595.28 485.07,-582.26 506,-570.69 508.88,-569.1 511.85,-567.62 514.89,-566.25"/>
<polygon fill="#757575" stroke="#757575" points="516.09,-569.54 524.07,-562.57 513.48,-563.05 516.09,-569.54"/>
</g>
<!-- server.ts -->
<g id="node42" class="node">
<title>server.ts</title>
<path fill="none" stroke="#c6c5fe" d="M147.96,-723.56C147.96,-723.56 96.79,-723.56 96.79,-723.56 92.83,-723.56 88.88,-719.6 88.88,-715.65 88.88,-715.65 88.88,-707.73 88.88,-707.73 88.88,-703.77 92.83,-699.81 96.79,-699.81 96.79,-699.81 147.96,-699.81 147.96,-699.81 151.92,-699.81 155.88,-703.77 155.88,-707.73 155.88,-707.73 155.88,-715.65 155.88,-715.65 155.88,-719.6 151.92,-723.56 147.96,-723.56"/>
<text xml:space="preserve" text-anchor="middle" x="122.38" y="-706.26" font-family="Arial" font-size="14.00" fill="#c6c5fe">server.ts</text>
</g>
<!-- server.ts&#45;&gt;config/env.ts -->
<g id="edge56" class="edge">
<title>server.ts&#45;&gt;config/env.ts</title>
<path fill="none" stroke="#757575" d="M156.21,-707.51C183.93,-705.99 222.56,-708.93 244.75,-732.69 297.67,-789.34 230.71,-1020.48 280.75,-1079.69 290.29,-1090.98 304.28,-1097.59 318.55,-1101.4"/>
<polygon fill="#757575" stroke="#757575" points="317.44,-1104.74 327.96,-1103.47 318.95,-1097.9 317.44,-1104.74"/>
</g>
<!-- server.ts&#45;&gt;utils/logger.ts -->
<g id="edge68" class="edge">
<title>server.ts&#45;&gt;utils/logger.ts</title>
<path fill="none" stroke="#757575" d="M156.28,-707.44C184.05,-705.87 222.71,-708.8 244.75,-732.69 304.38,-797.3 217.46,-1065.65 280.75,-1126.69 391.57,-1233.56 472.67,-1145.69 626.62,-1145.69 626.62,-1145.69 626.62,-1145.69 889.5,-1145.69 1058.63,-1145.69 1107.78,-1130.43 1259,-1054.69 1301.46,-1033.42 1342.39,-995.53 1365.41,-972.12"/>
<polygon fill="#757575" stroke="#757575" points="1367.85,-974.63 1372.27,-965 1362.81,-969.77 1367.85,-974.63"/>
</g>
<!-- server.ts&#45;&gt;lib/prisma.ts -->
<g id="edge57" class="edge">
<title>server.ts&#45;&gt;lib/prisma.ts</title>
<path fill="none" stroke="#757575" d="M126.84,-699.5C139.44,-657.61 187.06,-518.73 280.75,-456.69 410.41,-370.82 471.11,-403.69 626.62,-403.69 626.62,-403.69 626.62,-403.69 1386.5,-403.69 1563.47,-403.69 1608.21,-415.59 1782.25,-447.69 1811.11,-453.01 1842.83,-461.08 1868.63,-468.23"/>
<polygon fill="#757575" stroke="#757575" points="1867.64,-471.58 1878.21,-470.92 1869.53,-464.85 1867.64,-471.58"/>
</g>
<!-- server.ts&#45;&gt;middleware/errorHandler.ts -->
<g id="edge58" class="edge">
<title>server.ts&#45;&gt;middleware/errorHandler.ts</title>
<path fill="none" stroke="#757575" d="M156.26,-707.7C183.83,-706.34 222.2,-709.42 244.75,-732.69 324.42,-814.87 205.35,-901.57 280.75,-987.69 349.23,-1065.9 403.01,-1036.56 506,-1050.69 720.54,-1080.12 796.45,-1106.24 991.75,-1012.69 1049.82,-984.87 1101.51,-927.28 1126.5,-896.36"/>
<polygon fill="#757575" stroke="#757575" points="1128.97,-898.89 1132.44,-888.88 1123.48,-894.54 1128.97,-898.89"/>
</g>
<!-- server.ts&#45;&gt;routes/aiRoutes.ts -->
<g id="edge59" class="edge">
<title>server.ts&#45;&gt;routes/aiRoutes.ts</title>
<path fill="none" stroke="#757575" d="M129.9,-699.7C148.84,-665.96 207.18,-569.07 280.75,-514.69 292.28,-506.16 306.04,-499.3 319.42,-493.91"/>
<polygon fill="#757575" stroke="#757575" points="320.48,-497.25 328.59,-490.44 318,-490.7 320.48,-497.25"/>
</g>
<!-- server.ts&#45;&gt;routes/analyticsRoutes.ts -->
<g id="edge60" class="edge">
<title>server.ts&#45;&gt;routes/analyticsRoutes.ts</title>
<path fill="none" stroke="#757575" d="M132.49,-699.67C154.53,-671.59 213.82,-601.57 280.75,-568.69 360.1,-529.7 460.52,-515.31 532.68,-510.16"/>
<polygon fill="#757575" stroke="#757575" points="532.76,-513.66 542.51,-509.51 532.3,-506.68 532.76,-513.66"/>
</g>
<!-- server.ts&#45;&gt;routes/auditRoutes.ts -->
<g id="edge61" class="edge">
<title>server.ts&#45;&gt;routes/auditRoutes.ts</title>
<path fill="none" stroke="#757575" d="M156.3,-707.92C183.69,-706.75 221.8,-709.97 244.75,-732.69 307.7,-794.99 221.85,-862.55 280.75,-928.69 346.97,-1003.04 464.56,-1023.98 544.03,-1029.18"/>
<polygon fill="#757575" stroke="#757575" points="543.78,-1032.67 553.96,-1029.75 544.18,-1025.69 543.78,-1032.67"/>
</g>
<!-- server.ts&#45;&gt;routes/authRoutes.ts -->
<g id="edge62" class="edge">
<title>server.ts&#45;&gt;routes/authRoutes.ts</title>
<path fill="none" stroke="#757575" d="M156.36,-710.91C182.18,-711.75 218.08,-716.25 244.75,-732.69 252.75,-737.62 326.61,-840.58 359.13,-886.22"/>
<polygon fill="#757575" stroke="#757575" points="356.22,-888.18 364.87,-894.3 361.92,-884.12 356.22,-888.18"/>
</g>
<!-- server.ts&#45;&gt;routes/chatHistoryRoutes.ts -->
<g id="edge63" class="edge">
<title>server.ts&#45;&gt;routes/chatHistoryRoutes.ts</title>
<path fill="none" stroke="#757575" d="M156.19,-717.18C189.89,-722.82 243.73,-731.83 289.49,-739.48"/>
<polygon fill="#757575" stroke="#757575" points="288.7,-742.9 299.14,-741.1 289.86,-736 288.7,-742.9"/>
</g>
<!-- server.ts&#45;&gt;routes/chatRoutes.ts -->
<g id="edge64" class="edge">
<title>server.ts&#45;&gt;routes/chatRoutes.ts</title>
<path fill="none" stroke="#757575" d="M139.99,-699.39C167.81,-679.32 226.14,-639.38 280.75,-615.69 289.75,-611.78 299.48,-608.31 309.16,-605.28"/>
<polygon fill="#757575" stroke="#757575" points="309.99,-608.69 318.57,-602.47 307.99,-601.98 309.99,-608.69"/>
</g>
<!-- server.ts&#45;&gt;routes/promptTraceRoutes.ts -->
<g id="edge65" class="edge">
<title>server.ts&#45;&gt;routes/promptTraceRoutes.ts</title>
<path fill="none" stroke="#757575" d="M148.95,-699.43C179.6,-685.23 232.84,-662.05 280.75,-648.69 325.84,-636.11 441.65,-618.06 526.89,-605.66"/>
<polygon fill="#757575" stroke="#757575" points="527.29,-609.14 536.68,-604.25 526.28,-602.22 527.29,-609.14"/>
</g>
<!-- server.ts&#45;&gt;routes/userRoutes.ts -->
<g id="edge66" class="edge">
<title>server.ts&#45;&gt;routes/userRoutes.ts</title>
<path fill="none" stroke="#757575" d="M156.19,-711.69C190.87,-711.69 246.88,-711.69 293.47,-711.69"/>
<polygon fill="#757575" stroke="#757575" points="293.27,-715.19 303.27,-711.69 293.27,-708.19 293.27,-715.19"/>
</g>
<!-- server.ts&#45;&gt;routes/userSettingsRoutes.ts -->
<g id="edge67" class="edge">
<title>server.ts&#45;&gt;routes/userSettingsRoutes.ts</title>
<path fill="none" stroke="#757575" d="M156.19,-706.2C189.89,-700.56 243.73,-691.55 289.49,-683.89"/>
<polygon fill="#757575" stroke="#757575" points="289.86,-687.38 299.14,-682.28 288.7,-680.47 289.86,-687.38"/>
</g>
<!-- services/ai/client/azureEmbeddingClient.ts&#45;&gt;config/providerMap.ts -->
<g id="edge69" class="edge">
<title>services/ai/client/azureEmbeddingClient.ts&#45;&gt;config/providerMap.ts</title>
<path fill="none" stroke="#757575" d="M1736.68,-81.35C1769.1,-76.83 1805.65,-71.74 1837.59,-67.29"/>
<polygon fill="#757575" stroke="#757575" points="1837.76,-70.8 1847.19,-65.95 1836.8,-63.87 1837.76,-70.8"/>
</g>
<!-- services/ai/client/claudeClient.ts -->
<g id="node44" class="node">
<title>services/ai/client/claudeClient.ts</title>
<path fill="none" stroke="#c6c5fe" d="M2017.58,-25.56C2017.58,-25.56 1826.17,-25.56 1826.17,-25.56 1822.21,-25.56 1818.25,-21.6 1818.25,-17.65 1818.25,-17.65 1818.25,-9.73 1818.25,-9.73 1818.25,-5.77 1822.21,-1.81 1826.17,-1.81 1826.17,-1.81 2017.58,-1.81 2017.58,-1.81 2021.54,-1.81 2025.5,-5.77 2025.5,-9.73 2025.5,-9.73 2025.5,-17.65 2025.5,-17.65 2025.5,-21.6 2021.54,-25.56 2017.58,-25.56"/>
<text xml:space="preserve" text-anchor="middle" x="1921.88" y="-8.26" font-family="Arial" font-size="14.00" fill="#c6c5fe">services/ai/client/claudeClient.ts</text>
</g>
<!-- services/ai/client/claudeClient.ts&#45;&gt;services/ai/types.ts -->
<g id="edge70" class="edge">
<title>services/ai/client/claudeClient.ts&#45;&gt;services/ai/types.ts</title>
<path fill="none" stroke="#757575" d="M2025.74,-1.49C2095.46,2.42 2188.01,-1.1 2262,-34.69 2299.75,-51.82 2331.02,-89.96 2348.06,-114.16"/>
<polygon fill="#757575" stroke="#757575" points="2345.09,-116.03 2353.61,-122.33 2350.88,-112.09 2345.09,-116.03"/>
</g>
<!-- services/ai/utils/providerUtils.ts -->
<g id="node45" class="node">
<title>services/ai/utils/providerUtils.ts</title>
<path fill="none" stroke="#c6c5fe" d="M2254.08,-67.56C2254.08,-67.56 2069.42,-67.56 2069.42,-67.56 2065.46,-67.56 2061.5,-63.6 2061.5,-59.65 2061.5,-59.65 2061.5,-51.73 2061.5,-51.73 2061.5,-47.77 2065.46,-43.81 2069.42,-43.81 2069.42,-43.81 2254.08,-43.81 2254.08,-43.81 2258.04,-43.81 2262,-47.77 2262,-51.73 2262,-51.73 2262,-59.65 2262,-59.65 2262,-63.6 2258.04,-67.56 2254.08,-67.56"/>
<text xml:space="preserve" text-anchor="middle" x="2161.75" y="-50.26" font-family="Arial" font-size="14.00" fill="#c6c5fe">services/ai/utils/providerUtils.ts</text>
</g>
<!-- services/ai/client/claudeClient.ts&#45;&gt;services/ai/utils/providerUtils.ts -->
<g id="edge71" class="edge">
<title>services/ai/client/claudeClient.ts&#45;&gt;services/ai/utils/providerUtils.ts</title>
<path fill="none" stroke="#757575" d="M1992.96,-26.06C2020.18,-30.87 2051.53,-36.4 2079.72,-41.38"/>
<polygon fill="#757575" stroke="#757575" points="2078.81,-44.77 2089.27,-43.07 2080.03,-37.88 2078.81,-44.77"/>
</g>
<!-- services/ai/utils/providerUtils.ts&#45;&gt;services/ai/types.ts -->
<g id="edge81" class="edge">
<title>services/ai/utils/providerUtils.ts&#45;&gt;services/ai/types.ts</title>
<path fill="none" stroke="#757575" d="M2219.4,-68.04C2233.53,-71.79 2248.5,-76.36 2262,-81.69 2286.89,-91.51 2313.48,-106.08 2332.97,-117.61"/>
<polygon fill="#757575" stroke="#757575" points="2331.08,-120.55 2341.45,-122.71 2334.69,-114.55 2331.08,-120.55"/>
</g>
<!-- services/ai/providers/factory.ts&#45;&gt;lib/prisma.ts -->
<g id="edge76" class="edge">
<title>services/ai/providers/factory.ts&#45;&gt;lib/prisma.ts</title>
<path fill="none" stroke="#757575" d="M1661.11,-147.74C1686.01,-171.17 1741.61,-225.01 1782.25,-275.69 1833.62,-339.74 1884.78,-422.74 1907.98,-461.68"/>
<polygon fill="#757575" stroke="#757575" points="1904.88,-463.32 1912.99,-470.14 1910.91,-459.75 1904.88,-463.32"/>
</g>
<!-- services/ai/providers/base.ts -->
<g id="node47" class="node">
<title>services/ai/providers/base.ts</title>
<path fill="none" stroke="#c6c5fe" d="M2246.96,-147.56C2246.96,-147.56 2076.54,-147.56 2076.54,-147.56 2072.58,-147.56 2068.62,-143.6 2068.62,-139.65 2068.62,-139.65 2068.62,-131.73 2068.62,-131.73 2068.62,-127.77 2072.58,-123.81 2076.54,-123.81 2076.54,-123.81 2246.96,-123.81 2246.96,-123.81 2250.92,-123.81 2254.88,-127.77 2254.88,-131.73 2254.88,-131.73 2254.88,-139.65 2254.88,-139.65 2254.88,-143.6 2250.92,-147.56 2246.96,-147.56"/>
<text xml:space="preserve" text-anchor="middle" x="2161.75" y="-130.26" font-family="Arial" font-size="14.00" fill="#c6c5fe">services/ai/providers/base.ts</text>
</g>
<!-- services/ai/providers/factory.ts&#45;&gt;services/ai/providers/base.ts -->
<g id="edge77" class="edge">
<title>services/ai/providers/factory.ts&#45;&gt;services/ai/providers/base.ts</title>
<path fill="none" stroke="#757575" d="M1745.75,-135.69C1834.76,-135.69 1965.85,-135.69 2056.79,-135.69"/>
<polygon fill="#757575" stroke="#757575" points="2056.72,-139.19 2066.72,-135.69 2056.72,-132.19 2056.72,-139.19"/>
</g>
<!-- services/ai/providers/openai.ts -->
<g id="node48" class="node">
<title>services/ai/providers/openai.ts</title>
<path fill="none" stroke="#c6c5fe" d="M2012.71,-109.56C2012.71,-109.56 1831.04,-109.56 1831.04,-109.56 1827.08,-109.56 1823.12,-105.6 1823.12,-101.65 1823.12,-101.65 1823.12,-93.73 1823.12,-93.73 1823.12,-89.77 1827.08,-85.81 1831.04,-85.81 1831.04,-85.81 2012.71,-85.81 2012.71,-85.81 2016.67,-85.81 2020.62,-89.77 2020.62,-93.73 2020.62,-93.73 2020.62,-101.65 2020.62,-101.65 2020.62,-105.6 2016.67,-109.56 2012.71,-109.56"/>
<text xml:space="preserve" text-anchor="middle" x="1921.88" y="-92.26" font-family="Arial" font-size="14.00" fill="#c6c5fe">services/ai/providers/openai.ts</text>
</g>
<!-- services/ai/providers/factory.ts&#45;&gt;services/ai/providers/openai.ts -->
<g id="edge78" class="edge">
<title>services/ai/providers/factory.ts&#45;&gt;services/ai/providers/openai.ts</title>
<path fill="none" stroke="#757575" d="M1736.68,-123.35C1763.61,-119.6 1793.39,-115.45 1821.02,-111.6"/>
<polygon fill="#757575" stroke="#757575" points="1821.38,-115.08 1830.8,-110.24 1820.41,-108.15 1821.38,-115.08"/>
</g>
<!-- services/ai/providers/base.ts&#45;&gt;services/ai/types.ts -->
<g id="edge75" class="edge">
<title>services/ai/providers/base.ts&#45;&gt;services/ai/types.ts</title>
<path fill="none" stroke="#757575" d="M2255.08,-135.69C2265.51,-135.69 2276.05,-135.69 2286.23,-135.69"/>
<polygon fill="#757575" stroke="#757575" points="2286.04,-139.19 2296.04,-135.69 2286.04,-132.19 2286.04,-139.19"/>
</g>
<!-- services/ai/providers/openai.ts&#45;&gt;services/ai/types.ts -->
<g id="edge80" class="edge">
<title>services/ai/providers/openai.ts&#45;&gt;services/ai/types.ts</title>
<path fill="none" stroke="#757575" d="M2020.81,-98.54C2088.74,-100.12 2181.17,-104.24 2262,-114.69 2274.26,-116.27 2287.25,-118.55 2299.67,-121.02"/>
<polygon fill="#757575" stroke="#757575" points="2298.89,-124.44 2309.39,-123.03 2300.31,-117.58 2298.89,-124.44"/>
</g>
<!-- services/ai/providers/openai.ts&#45;&gt;services/ai/providers/base.ts -->
<g id="edge79" class="edge">
<title>services/ai/providers/openai.ts&#45;&gt;services/ai/providers/base.ts</title>
<path fill="none" stroke="#757575" d="M2000.11,-110.02C2023.18,-113.71 2048.65,-117.78 2072.37,-121.57"/>
<polygon fill="#757575" stroke="#757575" points="2071.58,-124.99 2082,-123.11 2072.68,-118.07 2071.58,-124.99"/>
</g>
<!-- services/ragService.ts&#45;&gt;lib/prisma.ts -->
<g id="edge89" class="edge">
<title>services/ragService.ts&#45;&gt;lib/prisma.ts</title>
<path fill="none" stroke="#757575" d="M1217.47,-239.75C1341.71,-226.47 1598.45,-214.86 1782.25,-313.69 1845.44,-347.67 1890.7,-423.71 1910.2,-461.49"/>
<polygon fill="#757575" stroke="#757575" points="1906.92,-462.77 1914.54,-470.14 1913.18,-459.63 1906.92,-462.77"/>
</g>
<!-- services/ragService.ts&#45;&gt;services/ai/index.ts -->
<g id="edge90" class="edge">
<title>services/ragService.ts&#45;&gt;services/ai/index.ts</title>
<path fill="none" stroke="#757575" d="M1182.42,-237.33C1223.96,-223.83 1290.59,-202.19 1335.89,-187.48"/>
<polygon fill="#757575" stroke="#757575" points="1336.76,-190.87 1345.19,-184.46 1334.6,-184.22 1336.76,-190.87"/>
</g>
<!-- services/chat/costService.ts -->
<g id="node50" class="node">
<title>services/chat/costService.ts</title>
<path fill="none" stroke="#cfffac" d="M205.71,-975.56C205.71,-975.56 39.04,-975.56 39.04,-975.56 35.08,-975.56 31.12,-971.6 31.12,-967.65 31.12,-967.65 31.12,-959.73 31.12,-959.73 31.12,-955.77 35.08,-951.81 39.04,-951.81 39.04,-951.81 205.71,-951.81 205.71,-951.81 209.67,-951.81 213.62,-955.77 213.62,-959.73 213.62,-959.73 213.62,-967.65 213.62,-967.65 213.62,-971.6 209.67,-975.56 205.71,-975.56"/>
<text xml:space="preserve" text-anchor="middle" x="122.38" y="-958.26" font-family="Arial" font-size="14.00" fill="#cfffac">services/chat/costService.ts</text>
</g>
<!-- types/express/index.d.ts -->
<g id="node51" class="node">
<title>types/express/index.d.ts</title>
<path fill="none" stroke="#cfffac" d="M194.83,-1017.56C194.83,-1017.56 49.92,-1017.56 49.92,-1017.56 45.96,-1017.56 42,-1013.6 42,-1009.65 42,-1009.65 42,-1001.73 42,-1001.73 42,-997.77 45.96,-993.81 49.92,-993.81 49.92,-993.81 194.83,-993.81 194.83,-993.81 198.79,-993.81 202.75,-997.77 202.75,-1001.73 202.75,-1001.73 202.75,-1009.65 202.75,-1009.65 202.75,-1013.6 198.79,-1017.56 194.83,-1017.56"/>
<text xml:space="preserve" text-anchor="middle" x="122.38" y="-1000.26" font-family="Arial" font-size="14.00" fill="#cfffac">types/express/index.d.ts</text>
</g>
<!-- types/index.ts -->
<g id="node52" class="node">
<title>types/index.ts</title>
<path fill="none" stroke="#cfffac" d="M163.71,-1059.56C163.71,-1059.56 81.04,-1059.56 81.04,-1059.56 77.08,-1059.56 73.12,-1055.6 73.12,-1051.65 73.12,-1051.65 73.12,-1043.73 73.12,-1043.73 73.12,-1039.77 77.08,-1035.81 81.04,-1035.81 81.04,-1035.81 163.71,-1035.81 163.71,-1035.81 167.67,-1035.81 171.62,-1039.77 171.62,-1043.73 171.62,-1043.73 171.62,-1051.65 171.62,-1051.65 171.62,-1055.6 167.67,-1059.56 163.71,-1059.56"/>
<text xml:space="preserve" text-anchor="middle" x="122.38" y="-1042.26" font-family="Arial" font-size="14.00" fill="#cfffac">types/index.ts</text>
</g>
</g>
</svg>
