<?xml version="1.0" encoding="UTF-8" standalone="no"?>
<!DOCTYPE svg PUBLIC "-//W3C//DTD SVG 1.1//EN"
 "http://www.w3.org/Graphics/SVG/1.1/DTD/svg11.dtd">
<!-- Generated by graphviz version 13.1.2 (20250808.2320)
 -->
<!-- Title: G Pages: 1 -->
<svg width="2365pt" height="1219pt"
 viewBox="0.00 0.00 2365.00 1219.00" xmlns="http://www.w3.org/2000/svg" xmlns:xlink="http://www.w3.org/1999/xlink">
<g id="graph0" class="graph" transform="scale(1 1) rotate(0) translate(21.6 1197.35)">
<title>G</title>
<polygon fill="#111111" stroke="none" points="-21.6,21.6 -21.6,-1197.35 2343.1,-1197.35 2343.1,21.6 -21.6,21.6"/>
<!-- config/costMap.ts -->
<g id="node1" class="node">
<title>config/costMap.ts</title>
<path fill="none" stroke="#cfffac" d="M1855.96,-181.75C1855.96,-181.75 1750.04,-181.75 1750.04,-181.75 1746.08,-181.75 1742.12,-177.79 1742.12,-173.83 1742.12,-173.83 1742.12,-165.92 1742.12,-165.92 1742.12,-161.96 1746.08,-158 1750.04,-158 1750.04,-158 1855.96,-158 1855.96,-158 1859.92,-158 1863.88,-161.96 1863.88,-165.92 1863.88,-165.92 1863.88,-173.83 1863.88,-173.83 1863.88,-177.79 1859.92,-181.75 1855.96,-181.75"/>
<text xml:space="preserve" text-anchor="middle" x="1803" y="-164.45" font-family="Arial" font-size="14.00" fill="#cfffac">config/costMap.ts</text>
</g>
<!-- config/database.ts -->
<g id="node2" class="node">
<title>config/database.ts</title>
<path fill="none" stroke="#cfffac" d="M135.21,-778.75C135.21,-778.75 25.54,-778.75 25.54,-778.75 21.58,-778.75 17.62,-774.79 17.62,-770.83 17.62,-770.83 17.62,-762.92 17.62,-762.92 17.62,-758.96 21.58,-755 25.54,-755 25.54,-755 135.21,-755 135.21,-755 139.17,-755 143.12,-758.96 143.12,-762.92 143.12,-762.92 143.12,-770.83 143.12,-770.83 143.12,-774.79 139.17,-778.75 135.21,-778.75"/>
<text xml:space="preserve" text-anchor="middle" x="80.38" y="-761.45" font-family="Arial" font-size="14.00" fill="#cfffac">config/database.ts</text>
</g>
<!-- config/env.ts -->
<g id="node3" class="node">
<title>config/env.ts</title>
<path fill="none" stroke="#c6c5fe" d="M1325.21,-573.75C1325.21,-573.75 1250.04,-573.75 1250.04,-573.75 1246.08,-573.75 1242.12,-569.79 1242.12,-565.83 1242.12,-565.83 1242.12,-557.92 1242.12,-557.92 1242.12,-553.96 1246.08,-550 1250.04,-550 1250.04,-550 1325.21,-550 1325.21,-550 1329.17,-550 1333.12,-553.96 1333.12,-557.92 1333.12,-557.92 1333.12,-565.83 1333.12,-565.83 1333.12,-569.79 1329.17,-573.75 1325.21,-573.75"/>
<text xml:space="preserve" text-anchor="middle" x="1287.62" y="-556.45" font-family="Arial" font-size="14.00" fill="#c6c5fe">config/env.ts</text>
</g>
<!-- utils/logger.ts -->
<g id="node4" class="node">
<title>utils/logger.ts</title>
<path fill="none" stroke="#cfffac" d="M1602.21,-573.75C1602.21,-573.75 1523.29,-573.75 1523.29,-573.75 1519.33,-573.75 1515.38,-569.79 1515.38,-565.83 1515.38,-565.83 1515.38,-557.92 1515.38,-557.92 1515.38,-553.96 1519.33,-550 1523.29,-550 1523.29,-550 1602.21,-550 1602.21,-550 1606.17,-550 1610.12,-553.96 1610.12,-557.92 1610.12,-557.92 1610.12,-565.83 1610.12,-565.83 1610.12,-569.79 1606.17,-573.75 1602.21,-573.75"/>
<text xml:space="preserve" text-anchor="middle" x="1562.75" y="-556.45" font-family="Arial" font-size="14.00" fill="#cfffac">utils/logger.ts</text>
</g>
<!-- config/env.ts&#45;&gt;utils/logger.ts -->
<g id="edge1" class="edge">
<title>config/env.ts&#45;&gt;utils/logger.ts</title>
<path fill="none" stroke="#757575" d="M1333.42,-561.88C1379.89,-561.88 1452.75,-561.88 1503.63,-561.88"/>
<polygon fill="#757575" stroke="#757575" points="1503.59,-565.38 1513.59,-561.88 1503.59,-558.38 1503.59,-565.38"/>
</g>
<!-- config/providerMap.ts -->
<g id="node5" class="node">
<title>config/providerMap.ts</title>
<path fill="none" stroke="#cfffac" d="M1627.71,-179.75C1627.71,-179.75 1497.79,-179.75 1497.79,-179.75 1493.83,-179.75 1489.88,-175.79 1489.88,-171.83 1489.88,-171.83 1489.88,-163.92 1489.88,-163.92 1489.88,-159.96 1493.83,-156 1497.79,-156 1497.79,-156 1627.71,-156 1627.71,-156 1631.67,-156 1635.62,-159.96 1635.62,-163.92 1635.62,-163.92 1635.62,-171.83 1635.62,-171.83 1635.62,-175.79 1631.67,-179.75 1627.71,-179.75"/>
<text xml:space="preserve" text-anchor="middle" x="1562.75" y="-162.45" font-family="Arial" font-size="14.00" fill="#cfffac">config/providerMap.ts</text>
</g>
<!-- controllers/aiController.ts -->
<g id="node6" class="node">
<title>controllers/aiController.ts</title>
<path fill="none" stroke="#c6c5fe" d="M875.83,-1175.75C875.83,-1175.75 727.17,-1175.75 727.17,-1175.75 723.21,-1175.75 719.25,-1171.79 719.25,-1167.83 719.25,-1167.83 719.25,-1159.92 719.25,-1159.92 719.25,-1155.96 723.21,-1152 727.17,-1152 727.17,-1152 875.83,-1152 875.83,-1152 879.79,-1152 883.75,-1155.96 883.75,-1159.92 883.75,-1159.92 883.75,-1167.83 883.75,-1167.83 883.75,-1171.79 879.79,-1175.75 875.83,-1175.75"/>
<text xml:space="preserve" text-anchor="middle" x="801.5" y="-1158.45" font-family="Arial" font-size="14.00" fill="#c6c5fe">controllers/aiController.ts</text>
</g>
<!-- controllers/aiController.ts&#45;&gt;utils/logger.ts -->
<g id="edge4" class="edge">
<title>controllers/aiController.ts&#45;&gt;utils/logger.ts</title>
<path fill="none" stroke="#757575" d="M865.07,-1151.54C887.92,-1147.12 913.98,-1142.17 937.75,-1137.88 1152.88,-1099.02 1260.14,-1201.99 1422.75,-1055.88 1495.46,-990.54 1545.65,-674.23 1558.5,-585.22"/>
<polygon fill="#757575" stroke="#757575" points="1561.94,-585.9 1559.89,-575.51 1555.01,-584.91 1561.94,-585.9"/>
</g>
<!-- services/ai/index.ts -->
<g id="node7" class="node">
<title>services/ai/index.ts</title>
<path fill="none" stroke="#c6c5fe" d="M1084.21,-359.75C1084.21,-359.75 970.04,-359.75 970.04,-359.75 966.08,-359.75 962.12,-355.79 962.12,-351.83 962.12,-351.83 962.12,-343.92 962.12,-343.92 962.12,-339.96 966.08,-336 970.04,-336 970.04,-336 1084.21,-336 1084.21,-336 1088.17,-336 1092.12,-339.96 1092.12,-343.92 1092.12,-343.92 1092.12,-351.83 1092.12,-351.83 1092.12,-355.79 1088.17,-359.75 1084.21,-359.75"/>
<text xml:space="preserve" text-anchor="middle" x="1027.12" y="-342.45" font-family="Arial" font-size="14.00" fill="#c6c5fe">services/ai/index.ts</text>
</g>
<!-- controllers/aiController.ts&#45;&gt;services/ai/index.ts -->
<g id="edge2" class="edge">
<title>controllers/aiController.ts&#45;&gt;services/ai/index.ts</title>
<path fill="none" stroke="#757575" d="M839.03,-1151.66C861.12,-1142.24 887.65,-1126.88 901.75,-1103.88 959.38,-1009.84 915.89,-716.98 937.75,-608.88 956.12,-518.05 997.28,-415.25 1016.23,-370.59"/>
<polygon fill="#757575" stroke="#757575" points="1019.43,-372.02 1020.15,-361.45 1012.99,-369.26 1019.43,-372.02"/>
</g>
<!-- services/ai/types.ts -->
<g id="node8" class="node">
<title>services/ai/types.ts</title>
<path fill="none" stroke="#cfffac" d="M2313.58,-319.75C2313.58,-319.75 2199.42,-319.75 2199.42,-319.75 2195.46,-319.75 2191.5,-315.79 2191.5,-311.83 2191.5,-311.83 2191.5,-303.92 2191.5,-303.92 2191.5,-299.96 2195.46,-296 2199.42,-296 2199.42,-296 2313.58,-296 2313.58,-296 2317.54,-296 2321.5,-299.96 2321.5,-303.92 2321.5,-303.92 2321.5,-311.83 2321.5,-311.83 2321.5,-315.79 2317.54,-319.75 2313.58,-319.75"/>
<text xml:space="preserve" text-anchor="middle" x="2256.5" y="-302.45" font-family="Arial" font-size="14.00" fill="#cfffac">services/ai/types.ts</text>
</g>
<!-- controllers/aiController.ts&#45;&gt;services/ai/types.ts -->
<g id="edge3" class="edge">
<title>controllers/aiController.ts&#45;&gt;services/ai/types.ts</title>
<path fill="none" stroke="#757575" d="M883.86,-1160.63C980.04,-1157.07 1144.96,-1151.88 1286.62,-1151.88 1286.62,-1151.88 1286.62,-1151.88 1804,-1151.88 2187.12,-1151.88 2246.37,-467.33 2254.36,-331.24"/>
<polygon fill="#757575" stroke="#757575" points="2257.83,-331.82 2254.88,-321.64 2250.84,-331.44 2257.83,-331.82"/>
</g>
<!-- services/ai/index.ts&#45;&gt;services/ai/types.ts -->
<g id="edge80" class="edge">
<title>services/ai/index.ts&#45;&gt;services/ai/types.ts</title>
<path fill="none" stroke="#757575" d="M1050.05,-360.25C1082.76,-378.59 1141.66,-411.13 1152.5,-413.88 1476,-495.64 1569.84,-431.07 1903.25,-417.88 2015.62,-413.43 2052.18,-442.29 2155.5,-397.88 2190.45,-382.85 2221.41,-350.51 2239.31,-328.97"/>
<polygon fill="#757575" stroke="#757575" points="2241.87,-331.37 2245.42,-321.38 2236.42,-326.98 2241.87,-331.37"/>
</g>
<!-- services/ai/client/azureEmbeddingClient.ts -->
<g id="node34" class="node">
<title>services/ai/client/azureEmbeddingClient.ts</title>
<path fill="none" stroke="#c6c5fe" d="M1414.83,-219.75C1414.83,-219.75 1160.42,-219.75 1160.42,-219.75 1156.46,-219.75 1152.5,-215.79 1152.5,-211.83 1152.5,-211.83 1152.5,-203.92 1152.5,-203.92 1152.5,-199.96 1156.46,-196 1160.42,-196 1160.42,-196 1414.83,-196 1414.83,-196 1418.79,-196 1422.75,-199.96 1422.75,-203.92 1422.75,-203.92 1422.75,-211.83 1422.75,-211.83 1422.75,-215.79 1418.79,-219.75 1414.83,-219.75"/>
<text xml:space="preserve" text-anchor="middle" x="1287.62" y="-202.45" font-family="Arial" font-size="14.00" fill="#c6c5fe">services/ai/client/azureEmbeddingClient.ts</text>
</g>
<!-- services/ai/index.ts&#45;&gt;services/ai/client/azureEmbeddingClient.ts -->
<g id="edge74" class="edge">
<title>services/ai/index.ts&#45;&gt;services/ai/client/azureEmbeddingClient.ts</title>
<path fill="none" stroke="#757575" d="M1037.55,-335.55C1056.49,-311.73 1101.75,-259.44 1152.5,-233.88 1160.56,-229.82 1169.18,-226.39 1178.02,-223.5"/>
<polygon fill="#757575" stroke="#757575" points="1178.88,-226.89 1187.45,-220.66 1176.86,-220.19 1178.88,-226.89"/>
</g>
<!-- services/ai/client/claudeClient.ts -->
<g id="node35" class="node">
<title>services/ai/client/claudeClient.ts</title>
<path fill="none" stroke="#c6c5fe" d="M1658.46,-339.75C1658.46,-339.75 1467.04,-339.75 1467.04,-339.75 1463.08,-339.75 1459.12,-335.79 1459.12,-331.83 1459.12,-331.83 1459.12,-323.92 1459.12,-323.92 1459.12,-319.96 1463.08,-316 1467.04,-316 1467.04,-316 1658.46,-316 1658.46,-316 1662.42,-316 1666.38,-319.96 1666.38,-323.92 1666.38,-323.92 1666.38,-331.83 1666.38,-331.83 1666.38,-335.79 1662.42,-339.75 1658.46,-339.75"/>
<text xml:space="preserve" text-anchor="middle" x="1562.75" y="-322.45" font-family="Arial" font-size="14.00" fill="#c6c5fe">services/ai/client/claudeClient.ts</text>
</g>
<!-- services/ai/index.ts&#45;&gt;services/ai/client/claudeClient.ts -->
<g id="edge75" class="edge">
<title>services/ai/index.ts&#45;&gt;services/ai/client/claudeClient.ts</title>
<path fill="none" stroke="#757575" d="M1092.49,-345.46C1180.31,-342.17 1339.1,-336.22 1447.42,-332.16"/>
<polygon fill="#757575" stroke="#757575" points="1447.35,-335.67 1457.21,-331.79 1447.09,-328.67 1447.35,-335.67"/>
</g>
<!-- services/ai/client/openaiClient.ts -->
<g id="node36" class="node">
<title>services/ai/client/openaiClient.ts</title>
<path fill="none" stroke="#c6c5fe" d="M1658.83,-221.75C1658.83,-221.75 1466.67,-221.75 1466.67,-221.75 1462.71,-221.75 1458.75,-217.79 1458.75,-213.83 1458.75,-213.83 1458.75,-205.92 1458.75,-205.92 1458.75,-201.96 1462.71,-198 1466.67,-198 1466.67,-198 1658.83,-198 1658.83,-198 1662.79,-198 1666.75,-201.96 1666.75,-205.92 1666.75,-205.92 1666.75,-213.83 1666.75,-213.83 1666.75,-217.79 1662.79,-221.75 1658.83,-221.75"/>
<text xml:space="preserve" text-anchor="middle" x="1562.75" y="-204.45" font-family="Arial" font-size="14.00" fill="#c6c5fe">services/ai/client/openaiClient.ts</text>
</g>
<!-- services/ai/index.ts&#45;&gt;services/ai/client/openaiClient.ts -->
<g id="edge76" class="edge">
<title>services/ai/index.ts&#45;&gt;services/ai/client/openaiClient.ts</title>
<path fill="none" stroke="#757575" d="M1042.28,-335.6C1064.24,-317.31 1108.57,-283.3 1152.5,-266.88 1156.12,-265.52 1340.14,-240.19 1460.16,-223.75"/>
<polygon fill="#757575" stroke="#757575" points="1460.28,-227.27 1469.71,-222.44 1459.33,-220.33 1460.28,-227.27"/>
</g>
<!-- services/ai/config/providers.ts -->
<g id="node37" class="node">
<title>services/ai/config/providers.ts</title>
<path fill="none" stroke="#c6c5fe" d="M2135.96,-299.75C2135.96,-299.75 1958.79,-299.75 1958.79,-299.75 1954.83,-299.75 1950.88,-295.79 1950.88,-291.83 1950.88,-291.83 1950.88,-283.92 1950.88,-283.92 1950.88,-279.96 1954.83,-276 1958.79,-276 1958.79,-276 2135.96,-276 2135.96,-276 2139.92,-276 2143.88,-279.96 2143.88,-283.92 2143.88,-283.92 2143.88,-291.83 2143.88,-291.83 2143.88,-295.79 2139.92,-299.75 2135.96,-299.75"/>
<text xml:space="preserve" text-anchor="middle" x="2047.38" y="-282.45" font-family="Arial" font-size="14.00" fill="#c6c5fe">services/ai/config/providers.ts</text>
</g>
<!-- services/ai/index.ts&#45;&gt;services/ai/config/providers.ts -->
<g id="edge77" class="edge">
<title>services/ai/index.ts&#45;&gt;services/ai/config/providers.ts</title>
<path fill="none" stroke="#757575" d="M1056.62,-360.16C1081.42,-370.15 1118.6,-383.43 1152.5,-388.88 1378.2,-425.12 1440.31,-411.17 1666.75,-379.88 1786.63,-363.31 1923.85,-325.13 1995.98,-303.53"/>
<polygon fill="#757575" stroke="#757575" points="1996.97,-306.88 2005.53,-300.64 1994.95,-300.18 1996.97,-306.88"/>
</g>
<!-- services/ai/handlers/chatHandler.ts -->
<g id="node38" class="node">
<title>services/ai/handlers/chatHandler.ts</title>
<path fill="none" stroke="#c6c5fe" d="M1392.33,-379.75C1392.33,-379.75 1182.92,-379.75 1182.92,-379.75 1178.96,-379.75 1175,-375.79 1175,-371.83 1175,-371.83 1175,-363.92 1175,-363.92 1175,-359.96 1178.96,-356 1182.92,-356 1182.92,-356 1392.33,-356 1392.33,-356 1396.29,-356 1400.25,-359.96 1400.25,-363.92 1400.25,-363.92 1400.25,-371.83 1400.25,-371.83 1400.25,-375.79 1396.29,-379.75 1392.33,-379.75"/>
<text xml:space="preserve" text-anchor="middle" x="1287.62" y="-362.45" font-family="Arial" font-size="14.00" fill="#c6c5fe">services/ai/handlers/chatHandler.ts</text>
</g>
<!-- services/ai/index.ts&#45;&gt;services/ai/handlers/chatHandler.ts -->
<g id="edge78" class="edge">
<title>services/ai/index.ts&#45;&gt;services/ai/handlers/chatHandler.ts</title>
<path fill="none" stroke="#757575" d="M1092.36,-352.84C1113.95,-354.51 1138.81,-356.44 1163.38,-358.34"/>
<polygon fill="#757575" stroke="#757575" points="1162.89,-361.81 1173.13,-359.09 1163.43,-354.83 1162.89,-361.81"/>
</g>
<!-- services/ai/handlers/providerHandler.ts -->
<g id="node39" class="node">
<title>services/ai/handlers/providerHandler.ts</title>
<path fill="none" stroke="#c6c5fe" d="M1403.96,-299.75C1403.96,-299.75 1171.29,-299.75 1171.29,-299.75 1167.33,-299.75 1163.38,-295.79 1163.38,-291.83 1163.38,-291.83 1163.38,-283.92 1163.38,-283.92 1163.38,-279.96 1167.33,-276 1171.29,-276 1171.29,-276 1403.96,-276 1403.96,-276 1407.92,-276 1411.88,-279.96 1411.88,-283.92 1411.88,-283.92 1411.88,-291.83 1411.88,-291.83 1411.88,-295.79 1407.92,-299.75 1403.96,-299.75"/>
<text xml:space="preserve" text-anchor="middle" x="1287.62" y="-282.45" font-family="Arial" font-size="14.00" fill="#c6c5fe">services/ai/handlers/providerHandler.ts</text>
</g>
<!-- services/ai/index.ts&#45;&gt;services/ai/handlers/providerHandler.ts -->
<g id="edge79" class="edge">
<title>services/ai/index.ts&#45;&gt;services/ai/handlers/providerHandler.ts</title>
<path fill="none" stroke="#757575" d="M1070.24,-335.51C1094.23,-328.68 1124.92,-320.31 1152.5,-313.88 1169.83,-309.83 1188.51,-305.93 1206.27,-302.43"/>
<polygon fill="#757575" stroke="#757575" points="1206.86,-305.88 1216.01,-300.53 1205.52,-299.01 1206.86,-305.88"/>
</g>
<!-- controllers/analyticsController.ts -->
<g id="node9" class="node">
<title>controllers/analyticsController.ts</title>
<path fill="none" stroke="#c6c5fe" d="M638.96,-619.75C638.96,-619.75 448.29,-619.75 448.29,-619.75 444.33,-619.75 440.38,-615.79 440.38,-611.83 440.38,-611.83 440.38,-603.92 440.38,-603.92 440.38,-599.96 444.33,-596 448.29,-596 448.29,-596 638.96,-596 638.96,-596 642.92,-596 646.88,-599.96 646.88,-603.92 646.88,-603.92 646.88,-611.83 646.88,-611.83 646.88,-615.79 642.92,-619.75 638.96,-619.75"/>
<text xml:space="preserve" text-anchor="middle" x="543.62" y="-602.45" font-family="Arial" font-size="14.00" fill="#c6c5fe">controllers/analyticsController.ts</text>
</g>
<!-- services/analyticsService.ts -->
<g id="node10" class="node">
<title>services/analyticsService.ts</title>
<path fill="none" stroke="#c6c5fe" d="M884.08,-621.75C884.08,-621.75 718.92,-621.75 718.92,-621.75 714.96,-621.75 711,-617.79 711,-613.83 711,-613.83 711,-605.92 711,-605.92 711,-601.96 714.96,-598 718.92,-598 718.92,-598 884.08,-598 884.08,-598 888.04,-598 892,-601.96 892,-605.92 892,-605.92 892,-613.83 892,-613.83 892,-617.79 888.04,-621.75 884.08,-621.75"/>
<text xml:space="preserve" text-anchor="middle" x="801.5" y="-604.45" font-family="Arial" font-size="14.00" fill="#c6c5fe">services/analyticsService.ts</text>
</g>
<!-- controllers/analyticsController.ts&#45;&gt;services/analyticsService.ts -->
<g id="edge5" class="edge">
<title>controllers/analyticsController.ts&#45;&gt;services/analyticsService.ts</title>
<path fill="none" stroke="#757575" d="M647.22,-608.68C664.45,-608.81 682.31,-608.95 699.49,-609.09"/>
<polygon fill="#757575" stroke="#757575" points="699.13,-612.58 709.15,-609.16 699.18,-605.58 699.13,-612.58"/>
</g>
<!-- lib/prisma.ts -->
<g id="node16" class="node">
<title>lib/prisma.ts</title>
<path fill="none" stroke="#cfffac" d="M1063.58,-641.75C1063.58,-641.75 990.67,-641.75 990.67,-641.75 986.71,-641.75 982.75,-637.79 982.75,-633.83 982.75,-633.83 982.75,-625.92 982.75,-625.92 982.75,-621.96 986.71,-618 990.67,-618 990.67,-618 1063.58,-618 1063.58,-618 1067.54,-618 1071.5,-621.96 1071.5,-625.92 1071.5,-625.92 1071.5,-633.83 1071.5,-633.83 1071.5,-637.79 1067.54,-641.75 1063.58,-641.75"/>
<text xml:space="preserve" text-anchor="middle" x="1027.12" y="-624.45" font-family="Arial" font-size="14.00" fill="#cfffac">lib/prisma.ts</text>
</g>
<!-- services/analyticsService.ts&#45;&gt;lib/prisma.ts -->
<g id="edge84" class="edge">
<title>services/analyticsService.ts&#45;&gt;lib/prisma.ts</title>
<path fill="none" stroke="#757575" d="M892.49,-617.92C919.09,-620.3 947.4,-622.83 971.08,-624.95"/>
<polygon fill="#757575" stroke="#757575" points="970.53,-628.42 980.8,-625.82 971.15,-621.44 970.53,-628.42"/>
</g>
<!-- controllers/authController.ts -->
<g id="node11" class="node">
<title>controllers/authController.ts</title>
<path fill="none" stroke="#c6c5fe" d="M625.83,-1015.75C625.83,-1015.75 461.42,-1015.75 461.42,-1015.75 457.46,-1015.75 453.5,-1011.79 453.5,-1007.83 453.5,-1007.83 453.5,-999.92 453.5,-999.92 453.5,-995.96 457.46,-992 461.42,-992 461.42,-992 625.83,-992 625.83,-992 629.79,-992 633.75,-995.96 633.75,-999.92 633.75,-999.92 633.75,-1007.83 633.75,-1007.83 633.75,-1011.79 629.79,-1015.75 625.83,-1015.75"/>
<text xml:space="preserve" text-anchor="middle" x="543.62" y="-998.45" font-family="Arial" font-size="14.00" fill="#c6c5fe">controllers/authController.ts</text>
</g>
<!-- controllers/authController.ts&#45;&gt;utils/logger.ts -->
<g id="edge9" class="edge">
<title>controllers/authController.ts&#45;&gt;utils/logger.ts</title>
<path fill="none" stroke="#757575" d="M633.94,-1008.65C749.19,-1011.79 954.15,-1006.97 1116.5,-946.88 1261.1,-893.35 1309.96,-889 1422.75,-783.88 1487.03,-723.96 1533.46,-628.01 1552.37,-584.56"/>
<polygon fill="#757575" stroke="#757575" points="1555.48,-586.2 1556.18,-575.63 1549.04,-583.45 1555.48,-586.2"/>
</g>
<!-- middleware/authMiddleware.ts -->
<g id="node12" class="node">
<title>middleware/authMiddleware.ts</title>
<path fill="none" stroke="#c6c5fe" d="M893.46,-857.75C893.46,-857.75 709.54,-857.75 709.54,-857.75 705.58,-857.75 701.62,-853.79 701.62,-849.83 701.62,-849.83 701.62,-841.92 701.62,-841.92 701.62,-837.96 705.58,-834 709.54,-834 709.54,-834 893.46,-834 893.46,-834 897.42,-834 901.38,-837.96 901.38,-841.92 901.38,-841.92 901.38,-849.83 901.38,-849.83 901.38,-853.79 897.42,-857.75 893.46,-857.75"/>
<text xml:space="preserve" text-anchor="middle" x="801.5" y="-840.45" font-family="Arial" font-size="14.00" fill="#c6c5fe">middleware/authMiddleware.ts</text>
</g>
<!-- controllers/authController.ts&#45;&gt;middleware/authMiddleware.ts -->
<g id="edge6" class="edge">
<title>controllers/authController.ts&#45;&gt;middleware/authMiddleware.ts</title>
<path fill="none" stroke="#757575" d="M634.11,-998.45C645.32,-994.94 656.07,-989.94 665.25,-982.88 695.52,-959.61 675.69,-933.24 701.25,-904.88 717.29,-887.08 739.98,-873.04 759.63,-863.13"/>
<polygon fill="#757575" stroke="#757575" points="761.02,-866.34 768.5,-858.84 757.97,-860.04 761.02,-866.34"/>
</g>
<!-- middleware/errorHandler.ts -->
<g id="node13" class="node">
<title>middleware/errorHandler.ts</title>
<path fill="none" stroke="#c6c5fe" d="M1108.58,-937.75C1108.58,-937.75 945.67,-937.75 945.67,-937.75 941.71,-937.75 937.75,-933.79 937.75,-929.83 937.75,-929.83 937.75,-921.92 937.75,-921.92 937.75,-917.96 941.71,-914 945.67,-914 945.67,-914 1108.58,-914 1108.58,-914 1112.54,-914 1116.5,-917.96 1116.5,-921.92 1116.5,-921.92 1116.5,-929.83 1116.5,-929.83 1116.5,-933.79 1112.54,-937.75 1108.58,-937.75"/>
<text xml:space="preserve" text-anchor="middle" x="1027.12" y="-920.45" font-family="Arial" font-size="14.00" fill="#c6c5fe">middleware/errorHandler.ts</text>
</g>
<!-- controllers/authController.ts&#45;&gt;middleware/errorHandler.ts -->
<g id="edge7" class="edge">
<title>controllers/authController.ts&#45;&gt;middleware/errorHandler.ts</title>
<path fill="none" stroke="#757575" d="M634.25,-999.94C706.99,-995.47 811.85,-986.12 901.75,-966.88 929.77,-960.88 960.35,-950.85 984.17,-942.21"/>
<polygon fill="#757575" stroke="#757575" points="985.36,-945.5 993.53,-938.76 982.93,-938.94 985.36,-945.5"/>
</g>
<!-- services/authService.ts -->
<g id="node14" class="node">
<title>services/authService.ts</title>
<path fill="none" stroke="#c6c5fe" d="M870.96,-937.75C870.96,-937.75 732.04,-937.75 732.04,-937.75 728.08,-937.75 724.12,-933.79 724.12,-929.83 724.12,-929.83 724.12,-921.92 724.12,-921.92 724.12,-917.96 728.08,-914 732.04,-914 732.04,-914 870.96,-914 870.96,-914 874.92,-914 878.88,-917.96 878.88,-921.92 878.88,-921.92 878.88,-929.83 878.88,-929.83 878.88,-933.79 874.92,-937.75 870.96,-937.75"/>
<text xml:space="preserve" text-anchor="middle" x="801.5" y="-920.45" font-family="Arial" font-size="14.00" fill="#c6c5fe">services/authService.ts</text>
</g>
<!-- controllers/authController.ts&#45;&gt;services/authService.ts -->
<g id="edge8" class="edge">
<title>controllers/authController.ts&#45;&gt;services/authService.ts</title>
<path fill="none" stroke="#757575" d="M629.87,-991.52C641.85,-989.07 653.93,-986.2 665.25,-982.88 700.65,-972.48 739.27,-955.61 766.14,-942.92"/>
<polygon fill="#757575" stroke="#757575" points="767.31,-946.24 774.82,-938.76 764.29,-939.92 767.31,-946.24"/>
</g>
<!-- middleware/authMiddleware.ts&#45;&gt;middleware/errorHandler.ts -->
<g id="edge29" class="edge">
<title>middleware/authMiddleware.ts&#45;&gt;middleware/errorHandler.ts</title>
<path fill="none" stroke="#757575" d="M836.95,-858.2C875.61,-872.03 938.47,-894.52 981.01,-909.74"/>
<polygon fill="#757575" stroke="#757575" points="979.61,-912.95 990.21,-913.03 981.97,-906.36 979.61,-912.95"/>
</g>
<!-- utils/jwt.ts -->
<g id="node23" class="node">
<title>utils/jwt.ts</title>
<path fill="none" stroke="#cfffac" d="M1056.46,-876.75C1056.46,-876.75 997.79,-876.75 997.79,-876.75 993.83,-876.75 989.88,-872.79 989.88,-868.83 989.88,-868.83 989.88,-860.92 989.88,-860.92 989.88,-856.96 993.83,-853 997.79,-853 997.79,-853 1056.46,-853 1056.46,-853 1060.42,-853 1064.38,-856.96 1064.38,-860.92 1064.38,-860.92 1064.38,-868.83 1064.38,-868.83 1064.38,-872.79 1060.42,-876.75 1056.46,-876.75"/>
<text xml:space="preserve" text-anchor="middle" x="1027.12" y="-859.45" font-family="Arial" font-size="14.00" fill="#cfffac">utils/jwt.ts</text>
</g>
<!-- middleware/authMiddleware.ts&#45;&gt;utils/jwt.ts -->
<g id="edge30" class="edge">
<title>middleware/authMiddleware.ts&#45;&gt;utils/jwt.ts</title>
<path fill="none" stroke="#757575" d="M901.56,-854.29C928.22,-856.56 955.87,-858.91 978.32,-860.81"/>
<polygon fill="#757575" stroke="#757575" points="977.78,-864.28 988.04,-861.64 978.38,-857.31 977.78,-864.28"/>
</g>
<!-- middleware/errorHandler.ts&#45;&gt;utils/logger.ts -->
<g id="edge31" class="edge">
<title>middleware/errorHandler.ts&#45;&gt;utils/logger.ts</title>
<path fill="none" stroke="#757575" d="M1059.16,-913.66C1076.46,-906.41 1098.16,-896.55 1116.5,-885.88 1288.18,-785.96 1474.49,-634.8 1538.58,-581.4"/>
<polygon fill="#757575" stroke="#757575" points="1540.55,-584.31 1545.98,-575.21 1536.06,-578.94 1540.55,-584.31"/>
</g>
<!-- services/authService.ts&#45;&gt;middleware/errorHandler.ts -->
<g id="edge86" class="edge">
<title>services/authService.ts&#45;&gt;middleware/errorHandler.ts</title>
<path fill="none" stroke="#757575" d="M879.15,-925.88C894.2,-925.88 910.21,-925.88 925.91,-925.88"/>
<polygon fill="#757575" stroke="#757575" points="925.75,-929.38 935.75,-925.88 925.75,-922.38 925.75,-929.38"/>
</g>
<!-- services/authService.ts&#45;&gt;lib/prisma.ts -->
<g id="edge85" class="edge">
<title>services/authService.ts&#45;&gt;lib/prisma.ts</title>
<path fill="none" stroke="#757575" d="M878.61,-913.58C886.98,-910.08 894.92,-905.6 901.75,-899.88 922.37,-882.59 991.94,-714.27 1017.02,-652.47"/>
<polygon fill="#757575" stroke="#757575" points="1020.21,-653.91 1020.72,-643.33 1013.72,-651.28 1020.21,-653.91"/>
</g>
<!-- services/authService.ts&#45;&gt;utils/jwt.ts -->
<g id="edge87" class="edge">
<title>services/authService.ts&#45;&gt;utils/jwt.ts</title>
<path fill="none" stroke="#757575" d="M850.25,-913.55C866.6,-909.28 884.99,-904.43 901.75,-899.88 927.14,-892.98 955.38,-885.05 978.52,-878.49"/>
<polygon fill="#757575" stroke="#757575" points="979.32,-881.9 987.98,-875.8 977.41,-875.17 979.32,-881.9"/>
</g>
<!-- controllers/chatController.ts -->
<g id="node15" class="node">
<title>controllers/chatController.ts</title>
<path fill="none" stroke="#c6c5fe" d="M625.46,-368.75C625.46,-368.75 461.79,-368.75 461.79,-368.75 457.83,-368.75 453.88,-364.79 453.88,-360.83 453.88,-360.83 453.88,-352.92 453.88,-352.92 453.88,-348.96 457.83,-345 461.79,-345 461.79,-345 625.46,-345 625.46,-345 629.42,-345 633.38,-348.96 633.38,-352.92 633.38,-352.92 633.38,-360.83 633.38,-360.83 633.38,-364.79 629.42,-368.75 625.46,-368.75"/>
<text xml:space="preserve" text-anchor="middle" x="543.62" y="-351.45" font-family="Arial" font-size="14.00" fill="#c6c5fe">controllers/chatController.ts</text>
</g>
<!-- controllers/chatController.ts&#45;&gt;config/costMap.ts -->
<g id="edge10" class="edge">
<title>controllers/chatController.ts&#45;&gt;config/costMap.ts</title>
<path fill="none" stroke="#757575" d="M549.34,-344.61C564.62,-306.64 616.76,-190.53 701.25,-138.88 825.83,-62.71 880.1,-89.88 1026.12,-89.88 1026.12,-89.88 1026.12,-89.88 1288.62,-89.88 1456.8,-89.88 1503.62,-63 1666.75,-103.88 1705.9,-113.69 1747.06,-135.69 1773.54,-151.6"/>
<polygon fill="#757575" stroke="#757575" points="1771.62,-154.53 1781.98,-156.78 1775.29,-148.57 1771.62,-154.53"/>
</g>
<!-- controllers/chatController.ts&#45;&gt;utils/logger.ts -->
<g id="edge18" class="edge">
<title>controllers/chatController.ts&#45;&gt;utils/logger.ts</title>
<path fill="none" stroke="#757575" d="M633.78,-363.63C706.24,-369.78 810.97,-380.16 901.75,-394.88 998.19,-410.51 1024.38,-409.33 1116.5,-441.88 1133.37,-447.83 1135.52,-454.25 1152.5,-459.88 1268.31,-498.22 1305.28,-474.96 1422.75,-507.88 1457.96,-517.74 1496.63,-533.16 1524.23,-545"/>
<polygon fill="#757575" stroke="#757575" points="1522.64,-548.13 1533.21,-548.9 1525.43,-541.71 1522.64,-548.13"/>
</g>
<!-- controllers/chatController.ts&#45;&gt;config/providerMap.ts -->
<g id="edge11" class="edge">
<title>controllers/chatController.ts&#45;&gt;config/providerMap.ts</title>
<path fill="none" stroke="#757575" d="M578.3,-344.54C669.32,-311.82 928.54,-222.91 1152.5,-186.88 1264.17,-168.91 1395.02,-165.93 1478.13,-166.25"/>
<polygon fill="#757575" stroke="#757575" points="1478,-169.75 1488.02,-166.31 1478.04,-162.75 1478,-169.75"/>
</g>
<!-- controllers/chatController.ts&#45;&gt;services/ai/index.ts -->
<g id="edge14" class="edge">
<title>controllers/chatController.ts&#45;&gt;services/ai/index.ts</title>
<path fill="none" stroke="#757575" d="M633.78,-355.21C724.75,-353.51 864.39,-350.9 950.24,-349.29"/>
<polygon fill="#757575" stroke="#757575" points="950.28,-352.79 960.21,-349.11 950.14,-345.79 950.28,-352.79"/>
</g>
<!-- controllers/chatController.ts&#45;&gt;services/ai/types.ts -->
<g id="edge15" class="edge">
<title>controllers/chatController.ts&#45;&gt;services/ai/types.ts</title>
<path fill="none" stroke="#757575" d="M547.28,-344.73C557.69,-300.32 600.25,-145.87 701.25,-80.88 823.15,-2.43 881.16,-51.88 1026.12,-51.88 1026.12,-51.88 1026.12,-51.88 1804,-51.88 1972.99,-51.88 2017.41,-99.46 2155.5,-196.88 2191.08,-221.97 2223,-261.89 2240.76,-286.39"/>
<polygon fill="#757575" stroke="#757575" points="2237.75,-288.2 2246.39,-294.33 2243.46,-284.15 2237.75,-288.2"/>
</g>
<!-- controllers/chatController.ts&#45;&gt;middleware/authMiddleware.ts -->
<g id="edge13" class="edge">
<title>controllers/chatController.ts&#45;&gt;middleware/authMiddleware.ts</title>
<path fill="none" stroke="#757575" d="M552.86,-369.23C574.79,-402.7 634.96,-498.59 665.25,-586.88 694.56,-672.3 649.79,-712.65 701.25,-786.88 714.32,-805.73 735.54,-819.51 755.01,-829"/>
<polygon fill="#757575" stroke="#757575" points="753.35,-832.09 763.9,-833.07 756.26,-825.72 753.35,-832.09"/>
</g>
<!-- controllers/chatController.ts&#45;&gt;lib/prisma.ts -->
<g id="edge12" class="edge">
<title>controllers/chatController.ts&#45;&gt;lib/prisma.ts</title>
<path fill="none" stroke="#757575" d="M567.31,-369.23C624,-400.15 776.28,-483.61 901.75,-555.88 934.28,-574.61 971.21,-596.68 996.32,-611.82"/>
<polygon fill="#757575" stroke="#757575" points="994.31,-614.7 1004.68,-616.87 997.93,-608.7 994.31,-614.7"/>
</g>
<!-- services/ai/utils/providerUtils.ts -->
<g id="node17" class="node">
<title>services/ai/utils/providerUtils.ts</title>
<path fill="none" stroke="#c6c5fe" d="M1895.33,-261.75C1895.33,-261.75 1710.67,-261.75 1710.67,-261.75 1706.71,-261.75 1702.75,-257.79 1702.75,-253.83 1702.75,-253.83 1702.75,-245.92 1702.75,-245.92 1702.75,-241.96 1706.71,-238 1710.67,-238 1710.67,-238 1895.33,-238 1895.33,-238 1899.29,-238 1903.25,-241.96 1903.25,-245.92 1903.25,-245.92 1903.25,-253.83 1903.25,-253.83 1903.25,-257.79 1899.29,-261.75 1895.33,-261.75"/>
<text xml:space="preserve" text-anchor="middle" x="1803" y="-244.45" font-family="Arial" font-size="14.00" fill="#c6c5fe">services/ai/utils/providerUtils.ts</text>
</g>
<!-- controllers/chatController.ts&#45;&gt;services/ai/utils/providerUtils.ts -->
<g id="edge16" class="edge">
<title>controllers/chatController.ts&#45;&gt;services/ai/utils/providerUtils.ts</title>
<path fill="none" stroke="#757575" d="M557.87,-344.54C583.65,-321.09 643.2,-269.65 701.25,-238.88 836.06,-167.41 873.54,-127.88 1026.12,-127.88 1026.12,-127.88 1026.12,-127.88 1288.62,-127.88 1456.89,-127.88 1516.55,-71.02 1666.75,-146.88 1689.3,-158.26 1683.6,-174.39 1702.75,-190.88 1721.81,-207.28 1746.02,-221.78 1765.76,-232.29"/>
<polygon fill="#757575" stroke="#757575" points="1764.09,-235.37 1774.57,-236.87 1767.31,-229.15 1764.09,-235.37"/>
</g>
<!-- services/ragService.ts -->
<g id="node18" class="node">
<title>services/ragService.ts</title>
<path fill="none" stroke="#c6c5fe" d="M867.58,-427.75C867.58,-427.75 735.42,-427.75 735.42,-427.75 731.46,-427.75 727.5,-423.79 727.5,-419.83 727.5,-419.83 727.5,-411.92 727.5,-411.92 727.5,-407.96 731.46,-404 735.42,-404 735.42,-404 867.58,-404 867.58,-404 871.54,-404 875.5,-407.96 875.5,-411.92 875.5,-411.92 875.5,-419.83 875.5,-419.83 875.5,-423.79 871.54,-427.75 867.58,-427.75"/>
<text xml:space="preserve" text-anchor="middle" x="801.5" y="-410.45" font-family="Arial" font-size="14.00" fill="#c6c5fe">services/ragService.ts</text>
</g>
<!-- controllers/chatController.ts&#45;&gt;services/ragService.ts -->
<g id="edge17" class="edge">
<title>controllers/chatController.ts&#45;&gt;services/ragService.ts</title>
<path fill="none" stroke="#757575" d="M598.26,-369.24C638.35,-378.49 693.33,-391.16 735.85,-400.97"/>
<polygon fill="#757575" stroke="#757575" points="734.93,-404.35 745.46,-403.18 736.5,-397.53 734.93,-404.35"/>
</g>
<!-- services/ai/utils/providerUtils.ts&#45;&gt;services/ai/types.ts -->
<g id="edge83" class="edge">
<title>services/ai/utils/providerUtils.ts&#45;&gt;services/ai/types.ts</title>
<path fill="none" stroke="#757575" d="M1903.68,-245.75C1974.71,-244.97 2072,-248.32 2155.5,-266.88 2178.42,-271.97 2202.83,-281.88 2221.79,-290.68"/>
<polygon fill="#757575" stroke="#757575" points="2220.1,-293.75 2230.63,-294.9 2223.12,-287.43 2220.1,-293.75"/>
</g>
<!-- services/ai/utils/providerUtils.ts&#45;&gt;services/ai/config/providers.ts -->
<g id="edge82" class="edge">
<title>services/ai/utils/providerUtils.ts&#45;&gt;services/ai/config/providers.ts</title>
<path fill="none" stroke="#757575" d="M1882.69,-262.21C1906.2,-265.9 1932.15,-269.97 1956.33,-273.76"/>
<polygon fill="#757575" stroke="#757575" points="1955.75,-277.21 1966.17,-275.3 1956.83,-270.29 1955.75,-277.21"/>
</g>
<!-- services/ragService.ts&#45;&gt;services/ai/index.ts -->
<g id="edge89" class="edge">
<title>services/ragService.ts&#45;&gt;services/ai/index.ts</title>
<path fill="none" stroke="#757575" d="M843,-403.56C879.93,-392.33 934.67,-375.68 974.68,-363.52"/>
<polygon fill="#757575" stroke="#757575" points="975.55,-366.91 984.1,-360.65 973.52,-360.21 975.55,-366.91"/>
</g>
<!-- services/ragService.ts&#45;&gt;lib/prisma.ts -->
<g id="edge88" class="edge">
<title>services/ragService.ts&#45;&gt;lib/prisma.ts</title>
<path fill="none" stroke="#757575" d="M815.16,-427.99C851.98,-463.22 959.25,-565.88 1005.03,-609.68"/>
<polygon fill="#757575" stroke="#757575" points="1002.58,-612.19 1012.23,-616.58 1007.42,-607.13 1002.58,-612.19"/>
</g>
<!-- controllers/chatHistoryController.ts -->
<g id="node19" class="node">
<title>controllers/chatHistoryController.ts</title>
<path fill="none" stroke="#c6c5fe" d="M646.46,-661.75C646.46,-661.75 440.79,-661.75 440.79,-661.75 436.83,-661.75 432.88,-657.79 432.88,-653.83 432.88,-653.83 432.88,-645.92 432.88,-645.92 432.88,-641.96 436.83,-638 440.79,-638 440.79,-638 646.46,-638 646.46,-638 650.42,-638 654.38,-641.96 654.38,-645.92 654.38,-645.92 654.38,-653.83 654.38,-653.83 654.38,-657.79 650.42,-661.75 646.46,-661.75"/>
<text xml:space="preserve" text-anchor="middle" x="543.62" y="-644.45" font-family="Arial" font-size="14.00" fill="#c6c5fe">controllers/chatHistoryController.ts</text>
</g>
<!-- controllers/chatHistoryController.ts&#45;&gt;middleware/authMiddleware.ts -->
<g id="edge20" class="edge">
<title>controllers/chatHistoryController.ts&#45;&gt;middleware/authMiddleware.ts</title>
<path fill="none" stroke="#757575" d="M653.1,-662.22C657.42,-664.71 661.5,-667.58 665.25,-670.88 705.79,-706.51 667.83,-744.49 701.25,-786.88 715.77,-805.29 737.74,-819.19 757.33,-828.86"/>
<polygon fill="#757575" stroke="#757575" points="755.68,-831.96 766.23,-833.03 758.65,-825.62 755.68,-831.96"/>
</g>
<!-- controllers/chatHistoryController.ts&#45;&gt;middleware/errorHandler.ts -->
<g id="edge21" class="edge">
<title>controllers/chatHistoryController.ts&#45;&gt;middleware/errorHandler.ts</title>
<path fill="none" stroke="#757575" d="M654.63,-650.11C734.23,-656.38 838.52,-678.18 901.75,-744.88 946.25,-791.81 896.19,-836.32 937.75,-885.88 946.04,-895.76 957.27,-903.3 968.95,-909.03"/>
<polygon fill="#757575" stroke="#757575" points="967.32,-912.14 977.88,-912.99 970.16,-905.74 967.32,-912.14"/>
</g>
<!-- controllers/chatHistoryController.ts&#45;&gt;lib/prisma.ts -->
<g id="edge19" class="edge">
<title>controllers/chatHistoryController.ts&#45;&gt;lib/prisma.ts</title>
<path fill="none" stroke="#757575" d="M654.79,-645.3C753.54,-641.2 894.33,-635.35 971.07,-632.16"/>
<polygon fill="#757575" stroke="#757575" points="971.01,-635.67 980.85,-631.76 970.72,-628.67 971.01,-635.67"/>
</g>
<!-- controllers/userController.ts -->
<g id="node20" class="node">
<title>controllers/userController.ts</title>
<path fill="none" stroke="#c6c5fe" d="M625.83,-973.75C625.83,-973.75 461.42,-973.75 461.42,-973.75 457.46,-973.75 453.5,-969.79 453.5,-965.83 453.5,-965.83 453.5,-957.92 453.5,-957.92 453.5,-953.96 457.46,-950 461.42,-950 461.42,-950 625.83,-950 625.83,-950 629.79,-950 633.75,-953.96 633.75,-957.92 633.75,-957.92 633.75,-965.83 633.75,-965.83 633.75,-969.79 629.79,-973.75 625.83,-973.75"/>
<text xml:space="preserve" text-anchor="middle" x="543.62" y="-956.45" font-family="Arial" font-size="14.00" fill="#c6c5fe">controllers/userController.ts</text>
</g>
<!-- controllers/userController.ts&#45;&gt;middleware/authMiddleware.ts -->
<g id="edge23" class="edge">
<title>controllers/userController.ts&#45;&gt;middleware/authMiddleware.ts</title>
<path fill="none" stroke="#757575" d="M634.02,-951.68C645.19,-947.87 655.94,-942.74 665.25,-935.88 691.52,-916.51 675.41,-891.81 701.25,-871.88 705.76,-868.39 710.69,-865.38 715.88,-862.76"/>
<polygon fill="#757575" stroke="#757575" points="717,-866.09 724.71,-858.83 714.15,-859.7 717,-866.09"/>
</g>
<!-- controllers/userController.ts&#45;&gt;middleware/errorHandler.ts -->
<g id="edge24" class="edge">
<title>controllers/userController.ts&#45;&gt;middleware/errorHandler.ts</title>
<path fill="none" stroke="#757575" d="M634.01,-961.22C706.39,-959.95 810.87,-956.42 901.75,-946.88 917.85,-945.18 935.03,-942.72 951.31,-940.07"/>
<polygon fill="#757575" stroke="#757575" points="951.65,-943.56 960.93,-938.46 950.49,-936.66 951.65,-943.56"/>
</g>
<!-- controllers/userController.ts&#45;&gt;lib/prisma.ts -->
<g id="edge22" class="edge">
<title>controllers/userController.ts&#45;&gt;lib/prisma.ts</title>
<path fill="none" stroke="#757575" d="M595.76,-949.51C617.59,-943.5 643.09,-935.48 665.25,-925.88 682.25,-918.51 683.9,-911.36 701.25,-904.88 786.21,-873.12 828.86,-920.85 901.75,-866.88 975.26,-812.44 1009.26,-701.57 1021.05,-653.26"/>
<polygon fill="#757575" stroke="#757575" points="1024.44,-654.15 1023.29,-643.62 1017.62,-652.56 1024.44,-654.15"/>
</g>
<!-- controllers/userSettingsController.ts -->
<g id="node21" class="node">
<title>controllers/userSettingsController.ts</title>
<path fill="none" stroke="#c6c5fe" d="M650.21,-703.75C650.21,-703.75 437.04,-703.75 437.04,-703.75 433.08,-703.75 429.12,-699.79 429.12,-695.83 429.12,-695.83 429.12,-687.92 429.12,-687.92 429.12,-683.96 433.08,-680 437.04,-680 437.04,-680 650.21,-680 650.21,-680 654.17,-680 658.12,-683.96 658.12,-687.92 658.12,-687.92 658.12,-695.83 658.12,-695.83 658.12,-699.79 654.17,-703.75 650.21,-703.75"/>
<text xml:space="preserve" text-anchor="middle" x="543.62" y="-686.45" font-family="Arial" font-size="14.00" fill="#c6c5fe">controllers/userSettingsController.ts</text>
</g>
<!-- controllers/userSettingsController.ts&#45;&gt;middleware/authMiddleware.ts -->
<g id="edge26" class="edge">
<title>controllers/userSettingsController.ts&#45;&gt;middleware/authMiddleware.ts</title>
<path fill="none" stroke="#757575" d="M643.89,-704.21C651.64,-707.8 658.9,-712.28 665.25,-717.88 701.33,-749.64 665.87,-787.32 701.25,-819.88 704.62,-822.98 708.31,-825.71 712.23,-828.14"/>
<polygon fill="#757575" stroke="#757575" points="710.56,-831.21 721.04,-832.81 713.85,-825.03 710.56,-831.21"/>
</g>
<!-- controllers/userSettingsController.ts&#45;&gt;middleware/errorHandler.ts -->
<g id="edge27" class="edge">
<title>controllers/userSettingsController.ts&#45;&gt;middleware/errorHandler.ts</title>
<path fill="none" stroke="#757575" d="M640.66,-704.2C649.46,-707.75 657.84,-712.23 665.25,-717.88 692.76,-738.84 673.48,-766.26 701.25,-786.88 774.07,-840.94 827.54,-772.73 901.75,-824.88 927.51,-842.97 914.32,-864.85 937.75,-885.88 948.53,-895.55 962.04,-903.24 975.23,-909.18"/>
<polygon fill="#757575" stroke="#757575" points="973.72,-912.34 984.29,-912.99 976.43,-905.89 973.72,-912.34"/>
</g>
<!-- controllers/userSettingsController.ts&#45;&gt;lib/prisma.ts -->
<g id="edge25" class="edge">
<title>controllers/userSettingsController.ts&#45;&gt;lib/prisma.ts</title>
<path fill="none" stroke="#757575" d="M658.29,-681.63C728.59,-674.76 820.6,-664.79 901.75,-652.88 924.59,-649.52 949.64,-645.04 971.23,-640.93"/>
<polygon fill="#757575" stroke="#757575" points="971.87,-644.37 981.02,-639.04 970.54,-637.5 971.87,-644.37"/>
</g>
<!-- services/encryptionService.ts -->
<g id="node22" class="node">
<title>services/encryptionService.ts</title>
<path fill="none" stroke="#cfffac" d="M888.96,-777.75C888.96,-777.75 714.04,-777.75 714.04,-777.75 710.08,-777.75 706.12,-773.79 706.12,-769.83 706.12,-769.83 706.12,-761.92 706.12,-761.92 706.12,-757.96 710.08,-754 714.04,-754 714.04,-754 888.96,-754 888.96,-754 892.92,-754 896.88,-757.96 896.88,-761.92 896.88,-761.92 896.88,-769.83 896.88,-769.83 896.88,-773.79 892.92,-777.75 888.96,-777.75"/>
<text xml:space="preserve" text-anchor="middle" x="801.5" y="-760.45" font-family="Arial" font-size="14.00" fill="#cfffac">services/encryptionService.ts</text>
</g>
<!-- controllers/userSettingsController.ts&#45;&gt;services/encryptionService.ts -->
<g id="edge28" class="edge">
<title>controllers/userSettingsController.ts&#45;&gt;services/encryptionService.ts</title>
<path fill="none" stroke="#757575" d="M620.75,-704.21C635.78,-707.78 651.23,-712.27 665.25,-717.88 682.66,-724.84 684,-732.53 701.25,-739.88 710.64,-743.87 720.79,-747.38 730.9,-750.42"/>
<polygon fill="#757575" stroke="#757575" points="729.79,-753.74 740.36,-753.12 731.71,-747.01 729.79,-753.74"/>
</g>
<!-- middleware/validateRequest.ts -->
<g id="node24" class="node">
<title>middleware/validateRequest.ts</title>
<path fill="none" stroke="#c6c5fe" d="M893.83,-1094.75C893.83,-1094.75 709.17,-1094.75 709.17,-1094.75 705.21,-1094.75 701.25,-1090.79 701.25,-1086.83 701.25,-1086.83 701.25,-1078.92 701.25,-1078.92 701.25,-1074.96 705.21,-1071 709.17,-1071 709.17,-1071 893.83,-1071 893.83,-1071 897.79,-1071 901.75,-1074.96 901.75,-1078.92 901.75,-1078.92 901.75,-1086.83 901.75,-1086.83 901.75,-1090.79 897.79,-1094.75 893.83,-1094.75"/>
<text xml:space="preserve" text-anchor="middle" x="801.5" y="-1077.45" font-family="Arial" font-size="14.00" fill="#c6c5fe">middleware/validateRequest.ts</text>
</g>
<!-- middleware/validateRequest.ts&#45;&gt;middleware/errorHandler.ts -->
<g id="edge32" class="edge">
<title>middleware/validateRequest.ts&#45;&gt;middleware/errorHandler.ts</title>
<path fill="none" stroke="#757575" d="M821.74,-1070.73C841.9,-1057.91 874.37,-1036.95 901.75,-1017.88 936.77,-993.48 976.24,-963.92 1001.14,-945.01"/>
<polygon fill="#757575" stroke="#757575" points="1003.2,-947.84 1009.03,-939 998.96,-942.27 1003.2,-947.84"/>
</g>
<!-- middleware/validators/authValidator.ts -->
<g id="node25" class="node">
<title>middleware/validators/authValidator.ts</title>
<path fill="none" stroke="#cfffac" d="M657.33,-1057.75C657.33,-1057.75 429.92,-1057.75 429.92,-1057.75 425.96,-1057.75 422,-1053.79 422,-1049.83 422,-1049.83 422,-1041.92 422,-1041.92 422,-1037.96 425.96,-1034 429.92,-1034 429.92,-1034 657.33,-1034 657.33,-1034 661.29,-1034 665.25,-1037.96 665.25,-1041.92 665.25,-1041.92 665.25,-1049.83 665.25,-1049.83 665.25,-1053.79 661.29,-1057.75 657.33,-1057.75"/>
<text xml:space="preserve" text-anchor="middle" x="543.62" y="-1040.45" font-family="Arial" font-size="14.00" fill="#cfffac">middleware/validators/authValidator.ts</text>
</g>
<!-- routes/aiRoutes.ts -->
<g id="node26" class="node">
<title>routes/aiRoutes.ts</title>
<path fill="none" stroke="#c6c5fe" d="M345.83,-1175.75C345.83,-1175.75 236.92,-1175.75 236.92,-1175.75 232.96,-1175.75 229,-1171.79 229,-1167.83 229,-1167.83 229,-1159.92 229,-1159.92 229,-1155.96 232.96,-1152 236.92,-1152 236.92,-1152 345.83,-1152 345.83,-1152 349.79,-1152 353.75,-1155.96 353.75,-1159.92 353.75,-1159.92 353.75,-1167.83 353.75,-1167.83 353.75,-1171.79 349.79,-1175.75 345.83,-1175.75"/>
<text xml:space="preserve" text-anchor="middle" x="291.38" y="-1158.45" font-family="Arial" font-size="14.00" fill="#c6c5fe">routes/aiRoutes.ts</text>
</g>
<!-- routes/aiRoutes.ts&#45;&gt;controllers/aiController.ts -->
<g id="edge33" class="edge">
<title>routes/aiRoutes.ts&#45;&gt;controllers/aiController.ts</title>
<path fill="none" stroke="#757575" d="M354.17,-1163.88C442.38,-1163.88 605.04,-1163.88 707.74,-1163.88"/>
<polygon fill="#757575" stroke="#757575" points="707.52,-1167.38 717.52,-1163.88 707.52,-1160.38 707.52,-1167.38"/>
</g>
<!-- routes/analyticsRoutes.ts -->
<g id="node27" class="node">
<title>routes/analyticsRoutes.ts</title>
<path fill="none" stroke="#c6c5fe" d="M366.83,-694.75C366.83,-694.75 215.92,-694.75 215.92,-694.75 211.96,-694.75 208,-690.79 208,-686.83 208,-686.83 208,-678.92 208,-678.92 208,-674.96 211.96,-671 215.92,-671 215.92,-671 366.83,-671 366.83,-671 370.79,-671 374.75,-674.96 374.75,-678.92 374.75,-678.92 374.75,-686.83 374.75,-686.83 374.75,-690.79 370.79,-694.75 366.83,-694.75"/>
<text xml:space="preserve" text-anchor="middle" x="291.38" y="-677.45" font-family="Arial" font-size="14.00" fill="#c6c5fe">routes/analyticsRoutes.ts</text>
</g>
<!-- routes/analyticsRoutes.ts&#45;&gt;controllers/analyticsController.ts -->
<g id="edge34" class="edge">
<title>routes/analyticsRoutes.ts&#45;&gt;controllers/analyticsController.ts</title>
<path fill="none" stroke="#757575" d="M317.11,-670.62C342.76,-658.38 384.32,-639.86 422,-628.88 429.95,-626.56 438.27,-624.46 446.66,-622.57"/>
<polygon fill="#757575" stroke="#757575" points="447.19,-626.04 456.24,-620.52 445.73,-619.19 447.19,-626.04"/>
</g>
<!-- routes/analyticsRoutes.ts&#45;&gt;middleware/authMiddleware.ts -->
<g id="edge35" class="edge">
<title>routes/analyticsRoutes.ts&#45;&gt;middleware/authMiddleware.ts</title>
<path fill="none" stroke="#757575" d="M367.66,-695.16C374.08,-697.57 380.29,-700.44 386,-703.88 407.07,-716.54 400.53,-733.9 422,-745.88 517.57,-799.16 567.7,-734.3 665.25,-783.88 685.42,-794.13 681.62,-808.62 701.25,-819.88 707.97,-823.73 715.27,-827.03 722.77,-829.84"/>
<polygon fill="#757575" stroke="#757575" points="721.42,-833.08 732.01,-833.02 723.69,-826.46 721.42,-833.08"/>
</g>
<!-- routes/authRoutes.ts -->
<g id="node28" class="node">
<title>routes/authRoutes.ts</title>
<path fill="none" stroke="#c6c5fe" d="M353.71,-1015.75C353.71,-1015.75 229.04,-1015.75 229.04,-1015.75 225.08,-1015.75 221.12,-1011.79 221.12,-1007.83 221.12,-1007.83 221.12,-999.92 221.12,-999.92 221.12,-995.96 225.08,-992 229.04,-992 229.04,-992 353.71,-992 353.71,-992 357.67,-992 361.62,-995.96 361.62,-999.92 361.62,-999.92 361.62,-1007.83 361.62,-1007.83 361.62,-1011.79 357.67,-1015.75 353.71,-1015.75"/>
<text xml:space="preserve" text-anchor="middle" x="291.38" y="-998.45" font-family="Arial" font-size="14.00" fill="#c6c5fe">routes/authRoutes.ts</text>
</g>
<!-- routes/authRoutes.ts&#45;&gt;controllers/authController.ts -->
<g id="edge36" class="edge">
<title>routes/authRoutes.ts&#45;&gt;controllers/authController.ts</title>
<path fill="none" stroke="#757575" d="M362.08,-1003.88C386.76,-1003.88 415.04,-1003.88 441.78,-1003.88"/>
<polygon fill="#757575" stroke="#757575" points="441.62,-1007.38 451.62,-1003.88 441.62,-1000.38 441.62,-1007.38"/>
</g>
<!-- routes/authRoutes.ts&#45;&gt;middleware/authMiddleware.ts -->
<g id="edge37" class="edge">
<title>routes/authRoutes.ts&#45;&gt;middleware/authMiddleware.ts</title>
<path fill="none" stroke="#757575" d="M313.77,-991.7C338.98,-977.79 382.44,-955.1 422,-940.88 526.68,-903.23 557.59,-909.88 665.25,-881.88 681.32,-877.7 685.22,-876.2 701.25,-871.88 714.35,-868.34 728.44,-864.61 741.77,-861.11"/>
<polygon fill="#757575" stroke="#757575" points="742.5,-864.53 751.29,-858.61 740.73,-857.76 742.5,-864.53"/>
</g>
<!-- routes/authRoutes.ts&#45;&gt;middleware/validateRequest.ts -->
<g id="edge38" class="edge">
<title>routes/authRoutes.ts&#45;&gt;middleware/validateRequest.ts</title>
<path fill="none" stroke="#757575" d="M311.18,-1016.11C335.59,-1031.23 380.03,-1056.28 422,-1066.88 510.13,-1089.13 613.42,-1092.02 689.81,-1089.96"/>
<polygon fill="#757575" stroke="#757575" points="689.48,-1093.48 699.37,-1089.67 689.27,-1086.48 689.48,-1093.48"/>
</g>
<!-- routes/authRoutes.ts&#45;&gt;middleware/validators/authValidator.ts -->
<g id="edge39" class="edge">
<title>routes/authRoutes.ts&#45;&gt;middleware/validators/authValidator.ts</title>
<path fill="none" stroke="#757575" d="M362.08,-1015.57C391.71,-1020.55 426.53,-1026.39 457.64,-1031.61"/>
<polygon fill="#757575" stroke="#757575" points="456.99,-1035.05 467.43,-1033.25 458.15,-1028.15 456.99,-1035.05"/>
</g>
<!-- routes/chatHistoryRoutes.ts -->
<g id="node29" class="node">
<title>routes/chatHistoryRoutes.ts</title>
<path fill="none" stroke="#c6c5fe" d="M374.33,-736.75C374.33,-736.75 208.42,-736.75 208.42,-736.75 204.46,-736.75 200.5,-732.79 200.5,-728.83 200.5,-728.83 200.5,-720.92 200.5,-720.92 200.5,-716.96 204.46,-713 208.42,-713 208.42,-713 374.33,-713 374.33,-713 378.29,-713 382.25,-716.96 382.25,-720.92 382.25,-720.92 382.25,-728.83 382.25,-728.83 382.25,-732.79 378.29,-736.75 374.33,-736.75"/>
<text xml:space="preserve" text-anchor="middle" x="291.38" y="-719.45" font-family="Arial" font-size="14.00" fill="#c6c5fe">routes/chatHistoryRoutes.ts</text>
</g>
<!-- routes/chatHistoryRoutes.ts&#45;&gt;middleware/authMiddleware.ts -->
<g id="edge41" class="edge">
<title>routes/chatHistoryRoutes.ts&#45;&gt;middleware/authMiddleware.ts</title>
<path fill="none" stroke="#757575" d="M366.51,-737.12C373.31,-739.53 379.92,-742.42 386,-745.88 406.23,-757.36 401.4,-773.06 422,-783.88 518.87,-834.76 557.32,-803.87 665.25,-821.88 683.37,-824.9 702.82,-828.27 721.17,-831.52"/>
<polygon fill="#757575" stroke="#757575" points="720.49,-834.95 730.95,-833.25 721.71,-828.06 720.49,-834.95"/>
</g>
<!-- routes/chatHistoryRoutes.ts&#45;&gt;controllers/chatHistoryController.ts -->
<g id="edge40" class="edge">
<title>routes/chatHistoryRoutes.ts&#45;&gt;controllers/chatHistoryController.ts</title>
<path fill="none" stroke="#757575" d="M365.29,-712.5C372.47,-710.12 379.5,-707.27 386,-703.88 405.24,-693.83 402.52,-680.46 422,-670.88 425.7,-669.06 429.53,-667.39 433.45,-665.87"/>
<polygon fill="#757575" stroke="#757575" points="434.31,-669.28 442.58,-662.66 431.99,-662.67 434.31,-669.28"/>
</g>
<!-- routes/chatRoutes.ts -->
<g id="node30" class="node">
<title>routes/chatRoutes.ts</title>
<path fill="none" stroke="#c6c5fe" d="M353.33,-503.75C353.33,-503.75 229.42,-503.75 229.42,-503.75 225.46,-503.75 221.5,-499.79 221.5,-495.83 221.5,-495.83 221.5,-487.92 221.5,-487.92 221.5,-483.96 225.46,-480 229.42,-480 229.42,-480 353.33,-480 353.33,-480 357.29,-480 361.25,-483.96 361.25,-487.92 361.25,-487.92 361.25,-495.83 361.25,-495.83 361.25,-499.79 357.29,-503.75 353.33,-503.75"/>
<text xml:space="preserve" text-anchor="middle" x="291.38" y="-486.45" font-family="Arial" font-size="14.00" fill="#c6c5fe">routes/chatRoutes.ts</text>
</g>
<!-- routes/chatRoutes.ts&#45;&gt;middleware/authMiddleware.ts -->
<g id="edge43" class="edge">
<title>routes/chatRoutes.ts&#45;&gt;middleware/authMiddleware.ts</title>
<path fill="none" stroke="#757575" d="M299.08,-503.97C324.21,-549.19 411.87,-706.12 422,-712.88 512.8,-773.36 576.86,-681.91 665.25,-745.88 694.88,-767.32 672.98,-796.68 701.25,-819.88 705.38,-823.26 709.9,-826.21 714.67,-828.78"/>
<polygon fill="#757575" stroke="#757575" points="712.85,-831.79 723.39,-832.9 715.84,-825.46 712.85,-831.79"/>
</g>
<!-- routes/chatRoutes.ts&#45;&gt;controllers/chatController.ts -->
<g id="edge42" class="edge">
<title>routes/chatRoutes.ts&#45;&gt;controllers/chatController.ts</title>
<path fill="none" stroke="#757575" d="M315.02,-479.66C359.49,-455.67 458.33,-402.35 509.9,-374.53"/>
<polygon fill="#757575" stroke="#757575" points="511.38,-377.71 518.51,-369.88 508.05,-371.55 511.38,-377.71"/>
</g>
<!-- routes/userRoutes.ts -->
<g id="node31" class="node">
<title>routes/userRoutes.ts</title>
<path fill="none" stroke="#c6c5fe" d="M353.71,-895.75C353.71,-895.75 229.04,-895.75 229.04,-895.75 225.08,-895.75 221.12,-891.79 221.12,-887.83 221.12,-887.83 221.12,-879.92 221.12,-879.92 221.12,-875.96 225.08,-872 229.04,-872 229.04,-872 353.71,-872 353.71,-872 357.67,-872 361.62,-875.96 361.62,-879.92 361.62,-879.92 361.62,-887.83 361.62,-887.83 361.62,-891.79 357.67,-895.75 353.71,-895.75"/>
<text xml:space="preserve" text-anchor="middle" x="291.38" y="-878.45" font-family="Arial" font-size="14.00" fill="#c6c5fe">routes/userRoutes.ts</text>
</g>
<!-- routes/userRoutes.ts&#45;&gt;middleware/authMiddleware.ts -->
<g id="edge45" class="edge">
<title>routes/userRoutes.ts&#45;&gt;middleware/authMiddleware.ts</title>
<path fill="none" stroke="#757575" d="M361.84,-880.21C436.78,-876.07 559.56,-868.74 665.25,-859.88 673.26,-859.2 681.52,-858.46 689.84,-857.68"/>
<polygon fill="#757575" stroke="#757575" points="690.07,-861.18 699.69,-856.74 689.4,-854.21 690.07,-861.18"/>
</g>
<!-- routes/userRoutes.ts&#45;&gt;controllers/userController.ts -->
<g id="edge44" class="edge">
<title>routes/userRoutes.ts&#45;&gt;controllers/userController.ts</title>
<path fill="none" stroke="#757575" d="M332.03,-896.23C375.41,-909.76 445.05,-931.46 492.26,-946.18"/>
<polygon fill="#757575" stroke="#757575" points="491.12,-949.49 501.71,-949.12 493.21,-942.81 491.12,-949.49"/>
</g>
<!-- routes/userSettingsRoutes.ts -->
<g id="node32" class="node">
<title>routes/userSettingsRoutes.ts</title>
<path fill="none" stroke="#c6c5fe" d="M378.08,-778.75C378.08,-778.75 204.67,-778.75 204.67,-778.75 200.71,-778.75 196.75,-774.79 196.75,-770.83 196.75,-770.83 196.75,-762.92 196.75,-762.92 196.75,-758.96 200.71,-755 204.67,-755 204.67,-755 378.08,-755 378.08,-755 382.04,-755 386,-758.96 386,-762.92 386,-762.92 386,-770.83 386,-770.83 386,-774.79 382.04,-778.75 378.08,-778.75"/>
<text xml:space="preserve" text-anchor="middle" x="291.38" y="-761.45" font-family="Arial" font-size="14.00" fill="#c6c5fe">routes/userSettingsRoutes.ts</text>
</g>
<!-- routes/userSettingsRoutes.ts&#45;&gt;middleware/authMiddleware.ts -->
<g id="edge47" class="edge">
<title>routes/userSettingsRoutes.ts&#45;&gt;middleware/authMiddleware.ts</title>
<path fill="none" stroke="#757575" d="M314.53,-779.02C339.73,-792.18 382.51,-812.53 422,-821.88 510.55,-842.82 613.81,-848.15 690.08,-848.61"/>
<polygon fill="#757575" stroke="#757575" points="689.61,-852.11 699.62,-848.64 689.63,-845.11 689.61,-852.11"/>
</g>
<!-- routes/userSettingsRoutes.ts&#45;&gt;controllers/userSettingsController.ts -->
<g id="edge46" class="edge">
<title>routes/userSettingsRoutes.ts&#45;&gt;controllers/userSettingsController.ts</title>
<path fill="none" stroke="#757575" d="M352.06,-754.53C363.39,-751.9 375.1,-748.97 386,-745.88 424.99,-734.82 468.5,-719.58 499.75,-708.1"/>
<polygon fill="#757575" stroke="#757575" points="500.68,-711.49 508.84,-704.74 498.25,-704.93 500.68,-711.49"/>
</g>
<!-- server.ts -->
<g id="node33" class="node">
<title>server.ts</title>
<path fill="none" stroke="#c6c5fe" d="M105.96,-736.75C105.96,-736.75 54.79,-736.75 54.79,-736.75 50.83,-736.75 46.88,-732.79 46.88,-728.83 46.88,-728.83 46.88,-720.92 46.88,-720.92 46.88,-716.96 50.83,-713 54.79,-713 54.79,-713 105.96,-713 105.96,-713 109.92,-713 113.88,-716.96 113.88,-720.92 113.88,-720.92 113.88,-728.83 113.88,-728.83 113.88,-732.79 109.92,-736.75 105.96,-736.75"/>
<text xml:space="preserve" text-anchor="middle" x="80.38" y="-719.45" font-family="Arial" font-size="14.00" fill="#c6c5fe">server.ts</text>
</g>
<!-- server.ts&#45;&gt;config/env.ts -->
<g id="edge48" class="edge">
<title>server.ts&#45;&gt;config/env.ts</title>
<path fill="none" stroke="#757575" d="M87.76,-712.58C102.69,-685.26 142.71,-619.57 196.75,-589.88 285.37,-541.19 321.14,-565 422,-557.88 726.45,-536.36 1092.7,-551.54 1230.54,-558.7"/>
<polygon fill="#757575" stroke="#757575" points="1230.32,-562.2 1240.49,-559.23 1230.69,-555.21 1230.32,-562.2"/>
</g>
<!-- server.ts&#45;&gt;utils/logger.ts -->
<g id="edge58" class="edge">
<title>server.ts&#45;&gt;utils/logger.ts</title>
<path fill="none" stroke="#757575" d="M82.47,-712.66C87.03,-670.06 108.6,-527.66 196.75,-470.88 285.46,-413.74 -545.15,-326.16 1422.75,-540.88 1449.47,-543.79 1478.93,-548.08 1503.82,-552.03"/>
<polygon fill="#757575" stroke="#757575" points="1502.98,-555.44 1513.41,-553.57 1504.1,-548.53 1502.98,-555.44"/>
</g>
<!-- server.ts&#45;&gt;middleware/errorHandler.ts -->
<g id="edge50" class="edge">
<title>server.ts&#45;&gt;middleware/errorHandler.ts</title>
<path fill="none" stroke="#757575" d="M114.02,-725.32C130.41,-727.33 149.19,-732.7 160.75,-745.88 243.21,-839.85 115.92,-929.49 196.75,-1024.88 264.36,-1104.66 318.87,-1075.57 422,-1092.88 527.17,-1110.53 807.18,-1153.16 901.75,-1103.88 965.21,-1070.8 1002.94,-988.92 1018.21,-948.78"/>
<polygon fill="#757575" stroke="#757575" points="1021.49,-950 1021.63,-939.41 1014.91,-947.6 1021.49,-950"/>
</g>
<!-- server.ts&#45;&gt;lib/prisma.ts -->
<g id="edge49" class="edge">
<title>server.ts&#45;&gt;lib/prisma.ts</title>
<path fill="none" stroke="#757575" d="M101.25,-712.6C123.81,-699 162.01,-677 196.75,-661.88 293.49,-619.76 317.84,-603.76 422,-586.88 632.48,-552.76 691.37,-554.18 901.75,-588.88 931.12,-593.72 962.99,-604.33 987.11,-613.55"/>
<polygon fill="#757575" stroke="#757575" points="985.62,-616.72 996.2,-617.11 988.17,-610.2 985.62,-616.72"/>
</g>
<!-- server.ts&#45;&gt;routes/aiRoutes.ts -->
<g id="edge51" class="edge">
<title>server.ts&#45;&gt;routes/aiRoutes.ts</title>
<path fill="none" stroke="#757575" d="M114.22,-725.15C130.66,-727.12 149.43,-732.49 160.75,-745.88 217.23,-812.68 140.68,-1070.73 196.75,-1137.88 202.53,-1144.79 209.97,-1149.96 218.14,-1153.8"/>
<polygon fill="#757575" stroke="#757575" points="216.8,-1157.03 227.38,-1157.43 219.36,-1150.52 216.8,-1157.03"/>
</g>
<!-- server.ts&#45;&gt;routes/analyticsRoutes.ts -->
<g id="edge52" class="edge">
<title>server.ts&#45;&gt;routes/analyticsRoutes.ts</title>
<path fill="none" stroke="#757575" d="M114.03,-718.31C141.69,-712.75 182.37,-704.58 217.68,-697.48"/>
<polygon fill="#757575" stroke="#757575" points="218.34,-700.92 227.46,-695.52 216.96,-694.06 218.34,-700.92"/>
</g>
<!-- server.ts&#45;&gt;routes/authRoutes.ts -->
<g id="edge53" class="edge">
<title>server.ts&#45;&gt;routes/authRoutes.ts</title>
<path fill="none" stroke="#757575" d="M114.32,-725.88C130.39,-728.09 148.78,-733.46 160.75,-745.88 211.05,-798.02 162.65,-840.95 196.75,-904.88 213.9,-937.02 244.3,-966.31 265.8,-984.56"/>
<polygon fill="#757575" stroke="#757575" points="263.3,-987.03 273.24,-990.71 267.76,-981.64 263.3,-987.03"/>
</g>
<!-- server.ts&#45;&gt;routes/chatHistoryRoutes.ts -->
<g id="edge54" class="edge">
<title>server.ts&#45;&gt;routes/chatHistoryRoutes.ts</title>
<path fill="none" stroke="#757575" d="M114.03,-724.88C134.41,-724.88 161.86,-724.88 189.03,-724.88"/>
<polygon fill="#757575" stroke="#757575" points="188.71,-728.38 198.71,-724.88 188.71,-721.38 188.71,-728.38"/>
</g>
<!-- server.ts&#45;&gt;routes/chatRoutes.ts -->
<g id="edge55" class="edge">
<title>server.ts&#45;&gt;routes/chatRoutes.ts</title>
<path fill="none" stroke="#757575" d="M84.56,-712.66C94.55,-676.87 128.68,-571.42 196.75,-517.88 201.19,-514.38 206.08,-511.35 211.21,-508.73"/>
<polygon fill="#757575" stroke="#757575" points="212.28,-512.09 219.96,-504.8 209.41,-505.71 212.28,-512.09"/>
</g>
<!-- server.ts&#45;&gt;routes/userRoutes.ts -->
<g id="edge56" class="edge">
<title>server.ts&#45;&gt;routes/userRoutes.ts</title>
<path fill="none" stroke="#757575" d="M114.06,-728.96C129.13,-731.95 146.74,-737.09 160.75,-745.88 181.57,-758.94 180.16,-769.73 196.75,-787.88 221.27,-814.69 250.7,-844.5 269.93,-863.68"/>
<polygon fill="#757575" stroke="#757575" points="267.36,-866.06 276.92,-870.63 272.3,-861.09 267.36,-866.06"/>
</g>
<!-- server.ts&#45;&gt;routes/userSettingsRoutes.ts -->
<g id="edge57" class="edge">
<title>server.ts&#45;&gt;routes/userSettingsRoutes.ts</title>
<path fill="none" stroke="#757575" d="M114.03,-731.44C141.69,-737 182.37,-745.17 217.68,-752.27"/>
<polygon fill="#757575" stroke="#757575" points="216.96,-755.69 227.46,-754.23 218.34,-748.83 216.96,-755.69"/>
</g>
<!-- services/ai/client/azureEmbeddingClient.ts&#45;&gt;config/providerMap.ts -->
<g id="edge59" class="edge">
<title>services/ai/client/azureEmbeddingClient.ts&#45;&gt;config/providerMap.ts</title>
<path fill="none" stroke="#757575" d="M1372.8,-195.55C1406.32,-190.64 1444.79,-185 1478.24,-180.11"/>
<polygon fill="#757575" stroke="#757575" points="1478.49,-183.61 1487.88,-178.69 1477.48,-176.68 1478.49,-183.61"/>
</g>
<!-- services/ai/client/claudeClient.ts&#45;&gt;config/costMap.ts -->
<g id="edge60" class="edge">
<title>services/ai/client/claudeClient.ts&#45;&gt;config/costMap.ts</title>
<path fill="none" stroke="#757575" d="M1580.13,-315.54C1605.82,-296.35 1657.33,-258.48 1702.75,-228.88 1724.96,-214.4 1750.7,-199.14 1770.41,-187.76"/>
<polygon fill="#757575" stroke="#757575" points="1772.15,-190.8 1779.08,-182.79 1768.66,-184.73 1772.15,-190.8"/>
</g>
<!-- services/ai/client/claudeClient.ts&#45;&gt;services/ai/types.ts -->
<g id="edge61" class="edge">
<title>services/ai/client/claudeClient.ts&#45;&gt;services/ai/types.ts</title>
<path fill="none" stroke="#757575" d="M1652.7,-340.24C1769.11,-354.09 1979.09,-371.05 2155.5,-341.88 2176.42,-338.42 2198.85,-331.14 2217.15,-324.21"/>
<polygon fill="#757575" stroke="#757575" points="2218.24,-327.54 2226.28,-320.64 2215.69,-321.02 2218.24,-327.54"/>
</g>
<!-- services/ai/client/claudeClient.ts&#45;&gt;services/ai/utils/providerUtils.ts -->
<g id="edge62" class="edge">
<title>services/ai/client/claudeClient.ts&#45;&gt;services/ai/utils/providerUtils.ts</title>
<path fill="none" stroke="#757575" d="M1601.5,-315.52C1642.72,-302.02 1708.82,-280.38 1753.77,-265.67"/>
<polygon fill="#757575" stroke="#757575" points="1754.57,-269.09 1762.99,-262.65 1752.39,-262.43 1754.57,-269.09"/>
</g>
<!-- services/ai/client/openaiClient.ts&#45;&gt;config/costMap.ts -->
<g id="edge63" class="edge">
<title>services/ai/client/openaiClient.ts&#45;&gt;config/costMap.ts</title>
<path fill="none" stroke="#757575" d="M1637.18,-197.55C1667,-192.54 1701.33,-186.78 1730.91,-181.81"/>
<polygon fill="#757575" stroke="#757575" points="1731.22,-185.31 1740.5,-180.2 1730.06,-178.4 1731.22,-185.31"/>
</g>
<!-- services/ai/client/openaiClient.ts&#45;&gt;services/ai/types.ts -->
<g id="edge64" class="edge">
<title>services/ai/client/openaiClient.ts&#45;&gt;services/ai/types.ts</title>
<path fill="none" stroke="#757575" d="M1666.99,-199.44C1787.5,-190.86 1991.24,-187.68 2155.5,-241.88 2185.07,-251.63 2214.26,-272.55 2233.39,-288.24"/>
<polygon fill="#757575" stroke="#757575" points="2231.13,-290.91 2241.03,-294.68 2235.65,-285.56 2231.13,-290.91"/>
</g>
<!-- services/ai/client/openaiClient.ts&#45;&gt;services/ai/utils/providerUtils.ts -->
<g id="edge65" class="edge">
<title>services/ai/client/openaiClient.ts&#45;&gt;services/ai/utils/providerUtils.ts</title>
<path fill="none" stroke="#757575" d="M1637.18,-222.2C1662.54,-226.46 1691.16,-231.27 1717.35,-235.66"/>
<polygon fill="#757575" stroke="#757575" points="1716.47,-239.06 1726.91,-237.27 1717.63,-232.16 1716.47,-239.06"/>
</g>
<!-- services/ai/config/providers.ts&#45;&gt;services/ai/types.ts -->
<g id="edge66" class="edge">
<title>services/ai/config/providers.ts&#45;&gt;services/ai/types.ts</title>
<path fill="none" stroke="#757575" d="M2144.36,-297.14C2156.26,-298.29 2168.3,-299.46 2179.84,-300.57"/>
<polygon fill="#757575" stroke="#757575" points="2179.39,-304.04 2189.69,-301.52 2180.07,-297.07 2179.39,-304.04"/>
</g>
<!-- services/ai/handlers/chatHandler.ts&#45;&gt;utils/logger.ts -->
<g id="edge70" class="edge">
<title>services/ai/handlers/chatHandler.ts&#45;&gt;utils/logger.ts</title>
<path fill="none" stroke="#757575" d="M1305.71,-380.01C1351.98,-412.88 1479.97,-503.78 1535.49,-543.22"/>
<polygon fill="#757575" stroke="#757575" points="1533.26,-545.93 1543.44,-548.87 1537.31,-540.22 1533.26,-545.93"/>
</g>
<!-- services/ai/handlers/chatHandler.ts&#45;&gt;services/ai/types.ts -->
<g id="edge68" class="edge">
<title>services/ai/handlers/chatHandler.ts&#45;&gt;services/ai/types.ts</title>
<path fill="none" stroke="#757575" d="M1400.67,-376.9C1420.02,-378.14 1439.96,-379.21 1458.75,-379.88 1768.31,-390.78 1857.11,-446.97 2155.5,-363.88 2182.76,-356.28 2210.59,-339.85 2229.95,-326.73"/>
<polygon fill="#757575" stroke="#757575" points="2231.81,-329.7 2238.01,-321.11 2227.81,-323.96 2231.81,-329.7"/>
</g>
<!-- services/ai/handlers/chatHandler.ts&#45;&gt;services/ai/utils/providerUtils.ts -->
<g id="edge69" class="edge">
<title>services/ai/handlers/chatHandler.ts&#45;&gt;services/ai/utils/providerUtils.ts</title>
<path fill="none" stroke="#757575" d="M1381.06,-380.23C1460.08,-386.9 1575.18,-387.17 1666.75,-348.88 1686.77,-340.5 1685.66,-329.26 1702.75,-315.88 1725.05,-298.41 1751.88,-280.75 1772.01,-268.1"/>
<polygon fill="#757575" stroke="#757575" points="1773.66,-271.2 1780.31,-262.94 1769.97,-265.25 1773.66,-271.2"/>
</g>
<!-- services/ai/handlers/chatHandler.ts&#45;&gt;services/ai/client/claudeClient.ts -->
<g id="edge67" class="edge">
<title>services/ai/handlers/chatHandler.ts&#45;&gt;services/ai/client/claudeClient.ts</title>
<path fill="none" stroke="#757575" d="M1372.8,-355.55C1402.39,-351.21 1435.86,-346.31 1466.31,-341.85"/>
<polygon fill="#757575" stroke="#757575" points="1466.5,-345.36 1475.89,-340.45 1465.48,-338.44 1466.5,-345.36"/>
</g>
<!-- services/ai/handlers/providerHandler.ts&#45;&gt;services/ai/types.ts -->
<g id="edge72" class="edge">
<title>services/ai/handlers/providerHandler.ts&#45;&gt;services/ai/types.ts</title>
<path fill="none" stroke="#757575" d="M1412.12,-293.05C1542.96,-298.25 1755.63,-305.91 1939.25,-308.88 2021.59,-310.2 2116.01,-309.63 2180.09,-308.93"/>
<polygon fill="#757575" stroke="#757575" points="2179.82,-312.43 2189.78,-308.82 2179.74,-305.43 2179.82,-312.43"/>
</g>
<!-- services/ai/handlers/providerHandler.ts&#45;&gt;services/ai/utils/providerUtils.ts -->
<g id="edge73" class="edge">
<title>services/ai/handlers/providerHandler.ts&#45;&gt;services/ai/utils/providerUtils.ts</title>
<path fill="none" stroke="#757575" d="M1412.19,-277.53C1427.86,-276.27 1443.68,-275.02 1458.75,-273.88 1536.31,-267.97 1623.78,-261.86 1691.01,-257.29"/>
<polygon fill="#757575" stroke="#757575" points="1691.22,-260.78 1700.96,-256.61 1690.74,-253.8 1691.22,-260.78"/>
</g>
<!-- services/ai/handlers/providerHandler.ts&#45;&gt;services/ai/client/claudeClient.ts -->
<g id="edge71" class="edge">
<title>services/ai/handlers/providerHandler.ts&#45;&gt;services/ai/client/claudeClient.ts</title>
<path fill="none" stroke="#757575" d="M1372.8,-300.2C1402.39,-304.54 1435.86,-309.44 1466.31,-313.9"/>
<polygon fill="#757575" stroke="#757575" points="1465.48,-317.31 1475.89,-315.3 1466.5,-310.39 1465.48,-317.31"/>
</g>
<!-- services/ai/utils/errorMessages.ts -->
<g id="node40" class="node">
<title>services/ai/utils/errorMessages.ts</title>
<path fill="none" stroke="#c6c5fe" d="M2147.58,-23.75C2147.58,-23.75 1947.17,-23.75 1947.17,-23.75 1943.21,-23.75 1939.25,-19.79 1939.25,-15.83 1939.25,-15.83 1939.25,-7.92 1939.25,-7.92 1939.25,-3.96 1943.21,0 1947.17,0 1947.17,0 2147.58,0 2147.58,0 2151.54,0 2155.5,-3.96 2155.5,-7.92 2155.5,-7.92 2155.5,-15.83 2155.5,-15.83 2155.5,-19.79 2151.54,-23.75 2147.58,-23.75"/>
<text xml:space="preserve" text-anchor="middle" x="2047.38" y="-6.45" font-family="Arial" font-size="14.00" fill="#c6c5fe">services/ai/utils/errorMessages.ts</text>
</g>
<!-- services/ai/utils/errorMessages.ts&#45;&gt;services/ai/types.ts -->
<g id="edge81" class="edge">
<title>services/ai/utils/errorMessages.ts&#45;&gt;services/ai/types.ts</title>
<path fill="none" stroke="#757575" d="M2133.89,-24.2C2141.75,-27.74 2149.14,-32.21 2155.5,-37.88 2230.19,-104.33 2249.21,-231.75 2253.96,-284.31"/>
<polygon fill="#757575" stroke="#757575" points="2250.47,-284.51 2254.75,-294.2 2257.44,-283.96 2250.47,-284.51"/>
</g>
<!-- types/express/index.d.ts -->
<g id="node41" class="node">
<title>types/express/index.d.ts</title>
<path fill="none" stroke="#cfffac" d="M152.83,-820.75C152.83,-820.75 7.92,-820.75 7.92,-820.75 3.96,-820.75 0,-816.79 0,-812.83 0,-812.83 0,-804.92 0,-804.92 0,-800.96 3.96,-797 7.92,-797 7.92,-797 152.83,-797 152.83,-797 156.79,-797 160.75,-800.96 160.75,-804.92 160.75,-804.92 160.75,-812.83 160.75,-812.83 160.75,-816.79 156.79,-820.75 152.83,-820.75"/>
<text xml:space="preserve" text-anchor="middle" x="80.38" y="-803.45" font-family="Arial" font-size="14.00" fill="#cfffac">types/express/index.d.ts</text>
</g>
<!-- types/index.ts -->
<g id="node42" class="node">
<title>types/index.ts</title>
<path fill="none" stroke="#cfffac" d="M121.71,-862.75C121.71,-862.75 39.04,-862.75 39.04,-862.75 35.08,-862.75 31.12,-858.79 31.12,-854.83 31.12,-854.83 31.12,-846.92 31.12,-846.92 31.12,-842.96 35.08,-839 39.04,-839 39.04,-839 121.71,-839 121.71,-839 125.67,-839 129.62,-842.96 129.62,-846.92 129.62,-846.92 129.62,-854.83 129.62,-854.83 129.62,-858.79 125.67,-862.75 121.71,-862.75"/>
<text xml:space="preserve" text-anchor="middle" x="80.38" y="-845.45" font-family="Arial" font-size="14.00" fill="#cfffac">types/index.ts</text>
</g>
</g>
</svg>
