<?xml version="1.0" encoding="UTF-8" standalone="no"?>
<!DOCTYPE svg PUBLIC "-//W3C//DTD SVG 1.1//EN"
 "http://www.w3.org/Graphics/SVG/1.1/DTD/svg11.dtd">
<!-- Generated by graphviz version 13.1.2 (20250808.2320)
 -->
<!-- Title: G Pages: 1 -->
<svg width="2368pt" height="1499pt"
 viewBox="0.00 0.00 2368.00 1499.00" xmlns="http://www.w3.org/2000/svg" xmlns:xlink="http://www.w3.org/1999/xlink">
<g id="graph0" class="graph" transform="scale(1 1) rotate(0) translate(21.6 1477.12)">
<title>G</title>
<polygon fill="#111111" stroke="none" points="-21.6,21.6 -21.6,-1477.12 2346.1,-1477.12 2346.1,21.6 -21.6,21.6"/>
<!-- config/costMap.ts -->
<g id="node1" class="node">
<title>config/costMap.ts</title>
<path fill="none" stroke="#cfffac" d="M1858.96,-141.75C1858.96,-141.75 1753.04,-141.75 1753.04,-141.75 1749.08,-141.75 1745.12,-137.79 1745.12,-133.83 1745.12,-133.83 1745.12,-125.92 1745.12,-125.92 1745.12,-121.96 1749.08,-118 1753.04,-118 1753.04,-118 1858.96,-118 1858.96,-118 1862.92,-118 1866.88,-121.96 1866.88,-125.92 1866.88,-125.92 1866.88,-133.83 1866.88,-133.83 1866.88,-137.79 1862.92,-141.75 1858.96,-141.75"/>
<text xml:space="preserve" text-anchor="middle" x="1806" y="-124.45" font-family="Arial" font-size="14.00" fill="#cfffac">config/costMap.ts</text>
</g>
<!-- config/database.ts -->
<g id="node2" class="node">
<title>config/database.ts</title>
<path fill="none" stroke="#cfffac" d="M135.21,-1005.75C135.21,-1005.75 25.54,-1005.75 25.54,-1005.75 21.58,-1005.75 17.62,-1001.79 17.62,-997.83 17.62,-997.83 17.62,-989.92 17.62,-989.92 17.62,-985.96 21.58,-982 25.54,-982 25.54,-982 135.21,-982 135.21,-982 139.17,-982 143.12,-985.96 143.12,-989.92 143.12,-989.92 143.12,-997.83 143.12,-997.83 143.12,-1001.79 139.17,-1005.75 135.21,-1005.75"/>
<text xml:space="preserve" text-anchor="middle" x="80.38" y="-988.45" font-family="Arial" font-size="14.00" fill="#cfffac">config/database.ts</text>
</g>
<!-- config/env.ts -->
<g id="node3" class="node">
<title>config/env.ts</title>
<path fill="none" stroke="#c6c5fe" d="M1067.71,-1423.75C1067.71,-1423.75 992.54,-1423.75 992.54,-1423.75 988.58,-1423.75 984.62,-1419.79 984.62,-1415.83 984.62,-1415.83 984.62,-1407.92 984.62,-1407.92 984.62,-1403.96 988.58,-1400 992.54,-1400 992.54,-1400 1067.71,-1400 1067.71,-1400 1071.67,-1400 1075.62,-1403.96 1075.62,-1407.92 1075.62,-1407.92 1075.62,-1415.83 1075.62,-1415.83 1075.62,-1419.79 1071.67,-1423.75 1067.71,-1423.75"/>
<text xml:space="preserve" text-anchor="middle" x="1030.12" y="-1406.45" font-family="Arial" font-size="14.00" fill="#c6c5fe">config/env.ts</text>
</g>
<!-- utils/logger.ts -->
<g id="node4" class="node">
<title>utils/logger.ts</title>
<path fill="none" stroke="#cfffac" d="M1605.21,-700.75C1605.21,-700.75 1526.29,-700.75 1526.29,-700.75 1522.33,-700.75 1518.38,-696.79 1518.38,-692.83 1518.38,-692.83 1518.38,-684.92 1518.38,-684.92 1518.38,-680.96 1522.33,-677 1526.29,-677 1526.29,-677 1605.21,-677 1605.21,-677 1609.17,-677 1613.12,-680.96 1613.12,-684.92 1613.12,-684.92 1613.12,-692.83 1613.12,-692.83 1613.12,-696.79 1609.17,-700.75 1605.21,-700.75"/>
<text xml:space="preserve" text-anchor="middle" x="1565.75" y="-683.45" font-family="Arial" font-size="14.00" fill="#cfffac">utils/logger.ts</text>
</g>
<!-- config/env.ts&#45;&gt;utils/logger.ts -->
<g id="edge1" class="edge">
<title>config/env.ts&#45;&gt;utils/logger.ts</title>
<path fill="none" stroke="#757575" d="M1074.51,-1424.19C1154.66,-1444.03 1326.76,-1472.67 1425.75,-1385.88 1530.27,-1294.22 1558.48,-823.92 1563.74,-712.55"/>
<polygon fill="#757575" stroke="#757575" points="1567.24,-712.71 1564.2,-702.56 1560.25,-712.39 1567.24,-712.71"/>
</g>
<!-- config/providerMap.ts -->
<g id="node5" class="node">
<title>config/providerMap.ts</title>
<path fill="none" stroke="#cfffac" d="M1630.71,-523.75C1630.71,-523.75 1500.79,-523.75 1500.79,-523.75 1496.83,-523.75 1492.88,-519.79 1492.88,-515.83 1492.88,-515.83 1492.88,-507.92 1492.88,-507.92 1492.88,-503.96 1496.83,-500 1500.79,-500 1500.79,-500 1630.71,-500 1630.71,-500 1634.67,-500 1638.62,-503.96 1638.62,-507.92 1638.62,-507.92 1638.62,-515.83 1638.62,-515.83 1638.62,-519.79 1634.67,-523.75 1630.71,-523.75"/>
<text xml:space="preserve" text-anchor="middle" x="1565.75" y="-506.45" font-family="Arial" font-size="14.00" fill="#cfffac">config/providerMap.ts</text>
</g>
<!-- controllers/aiController.ts -->
<g id="node6" class="node">
<title>controllers/aiController.ts</title>
<path fill="none" stroke="#c6c5fe" d="M877.33,-414.75C877.33,-414.75 728.67,-414.75 728.67,-414.75 724.71,-414.75 720.75,-410.79 720.75,-406.83 720.75,-406.83 720.75,-398.92 720.75,-398.92 720.75,-394.96 724.71,-391 728.67,-391 728.67,-391 877.33,-391 877.33,-391 881.29,-391 885.25,-394.96 885.25,-398.92 885.25,-398.92 885.25,-406.83 885.25,-406.83 885.25,-410.79 881.29,-414.75 877.33,-414.75"/>
<text xml:space="preserve" text-anchor="middle" x="803" y="-397.45" font-family="Arial" font-size="14.00" fill="#c6c5fe">controllers/aiController.ts</text>
</g>
<!-- controllers/aiController.ts&#45;&gt;utils/logger.ts -->
<g id="edge4" class="edge">
<title>controllers/aiController.ts&#45;&gt;utils/logger.ts</title>
<path fill="none" stroke="#757575" d="M847.87,-415.19C950.77,-444.63 1214.9,-523.5 1425.75,-614.88 1464.23,-631.55 1506.51,-654.81 1534.21,-670.78"/>
<polygon fill="#757575" stroke="#757575" points="1532.36,-673.75 1542.77,-675.75 1535.88,-667.7 1532.36,-673.75"/>
</g>
<!-- services/ai/index.ts -->
<g id="node7" class="node">
<title>services/ai/index.ts</title>
<path fill="none" stroke="#c6c5fe" d="M1087.21,-410.75C1087.21,-410.75 973.04,-410.75 973.04,-410.75 969.08,-410.75 965.12,-406.79 965.12,-402.83 965.12,-402.83 965.12,-394.92 965.12,-394.92 965.12,-390.96 969.08,-387 973.04,-387 973.04,-387 1087.21,-387 1087.21,-387 1091.17,-387 1095.12,-390.96 1095.12,-394.92 1095.12,-394.92 1095.12,-402.83 1095.12,-402.83 1095.12,-406.79 1091.17,-410.75 1087.21,-410.75"/>
<text xml:space="preserve" text-anchor="middle" x="1030.12" y="-393.45" font-family="Arial" font-size="14.00" fill="#c6c5fe">services/ai/index.ts</text>
</g>
<!-- controllers/aiController.ts&#45;&gt;services/ai/index.ts -->
<g id="edge2" class="edge">
<title>controllers/aiController.ts&#45;&gt;services/ai/index.ts</title>
<path fill="none" stroke="#757575" d="M885.59,-401.43C907.67,-401.03 931.48,-400.61 953.23,-400.22"/>
<polygon fill="#757575" stroke="#757575" points="953.29,-403.72 963.22,-400.05 953.16,-396.72 953.29,-403.72"/>
</g>
<!-- services/ai/types.ts -->
<g id="node8" class="node">
<title>services/ai/types.ts</title>
<path fill="none" stroke="#cfffac" d="M2316.58,-277.75C2316.58,-277.75 2202.42,-277.75 2202.42,-277.75 2198.46,-277.75 2194.5,-273.79 2194.5,-269.83 2194.5,-269.83 2194.5,-261.92 2194.5,-261.92 2194.5,-257.96 2198.46,-254 2202.42,-254 2202.42,-254 2316.58,-254 2316.58,-254 2320.54,-254 2324.5,-257.96 2324.5,-261.92 2324.5,-261.92 2324.5,-269.83 2324.5,-269.83 2324.5,-273.79 2320.54,-277.75 2316.58,-277.75"/>
<text xml:space="preserve" text-anchor="middle" x="2259.5" y="-260.45" font-family="Arial" font-size="14.00" fill="#cfffac">services/ai/types.ts</text>
</g>
<!-- controllers/aiController.ts&#45;&gt;services/ai/types.ts -->
<g id="edge3" class="edge">
<title>controllers/aiController.ts&#45;&gt;services/ai/types.ts</title>
<path fill="none" stroke="#757575" d="M811.92,-390.79C853.41,-329.07 1052.96,-51.88 1289.62,-51.88 1289.62,-51.88 1289.62,-51.88 1807,-51.88 1969.3,-51.88 2021.41,-64 2158.5,-150.88 2196.61,-175.02 2228.31,-218.02 2245.24,-244.04"/>
<polygon fill="#757575" stroke="#757575" points="2242.26,-245.88 2250.56,-252.46 2248.18,-242.14 2242.26,-245.88"/>
</g>
<!-- services/ai/index.ts&#45;&gt;services/ai/types.ts -->
<g id="edge80" class="edge">
<title>services/ai/index.ts&#45;&gt;services/ai/types.ts</title>
<path fill="none" stroke="#757575" d="M1095.39,-400.34C1173.5,-401.86 1309.31,-403.65 1425.75,-400.88 1751.7,-393.1 1860.34,-497.8 2158.5,-365.88 2196.22,-349.19 2227.5,-311.33 2244.55,-287.28"/>
<polygon fill="#757575" stroke="#757575" points="2247.34,-289.4 2250.1,-279.17 2241.56,-285.44 2247.34,-289.4"/>
</g>
<!-- services/ai/client/azureEmbeddingClient.ts -->
<g id="node34" class="node">
<title>services/ai/client/azureEmbeddingClient.ts</title>
<path fill="none" stroke="#c6c5fe" d="M1417.83,-486.75C1417.83,-486.75 1163.42,-486.75 1163.42,-486.75 1159.46,-486.75 1155.5,-482.79 1155.5,-478.83 1155.5,-478.83 1155.5,-470.92 1155.5,-470.92 1155.5,-466.96 1159.46,-463 1163.42,-463 1163.42,-463 1417.83,-463 1417.83,-463 1421.79,-463 1425.75,-466.96 1425.75,-470.92 1425.75,-470.92 1425.75,-478.83 1425.75,-478.83 1425.75,-482.79 1421.79,-486.75 1417.83,-486.75"/>
<text xml:space="preserve" text-anchor="middle" x="1290.62" y="-469.45" font-family="Arial" font-size="14.00" fill="#c6c5fe">services/ai/client/azureEmbeddingClient.ts</text>
</g>
<!-- services/ai/index.ts&#45;&gt;services/ai/client/azureEmbeddingClient.ts -->
<g id="edge74" class="edge">
<title>services/ai/index.ts&#45;&gt;services/ai/client/azureEmbeddingClient.ts</title>
<path fill="none" stroke="#757575" d="M1057.29,-411.1C1082.11,-422.28 1120.68,-438.6 1155.5,-448.88 1170.15,-453.2 1185.91,-456.99 1201.3,-460.24"/>
<polygon fill="#757575" stroke="#757575" points="1200.43,-463.64 1210.93,-462.21 1201.84,-456.78 1200.43,-463.64"/>
</g>
<!-- services/ai/client/claudeClient.ts -->
<g id="node35" class="node">
<title>services/ai/client/claudeClient.ts</title>
<path fill="none" stroke="#c6c5fe" d="M1661.46,-297.75C1661.46,-297.75 1470.04,-297.75 1470.04,-297.75 1466.08,-297.75 1462.12,-293.79 1462.12,-289.83 1462.12,-289.83 1462.12,-281.92 1462.12,-281.92 1462.12,-277.96 1466.08,-274 1470.04,-274 1470.04,-274 1661.46,-274 1661.46,-274 1665.42,-274 1669.38,-277.96 1669.38,-281.92 1669.38,-281.92 1669.38,-289.83 1669.38,-289.83 1669.38,-293.79 1665.42,-297.75 1661.46,-297.75"/>
<text xml:space="preserve" text-anchor="middle" x="1565.75" y="-280.45" font-family="Arial" font-size="14.00" fill="#c6c5fe">services/ai/client/claudeClient.ts</text>
</g>
<!-- services/ai/index.ts&#45;&gt;services/ai/client/claudeClient.ts -->
<g id="edge75" class="edge">
<title>services/ai/index.ts&#45;&gt;services/ai/client/claudeClient.ts</title>
<path fill="none" stroke="#757575" d="M1050.06,-386.63C1073.71,-371.98 1115.9,-347.92 1155.5,-335.88 1252.4,-306.41 1367.21,-294.24 1450.53,-289.25"/>
<polygon fill="#757575" stroke="#757575" points="1450.51,-292.76 1460.3,-288.69 1450.12,-285.77 1450.51,-292.76"/>
</g>
<!-- services/ai/client/openaiClient.ts -->
<g id="node36" class="node">
<title>services/ai/client/openaiClient.ts</title>
<path fill="none" stroke="#c6c5fe" d="M1661.83,-141.75C1661.83,-141.75 1469.67,-141.75 1469.67,-141.75 1465.71,-141.75 1461.75,-137.79 1461.75,-133.83 1461.75,-133.83 1461.75,-125.92 1461.75,-125.92 1461.75,-121.96 1465.71,-118 1469.67,-118 1469.67,-118 1661.83,-118 1661.83,-118 1665.79,-118 1669.75,-121.96 1669.75,-125.92 1669.75,-125.92 1669.75,-133.83 1669.75,-133.83 1669.75,-137.79 1665.79,-141.75 1661.83,-141.75"/>
<text xml:space="preserve" text-anchor="middle" x="1565.75" y="-124.45" font-family="Arial" font-size="14.00" fill="#c6c5fe">services/ai/client/openaiClient.ts</text>
</g>
<!-- services/ai/index.ts&#45;&gt;services/ai/client/openaiClient.ts -->
<g id="edge76" class="edge">
<title>services/ai/index.ts&#45;&gt;services/ai/client/openaiClient.ts</title>
<path fill="none" stroke="#757575" d="M1036.33,-386.74C1050.48,-355.28 1092.83,-270.68 1155.5,-228.88 1243.62,-170.1 1363.09,-146.14 1450.2,-136.42"/>
<polygon fill="#757575" stroke="#757575" points="1450.39,-139.92 1459.96,-135.38 1449.64,-132.96 1450.39,-139.92"/>
</g>
<!-- services/ai/config/providers.ts -->
<g id="node37" class="node">
<title>services/ai/config/providers.ts</title>
<path fill="none" stroke="#c6c5fe" d="M2138.96,-297.75C2138.96,-297.75 1961.79,-297.75 1961.79,-297.75 1957.83,-297.75 1953.88,-293.79 1953.88,-289.83 1953.88,-289.83 1953.88,-281.92 1953.88,-281.92 1953.88,-277.96 1957.83,-274 1961.79,-274 1961.79,-274 2138.96,-274 2138.96,-274 2142.92,-274 2146.88,-277.96 2146.88,-281.92 2146.88,-281.92 2146.88,-289.83 2146.88,-289.83 2146.88,-293.79 2142.92,-297.75 2138.96,-297.75"/>
<text xml:space="preserve" text-anchor="middle" x="2050.38" y="-280.45" font-family="Arial" font-size="14.00" fill="#c6c5fe">services/ai/config/providers.ts</text>
</g>
<!-- services/ai/index.ts&#45;&gt;services/ai/config/providers.ts -->
<g id="edge77" class="edge">
<title>services/ai/index.ts&#45;&gt;services/ai/config/providers.ts</title>
<path fill="none" stroke="#757575" d="M1095.52,-397.29C1173.76,-394.94 1309.7,-389.5 1425.75,-377.88 1621.97,-358.22 1850.92,-320.66 1969.32,-300.13"/>
<polygon fill="#757575" stroke="#757575" points="1969.68,-303.62 1978.93,-298.46 1968.48,-296.72 1969.68,-303.62"/>
</g>
<!-- services/ai/handlers/chatHandler.ts -->
<g id="node38" class="node">
<title>services/ai/handlers/chatHandler.ts</title>
<path fill="none" stroke="#c6c5fe" d="M1395.33,-368.75C1395.33,-368.75 1185.92,-368.75 1185.92,-368.75 1181.96,-368.75 1178,-364.79 1178,-360.83 1178,-360.83 1178,-352.92 1178,-352.92 1178,-348.96 1181.96,-345 1185.92,-345 1185.92,-345 1395.33,-345 1395.33,-345 1399.29,-345 1403.25,-348.96 1403.25,-352.92 1403.25,-352.92 1403.25,-360.83 1403.25,-360.83 1403.25,-364.79 1399.29,-368.75 1395.33,-368.75"/>
<text xml:space="preserve" text-anchor="middle" x="1290.62" y="-351.45" font-family="Arial" font-size="14.00" fill="#c6c5fe">services/ai/handlers/chatHandler.ts</text>
</g>
<!-- services/ai/index.ts&#45;&gt;services/ai/handlers/chatHandler.ts -->
<g id="edge78" class="edge">
<title>services/ai/index.ts&#45;&gt;services/ai/handlers/chatHandler.ts</title>
<path fill="none" stroke="#757575" d="M1095.36,-388.44C1127.74,-383.18 1167.48,-376.72 1202.57,-371.02"/>
<polygon fill="#757575" stroke="#757575" points="1202.98,-374.5 1212.29,-369.44 1201.85,-367.59 1202.98,-374.5"/>
</g>
<!-- services/ai/handlers/providerHandler.ts -->
<g id="node39" class="node">
<title>services/ai/handlers/providerHandler.ts</title>
<path fill="none" stroke="#c6c5fe" d="M1406.96,-261.75C1406.96,-261.75 1174.29,-261.75 1174.29,-261.75 1170.33,-261.75 1166.38,-257.79 1166.38,-253.83 1166.38,-253.83 1166.38,-245.92 1166.38,-245.92 1166.38,-241.96 1170.33,-238 1174.29,-238 1174.29,-238 1406.96,-238 1406.96,-238 1410.92,-238 1414.88,-241.96 1414.88,-245.92 1414.88,-245.92 1414.88,-253.83 1414.88,-253.83 1414.88,-257.79 1410.92,-261.75 1406.96,-261.75"/>
<text xml:space="preserve" text-anchor="middle" x="1290.62" y="-244.45" font-family="Arial" font-size="14.00" fill="#c6c5fe">services/ai/handlers/providerHandler.ts</text>
</g>
<!-- services/ai/index.ts&#45;&gt;services/ai/handlers/providerHandler.ts -->
<g id="edge79" class="edge">
<title>services/ai/index.ts&#45;&gt;services/ai/handlers/providerHandler.ts</title>
<path fill="none" stroke="#757575" d="M1042.31,-386.75C1062.81,-365.21 1108.62,-320.04 1155.5,-293.88 1177.2,-281.76 1202.75,-272.34 1225.7,-265.38"/>
<polygon fill="#757575" stroke="#757575" points="1226.66,-268.75 1235.28,-262.59 1224.7,-262.03 1226.66,-268.75"/>
</g>
<!-- controllers/analyticsController.ts -->
<g id="node9" class="node">
<title>controllers/analyticsController.ts</title>
<path fill="none" stroke="#c6c5fe" d="M638.96,-943.75C638.96,-943.75 448.29,-943.75 448.29,-943.75 444.33,-943.75 440.38,-939.79 440.38,-935.83 440.38,-935.83 440.38,-927.92 440.38,-927.92 440.38,-923.96 444.33,-920 448.29,-920 448.29,-920 638.96,-920 638.96,-920 642.92,-920 646.88,-923.96 646.88,-927.92 646.88,-927.92 646.88,-935.83 646.88,-935.83 646.88,-939.79 642.92,-943.75 638.96,-943.75"/>
<text xml:space="preserve" text-anchor="middle" x="543.62" y="-926.45" font-family="Arial" font-size="14.00" fill="#c6c5fe">controllers/analyticsController.ts</text>
</g>
<!-- services/analyticsService.ts -->
<g id="node10" class="node">
<title>services/analyticsService.ts</title>
<path fill="none" stroke="#c6c5fe" d="M885.58,-913.75C885.58,-913.75 720.42,-913.75 720.42,-913.75 716.46,-913.75 712.5,-909.79 712.5,-905.83 712.5,-905.83 712.5,-897.92 712.5,-897.92 712.5,-893.96 716.46,-890 720.42,-890 720.42,-890 885.58,-890 885.58,-890 889.54,-890 893.5,-893.96 893.5,-897.92 893.5,-897.92 893.5,-905.83 893.5,-905.83 893.5,-909.79 889.54,-913.75 885.58,-913.75"/>
<text xml:space="preserve" text-anchor="middle" x="803" y="-896.45" font-family="Arial" font-size="14.00" fill="#c6c5fe">services/analyticsService.ts</text>
</g>
<!-- controllers/analyticsController.ts&#45;&gt;services/analyticsService.ts -->
<g id="edge5" class="edge">
<title>controllers/analyticsController.ts&#45;&gt;services/analyticsService.ts</title>
<path fill="none" stroke="#757575" d="M647.09,-919.93C664.88,-917.86 683.37,-915.7 701.12,-913.63"/>
<polygon fill="#757575" stroke="#757575" points="701.33,-917.13 710.86,-912.5 700.52,-910.18 701.33,-917.13"/>
</g>
<!-- lib/prisma.ts -->
<g id="node16" class="node">
<title>lib/prisma.ts</title>
<path fill="none" stroke="#cfffac" d="M1066.58,-872.75C1066.58,-872.75 993.67,-872.75 993.67,-872.75 989.71,-872.75 985.75,-868.79 985.75,-864.83 985.75,-864.83 985.75,-856.92 985.75,-856.92 985.75,-852.96 989.71,-849 993.67,-849 993.67,-849 1066.58,-849 1066.58,-849 1070.54,-849 1074.5,-852.96 1074.5,-856.92 1074.5,-856.92 1074.5,-864.83 1074.5,-864.83 1074.5,-868.79 1070.54,-872.75 1066.58,-872.75"/>
<text xml:space="preserve" text-anchor="middle" x="1030.12" y="-855.45" font-family="Arial" font-size="14.00" fill="#cfffac">lib/prisma.ts</text>
</g>
<!-- services/analyticsService.ts&#45;&gt;lib/prisma.ts -->
<g id="edge84" class="edge">
<title>services/analyticsService.ts&#45;&gt;lib/prisma.ts</title>
<path fill="none" stroke="#757575" d="M871.85,-889.52C904.71,-883.53 943.65,-876.44 974.55,-870.81"/>
<polygon fill="#757575" stroke="#757575" points="974.85,-874.32 984.06,-869.08 973.6,-867.43 974.85,-874.32"/>
</g>
<!-- controllers/authController.ts -->
<g id="node11" class="node">
<title>controllers/authController.ts</title>
<path fill="none" stroke="#c6c5fe" d="M625.83,-1263.75C625.83,-1263.75 461.42,-1263.75 461.42,-1263.75 457.46,-1263.75 453.5,-1259.79 453.5,-1255.83 453.5,-1255.83 453.5,-1247.92 453.5,-1247.92 453.5,-1243.96 457.46,-1240 461.42,-1240 461.42,-1240 625.83,-1240 625.83,-1240 629.79,-1240 633.75,-1243.96 633.75,-1247.92 633.75,-1247.92 633.75,-1255.83 633.75,-1255.83 633.75,-1259.79 629.79,-1263.75 625.83,-1263.75"/>
<text xml:space="preserve" text-anchor="middle" x="543.62" y="-1246.45" font-family="Arial" font-size="14.00" fill="#c6c5fe">controllers/authController.ts</text>
</g>
<!-- controllers/authController.ts&#45;&gt;utils/logger.ts -->
<g id="edge9" class="edge">
<title>controllers/authController.ts&#45;&gt;utils/logger.ts</title>
<path fill="none" stroke="#757575" d="M634,-1258.27C707.22,-1261.8 813.3,-1263 904.75,-1248.88 1003.43,-1233.63 1030.86,-1228.84 1119.5,-1182.88 1272.29,-1103.64 1314.35,-1077.07 1425.75,-945.88 1490.22,-869.95 1537.57,-759.3 1556.13,-711.86"/>
<polygon fill="#757575" stroke="#757575" points="1559.36,-713.22 1559.68,-702.63 1552.82,-710.71 1559.36,-713.22"/>
</g>
<!-- middleware/authMiddleware.ts -->
<g id="node12" class="node">
<title>middleware/authMiddleware.ts</title>
<path fill="none" stroke="#c6c5fe" d="M894.96,-1073.75C894.96,-1073.75 711.04,-1073.75 711.04,-1073.75 707.08,-1073.75 703.12,-1069.79 703.12,-1065.83 703.12,-1065.83 703.12,-1057.92 703.12,-1057.92 703.12,-1053.96 707.08,-1050 711.04,-1050 711.04,-1050 894.96,-1050 894.96,-1050 898.92,-1050 902.88,-1053.96 902.88,-1057.92 902.88,-1057.92 902.88,-1065.83 902.88,-1065.83 902.88,-1069.79 898.92,-1073.75 894.96,-1073.75"/>
<text xml:space="preserve" text-anchor="middle" x="803" y="-1056.45" font-family="Arial" font-size="14.00" fill="#c6c5fe">middleware/authMiddleware.ts</text>
</g>
<!-- controllers/authController.ts&#45;&gt;middleware/authMiddleware.ts -->
<g id="edge6" class="edge">
<title>controllers/authController.ts&#45;&gt;middleware/authMiddleware.ts</title>
<path fill="none" stroke="#757575" d="M634.04,-1243.65C645.46,-1239.57 656.28,-1233.84 665.25,-1225.88 702.13,-1193.11 670.01,-1159.06 701.25,-1120.88 716.26,-1102.52 738.59,-1088.62 758.42,-1078.94"/>
<polygon fill="#757575" stroke="#757575" points="759.83,-1082.14 767.43,-1074.76 756.89,-1075.79 759.83,-1082.14"/>
</g>
<!-- middleware/errorHandler.ts -->
<g id="node13" class="node">
<title>middleware/errorHandler.ts</title>
<path fill="none" stroke="#c6c5fe" d="M1111.58,-1173.75C1111.58,-1173.75 948.67,-1173.75 948.67,-1173.75 944.71,-1173.75 940.75,-1169.79 940.75,-1165.83 940.75,-1165.83 940.75,-1157.92 940.75,-1157.92 940.75,-1153.96 944.71,-1150 948.67,-1150 948.67,-1150 1111.58,-1150 1111.58,-1150 1115.54,-1150 1119.5,-1153.96 1119.5,-1157.92 1119.5,-1157.92 1119.5,-1165.83 1119.5,-1165.83 1119.5,-1169.79 1115.54,-1173.75 1111.58,-1173.75"/>
<text xml:space="preserve" text-anchor="middle" x="1030.12" y="-1156.45" font-family="Arial" font-size="14.00" fill="#c6c5fe">middleware/errorHandler.ts</text>
</g>
<!-- controllers/authController.ts&#45;&gt;middleware/errorHandler.ts -->
<g id="edge7" class="edge">
<title>controllers/authController.ts&#45;&gt;middleware/errorHandler.ts</title>
<path fill="none" stroke="#757575" d="M634.18,-1252.48C707.97,-1250.96 814.73,-1244.06 904.75,-1219.88 938.57,-1210.79 974.56,-1193.01 999.08,-1179.52"/>
<polygon fill="#757575" stroke="#757575" points="1000.52,-1182.73 1007.52,-1174.78 997.09,-1176.63 1000.52,-1182.73"/>
</g>
<!-- services/authService.ts -->
<g id="node14" class="node">
<title>services/authService.ts</title>
<path fill="none" stroke="#c6c5fe" d="M872.46,-1153.75C872.46,-1153.75 733.54,-1153.75 733.54,-1153.75 729.58,-1153.75 725.62,-1149.79 725.62,-1145.83 725.62,-1145.83 725.62,-1137.92 725.62,-1137.92 725.62,-1133.96 729.58,-1130 733.54,-1130 733.54,-1130 872.46,-1130 872.46,-1130 876.42,-1130 880.38,-1133.96 880.38,-1137.92 880.38,-1137.92 880.38,-1145.83 880.38,-1145.83 880.38,-1149.79 876.42,-1153.75 872.46,-1153.75"/>
<text xml:space="preserve" text-anchor="middle" x="803" y="-1136.45" font-family="Arial" font-size="14.00" fill="#c6c5fe">services/authService.ts</text>
</g>
<!-- controllers/authController.ts&#45;&gt;services/authService.ts -->
<g id="edge8" class="edge">
<title>controllers/authController.ts&#45;&gt;services/authService.ts</title>
<path fill="none" stroke="#757575" d="M620.76,-1239.56C635.79,-1236 651.23,-1231.5 665.25,-1225.88 706.98,-1209.13 750.44,-1180.12 776.87,-1160.96"/>
<polygon fill="#757575" stroke="#757575" points="778.93,-1163.79 784.91,-1155.04 774.78,-1158.15 778.93,-1163.79"/>
</g>
<!-- middleware/authMiddleware.ts&#45;&gt;middleware/errorHandler.ts -->
<g id="edge29" class="edge">
<title>middleware/authMiddleware.ts&#45;&gt;middleware/errorHandler.ts</title>
<path fill="none" stroke="#757575" d="M831.6,-1074.14C871.61,-1091.91 945.83,-1124.87 991.02,-1144.95"/>
<polygon fill="#757575" stroke="#757575" points="989.35,-1148.04 999.91,-1148.9 992.19,-1141.64 989.35,-1148.04"/>
</g>
<!-- utils/jwt.ts -->
<g id="node23" class="node">
<title>utils/jwt.ts</title>
<path fill="none" stroke="#cfffac" d="M1059.46,-1073.75C1059.46,-1073.75 1000.79,-1073.75 1000.79,-1073.75 996.83,-1073.75 992.88,-1069.79 992.88,-1065.83 992.88,-1065.83 992.88,-1057.92 992.88,-1057.92 992.88,-1053.96 996.83,-1050 1000.79,-1050 1000.79,-1050 1059.46,-1050 1059.46,-1050 1063.42,-1050 1067.38,-1053.96 1067.38,-1057.92 1067.38,-1057.92 1067.38,-1065.83 1067.38,-1065.83 1067.38,-1069.79 1063.42,-1073.75 1059.46,-1073.75"/>
<text xml:space="preserve" text-anchor="middle" x="1030.12" y="-1056.45" font-family="Arial" font-size="14.00" fill="#cfffac">utils/jwt.ts</text>
</g>
<!-- middleware/authMiddleware.ts&#45;&gt;utils/jwt.ts -->
<g id="edge30" class="edge">
<title>middleware/authMiddleware.ts&#45;&gt;utils/jwt.ts</title>
<path fill="none" stroke="#757575" d="M903.07,-1061.88C930.19,-1061.88 958.38,-1061.88 981.2,-1061.88"/>
<polygon fill="#757575" stroke="#757575" points="981.1,-1065.38 991.1,-1061.88 981.1,-1058.38 981.1,-1065.38"/>
</g>
<!-- middleware/errorHandler.ts&#45;&gt;utils/logger.ts -->
<g id="edge31" class="edge">
<title>middleware/errorHandler.ts&#45;&gt;utils/logger.ts</title>
<path fill="none" stroke="#757575" d="M1044.85,-1149.71C1117.01,-1085.74 1452.55,-788.33 1542.51,-708.59"/>
<polygon fill="#757575" stroke="#757575" points="1544.82,-711.22 1549.98,-701.97 1540.18,-705.98 1544.82,-711.22"/>
</g>
<!-- services/authService.ts&#45;&gt;middleware/errorHandler.ts -->
<g id="edge86" class="edge">
<title>services/authService.ts&#45;&gt;middleware/errorHandler.ts</title>
<path fill="none" stroke="#757575" d="M880.85,-1148.7C896.47,-1150.09 913.13,-1151.57 929.41,-1153.02"/>
<polygon fill="#757575" stroke="#757575" points="928.84,-1156.48 939.11,-1153.88 929.46,-1149.51 928.84,-1156.48"/>
</g>
<!-- services/authService.ts&#45;&gt;lib/prisma.ts -->
<g id="edge85" class="edge">
<title>services/authService.ts&#45;&gt;lib/prisma.ts</title>
<path fill="none" stroke="#757575" d="M880.66,-1129.81C889.35,-1126.28 897.63,-1121.72 904.75,-1115.88 933.32,-1092.4 924.6,-1074.14 940.75,-1040.88 968.34,-984.04 1001.23,-917.32 1018.03,-883.3"/>
<polygon fill="#757575" stroke="#757575" points="1021.12,-884.95 1022.42,-874.44 1014.85,-881.85 1021.12,-884.95"/>
</g>
<!-- services/authService.ts&#45;&gt;utils/jwt.ts -->
<g id="edge87" class="edge">
<title>services/authService.ts&#45;&gt;utils/jwt.ts</title>
<path fill="none" stroke="#757575" d="M858.32,-1129.52C873.49,-1125.62 889.89,-1120.98 904.75,-1115.88 935.39,-1105.34 969.03,-1090.53 993.6,-1079.08"/>
<polygon fill="#757575" stroke="#757575" points="994.94,-1082.31 1002.49,-1074.89 991.96,-1075.98 994.94,-1082.31"/>
</g>
<!-- controllers/chatController.ts -->
<g id="node15" class="node">
<title>controllers/chatController.ts</title>
<path fill="none" stroke="#c6c5fe" d="M625.46,-579.75C625.46,-579.75 461.79,-579.75 461.79,-579.75 457.83,-579.75 453.88,-575.79 453.88,-571.83 453.88,-571.83 453.88,-563.92 453.88,-563.92 453.88,-559.96 457.83,-556 461.79,-556 461.79,-556 625.46,-556 625.46,-556 629.42,-556 633.38,-559.96 633.38,-563.92 633.38,-563.92 633.38,-571.83 633.38,-571.83 633.38,-575.79 629.42,-579.75 625.46,-579.75"/>
<text xml:space="preserve" text-anchor="middle" x="543.62" y="-562.45" font-family="Arial" font-size="14.00" fill="#c6c5fe">controllers/chatController.ts</text>
</g>
<!-- controllers/chatController.ts&#45;&gt;config/costMap.ts -->
<g id="edge10" class="edge">
<title>controllers/chatController.ts&#45;&gt;config/costMap.ts</title>
<path fill="none" stroke="#757575" d="M546.01,-555.73C552.59,-503.85 585.3,-298.7 701.25,-192.88 814.07,-89.91 876.38,-89.88 1029.12,-89.88 1029.12,-89.88 1029.12,-89.88 1291.62,-89.88 1459.89,-89.88 1502.36,-91.72 1669.75,-108.88 1690.59,-111.01 1713.12,-114.17 1733.7,-117.39"/>
<polygon fill="#757575" stroke="#757575" points="1732.99,-120.82 1743.42,-118.94 1734.1,-113.9 1732.99,-120.82"/>
</g>
<!-- controllers/chatController.ts&#45;&gt;utils/logger.ts -->
<g id="edge18" class="edge">
<title>controllers/chatController.ts&#45;&gt;utils/logger.ts</title>
<path fill="none" stroke="#757575" d="M592.27,-580.17C623.14,-587.65 664.32,-596.72 701.25,-601.88 1020.8,-646.45 1108.04,-591.66 1425.75,-647.88 1457.87,-653.56 1493.1,-664 1520.06,-672.92"/>
<polygon fill="#757575" stroke="#757575" points="1518.67,-676.15 1529.27,-676.02 1520.91,-669.51 1518.67,-676.15"/>
</g>
<!-- controllers/chatController.ts&#45;&gt;config/providerMap.ts -->
<g id="edge11" class="edge">
<title>controllers/chatController.ts&#45;&gt;config/providerMap.ts</title>
<path fill="none" stroke="#757575" d="M581.46,-555.56C612.89,-545.71 659.48,-532.62 701.25,-526.88 985.09,-487.83 1326.32,-498.72 1481.11,-506.75"/>
<polygon fill="#757575" stroke="#757575" points="1480.69,-510.23 1490.86,-507.27 1481.06,-503.24 1480.69,-510.23"/>
</g>
<!-- controllers/chatController.ts&#45;&gt;services/ai/index.ts -->
<g id="edge14" class="edge">
<title>controllers/chatController.ts&#45;&gt;services/ai/index.ts</title>
<path fill="none" stroke="#757575" d="M567.73,-555.53C597.85,-539.77 652.45,-512.34 701.25,-493.88 791.37,-459.78 899.28,-430.67 966.02,-413.97"/>
<polygon fill="#757575" stroke="#757575" points="966.85,-417.37 975.71,-411.56 965.16,-410.58 966.85,-417.37"/>
</g>
<!-- controllers/chatController.ts&#45;&gt;services/ai/types.ts -->
<g id="edge15" class="edge">
<title>controllers/chatController.ts&#45;&gt;services/ai/types.ts</title>
<path fill="none" stroke="#757575" d="M633.67,-568.54C655.75,-568.68 679.36,-568.81 701.25,-568.88 791.69,-569.16 814.33,-570.75 904.75,-568.88 1075.92,-565.32 1118.42,-552.88 1289.62,-552.88 1289.62,-552.88 1289.62,-552.88 1807,-552.88 1975.49,-552.88 2027.01,-516.23 2158.5,-410.88 2201.01,-376.82 2232.78,-319.95 2248.17,-288.51"/>
<polygon fill="#757575" stroke="#757575" points="2251.31,-290.07 2252.44,-279.53 2244.98,-287.06 2251.31,-290.07"/>
</g>
<!-- controllers/chatController.ts&#45;&gt;middleware/authMiddleware.ts -->
<g id="edge13" class="edge">
<title>controllers/chatController.ts&#45;&gt;middleware/authMiddleware.ts</title>
<path fill="none" stroke="#757575" d="M552.91,-579.91C574.97,-612.55 635.44,-706.11 665.25,-792.88 696.02,-882.43 647.36,-925.01 701.25,-1002.88 714.35,-1021.81 735.66,-1035.55 755.32,-1044.99"/>
<polygon fill="#757575" stroke="#757575" points="753.76,-1048.13 764.32,-1049.04 756.64,-1041.75 753.76,-1048.13"/>
</g>
<!-- controllers/chatController.ts&#45;&gt;lib/prisma.ts -->
<g id="edge12" class="edge">
<title>controllers/chatController.ts&#45;&gt;lib/prisma.ts</title>
<path fill="none" stroke="#757575" d="M550.84,-580.16C568.97,-614.67 625.29,-713.21 701.25,-762.88 779.67,-814.14 815.2,-790.33 904.75,-817.88 931.52,-826.11 961.17,-836.32 984.81,-844.72"/>
<polygon fill="#757575" stroke="#757575" points="983.53,-847.98 994.12,-848.05 985.88,-841.39 983.53,-847.98"/>
</g>
<!-- services/ai/utils/providerUtils.ts -->
<g id="node17" class="node">
<title>services/ai/utils/providerUtils.ts</title>
<path fill="none" stroke="#c6c5fe" d="M1898.33,-259.75C1898.33,-259.75 1713.67,-259.75 1713.67,-259.75 1709.71,-259.75 1705.75,-255.79 1705.75,-251.83 1705.75,-251.83 1705.75,-243.92 1705.75,-243.92 1705.75,-239.96 1709.71,-236 1713.67,-236 1713.67,-236 1898.33,-236 1898.33,-236 1902.29,-236 1906.25,-239.96 1906.25,-243.92 1906.25,-243.92 1906.25,-251.83 1906.25,-251.83 1906.25,-255.79 1902.29,-259.75 1898.33,-259.75"/>
<text xml:space="preserve" text-anchor="middle" x="1806" y="-242.45" font-family="Arial" font-size="14.00" fill="#c6c5fe">services/ai/utils/providerUtils.ts</text>
</g>
<!-- controllers/chatController.ts&#45;&gt;services/ai/utils/providerUtils.ts -->
<g id="edge16" class="edge">
<title>controllers/chatController.ts&#45;&gt;services/ai/utils/providerUtils.ts</title>
<path fill="none" stroke="#757575" d="M551.34,-555.53C588.85,-488.35 779.84,-169.88 1029.12,-169.88 1029.12,-169.88 1029.12,-169.88 1291.62,-169.88 1457.52,-169.88 1650.18,-210.18 1745.41,-232.84"/>
<polygon fill="#757575" stroke="#757575" points="1744.52,-236.23 1755.06,-235.16 1746.15,-229.42 1744.52,-236.23"/>
</g>
<!-- services/ragService.ts -->
<g id="node18" class="node">
<title>services/ragService.ts</title>
<path fill="none" stroke="#c6c5fe" d="M869.08,-559.75C869.08,-559.75 736.92,-559.75 736.92,-559.75 732.96,-559.75 729,-555.79 729,-551.83 729,-551.83 729,-543.92 729,-543.92 729,-539.96 732.96,-536 736.92,-536 736.92,-536 869.08,-536 869.08,-536 873.04,-536 877,-539.96 877,-543.92 877,-543.92 877,-551.83 877,-551.83 877,-555.79 873.04,-559.75 869.08,-559.75"/>
<text xml:space="preserve" text-anchor="middle" x="803" y="-542.45" font-family="Arial" font-size="14.00" fill="#c6c5fe">services/ragService.ts</text>
</g>
<!-- controllers/chatController.ts&#45;&gt;services/ragService.ts -->
<g id="edge17" class="edge">
<title>controllers/chatController.ts&#45;&gt;services/ragService.ts</title>
<path fill="none" stroke="#757575" d="M633.56,-560.96C660.77,-558.85 690.6,-556.53 717.51,-554.44"/>
<polygon fill="#757575" stroke="#757575" points="717.63,-557.94 727.33,-553.68 717.09,-550.96 717.63,-557.94"/>
</g>
<!-- services/ai/utils/providerUtils.ts&#45;&gt;services/ai/types.ts -->
<g id="edge83" class="edge">
<title>services/ai/utils/providerUtils.ts&#45;&gt;services/ai/types.ts</title>
<path fill="none" stroke="#757575" d="M1906.64,-251.85C1990.01,-255.17 2107.16,-259.84 2182.95,-262.86"/>
<polygon fill="#757575" stroke="#757575" points="2182.64,-266.35 2192.78,-263.25 2182.92,-259.36 2182.64,-266.35"/>
</g>
<!-- services/ai/utils/providerUtils.ts&#45;&gt;services/ai/config/providers.ts -->
<g id="edge82" class="edge">
<title>services/ai/utils/providerUtils.ts&#45;&gt;services/ai/config/providers.ts</title>
<path fill="none" stroke="#757575" d="M1885.69,-260.21C1909.2,-263.9 1935.15,-267.97 1959.33,-271.76"/>
<polygon fill="#757575" stroke="#757575" points="1958.75,-275.21 1969.17,-273.3 1959.83,-268.29 1958.75,-275.21"/>
</g>
<!-- services/ragService.ts&#45;&gt;services/ai/index.ts -->
<g id="edge93" class="edge">
<title>services/ragService.ts&#45;&gt;services/ai/index.ts</title>
<path fill="none" stroke="#757575" d="M822.42,-535.68C861.75,-509.65 954.14,-448.5 1000.93,-417.54"/>
<polygon fill="#757575" stroke="#757575" points="1002.78,-420.51 1009.19,-412.07 998.91,-414.67 1002.78,-420.51"/>
</g>
<!-- services/ragService.ts&#45;&gt;lib/prisma.ts -->
<g id="edge92" class="edge">
<title>services/ragService.ts&#45;&gt;lib/prisma.ts</title>
<path fill="none" stroke="#757575" d="M812.9,-560.23C830.46,-584.63 870.83,-640.71 904.75,-687.88 944.1,-742.58 990.42,-807.02 1013.87,-839.65"/>
<polygon fill="#757575" stroke="#757575" points="1010.82,-841.4 1019.5,-847.48 1016.5,-837.32 1010.82,-841.4"/>
</g>
<!-- controllers/chatHistoryController.ts -->
<g id="node19" class="node">
<title>controllers/chatHistoryController.ts</title>
<path fill="none" stroke="#c6c5fe" d="M646.46,-1023.75C646.46,-1023.75 440.79,-1023.75 440.79,-1023.75 436.83,-1023.75 432.88,-1019.79 432.88,-1015.83 432.88,-1015.83 432.88,-1007.92 432.88,-1007.92 432.88,-1003.96 436.83,-1000 440.79,-1000 440.79,-1000 646.46,-1000 646.46,-1000 650.42,-1000 654.38,-1003.96 654.38,-1007.92 654.38,-1007.92 654.38,-1015.83 654.38,-1015.83 654.38,-1019.79 650.42,-1023.75 646.46,-1023.75"/>
<text xml:space="preserve" text-anchor="middle" x="543.62" y="-1006.45" font-family="Arial" font-size="14.00" fill="#c6c5fe">controllers/chatHistoryController.ts</text>
</g>
<!-- controllers/chatHistoryController.ts&#45;&gt;middleware/authMiddleware.ts -->
<g id="edge20" class="edge">
<title>controllers/chatHistoryController.ts&#45;&gt;middleware/authMiddleware.ts</title>
<path fill="none" stroke="#757575" d="M608.25,-1024.23C644.42,-1031.26 689.9,-1040.1 727.71,-1047.44"/>
<polygon fill="#757575" stroke="#757575" points="726.7,-1050.81 737.18,-1049.28 728.03,-1043.94 726.7,-1050.81"/>
</g>
<!-- controllers/chatHistoryController.ts&#45;&gt;middleware/errorHandler.ts -->
<g id="edge21" class="edge">
<title>controllers/chatHistoryController.ts&#45;&gt;middleware/errorHandler.ts</title>
<path fill="none" stroke="#757575" d="M563.25,-1024.15C588.29,-1041.21 633.33,-1073.97 665.25,-1108.88 684.72,-1130.16 675.82,-1149.26 701.25,-1162.88 788.01,-1209.31 907.11,-1192.57 975.31,-1176.81"/>
<polygon fill="#757575" stroke="#757575" points="975.83,-1180.28 984.74,-1174.55 974.2,-1173.48 975.83,-1180.28"/>
</g>
<!-- controllers/chatHistoryController.ts&#45;&gt;lib/prisma.ts -->
<g id="edge19" class="edge">
<title>controllers/chatHistoryController.ts&#45;&gt;lib/prisma.ts</title>
<path fill="none" stroke="#757575" d="M578.17,-999.55C609.63,-988.32 658.16,-971.86 701.25,-960.88 790.4,-938.14 817.52,-952.13 904.75,-922.88 938.38,-911.6 974.4,-892.83 998.97,-878.89"/>
<polygon fill="#757575" stroke="#757575" points="1000.53,-882.03 1007.45,-874 997.04,-875.96 1000.53,-882.03"/>
</g>
<!-- controllers/userController.ts -->
<g id="node20" class="node">
<title>controllers/userController.ts</title>
<path fill="none" stroke="#c6c5fe" d="M625.83,-1141.75C625.83,-1141.75 461.42,-1141.75 461.42,-1141.75 457.46,-1141.75 453.5,-1137.79 453.5,-1133.83 453.5,-1133.83 453.5,-1125.92 453.5,-1125.92 453.5,-1121.96 457.46,-1118 461.42,-1118 461.42,-1118 625.83,-1118 625.83,-1118 629.79,-1118 633.75,-1121.96 633.75,-1125.92 633.75,-1125.92 633.75,-1133.83 633.75,-1133.83 633.75,-1137.79 629.79,-1141.75 625.83,-1141.75"/>
<text xml:space="preserve" text-anchor="middle" x="543.62" y="-1124.45" font-family="Arial" font-size="14.00" fill="#c6c5fe">controllers/userController.ts</text>
</g>
<!-- controllers/userController.ts&#45;&gt;middleware/authMiddleware.ts -->
<g id="edge23" class="edge">
<title>controllers/userController.ts&#45;&gt;middleware/authMiddleware.ts</title>
<path fill="none" stroke="#757575" d="M613.85,-1117.51C630.84,-1113.78 648.85,-1109.22 665.25,-1103.88 681.9,-1098.45 684.72,-1093.64 701.25,-1087.88 712.55,-1083.94 724.74,-1080.3 736.61,-1077.06"/>
<polygon fill="#757575" stroke="#757575" points="737.15,-1080.54 745.93,-1074.6 735.36,-1073.77 737.15,-1080.54"/>
</g>
<!-- controllers/userController.ts&#45;&gt;middleware/errorHandler.ts -->
<g id="edge24" class="edge">
<title>controllers/userController.ts&#45;&gt;middleware/errorHandler.ts</title>
<path fill="none" stroke="#757575" d="M634.22,-1137.91C645.11,-1141.04 655.74,-1145.25 665.25,-1150.88 687.29,-1163.92 678.17,-1184.78 701.25,-1195.88 782.77,-1235.05 815.11,-1207.91 904.75,-1195.88 931.16,-1192.33 959.89,-1184.73 983.09,-1177.62"/>
<polygon fill="#757575" stroke="#757575" points="984.06,-1180.98 992.55,-1174.64 981.96,-1174.3 984.06,-1180.98"/>
</g>
<!-- controllers/userController.ts&#45;&gt;lib/prisma.ts -->
<g id="edge22" class="edge">
<title>controllers/userController.ts&#45;&gt;lib/prisma.ts</title>
<path fill="none" stroke="#757575" d="M633.93,-1122.41C733.25,-1113.46 882.72,-1097.78 904.75,-1082.88 941.57,-1057.96 997.38,-934.99 1019.55,-883.55"/>
<polygon fill="#757575" stroke="#757575" points="1022.68,-885.15 1023.39,-874.58 1016.24,-882.4 1022.68,-885.15"/>
</g>
<!-- controllers/userSettingsController.ts -->
<g id="node21" class="node">
<title>controllers/userSettingsController.ts</title>
<path fill="none" stroke="#c6c5fe" d="M650.21,-825.75C650.21,-825.75 437.04,-825.75 437.04,-825.75 433.08,-825.75 429.12,-821.79 429.12,-817.83 429.12,-817.83 429.12,-809.92 429.12,-809.92 429.12,-805.96 433.08,-802 437.04,-802 437.04,-802 650.21,-802 650.21,-802 654.17,-802 658.12,-805.96 658.12,-809.92 658.12,-809.92 658.12,-817.83 658.12,-817.83 658.12,-821.79 654.17,-825.75 650.21,-825.75"/>
<text xml:space="preserve" text-anchor="middle" x="543.62" y="-808.45" font-family="Arial" font-size="14.00" fill="#c6c5fe">controllers/userSettingsController.ts</text>
</g>
<!-- controllers/userSettingsController.ts&#45;&gt;middleware/authMiddleware.ts -->
<g id="edge26" class="edge">
<title>controllers/userSettingsController.ts&#45;&gt;middleware/authMiddleware.ts</title>
<path fill="none" stroke="#757575" d="M646.87,-826.21C653.64,-829.85 659.88,-834.34 665.25,-839.88 726.91,-903.45 640.88,-971.07 701.25,-1035.88 703.98,-1038.81 706.99,-1041.42 710.22,-1043.76"/>
<polygon fill="#757575" stroke="#757575" points="708.17,-1046.61 718.53,-1048.84 711.82,-1040.64 708.17,-1046.61"/>
</g>
<!-- controllers/userSettingsController.ts&#45;&gt;middleware/errorHandler.ts -->
<g id="edge27" class="edge">
<title>controllers/userSettingsController.ts&#45;&gt;middleware/errorHandler.ts</title>
<path fill="none" stroke="#757575" d="M646.08,-826.13C653.12,-829.77 659.63,-834.28 665.25,-839.88 717.84,-892.2 647.94,-951.28 701.25,-1002.88 767.37,-1066.86 825.06,-994.89 904.75,-1040.88 926.04,-1053.16 923.55,-1065.31 940.75,-1082.88 961.69,-1104.26 987.36,-1126.84 1005.63,-1142.36"/>
<polygon fill="#757575" stroke="#757575" points="1003.13,-1144.84 1013.04,-1148.61 1007.65,-1139.48 1003.13,-1144.84"/>
</g>
<!-- controllers/userSettingsController.ts&#45;&gt;lib/prisma.ts -->
<g id="edge25" class="edge">
<title>controllers/userSettingsController.ts&#45;&gt;lib/prisma.ts</title>
<path fill="none" stroke="#757575" d="M658.46,-818.69C729.46,-822.46 822.64,-828.79 904.75,-838.88 927.53,-841.67 952.48,-845.86 974.02,-849.84"/>
<polygon fill="#757575" stroke="#757575" points="973.3,-853.26 983.77,-851.67 974.59,-846.38 973.3,-853.26"/>
</g>
<!-- services/encryptionService.ts -->
<g id="node22" class="node">
<title>services/encryptionService.ts</title>
<path fill="none" stroke="#cfffac" d="M890.46,-871.75C890.46,-871.75 715.54,-871.75 715.54,-871.75 711.58,-871.75 707.62,-867.79 707.62,-863.83 707.62,-863.83 707.62,-855.92 707.62,-855.92 707.62,-851.96 711.58,-848 715.54,-848 715.54,-848 890.46,-848 890.46,-848 894.42,-848 898.38,-851.96 898.38,-855.92 898.38,-855.92 898.38,-863.83 898.38,-863.83 898.38,-867.79 894.42,-871.75 890.46,-871.75"/>
<text xml:space="preserve" text-anchor="middle" x="803" y="-854.45" font-family="Arial" font-size="14.00" fill="#cfffac">services/encryptionService.ts</text>
</g>
<!-- controllers/userSettingsController.ts&#45;&gt;services/encryptionService.ts -->
<g id="edge28" class="edge">
<title>controllers/userSettingsController.ts&#45;&gt;services/encryptionService.ts</title>
<path fill="none" stroke="#757575" d="M613.6,-826.2C646.92,-832.16 687.1,-839.34 721.79,-845.54"/>
<polygon fill="#757575" stroke="#757575" points="720.89,-848.93 731.35,-847.25 722.12,-842.04 720.89,-848.93"/>
</g>
<!-- middleware/validateRequest.ts -->
<g id="node24" class="node">
<title>middleware/validateRequest.ts</title>
<path fill="none" stroke="#c6c5fe" d="M635.96,-1305.75C635.96,-1305.75 451.29,-1305.75 451.29,-1305.75 447.33,-1305.75 443.38,-1301.79 443.38,-1297.83 443.38,-1297.83 443.38,-1289.92 443.38,-1289.92 443.38,-1285.96 447.33,-1282 451.29,-1282 451.29,-1282 635.96,-1282 635.96,-1282 639.92,-1282 643.88,-1285.96 643.88,-1289.92 643.88,-1289.92 643.88,-1297.83 643.88,-1297.83 643.88,-1301.79 639.92,-1305.75 635.96,-1305.75"/>
<text xml:space="preserve" text-anchor="middle" x="543.62" y="-1288.45" font-family="Arial" font-size="14.00" fill="#c6c5fe">middleware/validateRequest.ts</text>
</g>
<!-- middleware/validateRequest.ts&#45;&gt;middleware/errorHandler.ts -->
<g id="edge32" class="edge">
<title>middleware/validateRequest.ts&#45;&gt;middleware/errorHandler.ts</title>
<path fill="none" stroke="#757575" d="M644.03,-1294.23C718.15,-1291.48 820.66,-1281.23 904.75,-1248.88 944.92,-1233.42 984.45,-1202.27 1007.82,-1181.75"/>
<polygon fill="#757575" stroke="#757575" points="1010,-1184.49 1015.1,-1175.21 1005.32,-1179.28 1010,-1184.49"/>
</g>
<!-- middleware/validators/authValidator.ts -->
<g id="node25" class="node">
<title>middleware/validators/authValidator.ts</title>
<path fill="none" stroke="#cfffac" d="M657.33,-1183.75C657.33,-1183.75 429.92,-1183.75 429.92,-1183.75 425.96,-1183.75 422,-1179.79 422,-1175.83 422,-1175.83 422,-1167.92 422,-1167.92 422,-1163.96 425.96,-1160 429.92,-1160 429.92,-1160 657.33,-1160 657.33,-1160 661.29,-1160 665.25,-1163.96 665.25,-1167.92 665.25,-1167.92 665.25,-1175.83 665.25,-1175.83 665.25,-1179.79 661.29,-1183.75 657.33,-1183.75"/>
<text xml:space="preserve" text-anchor="middle" x="543.62" y="-1166.45" font-family="Arial" font-size="14.00" fill="#cfffac">middleware/validators/authValidator.ts</text>
</g>
<!-- routes/aiRoutes.ts -->
<g id="node26" class="node">
<title>routes/aiRoutes.ts</title>
<path fill="none" stroke="#c6c5fe" d="M345.83,-556.75C345.83,-556.75 236.92,-556.75 236.92,-556.75 232.96,-556.75 229,-552.79 229,-548.83 229,-548.83 229,-540.92 229,-540.92 229,-536.96 232.96,-533 236.92,-533 236.92,-533 345.83,-533 345.83,-533 349.79,-533 353.75,-536.96 353.75,-540.92 353.75,-540.92 353.75,-548.83 353.75,-548.83 353.75,-552.79 349.79,-556.75 345.83,-556.75"/>
<text xml:space="preserve" text-anchor="middle" x="291.38" y="-539.45" font-family="Arial" font-size="14.00" fill="#c6c5fe">routes/aiRoutes.ts</text>
</g>
<!-- routes/aiRoutes.ts&#45;&gt;controllers/aiController.ts -->
<g id="edge33" class="edge">
<title>routes/aiRoutes.ts&#45;&gt;controllers/aiController.ts</title>
<path fill="none" stroke="#757575" d="M336.71,-532.52C429.73,-506.6 645.04,-446.61 746.81,-418.25"/>
<polygon fill="#757575" stroke="#757575" points="747.62,-421.66 756.31,-415.61 745.74,-414.92 747.62,-421.66"/>
</g>
<!-- routes/analyticsRoutes.ts -->
<g id="node27" class="node">
<title>routes/analyticsRoutes.ts</title>
<path fill="none" stroke="#c6c5fe" d="M366.83,-963.75C366.83,-963.75 215.92,-963.75 215.92,-963.75 211.96,-963.75 208,-959.79 208,-955.83 208,-955.83 208,-947.92 208,-947.92 208,-943.96 211.96,-940 215.92,-940 215.92,-940 366.83,-940 366.83,-940 370.79,-940 374.75,-943.96 374.75,-947.92 374.75,-947.92 374.75,-955.83 374.75,-955.83 374.75,-959.79 370.79,-963.75 366.83,-963.75"/>
<text xml:space="preserve" text-anchor="middle" x="291.38" y="-946.45" font-family="Arial" font-size="14.00" fill="#c6c5fe">routes/analyticsRoutes.ts</text>
</g>
<!-- routes/analyticsRoutes.ts&#45;&gt;controllers/analyticsController.ts -->
<g id="edge34" class="edge">
<title>routes/analyticsRoutes.ts&#45;&gt;controllers/analyticsController.ts</title>
<path fill="none" stroke="#757575" d="M375.01,-945.27C392.22,-943.9 410.65,-942.42 428.77,-940.97"/>
<polygon fill="#757575" stroke="#757575" points="428.79,-944.48 438.48,-940.2 428.23,-937.51 428.79,-944.48"/>
</g>
<!-- routes/analyticsRoutes.ts&#45;&gt;middleware/authMiddleware.ts -->
<g id="edge35" class="edge">
<title>routes/analyticsRoutes.ts&#45;&gt;middleware/authMiddleware.ts</title>
<path fill="none" stroke="#757575" d="M375.16,-953.18C469.51,-955.93 616.92,-964.46 665.25,-990.88 687.73,-1003.16 679.75,-1021.96 701.25,-1035.88 707.07,-1039.64 713.41,-1042.86 719.99,-1045.62"/>
<polygon fill="#757575" stroke="#757575" points="718.46,-1048.79 729.05,-1049.04 720.94,-1042.24 718.46,-1048.79"/>
</g>
<!-- routes/authRoutes.ts -->
<g id="node28" class="node">
<title>routes/authRoutes.ts</title>
<path fill="none" stroke="#c6c5fe" d="M353.71,-1223.75C353.71,-1223.75 229.04,-1223.75 229.04,-1223.75 225.08,-1223.75 221.12,-1219.79 221.12,-1215.83 221.12,-1215.83 221.12,-1207.92 221.12,-1207.92 221.12,-1203.96 225.08,-1200 229.04,-1200 229.04,-1200 353.71,-1200 353.71,-1200 357.67,-1200 361.62,-1203.96 361.62,-1207.92 361.62,-1207.92 361.62,-1215.83 361.62,-1215.83 361.62,-1219.79 357.67,-1223.75 353.71,-1223.75"/>
<text xml:space="preserve" text-anchor="middle" x="291.38" y="-1206.45" font-family="Arial" font-size="14.00" fill="#c6c5fe">routes/authRoutes.ts</text>
</g>
<!-- routes/authRoutes.ts&#45;&gt;controllers/authController.ts -->
<g id="edge36" class="edge">
<title>routes/authRoutes.ts&#45;&gt;controllers/authController.ts</title>
<path fill="none" stroke="#757575" d="M362.08,-1223.02C390.68,-1227.59 424.11,-1232.93 454.38,-1237.77"/>
<polygon fill="#757575" stroke="#757575" points="453.46,-1241.17 463.88,-1239.29 454.56,-1234.25 453.46,-1241.17"/>
</g>
<!-- routes/authRoutes.ts&#45;&gt;middleware/authMiddleware.ts -->
<g id="edge37" class="edge">
<title>routes/authRoutes.ts&#45;&gt;middleware/authMiddleware.ts</title>
<path fill="none" stroke="#757575" d="M362.08,-1216.47C456.01,-1221.31 617.03,-1224.4 665.25,-1192.88 695.2,-1173.3 676.8,-1147 701.25,-1120.88 718,-1102.98 741.4,-1088.83 761.44,-1078.87"/>
<polygon fill="#757575" stroke="#757575" points="762.67,-1082.16 770.19,-1074.7 759.66,-1075.84 762.67,-1082.16"/>
</g>
<!-- routes/authRoutes.ts&#45;&gt;middleware/validateRequest.ts -->
<g id="edge38" class="edge">
<title>routes/authRoutes.ts&#45;&gt;middleware/validateRequest.ts</title>
<path fill="none" stroke="#757575" d="M313.67,-1224.08C338.78,-1237.95 382.16,-1260.28 422,-1272.88 429.15,-1275.13 436.62,-1277.17 444.18,-1279"/>
<polygon fill="#757575" stroke="#757575" points="443.31,-1282.39 453.84,-1281.2 444.86,-1275.57 443.31,-1282.39"/>
</g>
<!-- routes/authRoutes.ts&#45;&gt;middleware/validators/authValidator.ts -->
<g id="edge39" class="edge">
<title>routes/authRoutes.ts&#45;&gt;middleware/validators/authValidator.ts</title>
<path fill="none" stroke="#757575" d="M362.08,-1200.73C390.68,-1196.16 424.11,-1190.82 454.38,-1185.98"/>
<polygon fill="#757575" stroke="#757575" points="454.56,-1189.5 463.88,-1184.46 453.46,-1182.58 454.56,-1189.5"/>
</g>
<!-- routes/chatHistoryRoutes.ts -->
<g id="node29" class="node">
<title>routes/chatHistoryRoutes.ts</title>
<path fill="none" stroke="#c6c5fe" d="M374.33,-1023.75C374.33,-1023.75 208.42,-1023.75 208.42,-1023.75 204.46,-1023.75 200.5,-1019.79 200.5,-1015.83 200.5,-1015.83 200.5,-1007.92 200.5,-1007.92 200.5,-1003.96 204.46,-1000 208.42,-1000 208.42,-1000 374.33,-1000 374.33,-1000 378.29,-1000 382.25,-1003.96 382.25,-1007.92 382.25,-1007.92 382.25,-1015.83 382.25,-1015.83 382.25,-1019.79 378.29,-1023.75 374.33,-1023.75"/>
<text xml:space="preserve" text-anchor="middle" x="291.38" y="-1006.45" font-family="Arial" font-size="14.00" fill="#c6c5fe">routes/chatHistoryRoutes.ts</text>
</g>
<!-- routes/chatHistoryRoutes.ts&#45;&gt;middleware/authMiddleware.ts -->
<g id="edge41" class="edge">
<title>routes/chatHistoryRoutes.ts&#45;&gt;middleware/authMiddleware.ts</title>
<path fill="none" stroke="#757575" d="M361.85,-1024.24C381.27,-1027.39 402.42,-1030.55 422,-1032.88 512.46,-1043.63 615.53,-1051.21 691.49,-1055.91"/>
<polygon fill="#757575" stroke="#757575" points="691.26,-1059.4 701.45,-1056.52 691.68,-1052.42 691.26,-1059.4"/>
</g>
<!-- routes/chatHistoryRoutes.ts&#45;&gt;controllers/chatHistoryController.ts -->
<g id="edge40" class="edge">
<title>routes/chatHistoryRoutes.ts&#45;&gt;controllers/chatHistoryController.ts</title>
<path fill="none" stroke="#757575" d="M382.72,-1011.88C395.28,-1011.88 408.35,-1011.88 421.36,-1011.88"/>
<polygon fill="#757575" stroke="#757575" points="421.26,-1015.38 431.26,-1011.88 421.26,-1008.38 421.26,-1015.38"/>
</g>
<!-- routes/chatRoutes.ts -->
<g id="node30" class="node">
<title>routes/chatRoutes.ts</title>
<path fill="none" stroke="#c6c5fe" d="M353.33,-635.75C353.33,-635.75 229.42,-635.75 229.42,-635.75 225.46,-635.75 221.5,-631.79 221.5,-627.83 221.5,-627.83 221.5,-619.92 221.5,-619.92 221.5,-615.96 225.46,-612 229.42,-612 229.42,-612 353.33,-612 353.33,-612 357.29,-612 361.25,-615.96 361.25,-619.92 361.25,-619.92 361.25,-627.83 361.25,-627.83 361.25,-631.79 357.29,-635.75 353.33,-635.75"/>
<text xml:space="preserve" text-anchor="middle" x="291.38" y="-618.45" font-family="Arial" font-size="14.00" fill="#c6c5fe">routes/chatRoutes.ts</text>
</g>
<!-- routes/chatRoutes.ts&#45;&gt;middleware/authMiddleware.ts -->
<g id="edge43" class="edge">
<title>routes/chatRoutes.ts&#45;&gt;middleware/authMiddleware.ts</title>
<path fill="none" stroke="#757575" d="M295.95,-636.15C307.39,-673.07 346.82,-783.73 422,-834.88 512.77,-896.63 585.74,-802.17 665.25,-877.88 717.41,-927.54 651.05,-984.23 701.25,-1035.88 704.19,-1038.9 707.44,-1041.59 710.91,-1043.99"/>
<polygon fill="#757575" stroke="#757575" points="708.85,-1046.84 719.25,-1048.88 712.39,-1040.8 708.85,-1046.84"/>
</g>
<!-- routes/chatRoutes.ts&#45;&gt;controllers/chatController.ts -->
<g id="edge42" class="edge">
<title>routes/chatRoutes.ts&#45;&gt;controllers/chatController.ts</title>
<path fill="none" stroke="#757575" d="M347.6,-611.52C385.63,-603.01 436.33,-591.66 476.5,-582.67"/>
<polygon fill="#757575" stroke="#757575" points="477.07,-586.13 486.06,-580.53 475.54,-579.3 477.07,-586.13"/>
</g>
<!-- routes/userRoutes.ts -->
<g id="node31" class="node">
<title>routes/userRoutes.ts</title>
<path fill="none" stroke="#c6c5fe" d="M353.71,-1101.75C353.71,-1101.75 229.04,-1101.75 229.04,-1101.75 225.08,-1101.75 221.12,-1097.79 221.12,-1093.83 221.12,-1093.83 221.12,-1085.92 221.12,-1085.92 221.12,-1081.96 225.08,-1078 229.04,-1078 229.04,-1078 353.71,-1078 353.71,-1078 357.67,-1078 361.62,-1081.96 361.62,-1085.92 361.62,-1085.92 361.62,-1093.83 361.62,-1093.83 361.62,-1097.79 357.67,-1101.75 353.71,-1101.75"/>
<text xml:space="preserve" text-anchor="middle" x="291.38" y="-1084.45" font-family="Arial" font-size="14.00" fill="#c6c5fe">routes/userRoutes.ts</text>
</g>
<!-- routes/userRoutes.ts&#45;&gt;middleware/authMiddleware.ts -->
<g id="edge45" class="edge">
<title>routes/userRoutes.ts&#45;&gt;middleware/authMiddleware.ts</title>
<path fill="none" stroke="#757575" d="M361.9,-1086.06C446.75,-1081.39 591.25,-1073.45 691.42,-1067.95"/>
<polygon fill="#757575" stroke="#757575" points="691.49,-1071.45 701.28,-1067.41 691.11,-1064.46 691.49,-1071.45"/>
</g>
<!-- routes/userRoutes.ts&#45;&gt;controllers/userController.ts -->
<g id="edge44" class="edge">
<title>routes/userRoutes.ts&#45;&gt;controllers/userController.ts</title>
<path fill="none" stroke="#757575" d="M362.08,-1101.02C390.68,-1105.59 424.11,-1110.93 454.38,-1115.77"/>
<polygon fill="#757575" stroke="#757575" points="453.46,-1119.17 463.88,-1117.29 454.56,-1112.25 453.46,-1119.17"/>
</g>
<!-- routes/userSettingsRoutes.ts -->
<g id="node32" class="node">
<title>routes/userSettingsRoutes.ts</title>
<path fill="none" stroke="#c6c5fe" d="M378.08,-903.75C378.08,-903.75 204.67,-903.75 204.67,-903.75 200.71,-903.75 196.75,-899.79 196.75,-895.83 196.75,-895.83 196.75,-887.92 196.75,-887.92 196.75,-883.96 200.71,-880 204.67,-880 204.67,-880 378.08,-880 378.08,-880 382.04,-880 386,-883.96 386,-887.92 386,-887.92 386,-895.83 386,-895.83 386,-899.79 382.04,-903.75 378.08,-903.75"/>
<text xml:space="preserve" text-anchor="middle" x="291.38" y="-886.45" font-family="Arial" font-size="14.00" fill="#c6c5fe">routes/userSettingsRoutes.ts</text>
</g>
<!-- routes/userSettingsRoutes.ts&#45;&gt;middleware/authMiddleware.ts -->
<g id="edge47" class="edge">
<title>routes/userSettingsRoutes.ts&#45;&gt;middleware/authMiddleware.ts</title>
<path fill="none" stroke="#757575" d="M386.1,-884.67C482.29,-879.33 623.61,-877.84 665.25,-910.88 710.54,-946.81 659.8,-995.57 701.25,-1035.88 704.35,-1038.89 707.74,-1041.56 711.36,-1043.94"/>
<polygon fill="#757575" stroke="#757575" points="709.62,-1046.97 720.05,-1048.81 713.04,-1040.87 709.62,-1046.97"/>
</g>
<!-- routes/userSettingsRoutes.ts&#45;&gt;controllers/userSettingsController.ts -->
<g id="edge46" class="edge">
<title>routes/userSettingsRoutes.ts&#45;&gt;controllers/userSettingsController.ts</title>
<path fill="none" stroke="#757575" d="M332.03,-879.52C375.41,-865.99 445.05,-844.29 492.26,-829.57"/>
<polygon fill="#757575" stroke="#757575" points="493.21,-832.94 501.71,-826.63 491.12,-826.26 493.21,-832.94"/>
</g>
<!-- server.ts -->
<g id="node33" class="node">
<title>server.ts</title>
<path fill="none" stroke="#c6c5fe" d="M105.96,-963.75C105.96,-963.75 54.79,-963.75 54.79,-963.75 50.83,-963.75 46.88,-959.79 46.88,-955.83 46.88,-955.83 46.88,-947.92 46.88,-947.92 46.88,-943.96 50.83,-940 54.79,-940 54.79,-940 105.96,-940 105.96,-940 109.92,-940 113.88,-943.96 113.88,-947.92 113.88,-947.92 113.88,-955.83 113.88,-955.83 113.88,-959.79 109.92,-963.75 105.96,-963.75"/>
<text xml:space="preserve" text-anchor="middle" x="80.38" y="-946.45" font-family="Arial" font-size="14.00" fill="#c6c5fe">server.ts</text>
</g>
<!-- server.ts&#45;&gt;config/env.ts -->
<g id="edge48" class="edge">
<title>server.ts&#45;&gt;config/env.ts</title>
<path fill="none" stroke="#757575" d="M114.09,-952.26C130.5,-954.25 149.27,-959.62 160.75,-972.88 252.11,-1078.41 105.7,-1179.07 196.75,-1284.88 395.13,-1515.39 820.8,-1455.11 973.32,-1424.44"/>
<polygon fill="#757575" stroke="#757575" points="973.68,-1427.94 982.77,-1422.5 972.27,-1421.09 973.68,-1427.94"/>
</g>
<!-- server.ts&#45;&gt;utils/logger.ts -->
<g id="edge58" class="edge">
<title>server.ts&#45;&gt;utils/logger.ts</title>
<path fill="none" stroke="#757575" d="M86,-939.82C98.64,-908.57 136.84,-824.41 196.75,-781.88 281.22,-721.9 319.95,-739.71 422,-721.88 544.71,-700.43 576.83,-703.86 701.25,-697.88 741.36,-695.95 1319.31,-690.94 1506.62,-689.36"/>
<polygon fill="#757575" stroke="#757575" points="1506.64,-692.86 1516.61,-689.28 1506.58,-685.86 1506.64,-692.86"/>
</g>
<!-- server.ts&#45;&gt;middleware/errorHandler.ts -->
<g id="edge50" class="edge">
<title>server.ts&#45;&gt;middleware/errorHandler.ts</title>
<path fill="none" stroke="#757575" d="M114.37,-952.41C130.65,-954.48 149.22,-959.86 160.75,-972.88 238.1,-1060.2 123.43,-1142.14 196.75,-1232.88 263.71,-1315.74 317.08,-1296.37 422,-1314.88 633.73,-1352.22 711.37,-1377.82 904.75,-1283.88 952.69,-1260.58 993.57,-1211.55 1014.39,-1183.25"/>
<polygon fill="#757575" stroke="#757575" points="1017.02,-1185.57 1020.01,-1175.41 1011.34,-1181.49 1017.02,-1185.57"/>
</g>
<!-- server.ts&#45;&gt;lib/prisma.ts -->
<g id="edge49" class="edge">
<title>server.ts&#45;&gt;lib/prisma.ts</title>
<path fill="none" stroke="#757575" d="M95.82,-939.71C116.88,-922.48 157.75,-890.82 196.75,-870.88 405.02,-764.36 469.19,-750.31 701.25,-720.88 790.98,-709.49 822.25,-683.81 904.75,-720.88 958.84,-745.17 998.99,-805.91 1017.6,-838.83"/>
<polygon fill="#757575" stroke="#757575" points="1014.48,-840.42 1022.35,-847.51 1020.62,-837.06 1014.48,-840.42"/>
</g>
<!-- server.ts&#45;&gt;routes/aiRoutes.ts -->
<g id="edge51" class="edge">
<title>server.ts&#45;&gt;routes/aiRoutes.ts</title>
<path fill="none" stroke="#757575" d="M82.42,-939.65C87.09,-891.63 109.82,-713.12 196.75,-602.88 210.57,-585.35 231.26,-571.74 249.67,-562.13"/>
<polygon fill="#757575" stroke="#757575" points="251.13,-565.31 258.54,-557.74 248.02,-559.04 251.13,-565.31"/>
</g>
<!-- server.ts&#45;&gt;routes/analyticsRoutes.ts -->
<g id="edge52" class="edge">
<title>server.ts&#45;&gt;routes/analyticsRoutes.ts</title>
<path fill="none" stroke="#757575" d="M114.03,-951.88C136.33,-951.88 167.08,-951.88 196.66,-951.88"/>
<polygon fill="#757575" stroke="#757575" points="196.41,-955.38 206.41,-951.88 196.41,-948.38 196.41,-955.38"/>
</g>
<!-- server.ts&#45;&gt;routes/authRoutes.ts -->
<g id="edge53" class="edge">
<title>server.ts&#45;&gt;routes/authRoutes.ts</title>
<path fill="none" stroke="#757575" d="M114.16,-953.04C130.18,-955.3 148.57,-960.66 160.75,-972.88 205.49,-1017.77 166.29,-1055.29 196.75,-1110.88 214.55,-1143.35 245.08,-1173.5 266.42,-1192.25"/>
<polygon fill="#757575" stroke="#757575" points="263.92,-1194.72 273.79,-1198.57 268.48,-1189.4 263.92,-1194.72"/>
</g>
<!-- server.ts&#45;&gt;routes/chatHistoryRoutes.ts -->
<g id="edge54" class="edge">
<title>server.ts&#45;&gt;routes/chatHistoryRoutes.ts</title>
<path fill="none" stroke="#757575" d="M114.27,-960.31C128.58,-964.05 145.52,-968.57 160.75,-972.88 186.91,-980.27 215.9,-988.94 239.81,-996.23"/>
<polygon fill="#757575" stroke="#757575" points="238.73,-999.56 249.32,-999.14 240.78,-992.87 238.73,-999.56"/>
</g>
<!-- server.ts&#45;&gt;routes/chatRoutes.ts -->
<g id="edge55" class="edge">
<title>server.ts&#45;&gt;routes/chatRoutes.ts</title>
<path fill="none" stroke="#757575" d="M82.24,-939.65C86.13,-894.06 106.05,-732.42 196.75,-649.88 201.01,-646 205.79,-642.7 210.89,-639.88"/>
<polygon fill="#757575" stroke="#757575" points="212.14,-643.16 219.66,-635.7 209.12,-636.85 212.14,-643.16"/>
</g>
<!-- server.ts&#45;&gt;routes/userRoutes.ts -->
<g id="edge56" class="edge">
<title>server.ts&#45;&gt;routes/userRoutes.ts</title>
<path fill="none" stroke="#757575" d="M114.37,-954.86C129.69,-957.61 147.42,-962.85 160.75,-972.88 185.61,-991.56 174.83,-1010.81 196.75,-1032.88 212.86,-1049.09 234.46,-1062.63 252.85,-1072.45"/>
<polygon fill="#757575" stroke="#757575" points="251.12,-1075.49 261.62,-1076.95 254.33,-1069.27 251.12,-1075.49"/>
</g>
<!-- server.ts&#45;&gt;routes/userSettingsRoutes.ts -->
<g id="edge57" class="edge">
<title>server.ts&#45;&gt;routes/userSettingsRoutes.ts</title>
<path fill="none" stroke="#757575" d="M114.03,-942.5C146.88,-933.07 198.08,-918.37 236.87,-907.24"/>
<polygon fill="#757575" stroke="#757575" points="237.35,-910.74 246,-904.62 235.42,-904.01 237.35,-910.74"/>
</g>
<!-- services/ai/client/azureEmbeddingClient.ts&#45;&gt;config/providerMap.ts -->
<g id="edge59" class="edge">
<title>services/ai/client/azureEmbeddingClient.ts&#45;&gt;config/providerMap.ts</title>
<path fill="none" stroke="#757575" d="M1382.95,-487.25C1414.72,-491.55 1450.17,-496.35 1481.26,-500.57"/>
<polygon fill="#757575" stroke="#757575" points="1480.63,-504.01 1491.01,-501.89 1481.57,-497.07 1480.63,-504.01"/>
</g>
<!-- services/ai/client/claudeClient.ts&#45;&gt;config/costMap.ts -->
<g id="edge60" class="edge">
<title>services/ai/client/claudeClient.ts&#45;&gt;config/costMap.ts</title>
<path fill="none" stroke="#757575" d="M1585.45,-273.63C1627.11,-246.35 1727.79,-180.43 1776.99,-148.21"/>
<polygon fill="#757575" stroke="#757575" points="1778.68,-151.29 1785.13,-142.89 1774.84,-145.44 1778.68,-151.29"/>
</g>
<!-- services/ai/client/claudeClient.ts&#45;&gt;services/ai/types.ts -->
<g id="edge61" class="edge">
<title>services/ai/client/claudeClient.ts&#45;&gt;services/ai/types.ts</title>
<path fill="none" stroke="#757575" d="M1634.55,-298.24C1745.36,-316.23 1971.66,-343.69 2158.5,-306.88 2181.85,-302.27 2206.6,-292.17 2225.64,-283.15"/>
<polygon fill="#757575" stroke="#757575" points="2227.06,-286.35 2234.5,-278.81 2223.98,-280.06 2227.06,-286.35"/>
</g>
<!-- services/ai/client/claudeClient.ts&#45;&gt;services/ai/utils/providerUtils.ts -->
<g id="edge62" class="edge">
<title>services/ai/client/claudeClient.ts&#45;&gt;services/ai/utils/providerUtils.ts</title>
<path fill="none" stroke="#757575" d="M1644.1,-273.54C1667.21,-269.85 1692.72,-265.78 1716.48,-261.99"/>
<polygon fill="#757575" stroke="#757575" points="1716.81,-265.49 1726.13,-260.45 1715.71,-258.57 1716.81,-265.49"/>
</g>
<!-- services/ai/client/openaiClient.ts&#45;&gt;config/costMap.ts -->
<g id="edge63" class="edge">
<title>services/ai/client/openaiClient.ts&#45;&gt;config/costMap.ts</title>
<path fill="none" stroke="#757575" d="M1670.21,-129.88C1691.52,-129.88 1713.51,-129.88 1733.39,-129.88"/>
<polygon fill="#757575" stroke="#757575" points="1733.32,-133.38 1743.32,-129.88 1733.32,-126.38 1733.32,-133.38"/>
</g>
<!-- services/ai/client/openaiClient.ts&#45;&gt;services/ai/types.ts -->
<g id="edge64" class="edge">
<title>services/ai/client/openaiClient.ts&#45;&gt;services/ai/types.ts</title>
<path fill="none" stroke="#757575" d="M1643.48,-142.24C1663.7,-145.29 1685.52,-148.39 1705.75,-150.88 1906.37,-175.54 1969.28,-122.79 2158.5,-193.88 2189.13,-205.38 2218.86,-228.85 2237.83,-245.87"/>
<polygon fill="#757575" stroke="#757575" points="2235.4,-248.39 2245.12,-252.6 2240.15,-243.24 2235.4,-248.39"/>
</g>
<!-- services/ai/client/openaiClient.ts&#45;&gt;services/ai/utils/providerUtils.ts -->
<g id="edge65" class="edge">
<title>services/ai/client/openaiClient.ts&#45;&gt;services/ai/utils/providerUtils.ts</title>
<path fill="none" stroke="#757575" d="M1632.76,-142.21C1645.38,-145.77 1658.23,-150.25 1669.75,-155.88 1687.97,-164.77 1689.22,-172.15 1705.75,-183.88 1728.54,-200.04 1755.18,-217.12 1775.12,-229.57"/>
<polygon fill="#757575" stroke="#757575" points="1773.26,-232.53 1783.6,-234.83 1776.95,-226.59 1773.26,-232.53"/>
</g>
<!-- services/ai/config/providers.ts&#45;&gt;services/ai/types.ts -->
<g id="edge66" class="edge">
<title>services/ai/config/providers.ts&#45;&gt;services/ai/types.ts</title>
<path fill="none" stroke="#757575" d="M2147.36,-276.61C2159.26,-275.46 2171.3,-274.29 2182.84,-273.18"/>
<polygon fill="#757575" stroke="#757575" points="2183.07,-276.68 2192.69,-272.23 2182.39,-269.71 2183.07,-276.68"/>
</g>
<!-- services/ai/handlers/chatHandler.ts&#45;&gt;utils/logger.ts -->
<g id="edge70" class="edge">
<title>services/ai/handlers/chatHandler.ts&#45;&gt;utils/logger.ts</title>
<path fill="none" stroke="#757575" d="M1315.61,-369.14C1344.94,-385.17 1394.53,-415.74 1425.75,-453.88 1450.2,-483.73 1443.06,-499.12 1461.75,-532.88 1489.45,-582.91 1527.82,-637.98 1549.05,-667.45"/>
<polygon fill="#757575" stroke="#757575" points="1546.2,-669.48 1554.9,-675.52 1551.87,-665.37 1546.2,-669.48"/>
</g>
<!-- services/ai/handlers/chatHandler.ts&#45;&gt;services/ai/types.ts -->
<g id="edge68" class="edge">
<title>services/ai/handlers/chatHandler.ts&#45;&gt;services/ai/types.ts</title>
<path fill="none" stroke="#757575" d="M1379.96,-369.25C1539.62,-388.34 1885.03,-414.54 2158.5,-329.88 2187.81,-320.8 2216.84,-300.64 2236.01,-285.36"/>
<polygon fill="#757575" stroke="#757575" points="2238.17,-288.12 2243.67,-279.06 2233.72,-282.71 2238.17,-288.12"/>
</g>
<!-- services/ai/handlers/chatHandler.ts&#45;&gt;services/ai/utils/providerUtils.ts -->
<g id="edge69" class="edge">
<title>services/ai/handlers/chatHandler.ts&#45;&gt;services/ai/utils/providerUtils.ts</title>
<path fill="none" stroke="#757575" d="M1403.71,-350.31C1479.83,-343.85 1582.19,-331.24 1669.75,-306.88 1706.14,-296.75 1745.47,-278.72 1772.29,-265.25"/>
<polygon fill="#757575" stroke="#757575" points="1773.61,-268.5 1780.92,-260.84 1770.42,-262.27 1773.61,-268.5"/>
</g>
<!-- services/ai/handlers/chatHandler.ts&#45;&gt;services/ai/client/claudeClient.ts -->
<g id="edge67" class="edge">
<title>services/ai/handlers/chatHandler.ts&#45;&gt;services/ai/client/claudeClient.ts</title>
<path fill="none" stroke="#757575" d="M1339.78,-344.5C1365.35,-337.89 1397.28,-329.54 1425.75,-321.88 1441.78,-317.56 1445.7,-316.13 1461.75,-311.88 1475.39,-308.26 1490.09,-304.48 1503.98,-300.96"/>
<polygon fill="#757575" stroke="#757575" points="1504.61,-304.41 1513.45,-298.57 1502.9,-297.62 1504.61,-304.41"/>
</g>
<!-- services/ai/handlers/providerHandler.ts&#45;&gt;services/ai/types.ts -->
<g id="edge72" class="edge">
<title>services/ai/handlers/providerHandler.ts&#45;&gt;services/ai/types.ts</title>
<path fill="none" stroke="#757575" d="M1415.23,-241.21C1497.51,-235.89 1608.04,-229.59 1705.75,-226.88 1907.15,-221.29 1958.59,-224.8 2158.5,-249.88 2166.42,-250.87 2174.67,-252.01 2182.89,-253.22"/>
<polygon fill="#757575" stroke="#757575" points="2182.13,-256.65 2192.54,-254.68 2183.18,-249.73 2182.13,-256.65"/>
</g>
<!-- services/ai/handlers/providerHandler.ts&#45;&gt;services/ai/utils/providerUtils.ts -->
<g id="edge73" class="edge">
<title>services/ai/handlers/providerHandler.ts&#45;&gt;services/ai/utils/providerUtils.ts</title>
<path fill="none" stroke="#757575" d="M1415.24,-249.39C1500.25,-249.06 1612.18,-248.63 1694.27,-248.31"/>
<polygon fill="#757575" stroke="#757575" points="1694.15,-251.81 1704.14,-248.27 1694.12,-244.81 1694.15,-251.81"/>
</g>
<!-- services/ai/handlers/providerHandler.ts&#45;&gt;services/ai/client/claudeClient.ts -->
<g id="edge71" class="edge">
<title>services/ai/handlers/providerHandler.ts&#45;&gt;services/ai/client/claudeClient.ts</title>
<path fill="none" stroke="#757575" d="M1385.24,-262.21C1409.34,-265.39 1435.43,-268.83 1460.06,-272.08"/>
<polygon fill="#757575" stroke="#757575" points="1459.39,-275.52 1469.76,-273.35 1460.3,-268.58 1459.39,-275.52"/>
</g>
<!-- services/ai/utils/errorMessages.ts -->
<g id="node40" class="node">
<title>services/ai/utils/errorMessages.ts</title>
<path fill="none" stroke="#c6c5fe" d="M2150.58,-23.75C2150.58,-23.75 1950.17,-23.75 1950.17,-23.75 1946.21,-23.75 1942.25,-19.79 1942.25,-15.83 1942.25,-15.83 1942.25,-7.92 1942.25,-7.92 1942.25,-3.96 1946.21,0 1950.17,0 1950.17,0 2150.58,0 2150.58,0 2154.54,0 2158.5,-3.96 2158.5,-7.92 2158.5,-7.92 2158.5,-15.83 2158.5,-15.83 2158.5,-19.79 2154.54,-23.75 2150.58,-23.75"/>
<text xml:space="preserve" text-anchor="middle" x="2050.38" y="-6.45" font-family="Arial" font-size="14.00" fill="#c6c5fe">services/ai/utils/errorMessages.ts</text>
</g>
<!-- services/ai/utils/errorMessages.ts&#45;&gt;services/ai/types.ts -->
<g id="edge81" class="edge">
<title>services/ai/utils/errorMessages.ts&#45;&gt;services/ai/types.ts</title>
<path fill="none" stroke="#757575" d="M2135.75,-24.24C2143.97,-27.76 2151.75,-32.22 2158.5,-37.88 2223.12,-92.06 2247.33,-196.09 2255.19,-242.51"/>
<polygon fill="#757575" stroke="#757575" points="2251.71,-242.92 2256.72,-252.25 2258.62,-241.83 2251.71,-242.92"/>
</g>
<!-- services/chatService.ts -->
<g id="node41" class="node">
<title>services/chatService.ts</title>
<path fill="none" stroke="#c6c5fe" d="M872.08,-993.75C872.08,-993.75 733.92,-993.75 733.92,-993.75 729.96,-993.75 726,-989.79 726,-985.83 726,-985.83 726,-977.92 726,-977.92 726,-973.96 729.96,-970 733.92,-970 733.92,-970 872.08,-970 872.08,-970 876.04,-970 880,-973.96 880,-977.92 880,-977.92 880,-985.83 880,-985.83 880,-989.79 876.04,-993.75 872.08,-993.75"/>
<text xml:space="preserve" text-anchor="middle" x="803" y="-976.45" font-family="Arial" font-size="14.00" fill="#c6c5fe">services/chatService.ts</text>
</g>
<!-- services/chatService.ts&#45;&gt;middleware/errorHandler.ts -->
<g id="edge89" class="edge">
<title>services/chatService.ts&#45;&gt;middleware/errorHandler.ts</title>
<path fill="none" stroke="#757575" d="M880.4,-993.83C889.19,-997.39 897.56,-1001.97 904.75,-1007.88 933.32,-1031.35 918.54,-1053.32 940.75,-1082.88 958.31,-1106.24 983.58,-1127.99 1002.61,-1142.73"/>
<polygon fill="#757575" stroke="#757575" points="1000.35,-1145.42 1010.44,-1148.66 1004.58,-1139.83 1000.35,-1145.42"/>
</g>
<!-- services/chatService.ts&#45;&gt;lib/prisma.ts -->
<g id="edge88" class="edge">
<title>services/chatService.ts&#45;&gt;lib/prisma.ts</title>
<path fill="none" stroke="#757575" d="M867.73,-969.55C880.33,-965.98 893.21,-961.48 904.75,-955.88 945.09,-936.27 985.13,-902.44 1008.47,-880.89"/>
<polygon fill="#757575" stroke="#757575" points="1010.86,-883.45 1015.75,-874.05 1006.06,-878.35 1010.86,-883.45"/>
</g>
<!-- services/chatService.ts&#45;&gt;utils/jwt.ts -->
<g id="edge90" class="edge">
<title>services/chatService.ts&#45;&gt;utils/jwt.ts</title>
<path fill="none" stroke="#757575" d="M858.32,-994.23C873.49,-998.13 889.89,-1002.77 904.75,-1007.88 935.39,-1018.41 969.03,-1033.22 993.6,-1044.67"/>
<polygon fill="#757575" stroke="#757575" points="991.96,-1047.77 1002.49,-1048.86 994.94,-1041.44 991.96,-1047.77"/>
</g>
<!-- services/contextService.ts -->
<g id="node42" class="node">
<title>services/contextService.ts</title>
<path fill="none" stroke="#c6c5fe" d="M1368.71,-680.75C1368.71,-680.75 1212.54,-680.75 1212.54,-680.75 1208.58,-680.75 1204.62,-676.79 1204.62,-672.83 1204.62,-672.83 1204.62,-664.92 1204.62,-664.92 1204.62,-660.96 1208.58,-657 1212.54,-657 1212.54,-657 1368.71,-657 1368.71,-657 1372.67,-657 1376.62,-660.96 1376.62,-664.92 1376.62,-664.92 1376.62,-672.83 1376.62,-672.83 1376.62,-676.79 1372.67,-680.75 1368.71,-680.75"/>
<text xml:space="preserve" text-anchor="middle" x="1290.62" y="-663.45" font-family="Arial" font-size="14.00" fill="#c6c5fe">services/contextService.ts</text>
</g>
<!-- services/contextService.ts&#45;&gt;utils/logger.ts -->
<g id="edge91" class="edge">
<title>services/contextService.ts&#45;&gt;utils/logger.ts</title>
<path fill="none" stroke="#757575" d="M1376.92,-675.12C1419.19,-678.22 1469.13,-681.87 1506.88,-684.64"/>
<polygon fill="#757575" stroke="#757575" points="1506.45,-688.11 1516.68,-685.35 1506.96,-681.13 1506.45,-688.11"/>
</g>
<!-- services/userSettingsService.ts -->
<g id="node43" class="node">
<title>services/userSettingsService.ts</title>
<path fill="none" stroke="#c6c5fe" d="M896.83,-753.75C896.83,-753.75 709.17,-753.75 709.17,-753.75 705.21,-753.75 701.25,-749.79 701.25,-745.83 701.25,-745.83 701.25,-737.92 701.25,-737.92 701.25,-733.96 705.21,-730 709.17,-730 709.17,-730 896.83,-730 896.83,-730 900.79,-730 904.75,-733.96 904.75,-737.92 904.75,-737.92 904.75,-745.83 904.75,-745.83 904.75,-749.79 900.79,-753.75 896.83,-753.75"/>
<text xml:space="preserve" text-anchor="middle" x="803" y="-736.45" font-family="Arial" font-size="14.00" fill="#c6c5fe">services/userSettingsService.ts</text>
</g>
<!-- services/userSettingsService.ts&#45;&gt;lib/prisma.ts -->
<g id="edge94" class="edge">
<title>services/userSettingsService.ts&#45;&gt;lib/prisma.ts</title>
<path fill="none" stroke="#757575" d="M867.42,-754.22C880.11,-757.79 893.1,-762.29 904.75,-767.88 944.67,-787.02 984.55,-819.87 1008.01,-840.96"/>
<polygon fill="#757575" stroke="#757575" points="1005.6,-843.49 1015.34,-847.66 1010.32,-838.33 1005.6,-843.49"/>
</g>
<!-- types/express/index.d.ts -->
<g id="node44" class="node">
<title>types/express/index.d.ts</title>
<path fill="none" stroke="#cfffac" d="M152.83,-1047.75C152.83,-1047.75 7.92,-1047.75 7.92,-1047.75 3.96,-1047.75 0,-1043.79 0,-1039.83 0,-1039.83 0,-1031.92 0,-1031.92 0,-1027.96 3.96,-1024 7.92,-1024 7.92,-1024 152.83,-1024 152.83,-1024 156.79,-1024 160.75,-1027.96 160.75,-1031.92 160.75,-1031.92 160.75,-1039.83 160.75,-1039.83 160.75,-1043.79 156.79,-1047.75 152.83,-1047.75"/>
<text xml:space="preserve" text-anchor="middle" x="80.38" y="-1030.45" font-family="Arial" font-size="14.00" fill="#cfffac">types/express/index.d.ts</text>
</g>
<!-- types/index.ts -->
<g id="node45" class="node">
<title>types/index.ts</title>
<path fill="none" stroke="#cfffac" d="M121.71,-1089.75C121.71,-1089.75 39.04,-1089.75 39.04,-1089.75 35.08,-1089.75 31.12,-1085.79 31.12,-1081.83 31.12,-1081.83 31.12,-1073.92 31.12,-1073.92 31.12,-1069.96 35.08,-1066 39.04,-1066 39.04,-1066 121.71,-1066 121.71,-1066 125.67,-1066 129.62,-1069.96 129.62,-1073.92 129.62,-1073.92 129.62,-1081.83 129.62,-1081.83 129.62,-1085.79 125.67,-1089.75 121.71,-1089.75"/>
<text xml:space="preserve" text-anchor="middle" x="80.38" y="-1072.45" font-family="Arial" font-size="14.00" fill="#cfffac">types/index.ts</text>
</g>
</g>
</svg>
