<?xml version="1.0" encoding="UTF-8" standalone="no"?>
<!DOCTYPE svg PUBLIC "-//W3C//DTD SVG 1.1//EN"
 "http://www.w3.org/Graphics/SVG/1.1/DTD/svg11.dtd">
<!-- Generated by graphviz version 13.1.2 (20250808.2320)
 -->
<!-- Title: G Pages: 1 -->
<svg width="2196pt" height="1320pt"
 viewBox="0.00 0.00 2196.00 1320.00" xmlns="http://www.w3.org/2000/svg" xmlns:xlink="http://www.w3.org/1999/xlink">
<g id="graph0" class="graph" transform="scale(1 1) rotate(0) translate(21.6 1298.33)">
<title>G</title>
<polygon fill="#111111" stroke="none" points="-21.6,21.6 -21.6,-1298.33 2174.85,-1298.33 2174.85,21.6 -21.6,21.6"/>
<!-- config/costMap.ts -->
<g id="node1" class="node">
<title>config/costMap.ts</title>
<path fill="none" stroke="#cfffac" d="M1687.71,-183.75C1687.71,-183.75 1581.79,-183.75 1581.79,-183.75 1577.83,-183.75 1573.88,-179.79 1573.88,-175.83 1573.88,-175.83 1573.88,-167.92 1573.88,-167.92 1573.88,-163.96 1577.83,-160 1581.79,-160 1581.79,-160 1687.71,-160 1687.71,-160 1691.67,-160 1695.62,-163.96 1695.62,-167.92 1695.62,-167.92 1695.62,-175.83 1695.62,-175.83 1695.62,-179.79 1691.67,-183.75 1687.71,-183.75"/>
<text xml:space="preserve" text-anchor="middle" x="1634.75" y="-166.45" font-family="Arial" font-size="14.00" fill="#cfffac">config/costMap.ts</text>
</g>
<!-- config/database.ts -->
<g id="node2" class="node">
<title>config/database.ts</title>
<path fill="none" stroke="#cfffac" d="M135.21,-1099.75C135.21,-1099.75 25.54,-1099.75 25.54,-1099.75 21.58,-1099.75 17.62,-1095.79 17.62,-1091.83 17.62,-1091.83 17.62,-1083.92 17.62,-1083.92 17.62,-1079.96 21.58,-1076 25.54,-1076 25.54,-1076 135.21,-1076 135.21,-1076 139.17,-1076 143.12,-1079.96 143.12,-1083.92 143.12,-1083.92 143.12,-1091.83 143.12,-1091.83 143.12,-1095.79 139.17,-1099.75 135.21,-1099.75"/>
<text xml:space="preserve" text-anchor="middle" x="80.38" y="-1082.45" font-family="Arial" font-size="14.00" fill="#cfffac">config/database.ts</text>
</g>
<!-- config/env.ts -->
<g id="node3" class="node">
<title>config/env.ts</title>
<path fill="none" stroke="#c6c5fe" d="M328.96,-1175.75C328.96,-1175.75 253.79,-1175.75 253.79,-1175.75 249.83,-1175.75 245.88,-1171.79 245.88,-1167.83 245.88,-1167.83 245.88,-1159.92 245.88,-1159.92 245.88,-1155.96 249.83,-1152 253.79,-1152 253.79,-1152 328.96,-1152 328.96,-1152 332.92,-1152 336.88,-1155.96 336.88,-1159.92 336.88,-1159.92 336.88,-1167.83 336.88,-1167.83 336.88,-1171.79 332.92,-1175.75 328.96,-1175.75"/>
<text xml:space="preserve" text-anchor="middle" x="291.38" y="-1158.45" font-family="Arial" font-size="14.00" fill="#c6c5fe">config/env.ts</text>
</g>
<!-- utils/logger.ts -->
<g id="node4" class="node">
<title>utils/logger.ts</title>
<path fill="none" stroke="#cfffac" d="M1402.83,-847.75C1402.83,-847.75 1323.92,-847.75 1323.92,-847.75 1319.96,-847.75 1316,-843.79 1316,-839.83 1316,-839.83 1316,-831.92 1316,-831.92 1316,-827.96 1319.96,-824 1323.92,-824 1323.92,-824 1402.83,-824 1402.83,-824 1406.79,-824 1410.75,-827.96 1410.75,-831.92 1410.75,-831.92 1410.75,-839.83 1410.75,-839.83 1410.75,-843.79 1406.79,-847.75 1402.83,-847.75"/>
<text xml:space="preserve" text-anchor="middle" x="1363.38" y="-830.45" font-family="Arial" font-size="14.00" fill="#cfffac">utils/logger.ts</text>
</g>
<!-- config/env.ts&#45;&gt;utils/logger.ts -->
<g id="edge1" class="edge">
<title>config/env.ts&#45;&gt;utils/logger.ts</title>
<path fill="none" stroke="#757575" d="M337.05,-1167.09C439.39,-1173.35 698.14,-1182.92 907.75,-1137.88 1040.93,-1109.26 1080.46,-1101.71 1192.25,-1023.88 1260.9,-976.08 1321.37,-895.66 1347.98,-857.38"/>
<polygon fill="#757575" stroke="#757575" points="1350.66,-859.65 1353.43,-849.43 1344.89,-855.7 1350.66,-859.65"/>
</g>
<!-- config/providerMap.ts -->
<g id="node5" class="node">
<title>config/providerMap.ts</title>
<path fill="none" stroke="#cfffac" d="M1699.71,-301.75C1699.71,-301.75 1569.79,-301.75 1569.79,-301.75 1565.83,-301.75 1561.88,-297.79 1561.88,-293.83 1561.88,-293.83 1561.88,-285.92 1561.88,-285.92 1561.88,-281.96 1565.83,-278 1569.79,-278 1569.79,-278 1699.71,-278 1699.71,-278 1703.67,-278 1707.62,-281.96 1707.62,-285.92 1707.62,-285.92 1707.62,-293.83 1707.62,-293.83 1707.62,-297.79 1703.67,-301.75 1699.71,-301.75"/>
<text xml:space="preserve" text-anchor="middle" x="1634.75" y="-284.45" font-family="Arial" font-size="14.00" fill="#cfffac">config/providerMap.ts</text>
</g>
<!-- controllers/aiController.ts -->
<g id="node6" class="node">
<title>controllers/aiController.ts</title>
<path fill="none" stroke="#c6c5fe" d="M1142.33,-1213.75C1142.33,-1213.75 993.67,-1213.75 993.67,-1213.75 989.71,-1213.75 985.75,-1209.79 985.75,-1205.83 985.75,-1205.83 985.75,-1197.92 985.75,-1197.92 985.75,-1193.96 989.71,-1190 993.67,-1190 993.67,-1190 1142.33,-1190 1142.33,-1190 1146.29,-1190 1150.25,-1193.96 1150.25,-1197.92 1150.25,-1197.92 1150.25,-1205.83 1150.25,-1205.83 1150.25,-1209.79 1146.29,-1213.75 1142.33,-1213.75"/>
<text xml:space="preserve" text-anchor="middle" x="1068" y="-1196.45" font-family="Arial" font-size="14.00" fill="#c6c5fe">controllers/aiController.ts</text>
</g>
<!-- controllers/aiController.ts&#45;&gt;utils/logger.ts -->
<g id="edge3" class="edge">
<title>controllers/aiController.ts&#45;&gt;utils/logger.ts</title>
<path fill="none" stroke="#757575" d="M1150.45,-1195.46C1165.43,-1191.41 1180.13,-1185.23 1192.25,-1175.88 1220.21,-1154.29 1320.35,-931.1 1352.42,-858.53"/>
<polygon fill="#757575" stroke="#757575" points="1355.52,-860.18 1356.35,-849.62 1349.11,-857.36 1355.52,-860.18"/>
</g>
<!-- lib/prisma.ts -->
<g id="node7" class="node">
<title>lib/prisma.ts</title>
<path fill="none" stroke="#cfffac" d="M1671.21,-671.75C1671.21,-671.75 1598.29,-671.75 1598.29,-671.75 1594.33,-671.75 1590.38,-667.79 1590.38,-663.83 1590.38,-663.83 1590.38,-655.92 1590.38,-655.92 1590.38,-651.96 1594.33,-648 1598.29,-648 1598.29,-648 1671.21,-648 1671.21,-648 1675.17,-648 1679.12,-651.96 1679.12,-655.92 1679.12,-655.92 1679.12,-663.83 1679.12,-663.83 1679.12,-667.79 1675.17,-671.75 1671.21,-671.75"/>
<text xml:space="preserve" text-anchor="middle" x="1634.75" y="-654.45" font-family="Arial" font-size="14.00" fill="#cfffac">lib/prisma.ts</text>
</g>
<!-- controllers/aiController.ts&#45;&gt;lib/prisma.ts -->
<g id="edge2" class="edge">
<title>controllers/aiController.ts&#45;&gt;lib/prisma.ts</title>
<path fill="none" stroke="#757575" d="M1150.44,-1197.51C1246.77,-1187.95 1405.74,-1157.64 1498.5,-1061.88 1606.07,-950.82 1628.17,-751.51 1632.64,-683.42"/>
<polygon fill="#757575" stroke="#757575" points="1636.13,-683.65 1633.21,-673.46 1629.14,-683.24 1636.13,-683.65"/>
</g>
<!-- controllers/analyticsController.ts -->
<g id="node8" class="node">
<title>controllers/analyticsController.ts</title>
<path fill="none" stroke="#c6c5fe" d="M899.83,-585.75C899.83,-585.75 709.17,-585.75 709.17,-585.75 705.21,-585.75 701.25,-581.79 701.25,-577.83 701.25,-577.83 701.25,-569.92 701.25,-569.92 701.25,-565.96 705.21,-562 709.17,-562 709.17,-562 899.83,-562 899.83,-562 903.79,-562 907.75,-565.96 907.75,-569.92 907.75,-569.92 907.75,-577.83 907.75,-577.83 907.75,-581.79 903.79,-585.75 899.83,-585.75"/>
<text xml:space="preserve" text-anchor="middle" x="804.5" y="-568.45" font-family="Arial" font-size="14.00" fill="#c6c5fe">controllers/analyticsController.ts</text>
</g>
<!-- services/analyticsService.ts -->
<g id="node9" class="node">
<title>services/analyticsService.ts</title>
<path fill="none" stroke="#c6c5fe" d="M1445.96,-575.75C1445.96,-575.75 1280.79,-575.75 1280.79,-575.75 1276.83,-575.75 1272.88,-571.79 1272.88,-567.83 1272.88,-567.83 1272.88,-559.92 1272.88,-559.92 1272.88,-555.96 1276.83,-552 1280.79,-552 1280.79,-552 1445.96,-552 1445.96,-552 1449.92,-552 1453.88,-555.96 1453.88,-559.92 1453.88,-559.92 1453.88,-567.83 1453.88,-567.83 1453.88,-571.79 1449.92,-575.75 1445.96,-575.75"/>
<text xml:space="preserve" text-anchor="middle" x="1363.38" y="-558.45" font-family="Arial" font-size="14.00" fill="#c6c5fe">services/analyticsService.ts</text>
</g>
<!-- controllers/analyticsController.ts&#45;&gt;services/analyticsService.ts -->
<g id="edge4" class="edge">
<title>controllers/analyticsController.ts&#45;&gt;services/analyticsService.ts</title>
<path fill="none" stroke="#757575" d="M907.96,-572.04C1008.54,-570.23 1161.01,-567.49 1261.16,-565.69"/>
<polygon fill="#757575" stroke="#757575" points="1261.05,-569.2 1270.98,-565.52 1260.92,-562.2 1261.05,-569.2"/>
</g>
<!-- services/analyticsService.ts&#45;&gt;lib/prisma.ts -->
<g id="edge82" class="edge">
<title>services/analyticsService.ts&#45;&gt;lib/prisma.ts</title>
<path fill="none" stroke="#757575" d="M1448,-576.25C1464.95,-579.82 1482.48,-584.31 1498.5,-589.88 1536.86,-603.21 1577.88,-625.74 1604.56,-641.64"/>
<polygon fill="#757575" stroke="#757575" points="1602.72,-644.62 1613.09,-646.8 1606.34,-638.63 1602.72,-644.62"/>
</g>
<!-- controllers/authController.ts -->
<g id="node10" class="node">
<title>controllers/authController.ts</title>
<path fill="none" stroke="#c6c5fe" d="M625.83,-703.75C625.83,-703.75 461.42,-703.75 461.42,-703.75 457.46,-703.75 453.5,-699.79 453.5,-695.83 453.5,-695.83 453.5,-687.92 453.5,-687.92 453.5,-683.96 457.46,-680 461.42,-680 461.42,-680 625.83,-680 625.83,-680 629.79,-680 633.75,-683.96 633.75,-687.92 633.75,-687.92 633.75,-695.83 633.75,-695.83 633.75,-699.79 629.79,-703.75 625.83,-703.75"/>
<text xml:space="preserve" text-anchor="middle" x="543.62" y="-686.45" font-family="Arial" font-size="14.00" fill="#c6c5fe">controllers/authController.ts</text>
</g>
<!-- controllers/authController.ts&#45;&gt;utils/logger.ts -->
<g id="edge8" class="edge">
<title>controllers/authController.ts&#45;&gt;utils/logger.ts</title>
<path fill="none" stroke="#757575" d="M621.3,-679.52C646.67,-675.99 675.11,-672.62 701.25,-670.88 921.93,-656.15 985.89,-672.31 1192.25,-751.88 1242.25,-771.15 1297.4,-799.85 1330.96,-818.21"/>
<polygon fill="#757575" stroke="#757575" points="1328.89,-821.06 1339.33,-822.82 1332.27,-814.93 1328.89,-821.06"/>
</g>
<!-- middleware/authMiddleware.ts -->
<g id="node11" class="node">
<title>middleware/authMiddleware.ts</title>
<path fill="none" stroke="#c6c5fe" d="M896.46,-821.75C896.46,-821.75 712.54,-821.75 712.54,-821.75 708.58,-821.75 704.62,-817.79 704.62,-813.83 704.62,-813.83 704.62,-805.92 704.62,-805.92 704.62,-801.96 708.58,-798 712.54,-798 712.54,-798 896.46,-798 896.46,-798 900.42,-798 904.38,-801.96 904.38,-805.92 904.38,-805.92 904.38,-813.83 904.38,-813.83 904.38,-817.79 900.42,-821.75 896.46,-821.75"/>
<text xml:space="preserve" text-anchor="middle" x="804.5" y="-804.45" font-family="Arial" font-size="14.00" fill="#c6c5fe">middleware/authMiddleware.ts</text>
</g>
<!-- controllers/authController.ts&#45;&gt;middleware/authMiddleware.ts -->
<g id="edge5" class="edge">
<title>controllers/authController.ts&#45;&gt;middleware/authMiddleware.ts</title>
<path fill="none" stroke="#757575" d="M634.11,-701.96C645.26,-705.79 655.98,-710.95 665.25,-717.88 692.01,-737.88 674.86,-763.38 701.25,-783.88 705.75,-787.37 710.66,-790.39 715.82,-793.02"/>
<polygon fill="#757575" stroke="#757575" points="714.06,-796.07 724.62,-796.96 716.93,-789.68 714.06,-796.07"/>
</g>
<!-- middleware/errorHandler.ts -->
<g id="node12" class="node">
<title>middleware/errorHandler.ts</title>
<path fill="none" stroke="#c6c5fe" d="M1149.46,-847.75C1149.46,-847.75 986.54,-847.75 986.54,-847.75 982.58,-847.75 978.62,-843.79 978.62,-839.83 978.62,-839.83 978.62,-831.92 978.62,-831.92 978.62,-827.96 982.58,-824 986.54,-824 986.54,-824 1149.46,-824 1149.46,-824 1153.42,-824 1157.38,-827.96 1157.38,-831.92 1157.38,-831.92 1157.38,-839.83 1157.38,-839.83 1157.38,-843.79 1153.42,-847.75 1149.46,-847.75"/>
<text xml:space="preserve" text-anchor="middle" x="1068" y="-830.45" font-family="Arial" font-size="14.00" fill="#c6c5fe">middleware/errorHandler.ts</text>
</g>
<!-- controllers/authController.ts&#45;&gt;middleware/errorHandler.ts -->
<g id="edge6" class="edge">
<title>controllers/authController.ts&#45;&gt;middleware/errorHandler.ts</title>
<path fill="none" stroke="#757575" d="M576.35,-704.14C607.73,-715.96 657.3,-733.77 701.25,-745.88 791.63,-770.76 816.83,-766.03 907.75,-788.88 945.01,-798.24 986.64,-810.59 1017.99,-820.28"/>
<polygon fill="#757575" stroke="#757575" points="1016.59,-823.51 1027.18,-823.14 1018.67,-816.83 1016.59,-823.51"/>
</g>
<!-- services/authService.ts -->
<g id="node13" class="node">
<title>services/authService.ts</title>
<path fill="none" stroke="#c6c5fe" d="M873.96,-703.75C873.96,-703.75 735.04,-703.75 735.04,-703.75 731.08,-703.75 727.12,-699.79 727.12,-695.83 727.12,-695.83 727.12,-687.92 727.12,-687.92 727.12,-683.96 731.08,-680 735.04,-680 735.04,-680 873.96,-680 873.96,-680 877.92,-680 881.88,-683.96 881.88,-687.92 881.88,-687.92 881.88,-695.83 881.88,-695.83 881.88,-699.79 877.92,-703.75 873.96,-703.75"/>
<text xml:space="preserve" text-anchor="middle" x="804.5" y="-686.45" font-family="Arial" font-size="14.00" fill="#c6c5fe">services/authService.ts</text>
</g>
<!-- controllers/authController.ts&#45;&gt;services/authService.ts -->
<g id="edge7" class="edge">
<title>controllers/authController.ts&#45;&gt;services/authService.ts</title>
<path fill="none" stroke="#757575" d="M634.08,-691.88C660.43,-691.88 689.23,-691.88 715.5,-691.88"/>
<polygon fill="#757575" stroke="#757575" points="715.46,-695.38 725.46,-691.88 715.46,-688.38 715.46,-695.38"/>
</g>
<!-- middleware/authMiddleware.ts&#45;&gt;middleware/errorHandler.ts -->
<g id="edge25" class="edge">
<title>middleware/authMiddleware.ts&#45;&gt;middleware/errorHandler.ts</title>
<path fill="none" stroke="#757575" d="M904.73,-819.74C925.09,-821.77 946.54,-823.9 966.92,-825.92"/>
<polygon fill="#757575" stroke="#757575" points="966.33,-829.38 976.62,-826.89 967.02,-822.42 966.33,-829.38"/>
</g>
<!-- utils/jwt.ts -->
<g id="node22" class="node">
<title>utils/jwt.ts</title>
<path fill="none" stroke="#cfffac" d="M1097.33,-784.75C1097.33,-784.75 1038.67,-784.75 1038.67,-784.75 1034.71,-784.75 1030.75,-780.79 1030.75,-776.83 1030.75,-776.83 1030.75,-768.92 1030.75,-768.92 1030.75,-764.96 1034.71,-761 1038.67,-761 1038.67,-761 1097.33,-761 1097.33,-761 1101.29,-761 1105.25,-764.96 1105.25,-768.92 1105.25,-768.92 1105.25,-776.83 1105.25,-776.83 1105.25,-780.79 1101.29,-784.75 1097.33,-784.75"/>
<text xml:space="preserve" text-anchor="middle" x="1068" y="-767.45" font-family="Arial" font-size="14.00" fill="#cfffac">utils/jwt.ts</text>
</g>
<!-- middleware/authMiddleware.ts&#45;&gt;utils/jwt.ts -->
<g id="edge26" class="edge">
<title>middleware/authMiddleware.ts&#45;&gt;utils/jwt.ts</title>
<path fill="none" stroke="#757575" d="M892.94,-797.5C934.96,-791.56 983.71,-784.66 1018.91,-779.68"/>
<polygon fill="#757575" stroke="#757575" points="1019.39,-783.15 1028.8,-778.28 1018.41,-776.22 1019.39,-783.15"/>
</g>
<!-- middleware/errorHandler.ts&#45;&gt;utils/logger.ts -->
<g id="edge27" class="edge">
<title>middleware/errorHandler.ts&#45;&gt;utils/logger.ts</title>
<path fill="none" stroke="#757575" d="M1157.82,-835.88C1205.3,-835.88 1262.41,-835.88 1304.21,-835.88"/>
<polygon fill="#757575" stroke="#757575" points="1304.06,-839.38 1314.06,-835.88 1304.06,-832.38 1304.06,-839.38"/>
</g>
<!-- services/authService.ts&#45;&gt;lib/prisma.ts -->
<g id="edge83" class="edge">
<title>services/authService.ts&#45;&gt;lib/prisma.ts</title>
<path fill="none" stroke="#757575" d="M882.31,-688.91C1048.05,-682.5 1435.87,-667.52 1579.23,-661.98"/>
<polygon fill="#757575" stroke="#757575" points="1578.96,-665.49 1588.81,-661.61 1578.69,-658.5 1578.96,-665.49"/>
</g>
<!-- services/authService.ts&#45;&gt;middleware/errorHandler.ts -->
<g id="edge84" class="edge">
<title>services/authService.ts&#45;&gt;middleware/errorHandler.ts</title>
<path fill="none" stroke="#757575" d="M882.28,-703.35C891.48,-706.98 900.25,-711.71 907.75,-717.88 936.61,-741.63 915.86,-768.99 943.75,-793.88 956.69,-805.42 972.94,-813.81 989.35,-819.91"/>
<polygon fill="#757575" stroke="#757575" points="988.1,-823.18 998.7,-823.11 990.37,-816.56 988.1,-823.18"/>
</g>
<!-- services/authService.ts&#45;&gt;utils/jwt.ts -->
<g id="edge85" class="edge">
<title>services/authService.ts&#45;&gt;utils/jwt.ts</title>
<path fill="none" stroke="#757575" d="M858.05,-704.19C874.1,-708.23 891.73,-712.96 907.75,-717.88 924.01,-722.87 927.7,-725.24 943.75,-730.88 968.68,-739.62 996.54,-749.14 1019.45,-756.9"/>
<polygon fill="#757575" stroke="#757575" points="1018.24,-760.18 1028.83,-760.07 1020.48,-753.55 1018.24,-760.18"/>
</g>
<!-- controllers/chatController.ts -->
<g id="node14" class="node">
<title>controllers/chatController.ts</title>
<path fill="none" stroke="#c6c5fe" d="M625.46,-507.75C625.46,-507.75 461.79,-507.75 461.79,-507.75 457.83,-507.75 453.88,-503.79 453.88,-499.83 453.88,-499.83 453.88,-491.92 453.88,-491.92 453.88,-487.96 457.83,-484 461.79,-484 461.79,-484 625.46,-484 625.46,-484 629.42,-484 633.38,-487.96 633.38,-491.92 633.38,-491.92 633.38,-499.83 633.38,-499.83 633.38,-503.79 629.42,-507.75 625.46,-507.75"/>
<text xml:space="preserve" text-anchor="middle" x="543.62" y="-490.45" font-family="Arial" font-size="14.00" fill="#c6c5fe">controllers/chatController.ts</text>
</g>
<!-- controllers/chatController.ts&#45;&gt;utils/logger.ts -->
<g id="edge14" class="edge">
<title>controllers/chatController.ts&#45;&gt;utils/logger.ts</title>
<path fill="none" stroke="#757575" d="M633.73,-502.34C765.64,-515.59 1016.23,-555.14 1192.25,-670.88 1256.36,-713.03 1317.33,-781.31 1345.73,-815.3"/>
<polygon fill="#757575" stroke="#757575" points="1342.82,-817.27 1351.89,-822.76 1348.22,-812.82 1342.82,-817.27"/>
</g>
<!-- controllers/chatController.ts&#45;&gt;lib/prisma.ts -->
<g id="edge9" class="edge">
<title>controllers/chatController.ts&#45;&gt;lib/prisma.ts</title>
<path fill="none" stroke="#757575" d="M633.71,-492.87C839.73,-487.1 1343.36,-480.1 1498.5,-542.88 1549.22,-563.4 1594.2,-611.11 1617.31,-638.85"/>
<polygon fill="#757575" stroke="#757575" points="1614.57,-641.02 1623.59,-646.58 1620,-636.61 1614.57,-641.02"/>
</g>
<!-- controllers/chatController.ts&#45;&gt;middleware/authMiddleware.ts -->
<g id="edge10" class="edge">
<title>controllers/chatController.ts&#45;&gt;middleware/authMiddleware.ts</title>
<path fill="none" stroke="#757575" d="M569.24,-508.13C596.68,-523.03 640.46,-550.75 665.25,-586.88 698.2,-634.9 671.06,-663.07 701.25,-712.88 720.65,-744.87 753.36,-773.26 776.56,-790.93"/>
<polygon fill="#757575" stroke="#757575" points="774.21,-793.54 784.33,-796.7 778.39,-787.93 774.21,-793.54"/>
</g>
<!-- services/ai/index.ts -->
<g id="node15" class="node">
<title>services/ai/index.ts</title>
<path fill="none" stroke="#c6c5fe" d="M1125.08,-389.75C1125.08,-389.75 1010.92,-389.75 1010.92,-389.75 1006.96,-389.75 1003,-385.79 1003,-381.83 1003,-381.83 1003,-373.92 1003,-373.92 1003,-369.96 1006.96,-366 1010.92,-366 1010.92,-366 1125.08,-366 1125.08,-366 1129.04,-366 1133,-369.96 1133,-373.92 1133,-373.92 1133,-381.83 1133,-381.83 1133,-385.79 1129.04,-389.75 1125.08,-389.75"/>
<text xml:space="preserve" text-anchor="middle" x="1068" y="-372.45" font-family="Arial" font-size="14.00" fill="#c6c5fe">services/ai/index.ts</text>
</g>
<!-- controllers/chatController.ts&#45;&gt;services/ai/index.ts -->
<g id="edge11" class="edge">
<title>controllers/chatController.ts&#45;&gt;services/ai/index.ts</title>
<path fill="none" stroke="#757575" d="M558.46,-483.57C584.33,-461.44 642.7,-415.49 701.25,-396.88 797.94,-366.14 916.18,-366.34 991.55,-370.85"/>
<polygon fill="#757575" stroke="#757575" points="991.1,-374.32 1001.3,-371.47 991.55,-367.34 991.1,-374.32"/>
</g>
<!-- services/ai/types.ts -->
<g id="node16" class="node">
<title>services/ai/types.ts</title>
<path fill="none" stroke="#cfffac" d="M2145.33,-223.75C2145.33,-223.75 2031.17,-223.75 2031.17,-223.75 2027.21,-223.75 2023.25,-219.79 2023.25,-215.83 2023.25,-215.83 2023.25,-207.92 2023.25,-207.92 2023.25,-203.96 2027.21,-200 2031.17,-200 2031.17,-200 2145.33,-200 2145.33,-200 2149.29,-200 2153.25,-203.96 2153.25,-207.92 2153.25,-207.92 2153.25,-215.83 2153.25,-215.83 2153.25,-219.79 2149.29,-223.75 2145.33,-223.75"/>
<text xml:space="preserve" text-anchor="middle" x="2088.25" y="-206.45" font-family="Arial" font-size="14.00" fill="#cfffac">services/ai/types.ts</text>
</g>
<!-- controllers/chatController.ts&#45;&gt;services/ai/types.ts -->
<g id="edge12" class="edge">
<title>controllers/chatController.ts&#45;&gt;services/ai/types.ts</title>
<path fill="none" stroke="#757575" d="M633.64,-489.26C655.73,-487.72 679.34,-486.16 701.25,-484.88 844.05,-476.53 1868.33,-504.37 1987.25,-424.88 2053.22,-380.78 2076.65,-280.98 2084.12,-235.39"/>
<polygon fill="#757575" stroke="#757575" points="2087.57,-235.96 2085.6,-225.55 2080.65,-234.92 2087.57,-235.96"/>
</g>
<!-- services/ragService.ts -->
<g id="node17" class="node">
<title>services/ragService.ts</title>
<path fill="none" stroke="#c6c5fe" d="M870.58,-429.75C870.58,-429.75 738.42,-429.75 738.42,-429.75 734.46,-429.75 730.5,-425.79 730.5,-421.83 730.5,-421.83 730.5,-413.92 730.5,-413.92 730.5,-409.96 734.46,-406 738.42,-406 738.42,-406 870.58,-406 870.58,-406 874.54,-406 878.5,-409.96 878.5,-413.92 878.5,-413.92 878.5,-421.83 878.5,-421.83 878.5,-425.79 874.54,-429.75 870.58,-429.75"/>
<text xml:space="preserve" text-anchor="middle" x="804.5" y="-412.45" font-family="Arial" font-size="14.00" fill="#c6c5fe">services/ragService.ts</text>
</g>
<!-- controllers/chatController.ts&#45;&gt;services/ragService.ts -->
<g id="edge13" class="edge">
<title>controllers/chatController.ts&#45;&gt;services/ragService.ts</title>
<path fill="none" stroke="#757575" d="M579.24,-483.59C610.83,-472.57 658.9,-456.27 701.25,-443.88 714.09,-440.12 727.93,-436.39 741.15,-432.97"/>
<polygon fill="#757575" stroke="#757575" points="741.78,-436.42 750.61,-430.56 740.05,-429.64 741.78,-436.42"/>
</g>
<!-- services/ai/index.ts&#45;&gt;services/ai/types.ts -->
<g id="edge72" class="edge">
<title>services/ai/index.ts&#45;&gt;services/ai/types.ts</title>
<path fill="none" stroke="#757575" d="M1133.45,-372.77C1277.24,-361.16 1620.53,-332.14 1735,-310.88 1846.67,-290.14 1974.18,-250.07 2040.93,-227.8"/>
<polygon fill="#757575" stroke="#757575" points="2041.7,-231.23 2050.07,-224.73 2039.47,-224.59 2041.7,-231.23"/>
</g>
<!-- services/ai/client/azureEmbeddingClient.ts -->
<g id="node33" class="node">
<title>services/ai/client/azureEmbeddingClient.ts</title>
<path fill="none" stroke="#c6c5fe" d="M1490.58,-301.75C1490.58,-301.75 1236.17,-301.75 1236.17,-301.75 1232.21,-301.75 1228.25,-297.79 1228.25,-293.83 1228.25,-293.83 1228.25,-285.92 1228.25,-285.92 1228.25,-281.96 1232.21,-278 1236.17,-278 1236.17,-278 1490.58,-278 1490.58,-278 1494.54,-278 1498.5,-281.96 1498.5,-285.92 1498.5,-285.92 1498.5,-293.83 1498.5,-293.83 1498.5,-297.79 1494.54,-301.75 1490.58,-301.75"/>
<text xml:space="preserve" text-anchor="middle" x="1363.38" y="-284.45" font-family="Arial" font-size="14.00" fill="#c6c5fe">services/ai/client/azureEmbeddingClient.ts</text>
</g>
<!-- services/ai/index.ts&#45;&gt;services/ai/client/azureEmbeddingClient.ts -->
<g id="edge70" class="edge">
<title>services/ai/index.ts&#45;&gt;services/ai/client/azureEmbeddingClient.ts</title>
<path fill="none" stroke="#757575" d="M1096.1,-365.59C1127.38,-351.83 1180.65,-329.63 1228.25,-315.88 1243.1,-311.58 1259.09,-307.79 1274.66,-304.52"/>
<polygon fill="#757575" stroke="#757575" points="1275.33,-307.96 1284.43,-302.54 1273.93,-301.1 1275.33,-307.96"/>
</g>
<!-- services/ai/providers/factory.ts -->
<g id="node40" class="node">
<title>services/ai/providers/factory.ts</title>
<path fill="none" stroke="#c6c5fe" d="M1453.83,-400.75C1453.83,-400.75 1272.92,-400.75 1272.92,-400.75 1268.96,-400.75 1265,-396.79 1265,-392.83 1265,-392.83 1265,-384.92 1265,-384.92 1265,-380.96 1268.96,-377 1272.92,-377 1272.92,-377 1453.83,-377 1453.83,-377 1457.79,-377 1461.75,-380.96 1461.75,-384.92 1461.75,-384.92 1461.75,-392.83 1461.75,-392.83 1461.75,-396.79 1457.79,-400.75 1453.83,-400.75"/>
<text xml:space="preserve" text-anchor="middle" x="1363.38" y="-383.45" font-family="Arial" font-size="14.00" fill="#c6c5fe">services/ai/providers/factory.ts</text>
</g>
<!-- services/ai/index.ts&#45;&gt;services/ai/providers/factory.ts -->
<g id="edge71" class="edge">
<title>services/ai/index.ts&#45;&gt;services/ai/providers/factory.ts</title>
<path fill="none" stroke="#757575" d="M1133.38,-380.29C1168.53,-381.61 1213.01,-383.27 1253.4,-384.79"/>
<polygon fill="#757575" stroke="#757575" points="1253.03,-388.28 1263.15,-385.15 1253.29,-381.28 1253.03,-388.28"/>
</g>
<!-- services/ragService.ts&#45;&gt;lib/prisma.ts -->
<g id="edge86" class="edge">
<title>services/ragService.ts&#45;&gt;lib/prisma.ts</title>
<path fill="none" stroke="#757575" d="M878.98,-411.66C1011.18,-403.82 1294.31,-402.39 1498.5,-509.88 1555.58,-539.92 1600.47,-604.25 1621.21,-638.07"/>
<polygon fill="#757575" stroke="#757575" points="1617.95,-639.43 1626.08,-646.21 1623.95,-635.83 1617.95,-639.43"/>
</g>
<!-- services/ragService.ts&#45;&gt;services/ai/index.ts -->
<g id="edge87" class="edge">
<title>services/ragService.ts&#45;&gt;services/ai/index.ts</title>
<path fill="none" stroke="#757575" d="M878.69,-406.68C913.87,-401.3 955.99,-394.86 991.46,-389.43"/>
<polygon fill="#757575" stroke="#757575" points="991.88,-392.91 1001.23,-387.93 990.82,-385.99 991.88,-392.91"/>
</g>
<!-- controllers/chatHistoryController.ts -->
<g id="node18" class="node">
<title>controllers/chatHistoryController.ts</title>
<path fill="none" stroke="#c6c5fe" d="M646.46,-661.75C646.46,-661.75 440.79,-661.75 440.79,-661.75 436.83,-661.75 432.88,-657.79 432.88,-653.83 432.88,-653.83 432.88,-645.92 432.88,-645.92 432.88,-641.96 436.83,-638 440.79,-638 440.79,-638 646.46,-638 646.46,-638 650.42,-638 654.38,-641.96 654.38,-645.92 654.38,-645.92 654.38,-653.83 654.38,-653.83 654.38,-657.79 650.42,-661.75 646.46,-661.75"/>
<text xml:space="preserve" text-anchor="middle" x="543.62" y="-644.45" font-family="Arial" font-size="14.00" fill="#c6c5fe">controllers/chatHistoryController.ts</text>
</g>
<!-- controllers/chatHistoryController.ts&#45;&gt;lib/prisma.ts -->
<g id="edge15" class="edge">
<title>controllers/chatHistoryController.ts&#45;&gt;lib/prisma.ts</title>
<path fill="none" stroke="#757575" d="M654.8,-650.89C884.5,-653 1407.43,-657.8 1578.48,-659.37"/>
<polygon fill="#757575" stroke="#757575" points="1578.39,-662.87 1588.42,-659.46 1578.46,-655.87 1578.39,-662.87"/>
</g>
<!-- controllers/chatHistoryController.ts&#45;&gt;middleware/authMiddleware.ts -->
<g id="edge16" class="edge">
<title>controllers/chatHistoryController.ts&#45;&gt;middleware/authMiddleware.ts</title>
<path fill="none" stroke="#757575" d="M651.1,-662.19C656.09,-664.67 660.84,-667.54 665.25,-670.88 694.73,-693.19 676.61,-718.31 701.25,-745.88 718.92,-765.64 744.12,-781.51 765.09,-792.5"/>
<polygon fill="#757575" stroke="#757575" points="763.43,-795.59 773.94,-796.97 766.59,-789.34 763.43,-795.59"/>
</g>
<!-- controllers/chatHistoryController.ts&#45;&gt;middleware/errorHandler.ts -->
<g id="edge17" class="edge">
<title>controllers/chatHistoryController.ts&#45;&gt;middleware/errorHandler.ts</title>
<path fill="none" stroke="#757575" d="M646.49,-662.25C653.02,-664.66 659.34,-667.51 665.25,-670.88 686.62,-683.03 679.8,-700.87 701.25,-712.88 782.35,-758.27 828.17,-697.86 907.75,-745.88 930.58,-759.65 922.17,-778.21 943.75,-793.88 959.58,-805.36 978.79,-813.88 997.28,-820.13"/>
<polygon fill="#757575" stroke="#757575" points="996.02,-823.4 1006.61,-823.09 998.14,-816.73 996.02,-823.4"/>
</g>
<!-- controllers/userController.ts -->
<g id="node19" class="node">
<title>controllers/userController.ts</title>
<path fill="none" stroke="#c6c5fe" d="M625.83,-1057.75C625.83,-1057.75 461.42,-1057.75 461.42,-1057.75 457.46,-1057.75 453.5,-1053.79 453.5,-1049.83 453.5,-1049.83 453.5,-1041.92 453.5,-1041.92 453.5,-1037.96 457.46,-1034 461.42,-1034 461.42,-1034 625.83,-1034 625.83,-1034 629.79,-1034 633.75,-1037.96 633.75,-1041.92 633.75,-1041.92 633.75,-1049.83 633.75,-1049.83 633.75,-1053.79 629.79,-1057.75 625.83,-1057.75"/>
<text xml:space="preserve" text-anchor="middle" x="543.62" y="-1040.45" font-family="Arial" font-size="14.00" fill="#c6c5fe">controllers/userController.ts</text>
</g>
<!-- controllers/userController.ts&#45;&gt;lib/prisma.ts -->
<g id="edge18" class="edge">
<title>controllers/userController.ts&#45;&gt;lib/prisma.ts</title>
<path fill="none" stroke="#757575" d="M606.02,-1058.21C771.09,-1087.62 1230.08,-1144.07 1498.5,-925.88 1578.89,-860.53 1616.21,-734.97 1628.7,-683.13"/>
<polygon fill="#757575" stroke="#757575" points="1632.06,-684.16 1630.9,-673.63 1625.24,-682.59 1632.06,-684.16"/>
</g>
<!-- controllers/userController.ts&#45;&gt;middleware/authMiddleware.ts -->
<g id="edge19" class="edge">
<title>controllers/userController.ts&#45;&gt;middleware/authMiddleware.ts</title>
<path fill="none" stroke="#757575" d="M634.05,-1043.08C645.69,-1039.26 656.56,-1033.47 665.25,-1024.88 727.6,-963.21 639.84,-893.47 701.25,-830.88 701.87,-830.24 702.5,-829.63 703.15,-829.03"/>
<polygon fill="#757575" stroke="#757575" points="705.16,-831.89 710.99,-823.04 700.92,-826.33 705.16,-831.89"/>
</g>
<!-- controllers/userController.ts&#45;&gt;middleware/errorHandler.ts -->
<g id="edge20" class="edge">
<title>controllers/userController.ts&#45;&gt;middleware/errorHandler.ts</title>
<path fill="none" stroke="#757575" d="M631.05,-1033.52C706.92,-1020.32 818.74,-995.06 907.75,-950.88 960.95,-924.47 1015.46,-880.77 1044.89,-855.53"/>
<polygon fill="#757575" stroke="#757575" points="1047.13,-858.22 1052.38,-849.02 1042.54,-852.93 1047.13,-858.22"/>
</g>
<!-- controllers/userSettingsController.ts -->
<g id="node20" class="node">
<title>controllers/userSettingsController.ts</title>
<path fill="none" stroke="#c6c5fe" d="M650.21,-1015.75C650.21,-1015.75 437.04,-1015.75 437.04,-1015.75 433.08,-1015.75 429.12,-1011.79 429.12,-1007.83 429.12,-1007.83 429.12,-999.92 429.12,-999.92 429.12,-995.96 433.08,-992 437.04,-992 437.04,-992 650.21,-992 650.21,-992 654.17,-992 658.12,-995.96 658.12,-999.92 658.12,-999.92 658.12,-1007.83 658.12,-1007.83 658.12,-1011.79 654.17,-1015.75 650.21,-1015.75"/>
<text xml:space="preserve" text-anchor="middle" x="543.62" y="-998.45" font-family="Arial" font-size="14.00" fill="#c6c5fe">controllers/userSettingsController.ts</text>
</g>
<!-- controllers/userSettingsController.ts&#45;&gt;lib/prisma.ts -->
<g id="edge21" class="edge">
<title>controllers/userSettingsController.ts&#45;&gt;lib/prisma.ts</title>
<path fill="none" stroke="#757575" d="M658.57,-1014.14C848.28,-1025.52 1234.14,-1023.9 1498.5,-856.88 1565.82,-814.34 1608.23,-724.83 1625.23,-682.71"/>
<polygon fill="#757575" stroke="#757575" points="1628.42,-684.16 1628.8,-673.57 1621.9,-681.61 1628.42,-684.16"/>
</g>
<!-- controllers/userSettingsController.ts&#45;&gt;middleware/authMiddleware.ts -->
<g id="edge22" class="edge">
<title>controllers/userSettingsController.ts&#45;&gt;middleware/authMiddleware.ts</title>
<path fill="none" stroke="#757575" d="M645.66,-991.63C652.83,-987.99 659.49,-983.48 665.25,-977.88 713.47,-930.98 652.8,-877.54 701.25,-830.88 702.02,-830.13 702.81,-829.41 703.62,-828.72"/>
<polygon fill="#757575" stroke="#757575" points="705.56,-831.63 711.65,-822.96 701.49,-825.94 705.56,-831.63"/>
</g>
<!-- controllers/userSettingsController.ts&#45;&gt;middleware/errorHandler.ts -->
<g id="edge23" class="edge">
<title>controllers/userSettingsController.ts&#45;&gt;middleware/errorHandler.ts</title>
<path fill="none" stroke="#757575" d="M618.66,-991.52C634.29,-987.92 650.51,-983.42 665.25,-977.88 682.38,-971.43 684.1,-964.26 701.25,-957.88 789.11,-925.18 819.15,-945.51 907.75,-914.88 954.66,-898.66 1005.48,-871.64 1036.78,-853.79"/>
<polygon fill="#757575" stroke="#757575" points="1038.39,-856.9 1045.3,-848.87 1034.89,-850.84 1038.39,-856.9"/>
</g>
<!-- services/encryptionService.ts -->
<g id="node21" class="node">
<title>services/encryptionService.ts</title>
<path fill="none" stroke="#cfffac" d="M891.96,-905.75C891.96,-905.75 717.04,-905.75 717.04,-905.75 713.08,-905.75 709.12,-901.79 709.12,-897.83 709.12,-897.83 709.12,-889.92 709.12,-889.92 709.12,-885.96 713.08,-882 717.04,-882 717.04,-882 891.96,-882 891.96,-882 895.92,-882 899.88,-885.96 899.88,-889.92 899.88,-889.92 899.88,-897.83 899.88,-897.83 899.88,-901.79 895.92,-905.75 891.96,-905.75"/>
<text xml:space="preserve" text-anchor="middle" x="804.5" y="-888.45" font-family="Arial" font-size="14.00" fill="#cfffac">services/encryptionService.ts</text>
</g>
<!-- controllers/userSettingsController.ts&#45;&gt;services/encryptionService.ts -->
<g id="edge24" class="edge">
<title>controllers/userSettingsController.ts&#45;&gt;services/encryptionService.ts</title>
<path fill="none" stroke="#757575" d="M638.7,-991.55C648.14,-988.03 657.19,-983.55 665.25,-977.88 690.05,-960.4 676.77,-937.8 701.25,-919.88 706.14,-916.29 711.49,-913.2 717.07,-910.53"/>
<polygon fill="#757575" stroke="#757575" points="718.12,-913.89 725.96,-906.76 715.39,-907.44 718.12,-913.89"/>
</g>
<!-- middleware/validateRequest.ts -->
<g id="node23" class="node">
<title>middleware/validateRequest.ts</title>
<path fill="none" stroke="#c6c5fe" d="M896.83,-863.75C896.83,-863.75 712.17,-863.75 712.17,-863.75 708.21,-863.75 704.25,-859.79 704.25,-855.83 704.25,-855.83 704.25,-847.92 704.25,-847.92 704.25,-843.96 708.21,-840 712.17,-840 712.17,-840 896.83,-840 896.83,-840 900.79,-840 904.75,-843.96 904.75,-847.92 904.75,-847.92 904.75,-855.83 904.75,-855.83 904.75,-859.79 900.79,-863.75 896.83,-863.75"/>
<text xml:space="preserve" text-anchor="middle" x="804.5" y="-846.45" font-family="Arial" font-size="14.00" fill="#c6c5fe">middleware/validateRequest.ts</text>
</g>
<!-- middleware/validateRequest.ts&#45;&gt;middleware/errorHandler.ts -->
<g id="edge28" class="edge">
<title>middleware/validateRequest.ts&#45;&gt;middleware/errorHandler.ts</title>
<path fill="none" stroke="#757575" d="M905.11,-845.78C925.35,-844.54 946.65,-843.24 966.91,-842"/>
<polygon fill="#757575" stroke="#757575" points="967.1,-845.49 976.86,-841.39 966.67,-838.51 967.1,-845.49"/>
</g>
<!-- middleware/validators/authValidator.ts -->
<g id="node24" class="node">
<title>middleware/validators/authValidator.ts</title>
<path fill="none" stroke="#cfffac" d="M657.33,-859.75C657.33,-859.75 429.92,-859.75 429.92,-859.75 425.96,-859.75 422,-855.79 422,-851.83 422,-851.83 422,-843.92 422,-843.92 422,-839.96 425.96,-836 429.92,-836 429.92,-836 657.33,-836 657.33,-836 661.29,-836 665.25,-839.96 665.25,-843.92 665.25,-843.92 665.25,-851.83 665.25,-851.83 665.25,-855.79 661.29,-859.75 657.33,-859.75"/>
<text xml:space="preserve" text-anchor="middle" x="543.62" y="-842.45" font-family="Arial" font-size="14.00" fill="#cfffac">middleware/validators/authValidator.ts</text>
</g>
<!-- routes/aiRoutes.ts -->
<g id="node25" class="node">
<title>routes/aiRoutes.ts</title>
<path fill="none" stroke="#c6c5fe" d="M345.83,-1217.75C345.83,-1217.75 236.92,-1217.75 236.92,-1217.75 232.96,-1217.75 229,-1213.79 229,-1209.83 229,-1209.83 229,-1201.92 229,-1201.92 229,-1197.96 232.96,-1194 236.92,-1194 236.92,-1194 345.83,-1194 345.83,-1194 349.79,-1194 353.75,-1197.96 353.75,-1201.92 353.75,-1201.92 353.75,-1209.83 353.75,-1209.83 353.75,-1213.79 349.79,-1217.75 345.83,-1217.75"/>
<text xml:space="preserve" text-anchor="middle" x="291.38" y="-1200.45" font-family="Arial" font-size="14.00" fill="#c6c5fe">routes/aiRoutes.ts</text>
</g>
<!-- routes/aiRoutes.ts&#45;&gt;controllers/aiController.ts -->
<g id="edge29" class="edge">
<title>routes/aiRoutes.ts&#45;&gt;controllers/aiController.ts</title>
<path fill="none" stroke="#757575" d="M354.13,-1205.56C489.68,-1204.86 813.9,-1203.18 974.13,-1202.35"/>
<polygon fill="#757575" stroke="#757575" points="973.89,-1205.86 983.87,-1202.3 973.85,-1198.86 973.89,-1205.86"/>
</g>
<!-- routes/analyticsRoutes.ts -->
<g id="node26" class="node">
<title>routes/analyticsRoutes.ts</title>
<path fill="none" stroke="#c6c5fe" d="M619.08,-619.75C619.08,-619.75 468.17,-619.75 468.17,-619.75 464.21,-619.75 460.25,-615.79 460.25,-611.83 460.25,-611.83 460.25,-603.92 460.25,-603.92 460.25,-599.96 464.21,-596 468.17,-596 468.17,-596 619.08,-596 619.08,-596 623.04,-596 627,-599.96 627,-603.92 627,-603.92 627,-611.83 627,-611.83 627,-615.79 623.04,-619.75 619.08,-619.75"/>
<text xml:space="preserve" text-anchor="middle" x="543.62" y="-602.45" font-family="Arial" font-size="14.00" fill="#c6c5fe">routes/analyticsRoutes.ts</text>
</g>
<!-- routes/analyticsRoutes.ts&#45;&gt;controllers/analyticsController.ts -->
<g id="edge30" class="edge">
<title>routes/analyticsRoutes.ts&#45;&gt;controllers/analyticsController.ts</title>
<path fill="none" stroke="#757575" d="M627.25,-597.02C649.86,-594.05 674.67,-590.8 698.36,-587.68"/>
<polygon fill="#757575" stroke="#757575" points="698.55,-591.19 708.01,-586.42 697.64,-584.25 698.55,-591.19"/>
</g>
<!-- routes/analyticsRoutes.ts&#45;&gt;middleware/authMiddleware.ts -->
<g id="edge31" class="edge">
<title>routes/analyticsRoutes.ts&#45;&gt;middleware/authMiddleware.ts</title>
<path fill="none" stroke="#757575" d="M627.46,-611.11C641.1,-614.65 654.33,-620.24 665.25,-628.88 697.11,-654.07 678.04,-679.54 701.25,-712.88 722.78,-743.8 755.41,-772.62 777.99,-790.68"/>
<polygon fill="#757575" stroke="#757575" points="775.77,-793.38 785.8,-796.8 780.09,-787.87 775.77,-793.38"/>
</g>
<!-- routes/authRoutes.ts -->
<g id="node27" class="node">
<title>routes/authRoutes.ts</title>
<path fill="none" stroke="#c6c5fe" d="M353.71,-859.75C353.71,-859.75 229.04,-859.75 229.04,-859.75 225.08,-859.75 221.12,-855.79 221.12,-851.83 221.12,-851.83 221.12,-843.92 221.12,-843.92 221.12,-839.96 225.08,-836 229.04,-836 229.04,-836 353.71,-836 353.71,-836 357.67,-836 361.62,-839.96 361.62,-843.92 361.62,-843.92 361.62,-851.83 361.62,-851.83 361.62,-855.79 357.67,-859.75 353.71,-859.75"/>
<text xml:space="preserve" text-anchor="middle" x="291.38" y="-842.45" font-family="Arial" font-size="14.00" fill="#c6c5fe">routes/authRoutes.ts</text>
</g>
<!-- routes/authRoutes.ts&#45;&gt;controllers/authController.ts -->
<g id="edge32" class="edge">
<title>routes/authRoutes.ts&#45;&gt;controllers/authController.ts</title>
<path fill="none" stroke="#757575" d="M313.72,-835.67C332.79,-824.69 361.44,-808 386,-792.88 431.74,-764.71 484.03,-730.59 515.14,-710.09"/>
<polygon fill="#757575" stroke="#757575" points="516.78,-713.21 523.19,-704.77 512.92,-707.36 516.78,-713.21"/>
</g>
<!-- routes/authRoutes.ts&#45;&gt;middleware/authMiddleware.ts -->
<g id="edge33" class="edge">
<title>routes/authRoutes.ts&#45;&gt;middleware/authMiddleware.ts</title>
<path fill="none" stroke="#757575" d="M359.12,-835.54C379.26,-832.23 401.48,-828.99 422,-826.88 513.14,-817.49 617.07,-813.29 693.4,-811.4"/>
<polygon fill="#757575" stroke="#757575" points="693.03,-814.91 702.95,-811.18 692.87,-807.91 693.03,-814.91"/>
</g>
<!-- routes/authRoutes.ts&#45;&gt;middleware/validateRequest.ts -->
<g id="edge34" class="edge">
<title>routes/authRoutes.ts&#45;&gt;middleware/validateRequest.ts</title>
<path fill="none" stroke="#757575" d="M355.75,-860.23C376.75,-863.76 400.3,-867.13 422,-868.88 529.76,-877.55 557.34,-875.48 665.25,-868.88 678.17,-868.08 691.73,-866.88 705.09,-865.47"/>
<polygon fill="#757575" stroke="#757575" points="705.19,-868.98 714.75,-864.41 704.43,-862.02 705.19,-868.98"/>
</g>
<!-- routes/authRoutes.ts&#45;&gt;middleware/validators/authValidator.ts -->
<g id="edge35" class="edge">
<title>routes/authRoutes.ts&#45;&gt;middleware/validators/authValidator.ts</title>
<path fill="none" stroke="#757575" d="M362.08,-847.88C377.12,-847.88 393.5,-847.88 410.06,-847.88"/>
<polygon fill="#757575" stroke="#757575" points="410.02,-851.38 420.02,-847.88 410.02,-844.38 410.02,-851.38"/>
</g>
<!-- routes/chatHistoryRoutes.ts -->
<g id="node28" class="node">
<title>routes/chatHistoryRoutes.ts</title>
<path fill="none" stroke="#c6c5fe" d="M374.33,-783.75C374.33,-783.75 208.42,-783.75 208.42,-783.75 204.46,-783.75 200.5,-779.79 200.5,-775.83 200.5,-775.83 200.5,-767.92 200.5,-767.92 200.5,-763.96 204.46,-760 208.42,-760 208.42,-760 374.33,-760 374.33,-760 378.29,-760 382.25,-763.96 382.25,-767.92 382.25,-767.92 382.25,-775.83 382.25,-775.83 382.25,-779.79 378.29,-783.75 374.33,-783.75"/>
<text xml:space="preserve" text-anchor="middle" x="291.38" y="-766.45" font-family="Arial" font-size="14.00" fill="#c6c5fe">routes/chatHistoryRoutes.ts</text>
</g>
<!-- routes/chatHistoryRoutes.ts&#45;&gt;middleware/authMiddleware.ts -->
<g id="edge37" class="edge">
<title>routes/chatHistoryRoutes.ts&#45;&gt;middleware/authMiddleware.ts</title>
<path fill="none" stroke="#757575" d="M382.58,-778.58C469.1,-785.01 599.94,-794.74 692.75,-801.64"/>
<polygon fill="#757575" stroke="#757575" points="692.42,-805.13 702.65,-802.38 692.94,-798.15 692.42,-805.13"/>
</g>
<!-- routes/chatHistoryRoutes.ts&#45;&gt;controllers/chatHistoryController.ts -->
<g id="edge36" class="edge">
<title>routes/chatHistoryRoutes.ts&#45;&gt;controllers/chatHistoryController.ts</title>
<path fill="none" stroke="#757575" d="M372.49,-759.52C377.31,-757.1 381.87,-754.24 386,-750.88 416.21,-726.23 391.2,-694.78 422,-670.88 423.34,-669.84 424.71,-668.84 426.11,-667.89"/>
<polygon fill="#757575" stroke="#757575" points="427.62,-671.06 434.46,-662.97 424.07,-665.03 427.62,-671.06"/>
</g>
<!-- routes/chatRoutes.ts -->
<g id="node29" class="node">
<title>routes/chatRoutes.ts</title>
<path fill="none" stroke="#c6c5fe" d="M353.33,-741.75C353.33,-741.75 229.42,-741.75 229.42,-741.75 225.46,-741.75 221.5,-737.79 221.5,-733.83 221.5,-733.83 221.5,-725.92 221.5,-725.92 221.5,-721.96 225.46,-718 229.42,-718 229.42,-718 353.33,-718 353.33,-718 357.29,-718 361.25,-721.96 361.25,-725.92 361.25,-725.92 361.25,-733.83 361.25,-733.83 361.25,-737.79 357.29,-741.75 353.33,-741.75"/>
<text xml:space="preserve" text-anchor="middle" x="291.38" y="-724.45" font-family="Arial" font-size="14.00" fill="#c6c5fe">routes/chatRoutes.ts</text>
</g>
<!-- routes/chatRoutes.ts&#45;&gt;middleware/authMiddleware.ts -->
<g id="edge39" class="edge">
<title>routes/chatRoutes.ts&#45;&gt;middleware/authMiddleware.ts</title>
<path fill="none" stroke="#757575" d="M361.41,-736.68C436.5,-744.57 559.89,-758.95 665.25,-777.88 691.43,-782.58 720.12,-789.01 744.54,-794.87"/>
<polygon fill="#757575" stroke="#757575" points="743.42,-798.2 753.97,-797.15 745.07,-791.39 743.42,-798.2"/>
</g>
<!-- routes/chatRoutes.ts&#45;&gt;controllers/chatController.ts -->
<g id="edge38" class="edge">
<title>routes/chatRoutes.ts&#45;&gt;controllers/chatController.ts</title>
<path fill="none" stroke="#757575" d="M302.09,-717.68C322.78,-692.08 373.27,-631.4 422,-586.88 451.92,-559.54 489.66,-532.05 514.88,-514.56"/>
<polygon fill="#757575" stroke="#757575" points="516.71,-517.55 522.97,-509 512.75,-511.78 516.71,-517.55"/>
</g>
<!-- routes/userRoutes.ts -->
<g id="node30" class="node">
<title>routes/userRoutes.ts</title>
<path fill="none" stroke="#c6c5fe" d="M353.71,-1057.75C353.71,-1057.75 229.04,-1057.75 229.04,-1057.75 225.08,-1057.75 221.12,-1053.79 221.12,-1049.83 221.12,-1049.83 221.12,-1041.92 221.12,-1041.92 221.12,-1037.96 225.08,-1034 229.04,-1034 229.04,-1034 353.71,-1034 353.71,-1034 357.67,-1034 361.62,-1037.96 361.62,-1041.92 361.62,-1041.92 361.62,-1049.83 361.62,-1049.83 361.62,-1053.79 357.67,-1057.75 353.71,-1057.75"/>
<text xml:space="preserve" text-anchor="middle" x="291.38" y="-1040.45" font-family="Arial" font-size="14.00" fill="#c6c5fe">routes/userRoutes.ts</text>
</g>
<!-- routes/userRoutes.ts&#45;&gt;middleware/authMiddleware.ts -->
<g id="edge41" class="edge">
<title>routes/userRoutes.ts&#45;&gt;middleware/authMiddleware.ts</title>
<path fill="none" stroke="#757575" d="M361.84,-1035.63C370.31,-1032.86 378.58,-1029.34 386,-1024.88 407.07,-1012.21 401.04,-995.73 422,-982.88 516.84,-924.72 581.59,-997.2 665.25,-923.88 698.58,-894.66 667.41,-859.5 701.25,-830.88 702.38,-829.92 703.54,-829.01 704.73,-828.13"/>
<polygon fill="#757575" stroke="#757575" points="706.44,-831.19 713.07,-822.92 702.73,-825.25 706.44,-831.19"/>
</g>
<!-- routes/userRoutes.ts&#45;&gt;controllers/userController.ts -->
<g id="edge40" class="edge">
<title>routes/userRoutes.ts&#45;&gt;controllers/userController.ts</title>
<path fill="none" stroke="#757575" d="M362.08,-1045.88C386.76,-1045.88 415.04,-1045.88 441.78,-1045.88"/>
<polygon fill="#757575" stroke="#757575" points="441.62,-1049.38 451.62,-1045.88 441.62,-1042.38 441.62,-1049.38"/>
</g>
<!-- routes/userSettingsRoutes.ts -->
<g id="node31" class="node">
<title>routes/userSettingsRoutes.ts</title>
<path fill="none" stroke="#c6c5fe" d="M378.08,-1015.75C378.08,-1015.75 204.67,-1015.75 204.67,-1015.75 200.71,-1015.75 196.75,-1011.79 196.75,-1007.83 196.75,-1007.83 196.75,-999.92 196.75,-999.92 196.75,-995.96 200.71,-992 204.67,-992 204.67,-992 378.08,-992 378.08,-992 382.04,-992 386,-995.96 386,-999.92 386,-999.92 386,-1007.83 386,-1007.83 386,-1011.79 382.04,-1015.75 378.08,-1015.75"/>
<text xml:space="preserve" text-anchor="middle" x="291.38" y="-998.45" font-family="Arial" font-size="14.00" fill="#c6c5fe">routes/userSettingsRoutes.ts</text>
</g>
<!-- routes/userSettingsRoutes.ts&#45;&gt;middleware/authMiddleware.ts -->
<g id="edge43" class="edge">
<title>routes/userSettingsRoutes.ts&#45;&gt;middleware/authMiddleware.ts</title>
<path fill="none" stroke="#757575" d="M320.21,-991.59C346.3,-980.23 386.5,-963.16 422,-949.88 528.72,-909.94 569.13,-930.07 665.25,-868.88 684.87,-856.38 680.92,-842.18 701.25,-830.88 704.24,-829.21 707.35,-827.68 710.54,-826.27"/>
<polygon fill="#757575" stroke="#757575" points="711.53,-829.64 719.55,-822.71 708.97,-823.12 711.53,-829.64"/>
</g>
<!-- routes/userSettingsRoutes.ts&#45;&gt;controllers/userSettingsController.ts -->
<g id="edge42" class="edge">
<title>routes/userSettingsRoutes.ts&#45;&gt;controllers/userSettingsController.ts</title>
<path fill="none" stroke="#757575" d="M386.27,-1003.88C396.46,-1003.88 406.94,-1003.88 417.42,-1003.88"/>
<polygon fill="#757575" stroke="#757575" points="417.26,-1007.38 427.26,-1003.88 417.26,-1000.38 417.26,-1007.38"/>
</g>
<!-- server.ts -->
<g id="node32" class="node">
<title>server.ts</title>
<path fill="none" stroke="#c6c5fe" d="M105.96,-1057.75C105.96,-1057.75 54.79,-1057.75 54.79,-1057.75 50.83,-1057.75 46.88,-1053.79 46.88,-1049.83 46.88,-1049.83 46.88,-1041.92 46.88,-1041.92 46.88,-1037.96 50.83,-1034 54.79,-1034 54.79,-1034 105.96,-1034 105.96,-1034 109.92,-1034 113.88,-1037.96 113.88,-1041.92 113.88,-1041.92 113.88,-1049.83 113.88,-1049.83 113.88,-1053.79 109.92,-1057.75 105.96,-1057.75"/>
<text xml:space="preserve" text-anchor="middle" x="80.38" y="-1040.45" font-family="Arial" font-size="14.00" fill="#c6c5fe">server.ts</text>
</g>
<!-- server.ts&#45;&gt;config/env.ts -->
<g id="edge44" class="edge">
<title>server.ts&#45;&gt;config/env.ts</title>
<path fill="none" stroke="#757575" d="M114.3,-1048.38C129.79,-1051.01 147.67,-1056.3 160.75,-1066.88 188.26,-1089.12 169.38,-1115.46 196.75,-1137.88 207.46,-1146.64 220.91,-1152.46 234.26,-1156.32"/>
<polygon fill="#757575" stroke="#757575" points="233.36,-1159.7 243.92,-1158.75 235.07,-1152.92 233.36,-1159.7"/>
</g>
<!-- server.ts&#45;&gt;utils/logger.ts -->
<g id="edge54" class="edge">
<title>server.ts&#45;&gt;utils/logger.ts</title>
<path fill="none" stroke="#757575" d="M114.16,-1051.32C128.92,-1054.57 146.25,-1059.54 160.75,-1066.88 179.08,-1076.15 177.5,-1088.7 196.75,-1095.88 345.11,-1151.18 763.33,-1114.77 907.75,-1049.88 925.75,-1041.79 926.66,-1033.75 943.75,-1023.88 1074.38,-948.42 1240.78,-881.74 1318.58,-852.13"/>
<polygon fill="#757575" stroke="#757575" points="1319.43,-855.55 1327.54,-848.74 1316.95,-849 1319.43,-855.55"/>
</g>
<!-- server.ts&#45;&gt;lib/prisma.ts -->
<g id="edge45" class="edge">
<title>server.ts&#45;&gt;lib/prisma.ts</title>
<path fill="none" stroke="#757575" d="M114.33,-1046.87C130.4,-1049.08 148.78,-1054.45 160.75,-1066.88 211.32,-1119.37 141.1,-1179.8 196.75,-1226.88 314.28,-1326.31 388.67,-1245.88 542.62,-1245.88 542.62,-1245.88 542.62,-1245.88 1069,-1245.88 1183.91,-1245.88 1483.23,-1153.07 1498.5,-1137.88 1629.67,-1007.36 1635.97,-759.86 1634.58,-683.14"/>
<polygon fill="#757575" stroke="#757575" points="1638.08,-683.39 1634.33,-673.48 1631.09,-683.56 1638.08,-683.39"/>
</g>
<!-- server.ts&#45;&gt;middleware/errorHandler.ts -->
<g id="edge46" class="edge">
<title>server.ts&#45;&gt;middleware/errorHandler.ts</title>
<path fill="none" stroke="#757575" d="M113.99,-1053.91C231.32,-1080.93 639.22,-1158.1 907.75,-998.88 970.93,-961.41 1026.24,-892.55 1051.85,-857.54"/>
<polygon fill="#757575" stroke="#757575" points="1054.67,-859.62 1057.67,-849.45 1048.99,-855.53 1054.67,-859.62"/>
</g>
<!-- server.ts&#45;&gt;routes/aiRoutes.ts -->
<g id="edge47" class="edge">
<title>server.ts&#45;&gt;routes/aiRoutes.ts</title>
<path fill="none" stroke="#757575" d="M114.35,-1047.31C130.22,-1049.65 148.43,-1055.01 160.75,-1066.88 200.24,-1104.91 156.54,-1147.59 196.75,-1184.88 202.88,-1190.56 210.21,-1194.82 218.02,-1198"/>
<polygon fill="#757575" stroke="#757575" points="216.89,-1201.31 227.48,-1201.21 219.14,-1194.69 216.89,-1201.31"/>
</g>
<!-- server.ts&#45;&gt;routes/analyticsRoutes.ts -->
<g id="edge48" class="edge">
<title>server.ts&#45;&gt;routes/analyticsRoutes.ts</title>
<path fill="none" stroke="#757575" d="M81.88,-1033.83C84.57,-985.78 100.88,-805.84 196.75,-708.88 262.98,-641.88 370.98,-618.76 448.69,-611.07"/>
<polygon fill="#757575" stroke="#757575" points="448.77,-614.58 458.42,-610.18 448.14,-607.61 448.77,-614.58"/>
</g>
<!-- server.ts&#45;&gt;routes/authRoutes.ts -->
<g id="edge49" class="edge">
<title>server.ts&#45;&gt;routes/authRoutes.ts</title>
<path fill="none" stroke="#757575" d="M94.13,-1033.79C129.04,-1000.72 226.37,-908.51 269.43,-867.72"/>
<polygon fill="#757575" stroke="#757575" points="271.57,-870.52 276.42,-861.1 266.75,-865.43 271.57,-870.52"/>
</g>
<!-- server.ts&#45;&gt;routes/chatHistoryRoutes.ts -->
<g id="edge50" class="edge">
<title>server.ts&#45;&gt;routes/chatHistoryRoutes.ts</title>
<path fill="none" stroke="#757575" d="M85.18,-1033.53C96.72,-997.7 134.43,-892.15 196.75,-826.88 211.77,-811.15 232.26,-798.42 250.25,-789.19"/>
<polygon fill="#757575" stroke="#757575" points="251.7,-792.38 259.13,-784.83 248.61,-786.1 251.7,-792.38"/>
</g>
<!-- server.ts&#45;&gt;routes/chatRoutes.ts -->
<g id="edge51" class="edge">
<title>server.ts&#45;&gt;routes/chatRoutes.ts</title>
<path fill="none" stroke="#757575" d="M82.21,-1033.78C85.99,-988.71 105.57,-829.14 196.75,-750.88 200.95,-747.27 205.64,-744.24 210.62,-741.71"/>
<polygon fill="#757575" stroke="#757575" points="211.99,-744.93 219.8,-737.77 209.23,-738.5 211.99,-744.93"/>
</g>
<!-- server.ts&#45;&gt;routes/userRoutes.ts -->
<g id="edge52" class="edge">
<title>server.ts&#45;&gt;routes/userRoutes.ts</title>
<path fill="none" stroke="#757575" d="M114.03,-1045.88C139.61,-1045.88 176.32,-1045.88 209.64,-1045.88"/>
<polygon fill="#757575" stroke="#757575" points="209.27,-1049.38 219.27,-1045.88 209.27,-1042.38 209.27,-1049.38"/>
</g>
<!-- server.ts&#45;&gt;routes/userSettingsRoutes.ts -->
<g id="edge53" class="edge">
<title>server.ts&#45;&gt;routes/userSettingsRoutes.ts</title>
<path fill="none" stroke="#757575" d="M114.03,-1039.31C141.69,-1033.75 182.37,-1025.58 217.68,-1018.48"/>
<polygon fill="#757575" stroke="#757575" points="218.34,-1021.92 227.46,-1016.52 216.96,-1015.06 218.34,-1021.92"/>
</g>
<!-- services/ai/client/azureEmbeddingClient.ts&#45;&gt;config/providerMap.ts -->
<g id="edge55" class="edge">
<title>services/ai/client/azureEmbeddingClient.ts&#45;&gt;config/providerMap.ts</title>
<path fill="none" stroke="#757575" d="M1498.67,-289.88C1516.34,-289.88 1534.01,-289.88 1550.48,-289.88"/>
<polygon fill="#757575" stroke="#757575" points="1550.16,-293.38 1560.16,-289.88 1550.16,-286.38 1550.16,-293.38"/>
</g>
<!-- services/ai/client/claudeClient.ts -->
<g id="node34" class="node">
<title>services/ai/client/claudeClient.ts</title>
<path fill="none" stroke="#c6c5fe" d="M1459.08,-141.75C1459.08,-141.75 1267.67,-141.75 1267.67,-141.75 1263.71,-141.75 1259.75,-137.79 1259.75,-133.83 1259.75,-133.83 1259.75,-125.92 1259.75,-125.92 1259.75,-121.96 1263.71,-118 1267.67,-118 1267.67,-118 1459.08,-118 1459.08,-118 1463.04,-118 1467,-121.96 1467,-125.92 1467,-125.92 1467,-133.83 1467,-133.83 1467,-137.79 1463.04,-141.75 1459.08,-141.75"/>
<text xml:space="preserve" text-anchor="middle" x="1363.38" y="-124.45" font-family="Arial" font-size="14.00" fill="#c6c5fe">services/ai/client/claudeClient.ts</text>
</g>
<!-- services/ai/client/claudeClient.ts&#45;&gt;config/costMap.ts -->
<g id="edge56" class="edge">
<title>services/ai/client/claudeClient.ts&#45;&gt;config/costMap.ts</title>
<path fill="none" stroke="#757575" d="M1443.74,-142.25C1481.43,-148.13 1526.12,-155.09 1562.69,-160.8"/>
<polygon fill="#757575" stroke="#757575" points="1561.84,-164.21 1572.26,-162.29 1562.92,-157.29 1561.84,-164.21"/>
</g>
<!-- services/ai/client/claudeClient.ts&#45;&gt;services/ai/types.ts -->
<g id="edge57" class="edge">
<title>services/ai/client/claudeClient.ts&#45;&gt;services/ai/types.ts</title>
<path fill="none" stroke="#757575" d="M1408.51,-117.51C1513.67,-90.45 1785.3,-34.83 1987.25,-118.88 2023.29,-133.87 2054.33,-168.04 2071.9,-190.52"/>
<polygon fill="#757575" stroke="#757575" points="2069.05,-192.56 2077.87,-198.43 2074.64,-188.34 2069.05,-192.56"/>
</g>
<!-- services/ai/utils/providerUtils.ts -->
<g id="node35" class="node">
<title>services/ai/utils/providerUtils.ts</title>
<path fill="none" stroke="#c6c5fe" d="M1727.08,-141.75C1727.08,-141.75 1542.42,-141.75 1542.42,-141.75 1538.46,-141.75 1534.5,-137.79 1534.5,-133.83 1534.5,-133.83 1534.5,-125.92 1534.5,-125.92 1534.5,-121.96 1538.46,-118 1542.42,-118 1542.42,-118 1727.08,-118 1727.08,-118 1731.04,-118 1735,-121.96 1735,-125.92 1735,-125.92 1735,-133.83 1735,-133.83 1735,-137.79 1731.04,-141.75 1727.08,-141.75"/>
<text xml:space="preserve" text-anchor="middle" x="1634.75" y="-124.45" font-family="Arial" font-size="14.00" fill="#c6c5fe">services/ai/utils/providerUtils.ts</text>
</g>
<!-- services/ai/client/claudeClient.ts&#45;&gt;services/ai/utils/providerUtils.ts -->
<g id="edge58" class="edge">
<title>services/ai/client/claudeClient.ts&#45;&gt;services/ai/utils/providerUtils.ts</title>
<path fill="none" stroke="#757575" d="M1467.37,-129.88C1485.57,-129.88 1504.59,-129.88 1523,-129.88"/>
<polygon fill="#757575" stroke="#757575" points="1522.85,-133.38 1532.85,-129.88 1522.85,-126.38 1522.85,-133.38"/>
</g>
<!-- services/ai/utils/providerUtils.ts&#45;&gt;services/ai/types.ts -->
<g id="edge81" class="edge">
<title>services/ai/utils/providerUtils.ts&#45;&gt;services/ai/types.ts</title>
<path fill="none" stroke="#757575" d="M1735.4,-123.17C1807.07,-121.36 1905.14,-125.14 1987.25,-150.88 2015.64,-159.77 2044.24,-178.42 2063.53,-192.77"/>
<polygon fill="#757575" stroke="#757575" points="2061.2,-195.39 2071.27,-198.69 2065.45,-189.83 2061.2,-195.39"/>
</g>
<!-- services/ai/config/providers.ts -->
<g id="node37" class="node">
<title>services/ai/config/providers.ts</title>
<path fill="none" stroke="#c6c5fe" d="M1967.71,-183.75C1967.71,-183.75 1790.54,-183.75 1790.54,-183.75 1786.58,-183.75 1782.62,-179.79 1782.62,-175.83 1782.62,-175.83 1782.62,-167.92 1782.62,-167.92 1782.62,-163.96 1786.58,-160 1790.54,-160 1790.54,-160 1967.71,-160 1967.71,-160 1971.67,-160 1975.62,-163.96 1975.62,-167.92 1975.62,-167.92 1975.62,-175.83 1975.62,-175.83 1975.62,-179.79 1971.67,-183.75 1967.71,-183.75"/>
<text xml:space="preserve" text-anchor="middle" x="1879.12" y="-166.45" font-family="Arial" font-size="14.00" fill="#c6c5fe">services/ai/config/providers.ts</text>
</g>
<!-- services/ai/utils/providerUtils.ts&#45;&gt;services/ai/config/providers.ts -->
<g id="edge80" class="edge">
<title>services/ai/utils/providerUtils.ts&#45;&gt;services/ai/config/providers.ts</title>
<path fill="none" stroke="#757575" d="M1707.16,-142.25C1734.9,-147.06 1766.84,-152.59 1795.56,-157.57"/>
<polygon fill="#757575" stroke="#757575" points="1794.87,-161 1805.32,-159.26 1796.06,-154.1 1794.87,-161"/>
</g>
<!-- services/ai/client/openaiClient.ts -->
<g id="node36" class="node">
<title>services/ai/client/openaiClient.ts</title>
<path fill="none" stroke="#c6c5fe" d="M1459.46,-221.75C1459.46,-221.75 1267.29,-221.75 1267.29,-221.75 1263.33,-221.75 1259.38,-217.79 1259.38,-213.83 1259.38,-213.83 1259.38,-205.92 1259.38,-205.92 1259.38,-201.96 1263.33,-198 1267.29,-198 1267.29,-198 1459.46,-198 1459.46,-198 1463.42,-198 1467.38,-201.96 1467.38,-205.92 1467.38,-205.92 1467.38,-213.83 1467.38,-213.83 1467.38,-217.79 1463.42,-221.75 1459.46,-221.75"/>
<text xml:space="preserve" text-anchor="middle" x="1363.38" y="-204.45" font-family="Arial" font-size="14.00" fill="#c6c5fe">services/ai/client/openaiClient.ts</text>
</g>
<!-- services/ai/client/openaiClient.ts&#45;&gt;config/costMap.ts -->
<g id="edge59" class="edge">
<title>services/ai/client/openaiClient.ts&#45;&gt;config/costMap.ts</title>
<path fill="none" stroke="#757575" d="M1451.83,-197.54C1487.58,-192.49 1528.41,-186.73 1562.32,-181.95"/>
<polygon fill="#757575" stroke="#757575" points="1562.62,-185.44 1572.04,-180.58 1561.65,-178.51 1562.62,-185.44"/>
</g>
<!-- services/ai/client/openaiClient.ts&#45;&gt;services/ai/types.ts -->
<g id="edge60" class="edge">
<title>services/ai/client/openaiClient.ts&#45;&gt;services/ai/types.ts</title>
<path fill="none" stroke="#757575" d="M1467.56,-210.16C1614.67,-210.57 1881.26,-211.31 2011.52,-211.67"/>
<polygon fill="#757575" stroke="#757575" points="2011.41,-215.17 2021.42,-211.69 2011.43,-208.17 2011.41,-215.17"/>
</g>
<!-- services/ai/client/openaiClient.ts&#45;&gt;services/ai/utils/providerUtils.ts -->
<g id="edge61" class="edge">
<title>services/ai/client/openaiClient.ts&#45;&gt;services/ai/utils/providerUtils.ts</title>
<path fill="none" stroke="#757575" d="M1462.1,-197.52C1474.71,-194.04 1487.17,-189.58 1498.5,-183.88 1517.88,-174.11 1515.2,-160.81 1534.5,-150.88 1537.93,-149.11 1541.5,-147.49 1545.17,-146.01"/>
<polygon fill="#757575" stroke="#757575" points="1546.06,-149.41 1554.26,-142.7 1543.67,-142.83 1546.06,-149.41"/>
</g>
<!-- services/ai/config/providers.ts&#45;&gt;services/ai/types.ts -->
<g id="edge62" class="edge">
<title>services/ai/config/providers.ts&#45;&gt;services/ai/types.ts</title>
<path fill="none" stroke="#757575" d="M1943.96,-184.2C1965.52,-188.37 1989.78,-193.05 2012.13,-197.37"/>
<polygon fill="#757575" stroke="#757575" points="2011.3,-200.77 2021.78,-199.23 2012.63,-193.9 2011.3,-200.77"/>
</g>
<!-- services/ai/handlers/chatHandler.ts -->
<g id="node38" class="node">
<title>services/ai/handlers/chatHandler.ts</title>
<path fill="none" stroke="#c6c5fe" d="M1172.71,-221.75C1172.71,-221.75 963.29,-221.75 963.29,-221.75 959.33,-221.75 955.38,-217.79 955.38,-213.83 955.38,-213.83 955.38,-205.92 955.38,-205.92 955.38,-201.96 959.33,-198 963.29,-198 963.29,-198 1172.71,-198 1172.71,-198 1176.67,-198 1180.62,-201.96 1180.62,-205.92 1180.62,-205.92 1180.62,-213.83 1180.62,-213.83 1180.62,-217.79 1176.67,-221.75 1172.71,-221.75"/>
<text xml:space="preserve" text-anchor="middle" x="1068" y="-204.45" font-family="Arial" font-size="14.00" fill="#c6c5fe">services/ai/handlers/chatHandler.ts</text>
</g>
<!-- services/ai/handlers/chatHandler.ts&#45;&gt;utils/logger.ts -->
<g id="edge66" class="edge">
<title>services/ai/handlers/chatHandler.ts&#45;&gt;utils/logger.ts</title>
<path fill="none" stroke="#757575" d="M1083.29,-221.93C1109.68,-245.09 1165.76,-298.68 1192.25,-356.88 1234.75,-450.25 1195.62,-487.61 1228.25,-584.88 1258.53,-675.13 1319.2,-771.7 1347.37,-813.96"/>
<polygon fill="#757575" stroke="#757575" points="1344.46,-815.91 1352.95,-822.24 1350.27,-812 1344.46,-815.91"/>
</g>
<!-- services/ai/handlers/chatHandler.ts&#45;&gt;services/ai/types.ts -->
<g id="edge64" class="edge">
<title>services/ai/handlers/chatHandler.ts&#45;&gt;services/ai/types.ts</title>
<path fill="none" stroke="#757575" d="M1146.96,-222.23C1172.77,-225.76 1201.68,-229.13 1228.25,-230.88 1344.94,-238.54 1925.45,-229.26 1987.25,-224.88 1995.08,-224.32 2003.24,-223.56 2011.37,-222.68"/>
<polygon fill="#757575" stroke="#757575" points="2011.77,-226.16 2021.31,-221.55 2010.97,-219.21 2011.77,-226.16"/>
</g>
<!-- services/ai/handlers/chatHandler.ts&#45;&gt;services/ai/client/claudeClient.ts -->
<g id="edge63" class="edge">
<title>services/ai/handlers/chatHandler.ts&#45;&gt;services/ai/client/claudeClient.ts</title>
<path fill="none" stroke="#757575" d="M1101.24,-197.5C1133.13,-185.61 1183.52,-167.73 1228.25,-155.88 1244.33,-151.61 1261.67,-147.73 1278.36,-144.35"/>
<polygon fill="#757575" stroke="#757575" points="1278.61,-147.87 1287.74,-142.49 1277.25,-141 1278.61,-147.87"/>
</g>
<!-- services/ai/handlers/chatHandler.ts&#45;&gt;services/ai/utils/providerUtils.ts -->
<g id="edge65" class="edge">
<title>services/ai/handlers/chatHandler.ts&#45;&gt;services/ai/utils/providerUtils.ts</title>
<path fill="none" stroke="#757575" d="M1162.49,-197.51C1249.53,-185.89 1382.88,-167.79 1498.5,-150.88 1513.45,-148.69 1529.31,-146.29 1544.71,-143.93"/>
<polygon fill="#757575" stroke="#757575" points="1544.98,-147.43 1554.33,-142.44 1543.92,-140.51 1544.98,-147.43"/>
</g>
<!-- services/ai/handlers/providerHandler.ts -->
<g id="node39" class="node">
<title>services/ai/handlers/providerHandler.ts</title>
<path fill="none" stroke="#c6c5fe" d="M1184.33,-101.75C1184.33,-101.75 951.67,-101.75 951.67,-101.75 947.71,-101.75 943.75,-97.79 943.75,-93.83 943.75,-93.83 943.75,-85.92 943.75,-85.92 943.75,-81.96 947.71,-78 951.67,-78 951.67,-78 1184.33,-78 1184.33,-78 1188.29,-78 1192.25,-81.96 1192.25,-85.92 1192.25,-85.92 1192.25,-93.83 1192.25,-93.83 1192.25,-97.79 1188.29,-101.75 1184.33,-101.75"/>
<text xml:space="preserve" text-anchor="middle" x="1068" y="-84.45" font-family="Arial" font-size="14.00" fill="#c6c5fe">services/ai/handlers/providerHandler.ts</text>
</g>
<!-- services/ai/handlers/providerHandler.ts&#45;&gt;services/ai/types.ts -->
<g id="edge68" class="edge">
<title>services/ai/handlers/providerHandler.ts&#45;&gt;services/ai/types.ts</title>
<path fill="none" stroke="#757575" d="M1158.25,-77.51C1360.08,-51.22 1845.06,2.02 1987.25,-71.88 2035.14,-96.76 2065.25,-156.27 2078.81,-189.12"/>
<polygon fill="#757575" stroke="#757575" points="2075.44,-190.11 2082.37,-198.12 2081.95,-187.53 2075.44,-190.11"/>
</g>
<!-- services/ai/handlers/providerHandler.ts&#45;&gt;services/ai/client/claudeClient.ts -->
<g id="edge67" class="edge">
<title>services/ai/handlers/providerHandler.ts&#45;&gt;services/ai/client/claudeClient.ts</title>
<path fill="none" stroke="#757575" d="M1159.42,-102.2C1191.48,-106.57 1227.78,-111.52 1260.72,-116.02"/>
<polygon fill="#757575" stroke="#757575" points="1259.87,-119.43 1270.25,-117.31 1260.82,-112.5 1259.87,-119.43"/>
</g>
<!-- services/ai/handlers/providerHandler.ts&#45;&gt;services/ai/utils/providerUtils.ts -->
<g id="edge69" class="edge">
<title>services/ai/handlers/providerHandler.ts&#45;&gt;services/ai/utils/providerUtils.ts</title>
<path fill="none" stroke="#757575" d="M1192.37,-91.74C1278.36,-93.92 1395.63,-98.64 1498.5,-108.88 1516.04,-110.62 1534.77,-113.12 1552.53,-115.78"/>
<polygon fill="#757575" stroke="#757575" points="1551.83,-119.22 1562.24,-117.28 1552.89,-112.3 1551.83,-119.22"/>
</g>
<!-- services/ai/providers/factory.ts&#45;&gt;lib/prisma.ts -->
<g id="edge74" class="edge">
<title>services/ai/providers/factory.ts&#45;&gt;lib/prisma.ts</title>
<path fill="none" stroke="#757575" d="M1390.65,-401.2C1419.29,-415.48 1465.46,-441.06 1498.5,-471.88 1553.63,-523.3 1600.55,-600.24 1621.72,-637.74"/>
<polygon fill="#757575" stroke="#757575" points="1618.56,-639.27 1626.48,-646.3 1624.68,-635.86 1618.56,-639.27"/>
</g>
<!-- services/ai/providers/base.ts -->
<g id="node41" class="node">
<title>services/ai/providers/base.ts</title>
<path fill="none" stroke="#c6c5fe" d="M1964.33,-380.75C1964.33,-380.75 1793.92,-380.75 1793.92,-380.75 1789.96,-380.75 1786,-376.79 1786,-372.83 1786,-372.83 1786,-364.92 1786,-364.92 1786,-360.96 1789.96,-357 1793.92,-357 1793.92,-357 1964.33,-357 1964.33,-357 1968.29,-357 1972.25,-360.96 1972.25,-364.92 1972.25,-364.92 1972.25,-372.83 1972.25,-372.83 1972.25,-376.79 1968.29,-380.75 1964.33,-380.75"/>
<text xml:space="preserve" text-anchor="middle" x="1879.12" y="-363.45" font-family="Arial" font-size="14.00" fill="#c6c5fe">services/ai/providers/base.ts</text>
</g>
<!-- services/ai/providers/factory.ts&#45;&gt;services/ai/providers/base.ts -->
<g id="edge75" class="edge">
<title>services/ai/providers/factory.ts&#45;&gt;services/ai/providers/base.ts</title>
<path fill="none" stroke="#757575" d="M1462.22,-385.07C1551.56,-381.59 1683.21,-376.46 1774.37,-372.91"/>
<polygon fill="#757575" stroke="#757575" points="1774.46,-376.41 1784.32,-372.53 1774.19,-369.42 1774.46,-376.41"/>
</g>
<!-- services/ai/providers/openai.ts -->
<g id="node42" class="node">
<title>services/ai/providers/openai.ts</title>
<path fill="none" stroke="#c6c5fe" d="M1725.58,-419.75C1725.58,-419.75 1543.92,-419.75 1543.92,-419.75 1539.96,-419.75 1536,-415.79 1536,-411.83 1536,-411.83 1536,-403.92 1536,-403.92 1536,-399.96 1539.96,-396 1543.92,-396 1543.92,-396 1725.58,-396 1725.58,-396 1729.54,-396 1733.5,-399.96 1733.5,-403.92 1733.5,-403.92 1733.5,-411.83 1733.5,-411.83 1733.5,-415.79 1729.54,-419.75 1725.58,-419.75"/>
<text xml:space="preserve" text-anchor="middle" x="1634.75" y="-402.45" font-family="Arial" font-size="14.00" fill="#c6c5fe">services/ai/providers/openai.ts</text>
</g>
<!-- services/ai/providers/factory.ts&#45;&gt;services/ai/providers/openai.ts -->
<g id="edge76" class="edge">
<title>services/ai/providers/factory.ts&#45;&gt;services/ai/providers/openai.ts</title>
<path fill="none" stroke="#757575" d="M1462.01,-395.76C1482.21,-397.19 1503.61,-398.7 1524.2,-400.15"/>
<polygon fill="#757575" stroke="#757575" points="1523.82,-403.63 1534.04,-400.84 1524.31,-396.65 1523.82,-403.63"/>
</g>
<!-- services/ai/providers/base.ts&#45;&gt;services/ai/types.ts -->
<g id="edge73" class="edge">
<title>services/ai/providers/base.ts&#45;&gt;services/ai/types.ts</title>
<path fill="none" stroke="#757575" d="M1958.52,-356.51C1968.65,-353.03 1978.52,-348.58 1987.25,-342.88 2029.31,-315.41 2060.71,-264 2076.3,-234.41"/>
<polygon fill="#757575" stroke="#757575" points="2079.37,-236.08 2080.79,-225.58 2073.14,-232.9 2079.37,-236.08"/>
</g>
<!-- services/ai/providers/openai.ts&#45;&gt;services/ai/types.ts -->
<g id="edge78" class="edge">
<title>services/ai/providers/openai.ts&#45;&gt;services/ai/types.ts</title>
<path fill="none" stroke="#757575" d="M1690.18,-420.25C1763.61,-433.77 1895.72,-446.63 1987.25,-389.88 2044.03,-354.66 2071.41,-274.8 2081.9,-235.13"/>
<polygon fill="#757575" stroke="#757575" points="2085.24,-236.22 2084.26,-225.67 2078.45,-234.53 2085.24,-236.22"/>
</g>
<!-- services/ai/providers/openai.ts&#45;&gt;services/ai/providers/base.ts -->
<g id="edge77" class="edge">
<title>services/ai/providers/openai.ts&#45;&gt;services/ai/providers/base.ts</title>
<path fill="none" stroke="#757575" d="M1712.44,-395.54C1737.21,-391.55 1764.85,-387.1 1790.35,-383"/>
<polygon fill="#757575" stroke="#757575" points="1790.71,-386.49 1800.02,-381.44 1789.6,-379.58 1790.71,-386.49"/>
</g>
<!-- services/ai/utils/errorMessages.ts -->
<g id="node43" class="node">
<title>services/ai/utils/errorMessages.ts</title>
<path fill="none" stroke="#c6c5fe" d="M1979.33,-23.75C1979.33,-23.75 1778.92,-23.75 1778.92,-23.75 1774.96,-23.75 1771,-19.79 1771,-15.83 1771,-15.83 1771,-7.92 1771,-7.92 1771,-3.96 1774.96,0 1778.92,0 1778.92,0 1979.33,0 1979.33,0 1983.29,0 1987.25,-3.96 1987.25,-7.92 1987.25,-7.92 1987.25,-15.83 1987.25,-15.83 1987.25,-19.79 1983.29,-23.75 1979.33,-23.75"/>
<text xml:space="preserve" text-anchor="middle" x="1879.12" y="-6.45" font-family="Arial" font-size="14.00" fill="#c6c5fe">services/ai/utils/errorMessages.ts</text>
</g>
<!-- services/ai/utils/errorMessages.ts&#45;&gt;services/ai/types.ts -->
<g id="edge79" class="edge">
<title>services/ai/utils/errorMessages.ts&#45;&gt;services/ai/types.ts</title>
<path fill="none" stroke="#757575" d="M1961.99,-24.24C1971.02,-27.73 1979.67,-32.19 1987.25,-37.88 2039.31,-76.93 2068.64,-151.62 2080.69,-189.16"/>
<polygon fill="#757575" stroke="#757575" points="2077.28,-189.97 2083.56,-198.5 2083.97,-187.91 2077.28,-189.97"/>
</g>
<!-- types/express/index.d.ts -->
<g id="node44" class="node">
<title>types/express/index.d.ts</title>
<path fill="none" stroke="#cfffac" d="M152.83,-1141.75C152.83,-1141.75 7.92,-1141.75 7.92,-1141.75 3.96,-1141.75 0,-1137.79 0,-1133.83 0,-1133.83 0,-1125.92 0,-1125.92 0,-1121.96 3.96,-1118 7.92,-1118 7.92,-1118 152.83,-1118 152.83,-1118 156.79,-1118 160.75,-1121.96 160.75,-1125.92 160.75,-1125.92 160.75,-1133.83 160.75,-1133.83 160.75,-1137.79 156.79,-1141.75 152.83,-1141.75"/>
<text xml:space="preserve" text-anchor="middle" x="80.38" y="-1124.45" font-family="Arial" font-size="14.00" fill="#cfffac">types/express/index.d.ts</text>
</g>
<!-- types/index.ts -->
<g id="node45" class="node">
<title>types/index.ts</title>
<path fill="none" stroke="#cfffac" d="M121.71,-1183.75C121.71,-1183.75 39.04,-1183.75 39.04,-1183.75 35.08,-1183.75 31.12,-1179.79 31.12,-1175.83 31.12,-1175.83 31.12,-1167.92 31.12,-1167.92 31.12,-1163.96 35.08,-1160 39.04,-1160 39.04,-1160 121.71,-1160 121.71,-1160 125.67,-1160 129.62,-1163.96 129.62,-1167.92 129.62,-1167.92 129.62,-1175.83 129.62,-1175.83 129.62,-1179.79 125.67,-1183.75 121.71,-1183.75"/>
<text xml:space="preserve" text-anchor="middle" x="80.38" y="-1166.45" font-family="Arial" font-size="14.00" fill="#cfffac">types/index.ts</text>
</g>
</g>
</svg>
