<?xml version="1.0" encoding="UTF-8" standalone="no"?>
<!DOCTYPE svg PUBLIC "-//W3C//DTD SVG 1.1//EN"
 "http://www.w3.org/Graphics/SVG/1.1/DTD/svg11.dtd">
<!-- Generated by graphviz version 13.1.2 (20250808.2320)
 -->
<!-- Title: G Pages: 1 -->
<svg width="2491pt" height="1229pt"
 viewBox="0.00 0.00 2491.00 1229.00" xmlns="http://www.w3.org/2000/svg" xmlns:xlink="http://www.w3.org/1999/xlink">
<g id="graph0" class="graph" transform="scale(1 1) rotate(0) translate(21.6 1207.88)">
<title>G</title>
<polygon fill="#111111" stroke="none" points="-21.6,21.6 -21.6,-1207.88 2469.85,-1207.88 2469.85,21.6 -21.6,21.6"/>
<!-- audit/builders/AuditRecordBuilder.ts -->
<g id="node1" class="node">
<title>audit/builders/AuditRecordBuilder.ts</title>
<path fill="none" stroke="#c6c5fe" d="M1774.33,-1186.28C1774.33,-1186.28 1560.42,-1186.28 1560.42,-1186.28 1556.46,-1186.28 1552.5,-1182.32 1552.5,-1178.36 1552.5,-1178.36 1552.5,-1170.44 1552.5,-1170.44 1552.5,-1166.49 1556.46,-1162.53 1560.42,-1162.53 1560.42,-1162.53 1774.33,-1162.53 1774.33,-1162.53 1778.29,-1162.53 1782.25,-1166.49 1782.25,-1170.44 1782.25,-1170.44 1782.25,-1178.36 1782.25,-1178.36 1782.25,-1182.32 1778.29,-1186.28 1774.33,-1186.28"/>
<text xml:space="preserve" text-anchor="middle" x="1667.38" y="-1168.98" font-family="Arial" font-size="14.00" fill="#c6c5fe">audit/builders/AuditRecordBuilder.ts</text>
</g>
<!-- audit/domain/AuditRecord.ts -->
<g id="node2" class="node">
<title>audit/domain/AuditRecord.ts</title>
<path fill="none" stroke="#cfffac" d="M2027.33,-1166.28C2027.33,-1166.28 1856.92,-1166.28 1856.92,-1166.28 1852.96,-1166.28 1849,-1162.32 1849,-1158.36 1849,-1158.36 1849,-1150.44 1849,-1150.44 1849,-1146.49 1852.96,-1142.53 1856.92,-1142.53 1856.92,-1142.53 2027.33,-1142.53 2027.33,-1142.53 2031.29,-1142.53 2035.25,-1146.49 2035.25,-1150.44 2035.25,-1150.44 2035.25,-1158.36 2035.25,-1158.36 2035.25,-1162.32 2031.29,-1166.28 2027.33,-1166.28"/>
<text xml:space="preserve" text-anchor="middle" x="1942.12" y="-1148.98" font-family="Arial" font-size="14.00" fill="#cfffac">audit/domain/AuditRecord.ts</text>
</g>
<!-- audit/builders/AuditRecordBuilder.ts&#45;&gt;audit/domain/AuditRecord.ts -->
<g id="edge1" class="edge">
<title>audit/builders/AuditRecordBuilder.ts&#45;&gt;audit/domain/AuditRecord.ts</title>
<path fill="none" stroke="#757575" d="M1782.47,-1166.04C1800.63,-1164.7 1819.34,-1163.33 1837.26,-1162.02"/>
<polygon fill="#757575" stroke="#757575" points="1837.37,-1165.52 1847.09,-1161.3 1836.86,-1158.54 1837.37,-1165.52"/>
</g>
<!-- audit/domain/AuditEnums.ts -->
<g id="node3" class="node">
<title>audit/domain/AuditEnums.ts</title>
<path fill="none" stroke="#cfffac" d="M207.21,-756.28C207.21,-756.28 37.54,-756.28 37.54,-756.28 33.58,-756.28 29.62,-752.32 29.62,-748.36 29.62,-748.36 29.62,-740.44 29.62,-740.44 29.62,-736.49 33.58,-732.53 37.54,-732.53 37.54,-732.53 207.21,-732.53 207.21,-732.53 211.17,-732.53 215.12,-736.49 215.12,-740.44 215.12,-740.44 215.12,-748.36 215.12,-748.36 215.12,-752.32 211.17,-756.28 207.21,-756.28"/>
<text xml:space="preserve" text-anchor="middle" x="122.38" y="-738.98" font-family="Arial" font-size="14.00" fill="#cfffac">audit/domain/AuditEnums.ts</text>
</g>
<!-- audit/domain/AuditRecordCoverage.ts -->
<g id="node4" class="node">
<title>audit/domain/AuditRecordCoverage.ts</title>
<path fill="none" stroke="#cfffac" d="M236.83,-798.28C236.83,-798.28 7.92,-798.28 7.92,-798.28 3.96,-798.28 0,-794.32 0,-790.36 0,-790.36 0,-782.44 0,-782.44 0,-778.49 3.96,-774.53 7.92,-774.53 7.92,-774.53 236.83,-774.53 236.83,-774.53 240.79,-774.53 244.75,-778.49 244.75,-782.44 244.75,-782.44 244.75,-790.36 244.75,-790.36 244.75,-794.32 240.79,-798.28 236.83,-798.28"/>
<text xml:space="preserve" text-anchor="middle" x="122.38" y="-780.98" font-family="Arial" font-size="14.00" fill="#cfffac">audit/domain/AuditRecordCoverage.ts</text>
</g>
<!-- audit/domain/AuditTypes.ts -->
<g id="node5" class="node">
<title>audit/domain/AuditTypes.ts</title>
<path fill="none" stroke="#cfffac" d="M203.83,-840.28C203.83,-840.28 40.92,-840.28 40.92,-840.28 36.96,-840.28 33,-836.32 33,-832.36 33,-832.36 33,-824.44 33,-824.44 33,-820.49 36.96,-816.53 40.92,-816.53 40.92,-816.53 203.83,-816.53 203.83,-816.53 207.79,-816.53 211.75,-820.49 211.75,-824.44 211.75,-824.44 211.75,-832.36 211.75,-832.36 211.75,-836.32 207.79,-840.28 203.83,-840.28"/>
<text xml:space="preserve" text-anchor="middle" x="122.38" y="-822.98" font-family="Arial" font-size="14.00" fill="#cfffac">audit/domain/AuditTypes.ts</text>
</g>
<!-- audit/index.ts -->
<g id="node6" class="node">
<title>audit/index.ts</title>
<path fill="none" stroke="#c6c5fe" d="M1445.58,-1152.28C1445.58,-1152.28 1365.92,-1152.28 1365.92,-1152.28 1361.96,-1152.28 1358,-1148.32 1358,-1144.36 1358,-1144.36 1358,-1136.44 1358,-1136.44 1358,-1132.49 1361.96,-1128.53 1365.92,-1128.53 1365.92,-1128.53 1445.58,-1128.53 1445.58,-1128.53 1449.54,-1128.53 1453.5,-1132.49 1453.5,-1136.44 1453.5,-1136.44 1453.5,-1144.36 1453.5,-1144.36 1453.5,-1148.32 1449.54,-1152.28 1445.58,-1152.28"/>
<text xml:space="preserve" text-anchor="middle" x="1405.75" y="-1134.98" font-family="Arial" font-size="14.00" fill="#c6c5fe">audit/index.ts</text>
</g>
<!-- audit/index.ts&#45;&gt;audit/builders/AuditRecordBuilder.ts -->
<g id="edge2" class="edge">
<title>audit/index.ts&#45;&gt;audit/builders/AuditRecordBuilder.ts</title>
<path fill="none" stroke="#757575" d="M1453.77,-1146.56C1483.76,-1150.49 1523.87,-1155.74 1561.17,-1160.62"/>
<polygon fill="#757575" stroke="#757575" points="1560.25,-1164.03 1570.62,-1161.86 1561.15,-1157.09 1560.25,-1164.03"/>
</g>
<!-- audit/index.ts&#45;&gt;audit/domain/AuditRecord.ts -->
<g id="edge3" class="edge">
<title>audit/index.ts&#45;&gt;audit/domain/AuditRecord.ts</title>
<path fill="none" stroke="#757575" d="M1453.7,-1141.63C1539.11,-1143.87 1721.72,-1148.65 1837.58,-1151.69"/>
<polygon fill="#757575" stroke="#757575" points="1837.32,-1155.18 1847.41,-1151.95 1837.51,-1148.19 1837.32,-1155.18"/>
</g>
<!-- audit/utils/sentContextParser.ts -->
<g id="node7" class="node">
<title>audit/utils/sentContextParser.ts</title>
<path fill="none" stroke="#cfffac" d="M215.46,-882.28C215.46,-882.28 29.29,-882.28 29.29,-882.28 25.33,-882.28 21.38,-878.32 21.38,-874.36 21.38,-874.36 21.38,-866.44 21.38,-866.44 21.38,-862.49 25.33,-858.53 29.29,-858.53 29.29,-858.53 215.46,-858.53 215.46,-858.53 219.42,-858.53 223.38,-862.49 223.38,-866.44 223.38,-866.44 223.38,-874.36 223.38,-874.36 223.38,-878.32 219.42,-882.28 215.46,-882.28"/>
<text xml:space="preserve" text-anchor="middle" x="122.38" y="-864.98" font-family="Arial" font-size="14.00" fill="#cfffac">audit/utils/sentContextParser.ts</text>
</g>
<!-- config/database.ts -->
<g id="node8" class="node">
<title>config/database.ts</title>
<path fill="none" stroke="#cfffac" d="M177.21,-924.28C177.21,-924.28 67.54,-924.28 67.54,-924.28 63.58,-924.28 59.62,-920.32 59.62,-916.36 59.62,-916.36 59.62,-908.44 59.62,-908.44 59.62,-904.49 63.58,-900.53 67.54,-900.53 67.54,-900.53 177.21,-900.53 177.21,-900.53 181.17,-900.53 185.12,-904.49 185.12,-908.44 185.12,-908.44 185.12,-916.36 185.12,-916.36 185.12,-920.32 181.17,-924.28 177.21,-924.28"/>
<text xml:space="preserve" text-anchor="middle" x="122.38" y="-906.98" font-family="Arial" font-size="14.00" fill="#cfffac">config/database.ts</text>
</g>
<!-- config/env.ts -->
<g id="node9" class="node">
<title>config/env.ts</title>
<path fill="none" stroke="#c6c5fe" d="M412.96,-1133.28C412.96,-1133.28 337.79,-1133.28 337.79,-1133.28 333.83,-1133.28 329.88,-1129.32 329.88,-1125.36 329.88,-1125.36 329.88,-1117.44 329.88,-1117.44 329.88,-1113.49 333.83,-1109.53 337.79,-1109.53 337.79,-1109.53 412.96,-1109.53 412.96,-1109.53 416.92,-1109.53 420.88,-1113.49 420.88,-1117.44 420.88,-1117.44 420.88,-1125.36 420.88,-1125.36 420.88,-1129.32 416.92,-1133.28 412.96,-1133.28"/>
<text xml:space="preserve" text-anchor="middle" x="375.38" y="-1115.98" font-family="Arial" font-size="14.00" fill="#c6c5fe">config/env.ts</text>
</g>
<!-- utils/logger.ts -->
<g id="node10" class="node">
<title>utils/logger.ts</title>
<path fill="none" stroke="#cfffac" d="M1445.21,-865.28C1445.21,-865.28 1366.29,-865.28 1366.29,-865.28 1362.33,-865.28 1358.38,-861.32 1358.38,-857.36 1358.38,-857.36 1358.38,-849.44 1358.38,-849.44 1358.38,-845.49 1362.33,-841.53 1366.29,-841.53 1366.29,-841.53 1445.21,-841.53 1445.21,-841.53 1449.17,-841.53 1453.12,-845.49 1453.12,-849.44 1453.12,-849.44 1453.12,-857.36 1453.12,-857.36 1453.12,-861.32 1449.17,-865.28 1445.21,-865.28"/>
<text xml:space="preserve" text-anchor="middle" x="1405.75" y="-847.98" font-family="Arial" font-size="14.00" fill="#cfffac">utils/logger.ts</text>
</g>
<!-- config/env.ts&#45;&gt;utils/logger.ts -->
<g id="edge4" class="edge">
<title>config/env.ts&#45;&gt;utils/logger.ts</title>
<path fill="none" stroke="#757575" d="M421.04,-1123.17C525.31,-1126.52 792.53,-1130.59 1012,-1095.4 1133.93,-1075.85 1177.35,-1089.15 1279.25,-1019.4 1334.64,-981.49 1375.73,-911.18 1394.1,-875.46"/>
<polygon fill="#757575" stroke="#757575" points="1397.04,-877.42 1398.39,-866.91 1390.78,-874.28 1397.04,-877.42"/>
</g>
<!-- config/providerMap.ts -->
<g id="node11" class="node">
<title>config/providerMap.ts</title>
<path fill="none" stroke="#cfffac" d="M2007.08,-67.28C2007.08,-67.28 1877.17,-67.28 1877.17,-67.28 1873.21,-67.28 1869.25,-63.32 1869.25,-59.36 1869.25,-59.36 1869.25,-51.44 1869.25,-51.44 1869.25,-47.49 1873.21,-43.53 1877.17,-43.53 1877.17,-43.53 2007.08,-43.53 2007.08,-43.53 2011.04,-43.53 2015,-47.49 2015,-51.44 2015,-51.44 2015,-59.36 2015,-59.36 2015,-63.32 2011.04,-67.28 2007.08,-67.28"/>
<text xml:space="preserve" text-anchor="middle" x="1942.12" y="-49.98" font-family="Arial" font-size="14.00" fill="#cfffac">config/providerMap.ts</text>
</g>
<!-- controllers/aiController.ts -->
<g id="node12" class="node">
<title>controllers/aiController.ts</title>
<path fill="none" stroke="#c6c5fe" d="M1237.96,-459.28C1237.96,-459.28 1089.29,-459.28 1089.29,-459.28 1085.33,-459.28 1081.38,-455.32 1081.38,-451.36 1081.38,-451.36 1081.38,-443.44 1081.38,-443.44 1081.38,-439.49 1085.33,-435.53 1089.29,-435.53 1089.29,-435.53 1237.96,-435.53 1237.96,-435.53 1241.92,-435.53 1245.88,-439.49 1245.88,-443.44 1245.88,-443.44 1245.88,-451.36 1245.88,-451.36 1245.88,-455.32 1241.92,-459.28 1237.96,-459.28"/>
<text xml:space="preserve" text-anchor="middle" x="1163.62" y="-441.98" font-family="Arial" font-size="14.00" fill="#c6c5fe">controllers/aiController.ts</text>
</g>
<!-- controllers/aiController.ts&#45;&gt;utils/logger.ts -->
<g id="edge6" class="edge">
<title>controllers/aiController.ts&#45;&gt;utils/logger.ts</title>
<path fill="none" stroke="#757575" d="M1204.97,-459.69C1229.42,-469 1259.59,-484.05 1279.25,-506.4 1366.33,-605.44 1394.51,-769.58 1402.21,-830.08"/>
<polygon fill="#757575" stroke="#757575" points="1398.72,-830.34 1403.38,-839.85 1405.67,-829.51 1398.72,-830.34"/>
</g>
<!-- lib/prisma.ts -->
<g id="node13" class="node">
<title>lib/prisma.ts</title>
<path fill="none" stroke="#cfffac" d="M1978.58,-459.28C1978.58,-459.28 1905.67,-459.28 1905.67,-459.28 1901.71,-459.28 1897.75,-455.32 1897.75,-451.36 1897.75,-451.36 1897.75,-443.44 1897.75,-443.44 1897.75,-439.49 1901.71,-435.53 1905.67,-435.53 1905.67,-435.53 1978.58,-435.53 1978.58,-435.53 1982.54,-435.53 1986.5,-439.49 1986.5,-443.44 1986.5,-443.44 1986.5,-451.36 1986.5,-451.36 1986.5,-455.32 1982.54,-459.28 1978.58,-459.28"/>
<text xml:space="preserve" text-anchor="middle" x="1942.12" y="-441.98" font-family="Arial" font-size="14.00" fill="#cfffac">lib/prisma.ts</text>
</g>
<!-- controllers/aiController.ts&#45;&gt;lib/prisma.ts -->
<g id="edge5" class="edge">
<title>controllers/aiController.ts&#45;&gt;lib/prisma.ts</title>
<path fill="none" stroke="#757575" d="M1246.26,-447.4C1404.98,-447.4 1751.4,-447.4 1886.05,-447.4"/>
<polygon fill="#757575" stroke="#757575" points="1885.76,-450.9 1895.76,-447.4 1885.76,-443.9 1885.76,-450.9"/>
</g>
<!-- controllers/analyticsController.ts -->
<g id="node14" class="node">
<title>controllers/analyticsController.ts</title>
<path fill="none" stroke="#c6c5fe" d="M1004.08,-387.28C1004.08,-387.28 813.42,-387.28 813.42,-387.28 809.46,-387.28 805.5,-383.32 805.5,-379.36 805.5,-379.36 805.5,-371.44 805.5,-371.44 805.5,-367.49 809.46,-363.53 813.42,-363.53 813.42,-363.53 1004.08,-363.53 1004.08,-363.53 1008.04,-363.53 1012,-367.49 1012,-371.44 1012,-371.44 1012,-379.36 1012,-379.36 1012,-383.32 1008.04,-387.28 1004.08,-387.28"/>
<text xml:space="preserve" text-anchor="middle" x="908.75" y="-369.98" font-family="Arial" font-size="14.00" fill="#c6c5fe">controllers/analyticsController.ts</text>
</g>
<!-- services/analyticsService.ts -->
<g id="node15" class="node">
<title>services/analyticsService.ts</title>
<path fill="none" stroke="#c6c5fe" d="M1488.33,-499.28C1488.33,-499.28 1323.17,-499.28 1323.17,-499.28 1319.21,-499.28 1315.25,-495.32 1315.25,-491.36 1315.25,-491.36 1315.25,-483.44 1315.25,-483.44 1315.25,-479.49 1319.21,-475.53 1323.17,-475.53 1323.17,-475.53 1488.33,-475.53 1488.33,-475.53 1492.29,-475.53 1496.25,-479.49 1496.25,-483.44 1496.25,-483.44 1496.25,-491.36 1496.25,-491.36 1496.25,-495.32 1492.29,-499.28 1488.33,-499.28"/>
<text xml:space="preserve" text-anchor="middle" x="1405.75" y="-481.98" font-family="Arial" font-size="14.00" fill="#c6c5fe">services/analyticsService.ts</text>
</g>
<!-- controllers/analyticsController.ts&#45;&gt;services/analyticsService.ts -->
<g id="edge7" class="edge">
<title>controllers/analyticsController.ts&#45;&gt;services/analyticsService.ts</title>
<path fill="none" stroke="#757575" d="M987.54,-387.76C996.32,-391.25 1004.71,-395.71 1012,-401.4 1038.63,-422.22 1019.46,-450.29 1048,-468.4 1088.99,-494.42 1213.27,-495.72 1303.63,-492.81"/>
<polygon fill="#757575" stroke="#757575" points="1303.64,-496.31 1313.52,-492.46 1303.4,-489.31 1303.64,-496.31"/>
</g>
<!-- services/analyticsService.ts&#45;&gt;lib/prisma.ts -->
<g id="edge92" class="edge">
<title>services/analyticsService.ts&#45;&gt;lib/prisma.ts</title>
<path fill="none" stroke="#757575" d="M1496.41,-482.41C1576.66,-477.73 1697.52,-470.15 1802.5,-461.4 1830.09,-459.1 1860.73,-456.06 1886.16,-453.4"/>
<polygon fill="#757575" stroke="#757575" points="1886.37,-456.9 1895.95,-452.37 1885.64,-449.94 1886.37,-456.9"/>
</g>
<!-- controllers/auditController.ts -->
<g id="node16" class="node">
<title>controllers/auditController.ts</title>
<path fill="none" stroke="#c6c5fe" d="M1247.33,-1152.28C1247.33,-1152.28 1079.92,-1152.28 1079.92,-1152.28 1075.96,-1152.28 1072,-1148.32 1072,-1144.36 1072,-1144.36 1072,-1136.44 1072,-1136.44 1072,-1132.49 1075.96,-1128.53 1079.92,-1128.53 1079.92,-1128.53 1247.33,-1128.53 1247.33,-1128.53 1251.29,-1128.53 1255.25,-1132.49 1255.25,-1136.44 1255.25,-1136.44 1255.25,-1144.36 1255.25,-1144.36 1255.25,-1148.32 1251.29,-1152.28 1247.33,-1152.28"/>
<text xml:space="preserve" text-anchor="middle" x="1163.62" y="-1134.98" font-family="Arial" font-size="14.00" fill="#c6c5fe">controllers/auditController.ts</text>
</g>
<!-- controllers/auditController.ts&#45;&gt;audit/index.ts -->
<g id="edge8" class="edge">
<title>controllers/auditController.ts&#45;&gt;audit/index.ts</title>
<path fill="none" stroke="#757575" d="M1255.75,-1140.4C1286.16,-1140.4 1319.21,-1140.4 1346.44,-1140.4"/>
<polygon fill="#757575" stroke="#757575" points="1346.22,-1143.9 1356.22,-1140.4 1346.22,-1136.9 1346.22,-1143.9"/>
</g>
<!-- controllers/auditController.ts&#45;&gt;utils/logger.ts -->
<g id="edge10" class="edge">
<title>controllers/auditController.ts&#45;&gt;utils/logger.ts</title>
<path fill="none" stroke="#757575" d="M1255.52,-1128.07C1264.05,-1124.54 1272.15,-1120.06 1279.25,-1114.4 1319.62,-1082.23 1375.98,-933.73 1396.7,-876.23"/>
<polygon fill="#757575" stroke="#757575" points="1399.88,-877.73 1399.95,-867.13 1393.29,-875.37 1399.88,-877.73"/>
</g>
<!-- controllers/auditController.ts&#45;&gt;lib/prisma.ts -->
<g id="edge9" class="edge">
<title>controllers/auditController.ts&#45;&gt;lib/prisma.ts</title>
<path fill="none" stroke="#757575" d="M1251.82,-1128.07C1272.6,-1125.18 1294.71,-1122.14 1315.25,-1119.4 1423.44,-1104.98 1721.67,-1130.76 1802.5,-1057.4 1892.16,-976.04 1930.8,-573.68 1939.27,-471.19"/>
<polygon fill="#757575" stroke="#757575" points="1942.76,-471.49 1940.08,-461.24 1935.78,-470.93 1942.76,-471.49"/>
</g>
<!-- controllers/authController.ts -->
<g id="node17" class="node">
<title>controllers/authController.ts</title>
<path fill="none" stroke="#c6c5fe" d="M719.96,-873.28C719.96,-873.28 555.54,-873.28 555.54,-873.28 551.58,-873.28 547.62,-869.32 547.62,-865.36 547.62,-865.36 547.62,-857.44 547.62,-857.44 547.62,-853.49 551.58,-849.53 555.54,-849.53 555.54,-849.53 719.96,-849.53 719.96,-849.53 723.92,-849.53 727.88,-853.49 727.88,-857.44 727.88,-857.44 727.88,-865.36 727.88,-865.36 727.88,-869.32 723.92,-873.28 719.96,-873.28"/>
<text xml:space="preserve" text-anchor="middle" x="637.75" y="-855.98" font-family="Arial" font-size="14.00" fill="#c6c5fe">controllers/authController.ts</text>
</g>
<!-- controllers/authController.ts&#45;&gt;utils/logger.ts -->
<g id="edge14" class="edge">
<title>controllers/authController.ts&#45;&gt;utils/logger.ts</title>
<path fill="none" stroke="#757575" d="M728.12,-860.47C886.91,-858.81 1213.99,-855.39 1346.8,-854.01"/>
<polygon fill="#757575" stroke="#757575" points="1346.8,-857.51 1356.77,-853.9 1346.73,-850.51 1346.8,-857.51"/>
</g>
<!-- middleware/authMiddleware.ts -->
<g id="node18" class="node">
<title>middleware/authMiddleware.ts</title>
<path fill="none" stroke="#c6c5fe" d="M1000.71,-631.28C1000.71,-631.28 816.79,-631.28 816.79,-631.28 812.83,-631.28 808.88,-627.32 808.88,-623.36 808.88,-623.36 808.88,-615.44 808.88,-615.44 808.88,-611.49 812.83,-607.53 816.79,-607.53 816.79,-607.53 1000.71,-607.53 1000.71,-607.53 1004.67,-607.53 1008.62,-611.49 1008.62,-615.44 1008.62,-615.44 1008.62,-623.36 1008.62,-623.36 1008.62,-627.32 1004.67,-631.28 1000.71,-631.28"/>
<text xml:space="preserve" text-anchor="middle" x="908.75" y="-613.98" font-family="Arial" font-size="14.00" fill="#c6c5fe">middleware/authMiddleware.ts</text>
</g>
<!-- controllers/authController.ts&#45;&gt;middleware/authMiddleware.ts -->
<g id="edge11" class="edge">
<title>controllers/authController.ts&#45;&gt;middleware/authMiddleware.ts</title>
<path fill="none" stroke="#757575" d="M728.17,-858.25C743.62,-853.9 758.29,-846.77 769.5,-835.4 831.39,-772.66 743.81,-703.34 805.5,-640.4 806.12,-639.77 806.75,-639.16 807.4,-638.56"/>
<polygon fill="#757575" stroke="#757575" points="809.41,-641.42 815.23,-632.57 805.16,-635.86 809.41,-641.42"/>
</g>
<!-- middleware/errorHandler.ts -->
<g id="node19" class="node">
<title>middleware/errorHandler.ts</title>
<path fill="none" stroke="#c6c5fe" d="M1245.08,-789.28C1245.08,-789.28 1082.17,-789.28 1082.17,-789.28 1078.21,-789.28 1074.25,-785.32 1074.25,-781.36 1074.25,-781.36 1074.25,-773.44 1074.25,-773.44 1074.25,-769.49 1078.21,-765.53 1082.17,-765.53 1082.17,-765.53 1245.08,-765.53 1245.08,-765.53 1249.04,-765.53 1253,-769.49 1253,-773.44 1253,-773.44 1253,-781.36 1253,-781.36 1253,-785.32 1249.04,-789.28 1245.08,-789.28"/>
<text xml:space="preserve" text-anchor="middle" x="1163.62" y="-771.98" font-family="Arial" font-size="14.00" fill="#c6c5fe">middleware/errorHandler.ts</text>
</g>
<!-- controllers/authController.ts&#45;&gt;middleware/errorHandler.ts -->
<g id="edge12" class="edge">
<title>controllers/authController.ts&#45;&gt;middleware/errorHandler.ts</title>
<path fill="none" stroke="#757575" d="M715.77,-849.05C811.34,-833.73 973.96,-807.65 1074.44,-791.54"/>
<polygon fill="#757575" stroke="#757575" points="1074.96,-795 1084.28,-789.96 1073.85,-788.09 1074.96,-795"/>
</g>
<!-- services/authService.ts -->
<g id="node20" class="node">
<title>services/authService.ts</title>
<path fill="none" stroke="#c6c5fe" d="M978.21,-673.28C978.21,-673.28 839.29,-673.28 839.29,-673.28 835.33,-673.28 831.38,-669.32 831.38,-665.36 831.38,-665.36 831.38,-657.44 831.38,-657.44 831.38,-653.49 835.33,-649.53 839.29,-649.53 839.29,-649.53 978.21,-649.53 978.21,-649.53 982.17,-649.53 986.12,-653.49 986.12,-657.44 986.12,-657.44 986.12,-665.36 986.12,-665.36 986.12,-669.32 982.17,-673.28 978.21,-673.28"/>
<text xml:space="preserve" text-anchor="middle" x="908.75" y="-655.98" font-family="Arial" font-size="14.00" fill="#c6c5fe">services/authService.ts</text>
</g>
<!-- controllers/authController.ts&#45;&gt;services/authService.ts -->
<g id="edge13" class="edge">
<title>controllers/authController.ts&#45;&gt;services/authService.ts</title>
<path fill="none" stroke="#757575" d="M728.08,-852.39C742.59,-848.51 756.95,-843.06 769.5,-835.4 801.6,-815.82 864.97,-725.17 893.38,-683.04"/>
<polygon fill="#757575" stroke="#757575" points="896.15,-685.19 898.81,-674.93 890.34,-681.29 896.15,-685.19"/>
</g>
<!-- middleware/authMiddleware.ts&#45;&gt;middleware/errorHandler.ts -->
<g id="edge35" class="edge">
<title>middleware/authMiddleware.ts&#45;&gt;middleware/errorHandler.ts</title>
<path fill="none" stroke="#757575" d="M990.69,-631.75C998.08,-634.14 1005.3,-636.99 1012,-640.4 1041.78,-655.54 1109.68,-722.99 1143.18,-757.26"/>
<polygon fill="#757575" stroke="#757575" points="1140.38,-759.4 1149.86,-764.13 1145.4,-754.52 1140.38,-759.4"/>
</g>
<!-- utils/jwt.ts -->
<g id="node31" class="node">
<title>utils/jwt.ts</title>
<path fill="none" stroke="#cfffac" d="M1192.96,-657.28C1192.96,-657.28 1134.29,-657.28 1134.29,-657.28 1130.33,-657.28 1126.38,-653.32 1126.38,-649.36 1126.38,-649.36 1126.38,-641.44 1126.38,-641.44 1126.38,-637.49 1130.33,-633.53 1134.29,-633.53 1134.29,-633.53 1192.96,-633.53 1192.96,-633.53 1196.92,-633.53 1200.88,-637.49 1200.88,-641.44 1200.88,-641.44 1200.88,-649.36 1200.88,-649.36 1200.88,-653.32 1196.92,-657.28 1192.96,-657.28"/>
<text xml:space="preserve" text-anchor="middle" x="1163.62" y="-639.98" font-family="Arial" font-size="14.00" fill="#cfffac">utils/jwt.ts</text>
</g>
<!-- middleware/authMiddleware.ts&#45;&gt;utils/jwt.ts -->
<g id="edge36" class="edge">
<title>middleware/authMiddleware.ts&#45;&gt;utils/jwt.ts</title>
<path fill="none" stroke="#757575" d="M1008.97,-629.6C1045.37,-633.35 1084.93,-637.41 1114.79,-640.48"/>
<polygon fill="#757575" stroke="#757575" points="1114.33,-643.96 1124.64,-641.5 1115.05,-636.99 1114.33,-643.96"/>
</g>
<!-- middleware/errorHandler.ts&#45;&gt;utils/logger.ts -->
<g id="edge37" class="edge">
<title>middleware/errorHandler.ts&#45;&gt;utils/logger.ts</title>
<path fill="none" stroke="#757575" d="M1203.47,-789.7C1244.71,-802.75 1310.01,-823.42 1354.99,-837.65"/>
<polygon fill="#757575" stroke="#757575" points="1353.93,-840.99 1364.52,-840.67 1356.04,-834.31 1353.93,-840.99"/>
</g>
<!-- services/authService.ts&#45;&gt;lib/prisma.ts -->
<g id="edge93" class="edge">
<title>services/authService.ts&#45;&gt;lib/prisma.ts</title>
<path fill="none" stroke="#757575" d="M986.48,-672.51C1147.52,-692.11 1528.46,-718.8 1802.5,-581.4 1856.5,-554.33 1903.26,-498.83 1926.15,-468.44"/>
<polygon fill="#757575" stroke="#757575" points="1928.7,-470.87 1931.82,-460.74 1923.07,-466.72 1928.7,-470.87"/>
</g>
<!-- services/authService.ts&#45;&gt;middleware/errorHandler.ts -->
<g id="edge94" class="edge">
<title>services/authService.ts&#45;&gt;middleware/errorHandler.ts</title>
<path fill="none" stroke="#757575" d="M970.44,-673.75C984.35,-677.42 998.89,-681.96 1012,-687.4 1058.5,-706.72 1107.76,-738.62 1136.82,-758.8"/>
<polygon fill="#757575" stroke="#757575" points="1134.43,-761.4 1144.63,-764.28 1138.46,-755.67 1134.43,-761.4"/>
</g>
<!-- services/authService.ts&#45;&gt;utils/jwt.ts -->
<g id="edge95" class="edge">
<title>services/authService.ts&#45;&gt;utils/jwt.ts</title>
<path fill="none" stroke="#757575" d="M986.31,-656.56C1028.15,-653.91 1078.67,-650.71 1114.89,-648.42"/>
<polygon fill="#757575" stroke="#757575" points="1114.85,-651.93 1124.61,-647.81 1114.41,-644.95 1114.85,-651.93"/>
</g>
<!-- controllers/chatController.ts -->
<g id="node21" class="node">
<title>controllers/chatController.ts</title>
<path fill="none" stroke="#c6c5fe" d="M719.58,-267.28C719.58,-267.28 555.92,-267.28 555.92,-267.28 551.96,-267.28 548,-263.32 548,-259.36 548,-259.36 548,-251.44 548,-251.44 548,-247.49 551.96,-243.53 555.92,-243.53 555.92,-243.53 719.58,-243.53 719.58,-243.53 723.54,-243.53 727.5,-247.49 727.5,-251.44 727.5,-251.44 727.5,-259.36 727.5,-259.36 727.5,-263.32 723.54,-267.28 719.58,-267.28"/>
<text xml:space="preserve" text-anchor="middle" x="637.75" y="-249.98" font-family="Arial" font-size="14.00" fill="#c6c5fe">controllers/chatController.ts</text>
</g>
<!-- controllers/chatController.ts&#45;&gt;utils/logger.ts -->
<g id="edge22" class="edge">
<title>controllers/chatController.ts&#45;&gt;utils/logger.ts</title>
<path fill="none" stroke="#757575" d="M686.67,-267.7C713.88,-276.77 746.9,-291.57 769.5,-314.4 797.5,-342.69 776.51,-369.13 805.5,-396.4 876.73,-463.41 939.82,-406.42 1012,-472.4 1039.59,-497.62 1019.97,-523.67 1048,-548.4 1129.12,-619.98 1196.05,-555.25 1279.25,-624.4 1347.26,-680.93 1384.49,-784.28 1398.36,-830.27"/>
<polygon fill="#757575" stroke="#757575" points="1394.95,-831.07 1401.11,-839.69 1401.67,-829.11 1394.95,-831.07"/>
</g>
<!-- controllers/chatController.ts&#45;&gt;config/providerMap.ts -->
<g id="edge15" class="edge">
<title>controllers/chatController.ts&#45;&gt;config/providerMap.ts</title>
<path fill="none" stroke="#757575" d="M727.96,-254.55C743.15,-250.84 757.78,-244.57 769.5,-234.4 810.28,-199.03 763.95,-152.87 805.5,-118.4 1055.76,89.19 1207.64,-53.1 1532.25,-34.4 1652.16,-27.5 1682.73,-25.38 1802.5,-34.4 1821.88,-35.86 1842.65,-38.45 1862.06,-41.33"/>
<polygon fill="#757575" stroke="#757575" points="1861.41,-44.77 1871.82,-42.82 1862.46,-37.85 1861.41,-44.77"/>
</g>
<!-- controllers/chatController.ts&#45;&gt;lib/prisma.ts -->
<g id="edge16" class="edge">
<title>controllers/chatController.ts&#45;&gt;lib/prisma.ts</title>
<path fill="none" stroke="#757575" d="M727.7,-250.34C822.8,-246.58 966.12,-246.2 1012,-274.4 1039.47,-291.29 1020.68,-320.27 1048,-337.4 1119.19,-382.06 1720.73,-370.04 1802.5,-389.4 1840.15,-398.32 1880.7,-416.37 1908.16,-429.98"/>
<polygon fill="#757575" stroke="#757575" points="1906.51,-433.07 1917.01,-434.45 1909.66,-426.82 1906.51,-433.07"/>
</g>
<!-- controllers/chatController.ts&#45;&gt;middleware/authMiddleware.ts -->
<g id="edge17" class="edge">
<title>controllers/chatController.ts&#45;&gt;middleware/authMiddleware.ts</title>
<path fill="none" stroke="#757575" d="M694.68,-267.71C721.24,-276.4 751.12,-290.84 769.5,-314.4 825.05,-385.61 764.19,-434.09 805.5,-514.4 823.79,-549.96 858.15,-581.43 881.96,-600.43"/>
<polygon fill="#757575" stroke="#757575" points="879.59,-603.01 889.63,-606.39 883.88,-597.49 879.59,-603.01"/>
</g>
<!-- services/ai/index.ts -->
<g id="node22" class="node">
<title>services/ai/index.ts</title>
<path fill="none" stroke="#c6c5fe" d="M1462.83,-147.28C1462.83,-147.28 1348.67,-147.28 1348.67,-147.28 1344.71,-147.28 1340.75,-143.32 1340.75,-139.36 1340.75,-139.36 1340.75,-131.44 1340.75,-131.44 1340.75,-127.49 1344.71,-123.53 1348.67,-123.53 1348.67,-123.53 1462.83,-123.53 1462.83,-123.53 1466.79,-123.53 1470.75,-127.49 1470.75,-131.44 1470.75,-131.44 1470.75,-139.36 1470.75,-139.36 1470.75,-143.32 1466.79,-147.28 1462.83,-147.28"/>
<text xml:space="preserve" text-anchor="middle" x="1405.75" y="-129.98" font-family="Arial" font-size="14.00" fill="#c6c5fe">services/ai/index.ts</text>
</g>
<!-- controllers/chatController.ts&#45;&gt;services/ai/index.ts -->
<g id="edge18" class="edge">
<title>controllers/chatController.ts&#45;&gt;services/ai/index.ts</title>
<path fill="none" stroke="#757575" d="M727.74,-252.76C742.69,-249.18 757.29,-243.41 769.5,-234.4 798.6,-212.92 775.2,-181.17 805.5,-161.4 889.73,-106.46 1187.97,-119.62 1329.35,-129.4"/>
<polygon fill="#757575" stroke="#757575" points="1328.75,-132.86 1338.97,-130.08 1329.24,-125.88 1328.75,-132.86"/>
</g>
<!-- services/ai/types.ts -->
<g id="node23" class="node">
<title>services/ai/types.ts</title>
<path fill="none" stroke="#cfffac" d="M2440.33,-145.28C2440.33,-145.28 2326.17,-145.28 2326.17,-145.28 2322.21,-145.28 2318.25,-141.32 2318.25,-137.36 2318.25,-137.36 2318.25,-129.44 2318.25,-129.44 2318.25,-125.49 2322.21,-121.53 2326.17,-121.53 2326.17,-121.53 2440.33,-121.53 2440.33,-121.53 2444.29,-121.53 2448.25,-125.49 2448.25,-129.44 2448.25,-129.44 2448.25,-137.36 2448.25,-137.36 2448.25,-141.32 2444.29,-145.28 2440.33,-145.28"/>
<text xml:space="preserve" text-anchor="middle" x="2383.25" y="-127.98" font-family="Arial" font-size="14.00" fill="#cfffac">services/ai/types.ts</text>
</g>
<!-- controllers/chatController.ts&#45;&gt;services/ai/types.ts -->
<g id="edge19" class="edge">
<title>controllers/chatController.ts&#45;&gt;services/ai/types.ts</title>
<path fill="none" stroke="#757575" d="M727.95,-249.4C742.4,-246.12 756.78,-241.33 769.5,-234.4 790.51,-222.96 783.92,-204.71 805.5,-194.4 948.93,-125.9 1003.68,-175.4 1162.62,-175.4 1162.62,-175.4 1162.62,-175.4 1406.75,-175.4 1706.87,-175.4 1781.66,-190.18 2081.75,-194.4 2170.85,-195.66 2196.46,-218.5 2282.25,-194.4 2311.06,-186.31 2339.79,-167.37 2359.01,-152.72"/>
<polygon fill="#757575" stroke="#757575" points="2361,-155.61 2366.7,-146.67 2356.68,-150.1 2361,-155.61"/>
</g>
<!-- services/chat/contextService.ts -->
<g id="node24" class="node">
<title>services/chat/contextService.ts</title>
<path fill="none" stroke="#c6c5fe" d="M1001.46,-227.28C1001.46,-227.28 816.04,-227.28 816.04,-227.28 812.08,-227.28 808.12,-223.32 808.12,-219.36 808.12,-219.36 808.12,-211.44 808.12,-211.44 808.12,-207.49 812.08,-203.53 816.04,-203.53 816.04,-203.53 1001.46,-203.53 1001.46,-203.53 1005.42,-203.53 1009.38,-207.49 1009.38,-211.44 1009.38,-211.44 1009.38,-219.36 1009.38,-219.36 1009.38,-223.32 1005.42,-227.28 1001.46,-227.28"/>
<text xml:space="preserve" text-anchor="middle" x="908.75" y="-209.98" font-family="Arial" font-size="14.00" fill="#c6c5fe">services/chat/contextService.ts</text>
</g>
<!-- controllers/chatController.ts&#45;&gt;services/chat/contextService.ts -->
<g id="edge20" class="edge">
<title>controllers/chatController.ts&#45;&gt;services/chat/contextService.ts</title>
<path fill="none" stroke="#757575" d="M721.65,-243.07C750.67,-238.76 783.47,-233.88 813.36,-229.44"/>
<polygon fill="#757575" stroke="#757575" points="813.78,-232.91 823.16,-227.98 812.75,-225.99 813.78,-232.91"/>
</g>
<!-- services/embeddingUtils.ts -->
<g id="node25" class="node">
<title>services/embeddingUtils.ts</title>
<path fill="none" stroke="#cfffac" d="M989.46,-307.28C989.46,-307.28 828.04,-307.28 828.04,-307.28 824.08,-307.28 820.12,-303.32 820.12,-299.36 820.12,-299.36 820.12,-291.44 820.12,-291.44 820.12,-287.49 824.08,-283.53 828.04,-283.53 828.04,-283.53 989.46,-283.53 989.46,-283.53 993.42,-283.53 997.38,-287.49 997.38,-291.44 997.38,-291.44 997.38,-299.36 997.38,-299.36 997.38,-303.32 993.42,-307.28 989.46,-307.28"/>
<text xml:space="preserve" text-anchor="middle" x="908.75" y="-289.98" font-family="Arial" font-size="14.00" fill="#cfffac">services/embeddingUtils.ts</text>
</g>
<!-- controllers/chatController.ts&#45;&gt;services/embeddingUtils.ts -->
<g id="edge21" class="edge">
<title>controllers/chatController.ts&#45;&gt;services/embeddingUtils.ts</title>
<path fill="none" stroke="#757575" d="M721.65,-267.73C750.67,-272.05 783.47,-276.92 813.36,-281.37"/>
<polygon fill="#757575" stroke="#757575" points="812.75,-284.81 823.16,-282.82 813.78,-277.89 812.75,-284.81"/>
</g>
<!-- services/ai/index.ts&#45;&gt;services/ai/types.ts -->
<g id="edge84" class="edge">
<title>services/ai/index.ts&#45;&gt;services/ai/types.ts</title>
<path fill="none" stroke="#757575" d="M1468.09,-123.05C1488.42,-119.52 1511.23,-116.15 1532.25,-114.4 1817.37,-90.71 2158,-113.79 2306.64,-126.39"/>
<polygon fill="#757575" stroke="#757575" points="2306.1,-129.86 2316.36,-127.23 2306.69,-122.88 2306.1,-129.86"/>
</g>
<!-- services/ai/client/azureEmbeddingClient.ts -->
<g id="node48" class="node">
<title>services/ai/client/azureEmbeddingClient.ts</title>
<path fill="none" stroke="#c6c5fe" d="M1794.58,-67.28C1794.58,-67.28 1540.17,-67.28 1540.17,-67.28 1536.21,-67.28 1532.25,-63.32 1532.25,-59.36 1532.25,-59.36 1532.25,-51.44 1532.25,-51.44 1532.25,-47.49 1536.21,-43.53 1540.17,-43.53 1540.17,-43.53 1794.58,-43.53 1794.58,-43.53 1798.54,-43.53 1802.5,-47.49 1802.5,-51.44 1802.5,-51.44 1802.5,-59.36 1802.5,-59.36 1802.5,-63.32 1798.54,-67.28 1794.58,-67.28"/>
<text xml:space="preserve" text-anchor="middle" x="1667.38" y="-49.98" font-family="Arial" font-size="14.00" fill="#c6c5fe">services/ai/client/azureEmbeddingClient.ts</text>
</g>
<!-- services/ai/index.ts&#45;&gt;services/ai/client/azureEmbeddingClient.ts -->
<g id="edge82" class="edge">
<title>services/ai/index.ts&#45;&gt;services/ai/client/azureEmbeddingClient.ts</title>
<path fill="none" stroke="#757575" d="M1431.16,-123.03C1456.03,-110.88 1495.98,-92.58 1532.25,-81.4 1546.48,-77.02 1561.79,-73.22 1576.8,-69.99"/>
<polygon fill="#757575" stroke="#757575" points="1577.1,-73.5 1586.18,-68.04 1575.68,-66.65 1577.1,-73.5"/>
</g>
<!-- services/ai/providers/factory.ts -->
<g id="node51" class="node">
<title>services/ai/providers/factory.ts</title>
<path fill="none" stroke="#c6c5fe" d="M1757.83,-147.28C1757.83,-147.28 1576.92,-147.28 1576.92,-147.28 1572.96,-147.28 1569,-143.32 1569,-139.36 1569,-139.36 1569,-131.44 1569,-131.44 1569,-127.49 1572.96,-123.53 1576.92,-123.53 1576.92,-123.53 1757.83,-123.53 1757.83,-123.53 1761.79,-123.53 1765.75,-127.49 1765.75,-131.44 1765.75,-131.44 1765.75,-139.36 1765.75,-139.36 1765.75,-143.32 1761.79,-147.28 1757.83,-147.28"/>
<text xml:space="preserve" text-anchor="middle" x="1667.38" y="-129.98" font-family="Arial" font-size="14.00" fill="#c6c5fe">services/ai/providers/factory.ts</text>
</g>
<!-- services/ai/index.ts&#45;&gt;services/ai/providers/factory.ts -->
<g id="edge83" class="edge">
<title>services/ai/index.ts&#45;&gt;services/ai/providers/factory.ts</title>
<path fill="none" stroke="#757575" d="M1470.93,-135.4C1497.02,-135.4 1527.92,-135.4 1557.36,-135.4"/>
<polygon fill="#757575" stroke="#757575" points="1557.04,-138.9 1567.04,-135.4 1557.04,-131.9 1557.04,-138.9"/>
</g>
<!-- services/chat/contextService.ts&#45;&gt;lib/prisma.ts -->
<g id="edge96" class="edge">
<title>services/chat/contextService.ts&#45;&gt;lib/prisma.ts</title>
<path fill="none" stroke="#757575" d="M986.58,-227.68C995.67,-231.18 1004.4,-235.66 1012,-241.4 1037.43,-260.61 1020.9,-286.64 1048,-303.4 1190.86,-391.81 1643.81,-296.23 1802.5,-351.4 1849.29,-367.67 1894.79,-404.38 1920.27,-427.39"/>
<polygon fill="#757575" stroke="#757575" points="1917.88,-429.95 1927.6,-434.17 1922.63,-424.81 1917.88,-429.95"/>
</g>
<!-- services/chat/contextService.ts&#45;&gt;services/ai/types.ts -->
<g id="edge97" class="edge">
<title>services/chat/contextService.ts&#45;&gt;services/ai/types.ts</title>
<path fill="none" stroke="#757575" d="M958.92,-227.7C1047.46,-248.75 1239.87,-289.4 1404.75,-289.4 1404.75,-289.4 1404.75,-289.4 1943.12,-289.4 2096.35,-289.4 2145.48,-296.47 2282.25,-227.4 2317.08,-209.81 2348.27,-176.26 2366.23,-154.37"/>
<polygon fill="#757575" stroke="#757575" points="2368.85,-156.69 2372.35,-146.68 2363.38,-152.32 2368.85,-156.69"/>
</g>
<!-- services/ragService.ts -->
<g id="node54" class="node">
<title>services/ragService.ts</title>
<path fill="none" stroke="#c6c5fe" d="M1229.71,-227.28C1229.71,-227.28 1097.54,-227.28 1097.54,-227.28 1093.58,-227.28 1089.62,-223.32 1089.62,-219.36 1089.62,-219.36 1089.62,-211.44 1089.62,-211.44 1089.62,-207.49 1093.58,-203.53 1097.54,-203.53 1097.54,-203.53 1229.71,-203.53 1229.71,-203.53 1233.67,-203.53 1237.62,-207.49 1237.62,-211.44 1237.62,-211.44 1237.62,-219.36 1237.62,-219.36 1237.62,-223.32 1233.67,-227.28 1229.71,-227.28"/>
<text xml:space="preserve" text-anchor="middle" x="1163.62" y="-209.98" font-family="Arial" font-size="14.00" fill="#c6c5fe">services/ragService.ts</text>
</g>
<!-- services/chat/contextService.ts&#45;&gt;services/ragService.ts -->
<g id="edge98" class="edge">
<title>services/chat/contextService.ts&#45;&gt;services/ragService.ts</title>
<path fill="none" stroke="#757575" d="M1009.69,-215.4C1032.26,-215.4 1056.02,-215.4 1077.89,-215.4"/>
<polygon fill="#757575" stroke="#757575" points="1077.63,-218.9 1087.63,-215.4 1077.63,-211.9 1077.63,-218.9"/>
</g>
<!-- controllers/chatHistoryController.ts -->
<g id="node26" class="node">
<title>controllers/chatHistoryController.ts</title>
<path fill="none" stroke="#c6c5fe" d="M740.58,-915.28C740.58,-915.28 534.92,-915.28 534.92,-915.28 530.96,-915.28 527,-911.32 527,-907.36 527,-907.36 527,-899.44 527,-899.44 527,-895.49 530.96,-891.53 534.92,-891.53 534.92,-891.53 740.58,-891.53 740.58,-891.53 744.54,-891.53 748.5,-895.49 748.5,-899.44 748.5,-899.44 748.5,-907.36 748.5,-907.36 748.5,-911.32 744.54,-915.28 740.58,-915.28"/>
<text xml:space="preserve" text-anchor="middle" x="637.75" y="-897.98" font-family="Arial" font-size="14.00" fill="#c6c5fe">controllers/chatHistoryController.ts</text>
</g>
<!-- controllers/chatHistoryController.ts&#45;&gt;lib/prisma.ts -->
<g id="edge23" class="edge">
<title>controllers/chatHistoryController.ts&#45;&gt;lib/prisma.ts</title>
<path fill="none" stroke="#757575" d="M713.02,-915.74C865.32,-937.89 1221.79,-973.41 1496.25,-874.4 1714.58,-795.64 1882.18,-544.03 1928.39,-468.83"/>
<polygon fill="#757575" stroke="#757575" points="1931.11,-471.08 1933.31,-460.72 1925.13,-467.45 1931.11,-471.08"/>
</g>
<!-- controllers/chatHistoryController.ts&#45;&gt;middleware/authMiddleware.ts -->
<g id="edge24" class="edge">
<title>controllers/chatHistoryController.ts&#45;&gt;middleware/authMiddleware.ts</title>
<path fill="none" stroke="#757575" d="M748.97,-896.87C756.54,-893.19 763.52,-888.45 769.5,-882.4 845.94,-805.07 730.75,-719.37 805.5,-640.4 806.11,-639.76 806.73,-639.14 807.36,-638.53"/>
<polygon fill="#757575" stroke="#757575" points="809.4,-641.38 815.1,-632.45 805.08,-635.87 809.4,-641.38"/>
</g>
<!-- controllers/chatHistoryController.ts&#45;&gt;middleware/errorHandler.ts -->
<g id="edge25" class="edge">
<title>controllers/chatHistoryController.ts&#45;&gt;middleware/errorHandler.ts</title>
<path fill="none" stroke="#757575" d="M719.06,-891.08C735.75,-888.35 753.22,-885.39 769.5,-882.4 877.74,-862.56 906.14,-862.47 1012,-832.4 1050.16,-821.56 1092.51,-805.75 1122.56,-793.86"/>
<polygon fill="#757575" stroke="#757575" points="1123.65,-797.19 1131.64,-790.23 1121.05,-790.69 1123.65,-797.19"/>
</g>
<!-- controllers/promptTraceController.ts -->
<g id="node27" class="node">
<title>controllers/promptTraceController.ts</title>
<path fill="none" stroke="#c6c5fe" d="M1271.33,-539.28C1271.33,-539.28 1055.92,-539.28 1055.92,-539.28 1051.96,-539.28 1048,-535.32 1048,-531.36 1048,-531.36 1048,-523.44 1048,-523.44 1048,-519.49 1051.96,-515.53 1055.92,-515.53 1055.92,-515.53 1271.33,-515.53 1271.33,-515.53 1275.29,-515.53 1279.25,-519.49 1279.25,-523.44 1279.25,-523.44 1279.25,-531.36 1279.25,-531.36 1279.25,-535.32 1275.29,-539.28 1271.33,-539.28"/>
<text xml:space="preserve" text-anchor="middle" x="1163.62" y="-521.98" font-family="Arial" font-size="14.00" fill="#c6c5fe">controllers/promptTraceController.ts</text>
</g>
<!-- controllers/promptTraceController.ts&#45;&gt;utils/logger.ts -->
<g id="edge27" class="edge">
<title>controllers/promptTraceController.ts&#45;&gt;utils/logger.ts</title>
<path fill="none" stroke="#757575" d="M1198.34,-539.7C1223.32,-550.22 1256.78,-567.48 1279.25,-591.4 1347.53,-664.09 1385.21,-780.81 1398.82,-830.17"/>
<polygon fill="#757575" stroke="#757575" points="1395.41,-830.98 1401.37,-839.73 1402.17,-829.17 1395.41,-830.98"/>
</g>
<!-- controllers/promptTraceController.ts&#45;&gt;lib/prisma.ts -->
<g id="edge26" class="edge">
<title>controllers/promptTraceController.ts&#45;&gt;lib/prisma.ts</title>
<path fill="none" stroke="#757575" d="M1279.53,-526.7C1407.89,-524.28 1621.44,-515.39 1802.5,-484.4 1832.47,-479.27 1865.37,-470.62 1891.6,-462.98"/>
<polygon fill="#757575" stroke="#757575" points="1892.36,-466.4 1900.96,-460.2 1890.37,-459.69 1892.36,-466.4"/>
</g>
<!-- controllers/userController.ts -->
<g id="node28" class="node">
<title>controllers/userController.ts</title>
<path fill="none" stroke="#c6c5fe" d="M719.96,-591.28C719.96,-591.28 555.54,-591.28 555.54,-591.28 551.58,-591.28 547.62,-587.32 547.62,-583.36 547.62,-583.36 547.62,-575.44 547.62,-575.44 547.62,-571.49 551.58,-567.53 555.54,-567.53 555.54,-567.53 719.96,-567.53 719.96,-567.53 723.92,-567.53 727.88,-571.49 727.88,-575.44 727.88,-575.44 727.88,-583.36 727.88,-583.36 727.88,-587.32 723.92,-591.28 719.96,-591.28"/>
<text xml:space="preserve" text-anchor="middle" x="637.75" y="-573.98" font-family="Arial" font-size="14.00" fill="#c6c5fe">controllers/userController.ts</text>
</g>
<!-- controllers/userController.ts&#45;&gt;lib/prisma.ts -->
<g id="edge28" class="edge">
<title>controllers/userController.ts&#45;&gt;lib/prisma.ts</title>
<path fill="none" stroke="#757575" d="M728.25,-586.42C925.97,-599.33 1413.29,-616.8 1802.5,-513.4 1842.25,-502.84 1884.44,-481.04 1911.69,-465.38"/>
<polygon fill="#757575" stroke="#757575" points="1913.2,-468.55 1920.06,-460.48 1909.66,-462.51 1913.2,-468.55"/>
</g>
<!-- controllers/userController.ts&#45;&gt;middleware/authMiddleware.ts -->
<g id="edge29" class="edge">
<title>controllers/userController.ts&#45;&gt;middleware/authMiddleware.ts</title>
<path fill="none" stroke="#757575" d="M721.65,-591.73C750.67,-596.05 783.47,-600.92 813.36,-605.37"/>
<polygon fill="#757575" stroke="#757575" points="812.75,-608.81 823.16,-606.82 813.78,-601.89 812.75,-608.81"/>
</g>
<!-- controllers/userController.ts&#45;&gt;middleware/errorHandler.ts -->
<g id="edge30" class="edge">
<title>controllers/userController.ts&#45;&gt;middleware/errorHandler.ts</title>
<path fill="none" stroke="#757575" d="M728.27,-580.36C743.35,-584.08 757.85,-590.32 769.5,-600.4 810,-635.45 765.22,-680.1 805.5,-715.4 810.59,-719.87 970.47,-746.39 1074.56,-763.26"/>
<polygon fill="#757575" stroke="#757575" points="1073.78,-766.68 1084.21,-764.83 1074.9,-759.77 1073.78,-766.68"/>
</g>
<!-- controllers/userSettingsController.ts -->
<g id="node29" class="node">
<title>controllers/userSettingsController.ts</title>
<path fill="none" stroke="#c6c5fe" d="M744.33,-431.28C744.33,-431.28 531.17,-431.28 531.17,-431.28 527.21,-431.28 523.25,-427.32 523.25,-423.36 523.25,-423.36 523.25,-415.44 523.25,-415.44 523.25,-411.49 527.21,-407.53 531.17,-407.53 531.17,-407.53 744.33,-407.53 744.33,-407.53 748.29,-407.53 752.25,-411.49 752.25,-415.44 752.25,-415.44 752.25,-423.36 752.25,-423.36 752.25,-427.32 748.29,-431.28 744.33,-431.28"/>
<text xml:space="preserve" text-anchor="middle" x="637.75" y="-413.98" font-family="Arial" font-size="14.00" fill="#c6c5fe">controllers/userSettingsController.ts</text>
</g>
<!-- controllers/userSettingsController.ts&#45;&gt;lib/prisma.ts -->
<g id="edge31" class="edge">
<title>controllers/userSettingsController.ts&#45;&gt;lib/prisma.ts</title>
<path fill="none" stroke="#757575" d="M740.12,-431.69C750.64,-435.65 760.68,-440.78 769.5,-447.4 796.53,-467.71 776.49,-497.06 805.5,-514.4 884.27,-561.5 935.8,-565.56 1012,-514.4 1047.08,-490.85 1012.92,-449.96 1048,-426.4 1185.29,-334.23 1713.48,-410.17 1886.15,-438.12"/>
<polygon fill="#757575" stroke="#757575" points="1885.56,-441.57 1895.99,-439.72 1886.68,-434.66 1885.56,-441.57"/>
</g>
<!-- controllers/userSettingsController.ts&#45;&gt;middleware/authMiddleware.ts -->
<g id="edge32" class="edge">
<title>controllers/userSettingsController.ts&#45;&gt;middleware/authMiddleware.ts</title>
<path fill="none" stroke="#757575" d="M748.2,-431.77C755.89,-435.39 763.12,-439.87 769.5,-445.4 805.84,-476.88 776.47,-509.08 805.5,-547.4 823.04,-570.56 850.18,-589.18 872.09,-601.68"/>
<polygon fill="#757575" stroke="#757575" points="870.27,-604.67 880.72,-606.42 873.64,-598.54 870.27,-604.67"/>
</g>
<!-- controllers/userSettingsController.ts&#45;&gt;middleware/errorHandler.ts -->
<g id="edge33" class="edge">
<title>controllers/userSettingsController.ts&#45;&gt;middleware/errorHandler.ts</title>
<path fill="none" stroke="#757575" d="M694.72,-431.69C721.28,-440.37 751.16,-454.81 769.5,-478.4 826.01,-551.09 739.87,-617.83 805.5,-682.4 871.75,-747.59 922.54,-690.21 1012,-715.4 1052.85,-726.9 1097.57,-746.23 1127.58,-760.25"/>
<polygon fill="#757575" stroke="#757575" points="1126.03,-763.39 1136.57,-764.5 1129.03,-757.06 1126.03,-763.39"/>
</g>
<!-- services/encryptionService.ts -->
<g id="node30" class="node">
<title>services/encryptionService.ts</title>
<path fill="none" stroke="#cfffac" d="M996.21,-505.28C996.21,-505.28 821.29,-505.28 821.29,-505.28 817.33,-505.28 813.38,-501.32 813.38,-497.36 813.38,-497.36 813.38,-489.44 813.38,-489.44 813.38,-485.49 817.33,-481.53 821.29,-481.53 821.29,-481.53 996.21,-481.53 996.21,-481.53 1000.17,-481.53 1004.12,-485.49 1004.12,-489.44 1004.12,-489.44 1004.12,-497.36 1004.12,-497.36 1004.12,-501.32 1000.17,-505.28 996.21,-505.28"/>
<text xml:space="preserve" text-anchor="middle" x="908.75" y="-487.98" font-family="Arial" font-size="14.00" fill="#cfffac">services/encryptionService.ts</text>
</g>
<!-- controllers/userSettingsController.ts&#45;&gt;services/encryptionService.ts -->
<g id="edge34" class="edge">
<title>controllers/userSettingsController.ts&#45;&gt;services/encryptionService.ts</title>
<path fill="none" stroke="#757575" d="M723.7,-431.77C739.22,-435.29 755.06,-439.76 769.5,-445.4 786.97,-452.23 788.22,-460.12 805.5,-467.4 815.15,-471.47 825.58,-475.01 835.97,-478.07"/>
<polygon fill="#757575" stroke="#757575" points="834.72,-481.35 845.29,-480.67 836.6,-474.61 834.72,-481.35"/>
</g>
<!-- middleware/rateLimiter.ts -->
<g id="node32" class="node">
<title>middleware/rateLimiter.ts</title>
<path fill="none" stroke="#c6c5fe" d="M451.21,-1037.28C451.21,-1037.28 299.54,-1037.28 299.54,-1037.28 295.58,-1037.28 291.62,-1033.32 291.62,-1029.36 291.62,-1029.36 291.62,-1021.44 291.62,-1021.44 291.62,-1017.49 295.58,-1013.53 299.54,-1013.53 299.54,-1013.53 451.21,-1013.53 451.21,-1013.53 455.17,-1013.53 459.12,-1017.49 459.12,-1021.44 459.12,-1021.44 459.12,-1029.36 459.12,-1029.36 459.12,-1033.32 455.17,-1037.28 451.21,-1037.28"/>
<text xml:space="preserve" text-anchor="middle" x="375.38" y="-1019.98" font-family="Arial" font-size="14.00" fill="#c6c5fe">middleware/rateLimiter.ts</text>
</g>
<!-- middleware/rateLimiter.ts&#45;&gt;utils/logger.ts -->
<g id="edge38" class="edge">
<title>middleware/rateLimiter.ts&#45;&gt;utils/logger.ts</title>
<path fill="none" stroke="#757575" d="M459.55,-1020.38C539.35,-1014.89 663.11,-1004.66 769.5,-988.4 984.47,-955.56 1236.11,-895.57 1347.14,-867.99"/>
<polygon fill="#757575" stroke="#757575" points="1347.75,-871.44 1356.6,-865.63 1346.05,-864.65 1347.75,-871.44"/>
</g>
<!-- middleware/validateRequest.ts -->
<g id="node33" class="node">
<title>middleware/validateRequest.ts</title>
<path fill="none" stroke="#c6c5fe" d="M730.08,-633.28C730.08,-633.28 545.42,-633.28 545.42,-633.28 541.46,-633.28 537.5,-629.32 537.5,-625.36 537.5,-625.36 537.5,-617.44 537.5,-617.44 537.5,-613.49 541.46,-609.53 545.42,-609.53 545.42,-609.53 730.08,-609.53 730.08,-609.53 734.04,-609.53 738,-613.49 738,-617.44 738,-617.44 738,-625.36 738,-625.36 738,-629.32 734.04,-633.28 730.08,-633.28"/>
<text xml:space="preserve" text-anchor="middle" x="637.75" y="-615.98" font-family="Arial" font-size="14.00" fill="#c6c5fe">middleware/validateRequest.ts</text>
</g>
<!-- middleware/validateRequest.ts&#45;&gt;middleware/errorHandler.ts -->
<g id="edge39" class="edge">
<title>middleware/validateRequest.ts&#45;&gt;middleware/errorHandler.ts</title>
<path fill="none" stroke="#757575" d="M738.21,-625.34C749.63,-629.14 760.42,-634.63 769.5,-642.4 808.89,-676.14 764.6,-721.52 805.5,-753.4 844.2,-783.57 971.04,-785.65 1062.56,-782.82"/>
<polygon fill="#757575" stroke="#757575" points="1062.43,-786.32 1072.31,-782.49 1062.19,-779.33 1062.43,-786.32"/>
</g>
<!-- middleware/validators/authValidator.ts -->
<g id="node34" class="node">
<title>middleware/validators/authValidator.ts</title>
<path fill="none" stroke="#cfffac" d="M751.46,-793.28C751.46,-793.28 524.04,-793.28 524.04,-793.28 520.08,-793.28 516.12,-789.32 516.12,-785.36 516.12,-785.36 516.12,-777.44 516.12,-777.44 516.12,-773.49 520.08,-769.53 524.04,-769.53 524.04,-769.53 751.46,-769.53 751.46,-769.53 755.42,-769.53 759.38,-773.49 759.38,-777.44 759.38,-777.44 759.38,-785.36 759.38,-785.36 759.38,-789.32 755.42,-793.28 751.46,-793.28"/>
<text xml:space="preserve" text-anchor="middle" x="637.75" y="-775.98" font-family="Arial" font-size="14.00" fill="#cfffac">middleware/validators/authValidator.ts</text>
</g>
<!-- middleware/validators/chatValidator.ts -->
<g id="node35" class="node">
<title>middleware/validators/chatValidator.ts</title>
<path fill="none" stroke="#cfffac" d="M751.08,-511.28C751.08,-511.28 524.42,-511.28 524.42,-511.28 520.46,-511.28 516.5,-507.32 516.5,-503.36 516.5,-503.36 516.5,-495.44 516.5,-495.44 516.5,-491.49 520.46,-487.53 524.42,-487.53 524.42,-487.53 751.08,-487.53 751.08,-487.53 755.04,-487.53 759,-491.49 759,-495.44 759,-495.44 759,-503.36 759,-503.36 759,-507.32 755.04,-511.28 751.08,-511.28"/>
<text xml:space="preserve" text-anchor="middle" x="637.75" y="-493.98" font-family="Arial" font-size="14.00" fill="#cfffac">middleware/validators/chatValidator.ts</text>
</g>
<!-- middleware/validators/settingsValidator.ts -->
<g id="node36" class="node">
<title>middleware/validators/settingsValidator.ts</title>
<path fill="none" stroke="#cfffac" d="M761.58,-225.28C761.58,-225.28 513.92,-225.28 513.92,-225.28 509.96,-225.28 506,-221.32 506,-217.36 506,-217.36 506,-209.44 506,-209.44 506,-205.49 509.96,-201.53 513.92,-201.53 513.92,-201.53 761.58,-201.53 761.58,-201.53 765.54,-201.53 769.5,-205.49 769.5,-209.44 769.5,-209.44 769.5,-217.36 769.5,-217.36 769.5,-221.32 765.54,-225.28 761.58,-225.28"/>
<text xml:space="preserve" text-anchor="middle" x="637.75" y="-207.98" font-family="Arial" font-size="14.00" fill="#cfffac">middleware/validators/settingsValidator.ts</text>
</g>
<!-- middleware/validators/userValidator.ts -->
<g id="node37" class="node">
<title>middleware/validators/userValidator.ts</title>
<path fill="none" stroke="#cfffac" d="M751.46,-675.28C751.46,-675.28 524.04,-675.28 524.04,-675.28 520.08,-675.28 516.12,-671.32 516.12,-667.36 516.12,-667.36 516.12,-659.44 516.12,-659.44 516.12,-655.49 520.08,-651.53 524.04,-651.53 524.04,-651.53 751.46,-651.53 751.46,-651.53 755.42,-651.53 759.38,-655.49 759.38,-659.44 759.38,-659.44 759.38,-667.36 759.38,-667.36 759.38,-671.32 755.42,-675.28 751.46,-675.28"/>
<text xml:space="preserve" text-anchor="middle" x="637.75" y="-657.98" font-family="Arial" font-size="14.00" fill="#cfffac">middleware/validators/userValidator.ts</text>
</g>
<!-- routes/aiRoutes.ts -->
<g id="node38" class="node">
<title>routes/aiRoutes.ts</title>
<path fill="none" stroke="#c6c5fe" d="M429.83,-329.28C429.83,-329.28 320.92,-329.28 320.92,-329.28 316.96,-329.28 313,-325.32 313,-321.36 313,-321.36 313,-313.44 313,-313.44 313,-309.49 316.96,-305.53 320.92,-305.53 320.92,-305.53 429.83,-305.53 429.83,-305.53 433.79,-305.53 437.75,-309.49 437.75,-313.44 437.75,-313.44 437.75,-321.36 437.75,-321.36 437.75,-325.32 433.79,-329.28 429.83,-329.28"/>
<text xml:space="preserve" text-anchor="middle" x="375.38" y="-311.98" font-family="Arial" font-size="14.00" fill="#c6c5fe">routes/aiRoutes.ts</text>
</g>
<!-- routes/aiRoutes.ts&#45;&gt;controllers/aiController.ts -->
<g id="edge40" class="edge">
<title>routes/aiRoutes.ts&#45;&gt;controllers/aiController.ts</title>
<path fill="none" stroke="#757575" d="M438.02,-315.68C459.53,-315.16 483.83,-314.66 506,-314.4 623.1,-313.05 652.78,-304.84 769.5,-314.4 878.37,-323.32 910.77,-313.35 1012,-354.4 1030.05,-361.72 1031.61,-368.87 1048,-379.4 1075.64,-397.16 1107.88,-416.14 1131.12,-429.52"/>
<polygon fill="#757575" stroke="#757575" points="1129.07,-432.38 1139.48,-434.32 1132.55,-426.31 1129.07,-432.38"/>
</g>
<!-- routes/analyticsRoutes.ts -->
<g id="node39" class="node">
<title>routes/analyticsRoutes.ts</title>
<path fill="none" stroke="#c6c5fe" d="M713.21,-347.28C713.21,-347.28 562.29,-347.28 562.29,-347.28 558.33,-347.28 554.38,-343.32 554.38,-339.36 554.38,-339.36 554.38,-331.44 554.38,-331.44 554.38,-327.49 558.33,-323.53 562.29,-323.53 562.29,-323.53 713.21,-323.53 713.21,-323.53 717.17,-323.53 721.12,-327.49 721.12,-331.44 721.12,-331.44 721.12,-339.36 721.12,-339.36 721.12,-343.32 717.17,-347.28 713.21,-347.28"/>
<text xml:space="preserve" text-anchor="middle" x="637.75" y="-329.98" font-family="Arial" font-size="14.00" fill="#c6c5fe">routes/analyticsRoutes.ts</text>
</g>
<!-- routes/analyticsRoutes.ts&#45;&gt;controllers/analyticsController.ts -->
<g id="edge41" class="edge">
<title>routes/analyticsRoutes.ts&#45;&gt;controllers/analyticsController.ts</title>
<path fill="none" stroke="#757575" d="M721.29,-347.68C750.46,-352.01 783.48,-356.92 813.54,-361.39"/>
<polygon fill="#757575" stroke="#757575" points="813,-364.85 823.41,-362.86 814.03,-357.93 813,-364.85"/>
</g>
<!-- routes/analyticsRoutes.ts&#45;&gt;middleware/authMiddleware.ts -->
<g id="edge42" class="edge">
<title>routes/analyticsRoutes.ts&#45;&gt;middleware/authMiddleware.ts</title>
<path fill="none" stroke="#757575" d="M721.51,-333.96C739.17,-337.4 756.42,-344.14 769.5,-356.4 822.05,-405.65 771.09,-451.13 805.5,-514.4 824.6,-549.53 858.78,-581.09 882.33,-600.24"/>
<polygon fill="#757575" stroke="#757575" points="879.89,-602.77 889.9,-606.24 884.24,-597.28 879.89,-602.77"/>
</g>
<!-- routes/auditRoutes.ts -->
<g id="node40" class="node">
<title>routes/auditRoutes.ts</title>
<path fill="none" stroke="#c6c5fe" d="M701.58,-957.28C701.58,-957.28 573.92,-957.28 573.92,-957.28 569.96,-957.28 566,-953.32 566,-949.36 566,-949.36 566,-941.44 566,-941.44 566,-937.49 569.96,-933.53 573.92,-933.53 573.92,-933.53 701.58,-933.53 701.58,-933.53 705.54,-933.53 709.5,-937.49 709.5,-941.44 709.5,-941.44 709.5,-949.36 709.5,-949.36 709.5,-953.32 705.54,-957.28 701.58,-957.28"/>
<text xml:space="preserve" text-anchor="middle" x="637.75" y="-939.98" font-family="Arial" font-size="14.00" fill="#c6c5fe">routes/auditRoutes.ts</text>
</g>
<!-- routes/auditRoutes.ts&#45;&gt;controllers/auditController.ts -->
<g id="edge43" class="edge">
<title>routes/auditRoutes.ts&#45;&gt;controllers/auditController.ts</title>
<path fill="none" stroke="#757575" d="M664.44,-957.68C696.92,-973 754.75,-999.59 805.5,-1019.4 913.02,-1061.37 1041.84,-1102.93 1111.62,-1124.73"/>
<polygon fill="#757575" stroke="#757575" points="1110.26,-1127.97 1120.85,-1127.61 1112.34,-1121.29 1110.26,-1127.97"/>
</g>
<!-- routes/auditRoutes.ts&#45;&gt;middleware/authMiddleware.ts -->
<g id="edge44" class="edge">
<title>routes/auditRoutes.ts&#45;&gt;middleware/authMiddleware.ts</title>
<path fill="none" stroke="#757575" d="M709.81,-949.67C731.7,-947.26 754.07,-940.35 769.5,-924.4 857.96,-832.96 719.04,-733.74 805.5,-640.4 805.98,-639.88 806.47,-639.37 806.97,-638.88"/>
<polygon fill="#757575" stroke="#757575" points="809.04,-641.71 814.58,-632.68 804.62,-636.28 809.04,-641.71"/>
</g>
<!-- routes/authRoutes.ts -->
<g id="node41" class="node">
<title>routes/authRoutes.ts</title>
<path fill="none" stroke="#c6c5fe" d="M437.71,-753.28C437.71,-753.28 313.04,-753.28 313.04,-753.28 309.08,-753.28 305.12,-749.32 305.12,-745.36 305.12,-745.36 305.12,-737.44 305.12,-737.44 305.12,-733.49 309.08,-729.53 313.04,-729.53 313.04,-729.53 437.71,-729.53 437.71,-729.53 441.67,-729.53 445.62,-733.49 445.62,-737.44 445.62,-737.44 445.62,-745.36 445.62,-745.36 445.62,-749.32 441.67,-753.28 437.71,-753.28"/>
<text xml:space="preserve" text-anchor="middle" x="375.38" y="-735.98" font-family="Arial" font-size="14.00" fill="#c6c5fe">routes/authRoutes.ts</text>
</g>
<!-- routes/authRoutes.ts&#45;&gt;controllers/authController.ts -->
<g id="edge45" class="edge">
<title>routes/authRoutes.ts&#45;&gt;controllers/authController.ts</title>
<path fill="none" stroke="#757575" d="M402.14,-753.68C428.26,-766.08 469.86,-785.75 506,-802.4 537.21,-816.79 572.76,-832.81 598.91,-844.52"/>
<polygon fill="#757575" stroke="#757575" points="597.2,-847.59 607.76,-848.48 600.06,-841.2 597.2,-847.59"/>
</g>
<!-- routes/authRoutes.ts&#45;&gt;middleware/authMiddleware.ts -->
<g id="edge46" class="edge">
<title>routes/authRoutes.ts&#45;&gt;middleware/authMiddleware.ts</title>
<path fill="none" stroke="#757575" d="M445.81,-744.31C544.28,-747.1 718.26,-746.74 769.5,-712.4 799.22,-692.49 777.12,-662.19 805.5,-640.4 807.03,-639.23 808.61,-638.11 810.24,-637.06"/>
<polygon fill="#757575" stroke="#757575" points="811.62,-640.29 818.64,-632.36 808.2,-634.18 811.62,-640.29"/>
</g>
<!-- routes/authRoutes.ts&#45;&gt;middleware/validateRequest.ts -->
<g id="edge47" class="edge">
<title>routes/authRoutes.ts&#45;&gt;middleware/validateRequest.ts</title>
<path fill="none" stroke="#757575" d="M401.25,-729.06C420.98,-718.63 448.69,-702.52 470,-684.4 488.73,-668.48 484.55,-654.42 506,-642.4 512.47,-638.78 519.38,-635.73 526.53,-633.18"/>
<polygon fill="#757575" stroke="#757575" points="527.24,-636.63 535.69,-630.24 525.1,-629.96 527.24,-636.63"/>
</g>
<!-- routes/authRoutes.ts&#45;&gt;middleware/validators/authValidator.ts -->
<g id="edge48" class="edge">
<title>routes/authRoutes.ts&#45;&gt;middleware/validators/authValidator.ts</title>
<path fill="none" stroke="#757575" d="M445.81,-752.07C476.26,-756.75 512.44,-762.3 545.07,-767.32"/>
<polygon fill="#757575" stroke="#757575" points="544.53,-770.78 554.95,-768.84 545.6,-763.86 544.53,-770.78"/>
</g>
<!-- routes/chatHistoryRoutes.ts -->
<g id="node42" class="node">
<title>routes/chatHistoryRoutes.ts</title>
<path fill="none" stroke="#c6c5fe" d="M458.33,-833.28C458.33,-833.28 292.42,-833.28 292.42,-833.28 288.46,-833.28 284.5,-829.32 284.5,-825.36 284.5,-825.36 284.5,-817.44 284.5,-817.44 284.5,-813.49 288.46,-809.53 292.42,-809.53 292.42,-809.53 458.33,-809.53 458.33,-809.53 462.29,-809.53 466.25,-813.49 466.25,-817.44 466.25,-817.44 466.25,-825.36 466.25,-825.36 466.25,-829.32 462.29,-833.28 458.33,-833.28"/>
<text xml:space="preserve" text-anchor="middle" x="375.38" y="-815.98" font-family="Arial" font-size="14.00" fill="#c6c5fe">routes/chatHistoryRoutes.ts</text>
</g>
<!-- routes/chatHistoryRoutes.ts&#45;&gt;middleware/authMiddleware.ts -->
<g id="edge50" class="edge">
<title>routes/chatHistoryRoutes.ts&#45;&gt;middleware/authMiddleware.ts</title>
<path fill="none" stroke="#757575" d="M466.43,-829.2C568.16,-835.97 725.35,-839.61 769.5,-802.4 825.9,-754.88 752.93,-692.13 805.5,-640.4 806.26,-639.65 807.05,-638.92 807.85,-638.22"/>
<polygon fill="#757575" stroke="#757575" points="809.8,-641.12 815.82,-632.4 805.68,-635.47 809.8,-641.12"/>
</g>
<!-- routes/chatHistoryRoutes.ts&#45;&gt;controllers/chatHistoryController.ts -->
<g id="edge49" class="edge">
<title>routes/chatHistoryRoutes.ts&#45;&gt;controllers/chatHistoryController.ts</title>
<path fill="none" stroke="#757575" d="M397.64,-833.7C422.73,-847.65 466.08,-870.07 506,-882.4 513.47,-884.71 521.25,-886.77 529.15,-888.62"/>
<polygon fill="#757575" stroke="#757575" points="528.35,-892.03 538.87,-890.76 529.86,-885.19 528.35,-892.03"/>
</g>
<!-- routes/chatRoutes.ts -->
<g id="node43" class="node">
<title>routes/chatRoutes.ts</title>
<path fill="none" stroke="#c6c5fe" d="M437.33,-551.28C437.33,-551.28 313.42,-551.28 313.42,-551.28 309.46,-551.28 305.5,-547.32 305.5,-543.36 305.5,-543.36 305.5,-535.44 305.5,-535.44 305.5,-531.49 309.46,-527.53 313.42,-527.53 313.42,-527.53 437.33,-527.53 437.33,-527.53 441.29,-527.53 445.25,-531.49 445.25,-535.44 445.25,-535.44 445.25,-543.36 445.25,-543.36 445.25,-547.32 441.29,-551.28 437.33,-551.28"/>
<text xml:space="preserve" text-anchor="middle" x="375.38" y="-533.98" font-family="Arial" font-size="14.00" fill="#c6c5fe">routes/chatRoutes.ts</text>
</g>
<!-- routes/chatRoutes.ts&#45;&gt;middleware/authMiddleware.ts -->
<g id="edge52" class="edge">
<title>routes/chatRoutes.ts&#45;&gt;middleware/authMiddleware.ts</title>
<path fill="none" stroke="#757575" d="M445.61,-535.18C524.99,-532.08 658.44,-532.17 769.5,-558.4 808.04,-567.5 849.2,-587.08 876.49,-601.62"/>
<polygon fill="#757575" stroke="#757575" points="874.8,-604.68 885.26,-606.38 878.14,-598.53 874.8,-604.68"/>
</g>
<!-- routes/chatRoutes.ts&#45;&gt;controllers/chatController.ts -->
<g id="edge51" class="edge">
<title>routes/chatRoutes.ts&#45;&gt;controllers/chatController.ts</title>
<path fill="none" stroke="#757575" d="M408.02,-527.19C428.77,-517.57 454.79,-502.12 470,-480.4 513.31,-418.57 458.52,-373.09 506,-314.4 522.44,-294.09 547.36,-280.51 571.06,-271.57"/>
<polygon fill="#757575" stroke="#757575" points="572.13,-274.9 580.4,-268.28 569.81,-268.3 572.13,-274.9"/>
</g>
<!-- routes/chatRoutes.ts&#45;&gt;middleware/validateRequest.ts -->
<g id="edge53" class="edge">
<title>routes/chatRoutes.ts&#45;&gt;middleware/validateRequest.ts</title>
<path fill="none" stroke="#757575" d="M397.64,-551.7C422.73,-565.65 466.08,-588.07 506,-600.4 513.47,-602.71 521.25,-604.77 529.15,-606.62"/>
<polygon fill="#757575" stroke="#757575" points="528.35,-610.03 538.87,-608.76 529.86,-603.19 528.35,-610.03"/>
</g>
<!-- routes/chatRoutes.ts&#45;&gt;middleware/validators/chatValidator.ts -->
<g id="edge54" class="edge">
<title>routes/chatRoutes.ts&#45;&gt;middleware/validators/chatValidator.ts</title>
<path fill="none" stroke="#757575" d="M445.47,-528.79C476.06,-524.09 512.47,-518.49 545.27,-513.46"/>
<polygon fill="#757575" stroke="#757575" points="545.4,-516.98 554.75,-512 544.33,-510.06 545.4,-516.98"/>
</g>
<!-- routes/promptTraceRoutes.ts -->
<g id="node44" class="node">
<title>routes/promptTraceRoutes.ts</title>
<path fill="none" stroke="#c6c5fe" d="M725.58,-389.28C725.58,-389.28 549.92,-389.28 549.92,-389.28 545.96,-389.28 542,-385.32 542,-381.36 542,-381.36 542,-373.44 542,-373.44 542,-369.49 545.96,-365.53 549.92,-365.53 549.92,-365.53 725.58,-365.53 725.58,-365.53 729.54,-365.53 733.5,-369.49 733.5,-373.44 733.5,-373.44 733.5,-381.36 733.5,-381.36 733.5,-385.32 729.54,-389.28 725.58,-389.28"/>
<text xml:space="preserve" text-anchor="middle" x="637.75" y="-371.98" font-family="Arial" font-size="14.00" fill="#c6c5fe">routes/promptTraceRoutes.ts</text>
</g>
<!-- routes/promptTraceRoutes.ts&#45;&gt;middleware/authMiddleware.ts -->
<g id="edge56" class="edge">
<title>routes/promptTraceRoutes.ts&#45;&gt;middleware/authMiddleware.ts</title>
<path fill="none" stroke="#757575" d="M734,-379.88C747,-383.71 759.34,-389.59 769.5,-398.4 810.28,-433.78 777.91,-468.01 805.5,-514.4 825.96,-548.81 859.89,-580.58 883.01,-599.96"/>
<polygon fill="#757575" stroke="#757575" points="880.76,-602.65 890.71,-606.28 885.2,-597.24 880.76,-602.65"/>
</g>
<!-- routes/promptTraceRoutes.ts&#45;&gt;controllers/promptTraceController.ts -->
<g id="edge55" class="edge">
<title>routes/promptTraceRoutes.ts&#45;&gt;controllers/promptTraceController.ts</title>
<path fill="none" stroke="#757575" d="M726.28,-389.76C740.78,-392.29 755.61,-395.18 769.5,-398.4 879.28,-423.84 909.68,-425.19 1012,-472.4 1029.24,-480.36 1030.67,-487.65 1048,-495.4 1062.79,-502.01 1079.27,-507.58 1095.02,-512.11"/>
<polygon fill="#757575" stroke="#757575" points="1093.75,-515.39 1104.32,-514.69 1095.62,-508.65 1093.75,-515.39"/>
</g>
<!-- routes/userRoutes.ts -->
<g id="node45" class="node">
<title>routes/userRoutes.ts</title>
<path fill="none" stroke="#c6c5fe" d="M437.71,-675.28C437.71,-675.28 313.04,-675.28 313.04,-675.28 309.08,-675.28 305.12,-671.32 305.12,-667.36 305.12,-667.36 305.12,-659.44 305.12,-659.44 305.12,-655.49 309.08,-651.53 313.04,-651.53 313.04,-651.53 437.71,-651.53 437.71,-651.53 441.67,-651.53 445.62,-655.49 445.62,-659.44 445.62,-659.44 445.62,-667.36 445.62,-667.36 445.62,-671.32 441.67,-675.28 437.71,-675.28"/>
<text xml:space="preserve" text-anchor="middle" x="375.38" y="-657.98" font-family="Arial" font-size="14.00" fill="#c6c5fe">routes/userRoutes.ts</text>
</g>
<!-- routes/userRoutes.ts&#45;&gt;middleware/authMiddleware.ts -->
<g id="edge58" class="edge">
<title>routes/userRoutes.ts&#45;&gt;middleware/authMiddleware.ts</title>
<path fill="none" stroke="#757575" d="M411.09,-675.78C482.31,-698.98 648.44,-741.77 769.5,-684.4 792.33,-673.58 783.88,-653.48 805.5,-640.4 807.98,-638.9 810.54,-637.51 813.18,-636.22"/>
<polygon fill="#757575" stroke="#757575" points="814.45,-639.48 822.24,-632.3 811.67,-633.06 814.45,-639.48"/>
</g>
<!-- routes/userRoutes.ts&#45;&gt;controllers/userController.ts -->
<g id="edge57" class="edge">
<title>routes/userRoutes.ts&#45;&gt;controllers/userController.ts</title>
<path fill="none" stroke="#757575" d="M396.7,-651.19C421.58,-636.79 465.44,-613.21 506,-600.4 515.66,-597.35 525.87,-594.73 536.15,-592.48"/>
<polygon fill="#757575" stroke="#757575" points="536.74,-595.93 545.83,-590.48 535.33,-589.07 536.74,-595.93"/>
</g>
<!-- routes/userRoutes.ts&#45;&gt;middleware/validateRequest.ts -->
<g id="edge59" class="edge">
<title>routes/userRoutes.ts&#45;&gt;middleware/validateRequest.ts</title>
<path fill="none" stroke="#757575" d="M446,-652.1C465.42,-648.96 486.53,-645.54 506,-642.4 519.7,-640.19 534.21,-637.86 548.38,-635.58"/>
<polygon fill="#757575" stroke="#757575" points="548.85,-639.05 558.16,-634.01 547.74,-632.14 548.85,-639.05"/>
</g>
<!-- routes/userRoutes.ts&#45;&gt;middleware/validators/userValidator.ts -->
<g id="edge60" class="edge">
<title>routes/userRoutes.ts&#45;&gt;middleware/validators/userValidator.ts</title>
<path fill="none" stroke="#757575" d="M445.81,-663.4C463.99,-663.4 484.2,-663.4 504.48,-663.4"/>
<polygon fill="#757575" stroke="#757575" points="504.23,-666.9 514.23,-663.4 504.23,-659.9 504.23,-666.9"/>
</g>
<!-- routes/userSettingsRoutes.ts -->
<g id="node46" class="node">
<title>routes/userSettingsRoutes.ts</title>
<path fill="none" stroke="#c6c5fe" d="M462.08,-471.28C462.08,-471.28 288.67,-471.28 288.67,-471.28 284.71,-471.28 280.75,-467.32 280.75,-463.36 280.75,-463.36 280.75,-455.44 280.75,-455.44 280.75,-451.49 284.71,-447.53 288.67,-447.53 288.67,-447.53 462.08,-447.53 462.08,-447.53 466.04,-447.53 470,-451.49 470,-455.44 470,-455.44 470,-463.36 470,-463.36 470,-467.32 466.04,-471.28 462.08,-471.28"/>
<text xml:space="preserve" text-anchor="middle" x="375.38" y="-453.98" font-family="Arial" font-size="14.00" fill="#c6c5fe">routes/userSettingsRoutes.ts</text>
</g>
<!-- routes/userSettingsRoutes.ts&#45;&gt;middleware/authMiddleware.ts -->
<g id="edge62" class="edge">
<title>routes/userSettingsRoutes.ts&#45;&gt;middleware/authMiddleware.ts</title>
<path fill="none" stroke="#757575" d="M470.26,-453.46C570.61,-448.92 721.72,-447.84 769.5,-478.4 798.64,-497.04 782.72,-521.38 805.5,-547.4 825.01,-569.68 852.75,-588.66 874.42,-601.53"/>
<polygon fill="#757575" stroke="#757575" points="872.48,-604.45 882.89,-606.42 875.98,-598.39 872.48,-604.45"/>
</g>
<!-- routes/userSettingsRoutes.ts&#45;&gt;controllers/userSettingsController.ts -->
<g id="edge61" class="edge">
<title>routes/userSettingsRoutes.ts&#45;&gt;controllers/userSettingsController.ts</title>
<path fill="none" stroke="#757575" d="M456.62,-447.07C484.59,-442.78 516.18,-437.93 545,-433.5"/>
<polygon fill="#757575" stroke="#757575" points="545.47,-436.97 554.83,-431.99 544.41,-430.05 545.47,-436.97"/>
</g>
<!-- routes/userSettingsRoutes.ts&#45;&gt;middleware/validateRequest.ts -->
<g id="edge63" class="edge">
<title>routes/userSettingsRoutes.ts&#45;&gt;middleware/validateRequest.ts</title>
<path fill="none" stroke="#757575" d="M404.52,-471.57C424.96,-481.62 452.07,-497.59 470,-518.4 495.98,-548.56 474.51,-576.06 506,-600.4 512.24,-605.23 519.16,-609.14 526.46,-612.29"/>
<polygon fill="#757575" stroke="#757575" points="525,-615.48 535.6,-615.73 527.47,-608.93 525,-615.48"/>
</g>
<!-- routes/userSettingsRoutes.ts&#45;&gt;middleware/validators/settingsValidator.ts -->
<g id="edge64" class="edge">
<title>routes/userSettingsRoutes.ts&#45;&gt;middleware/validators/settingsValidator.ts</title>
<path fill="none" stroke="#757575" d="M387.96,-447.29C407.3,-426.52 446.37,-382.09 470,-338.4 493.27,-295.38 468.54,-265.85 506,-234.4 507.11,-233.47 508.25,-232.56 509.42,-231.7"/>
<polygon fill="#757575" stroke="#757575" points="510.99,-234.85 517.47,-226.47 507.18,-228.98 510.99,-234.85"/>
</g>
<!-- server.ts -->
<g id="node47" class="node">
<title>server.ts</title>
<path fill="none" stroke="#c6c5fe" d="M147.96,-714.28C147.96,-714.28 96.79,-714.28 96.79,-714.28 92.83,-714.28 88.88,-710.32 88.88,-706.36 88.88,-706.36 88.88,-698.44 88.88,-698.44 88.88,-694.49 92.83,-690.53 96.79,-690.53 96.79,-690.53 147.96,-690.53 147.96,-690.53 151.92,-690.53 155.88,-694.49 155.88,-698.44 155.88,-698.44 155.88,-706.36 155.88,-706.36 155.88,-710.32 151.92,-714.28 147.96,-714.28"/>
<text xml:space="preserve" text-anchor="middle" x="122.38" y="-696.98" font-family="Arial" font-size="14.00" fill="#c6c5fe">server.ts</text>
</g>
<!-- server.ts&#45;&gt;config/env.ts -->
<g id="edge65" class="edge">
<title>server.ts&#45;&gt;config/env.ts</title>
<path fill="none" stroke="#757575" d="M156.25,-698.19C184,-696.64 222.64,-699.57 244.75,-723.4 301.24,-784.29 227.36,-1031.78 280.75,-1095.4 290.26,-1106.73 304.23,-1113.35 318.5,-1117.15"/>
<polygon fill="#757575" stroke="#757575" points="317.4,-1120.5 327.91,-1119.22 318.9,-1113.66 317.4,-1120.5"/>
</g>
<!-- server.ts&#45;&gt;utils/logger.ts -->
<g id="edge78" class="edge">
<title>server.ts&#45;&gt;utils/logger.ts</title>
<path fill="none" stroke="#757575" d="M156.16,-698.27C183.86,-696.77 222.47,-699.73 244.75,-723.4 294.26,-775.99 226.93,-998.24 280.75,-1046.4 364.05,-1120.93 1174.53,-963.47 1279.25,-924.4 1315.32,-910.94 1353.35,-888.03 1377.97,-871.88"/>
<polygon fill="#757575" stroke="#757575" points="1379.7,-874.93 1386.08,-866.47 1375.81,-869.1 1379.7,-874.93"/>
</g>
<!-- server.ts&#45;&gt;lib/prisma.ts -->
<g id="edge66" class="edge">
<title>server.ts&#45;&gt;lib/prisma.ts</title>
<path fill="none" stroke="#757575" d="M124.79,-690.03C131.58,-636.16 165.34,-419.29 280.75,-296.4 356.24,-216.02 398.3,-216.06 506,-192.4 646.84,-161.46 1678.26,-176.21 1802.5,-249.4 1872.07,-290.38 1915.37,-381.61 1932.59,-424.41"/>
<polygon fill="#757575" stroke="#757575" points="1929.32,-425.65 1936.21,-433.7 1935.84,-423.11 1929.32,-425.65"/>
</g>
<!-- server.ts&#45;&gt;middleware/errorHandler.ts -->
<g id="edge67" class="edge">
<title>server.ts&#45;&gt;middleware/errorHandler.ts</title>
<path fill="none" stroke="#757575" d="M156.14,-698.8C183.44,-697.72 221.49,-701 244.75,-723.4 300.37,-776.98 229.07,-836.01 280.75,-893.4 351.17,-971.61 402.05,-949.98 506,-966.4 621.68,-984.68 654.58,-988.96 769.5,-966.4 783.78,-963.6 998.98,-873.9 1012,-867.4 1056.32,-845.27 1105.11,-814.94 1134.81,-795.76"/>
<polygon fill="#757575" stroke="#757575" points="1136.37,-798.92 1142.85,-790.53 1132.56,-793.05 1136.37,-798.92"/>
</g>
<!-- server.ts&#45;&gt;middleware/rateLimiter.ts -->
<g id="edge68" class="edge">
<title>server.ts&#45;&gt;middleware/rateLimiter.ts</title>
<path fill="none" stroke="#757575" d="M156.33,-698.36C183.93,-696.96 222.32,-700.02 244.75,-723.4 330.38,-812.68 199.66,-905.98 280.75,-999.4 283.24,-1002.27 286.01,-1004.83 289,-1007.12"/>
<polygon fill="#757575" stroke="#757575" points="286.96,-1009.97 297.28,-1012.4 290.73,-1004.07 286.96,-1009.97"/>
</g>
<!-- server.ts&#45;&gt;routes/aiRoutes.ts -->
<g id="edge69" class="edge">
<title>server.ts&#45;&gt;routes/aiRoutes.ts</title>
<path fill="none" stroke="#757575" d="M125.05,-690.11C132.62,-639.42 168.26,-444.68 280.75,-345.4 286.96,-339.92 294.2,-335.51 301.86,-331.97"/>
<polygon fill="#757575" stroke="#757575" points="303.16,-335.22 311.11,-328.22 300.52,-328.73 303.16,-335.22"/>
</g>
<!-- server.ts&#45;&gt;routes/analyticsRoutes.ts -->
<g id="edge70" class="edge">
<title>server.ts&#45;&gt;routes/analyticsRoutes.ts</title>
<path fill="none" stroke="#757575" d="M124.99,-690.17C132.22,-640.68 166.5,-454.19 280.75,-373.4 301.74,-358.56 444.3,-347.03 542.52,-340.73"/>
<polygon fill="#757575" stroke="#757575" points="542.7,-344.23 552.45,-340.1 542.25,-337.24 542.7,-344.23"/>
</g>
<!-- server.ts&#45;&gt;routes/auditRoutes.ts -->
<g id="edge71" class="edge">
<title>server.ts&#45;&gt;routes/auditRoutes.ts</title>
<path fill="none" stroke="#757575" d="M156.21,-699.29C183.18,-698.59 220.72,-702.15 244.75,-723.4 286.14,-760.01 242.77,-802.26 280.75,-842.4 353.97,-919.79 402.88,-897.61 506,-924.4 521.55,-928.44 538.35,-931.84 554.56,-934.65"/>
<polygon fill="#757575" stroke="#757575" points="553.74,-938.06 564.18,-936.25 554.89,-931.15 553.74,-938.06"/>
</g>
<!-- server.ts&#45;&gt;routes/authRoutes.ts -->
<g id="edge72" class="edge">
<title>server.ts&#45;&gt;routes/authRoutes.ts</title>
<path fill="none" stroke="#757575" d="M156.19,-707.5C190.87,-712.89 246.88,-721.59 293.47,-728.83"/>
<polygon fill="#757575" stroke="#757575" points="292.87,-732.28 303.29,-730.36 293.95,-725.36 292.87,-732.28"/>
</g>
<!-- server.ts&#45;&gt;routes/chatHistoryRoutes.ts -->
<g id="edge73" class="edge">
<title>server.ts&#45;&gt;routes/chatHistoryRoutes.ts</title>
<path fill="none" stroke="#757575" d="M156.16,-702.44C181.7,-703.75 217.33,-708.48 244.75,-723.4 265.47,-734.68 262.61,-747.32 280.75,-762.4 299.57,-778.06 322.85,-792.74 341.48,-803.55"/>
<polygon fill="#757575" stroke="#757575" points="339.56,-806.48 349.98,-808.38 343.02,-800.4 339.56,-806.48"/>
</g>
<!-- server.ts&#45;&gt;routes/chatRoutes.ts -->
<g id="edge74" class="edge">
<title>server.ts&#45;&gt;routes/chatRoutes.ts</title>
<path fill="none" stroke="#757575" d="M142.24,-690.15C185.96,-661.76 294.39,-591.35 346.09,-557.77"/>
<polygon fill="#757575" stroke="#757575" points="347.88,-560.78 354.36,-552.4 344.07,-554.91 347.88,-560.78"/>
</g>
<!-- server.ts&#45;&gt;routes/promptTraceRoutes.ts -->
<g id="edge75" class="edge">
<title>server.ts&#45;&gt;routes/promptTraceRoutes.ts</title>
<path fill="none" stroke="#757575" d="M126.67,-690.18C138.86,-647.48 185.7,-504.06 280.75,-438.4 353.63,-388.06 454.46,-374.7 530.22,-372.84"/>
<polygon fill="#757575" stroke="#757575" points="530.23,-376.34 540.16,-372.67 530.1,-369.34 530.23,-376.34"/>
</g>
<!-- server.ts&#45;&gt;routes/userRoutes.ts -->
<g id="edge76" class="edge">
<title>server.ts&#45;&gt;routes/userRoutes.ts</title>
<path fill="none" stroke="#757575" d="M156.19,-697.3C190.87,-691.92 246.88,-683.21 293.47,-675.97"/>
<polygon fill="#757575" stroke="#757575" points="293.95,-679.44 303.29,-674.45 292.87,-672.52 293.95,-679.44"/>
</g>
<!-- server.ts&#45;&gt;routes/userSettingsRoutes.ts -->
<g id="edge77" class="edge">
<title>server.ts&#45;&gt;routes/userSettingsRoutes.ts</title>
<path fill="none" stroke="#757575" d="M131.86,-690.11C153.86,-658.84 215.56,-574.75 280.75,-518.4 299.15,-502.5 322.24,-487.9 340.88,-477.2"/>
<polygon fill="#757575" stroke="#757575" points="342.4,-480.37 349.41,-472.42 338.97,-474.26 342.4,-480.37"/>
</g>
<!-- services/ai/client/azureEmbeddingClient.ts&#45;&gt;config/providerMap.ts -->
<g id="edge79" class="edge">
<title>services/ai/client/azureEmbeddingClient.ts&#45;&gt;config/providerMap.ts</title>
<path fill="none" stroke="#757575" d="M1802.75,-55.4C1821.5,-55.4 1840.31,-55.4 1857.74,-55.4"/>
<polygon fill="#757575" stroke="#757575" points="1857.47,-58.9 1867.47,-55.4 1857.47,-51.9 1857.47,-58.9"/>
</g>
<!-- services/ai/client/claudeClient.ts -->
<g id="node49" class="node">
<title>services/ai/client/claudeClient.ts</title>
<path fill="none" stroke="#c6c5fe" d="M2037.83,-25.28C2037.83,-25.28 1846.42,-25.28 1846.42,-25.28 1842.46,-25.28 1838.5,-21.32 1838.5,-17.36 1838.5,-17.36 1838.5,-9.44 1838.5,-9.44 1838.5,-5.49 1842.46,-1.53 1846.42,-1.53 1846.42,-1.53 2037.83,-1.53 2037.83,-1.53 2041.79,-1.53 2045.75,-5.49 2045.75,-9.44 2045.75,-9.44 2045.75,-17.36 2045.75,-17.36 2045.75,-21.32 2041.79,-25.28 2037.83,-25.28"/>
<text xml:space="preserve" text-anchor="middle" x="1942.12" y="-7.98" font-family="Arial" font-size="14.00" fill="#c6c5fe">services/ai/client/claudeClient.ts</text>
</g>
<!-- services/ai/client/claudeClient.ts&#45;&gt;services/ai/types.ts -->
<g id="edge80" class="edge">
<title>services/ai/client/claudeClient.ts&#45;&gt;services/ai/types.ts</title>
<path fill="none" stroke="#757575" d="M2045.88,-1.44C2115.55,2.36 2208.09,-1.19 2282.25,-34.4 2319.51,-51.09 2350.74,-88.18 2367.93,-111.93"/>
<polygon fill="#757575" stroke="#757575" points="2364.95,-113.76 2373.55,-119.95 2370.68,-109.75 2364.95,-113.76"/>
</g>
<!-- services/ai/utils/providerUtils.ts -->
<g id="node50" class="node">
<title>services/ai/utils/providerUtils.ts</title>
<path fill="none" stroke="#c6c5fe" d="M2274.33,-67.28C2274.33,-67.28 2089.67,-67.28 2089.67,-67.28 2085.71,-67.28 2081.75,-63.32 2081.75,-59.36 2081.75,-59.36 2081.75,-51.44 2081.75,-51.44 2081.75,-47.49 2085.71,-43.53 2089.67,-43.53 2089.67,-43.53 2274.33,-43.53 2274.33,-43.53 2278.29,-43.53 2282.25,-47.49 2282.25,-51.44 2282.25,-51.44 2282.25,-59.36 2282.25,-59.36 2282.25,-63.32 2278.29,-67.28 2274.33,-67.28"/>
<text xml:space="preserve" text-anchor="middle" x="2182" y="-49.98" font-family="Arial" font-size="14.00" fill="#c6c5fe">services/ai/utils/providerUtils.ts</text>
</g>
<!-- services/ai/client/claudeClient.ts&#45;&gt;services/ai/utils/providerUtils.ts -->
<g id="edge81" class="edge">
<title>services/ai/client/claudeClient.ts&#45;&gt;services/ai/utils/providerUtils.ts</title>
<path fill="none" stroke="#757575" d="M2013.21,-25.78C2040.43,-30.58 2071.78,-36.12 2099.97,-41.09"/>
<polygon fill="#757575" stroke="#757575" points="2099.06,-44.49 2109.52,-42.78 2100.28,-37.6 2099.06,-44.49"/>
</g>
<!-- services/ai/utils/providerUtils.ts&#45;&gt;services/ai/types.ts -->
<g id="edge91" class="edge">
<title>services/ai/utils/providerUtils.ts&#45;&gt;services/ai/types.ts</title>
<path fill="none" stroke="#757575" d="M2239.08,-67.76C2253.36,-71.54 2268.54,-76.12 2282.25,-81.4 2306.55,-90.77 2332.61,-104.45 2352.03,-115.43"/>
<polygon fill="#757575" stroke="#757575" points="2350.09,-118.35 2360.5,-120.29 2353.57,-112.27 2350.09,-118.35"/>
</g>
<!-- services/ai/providers/factory.ts&#45;&gt;lib/prisma.ts -->
<g id="edge86" class="edge">
<title>services/ai/providers/factory.ts&#45;&gt;lib/prisma.ts</title>
<path fill="none" stroke="#757575" d="M1709.8,-147.7C1738.51,-157.87 1776.15,-174.7 1802.5,-199.4 1873.33,-265.8 1917.19,-376.69 1933.68,-424.42"/>
<polygon fill="#757575" stroke="#757575" points="1930.29,-425.33 1936.8,-433.69 1936.93,-423.09 1930.29,-425.33"/>
</g>
<!-- services/ai/providers/base.ts -->
<g id="node52" class="node">
<title>services/ai/providers/base.ts</title>
<path fill="none" stroke="#c6c5fe" d="M2267.21,-185.28C2267.21,-185.28 2096.79,-185.28 2096.79,-185.28 2092.83,-185.28 2088.88,-181.32 2088.88,-177.36 2088.88,-177.36 2088.88,-169.44 2088.88,-169.44 2088.88,-165.49 2092.83,-161.53 2096.79,-161.53 2096.79,-161.53 2267.21,-161.53 2267.21,-161.53 2271.17,-161.53 2275.12,-165.49 2275.12,-169.44 2275.12,-169.44 2275.12,-177.36 2275.12,-177.36 2275.12,-181.32 2271.17,-185.28 2267.21,-185.28"/>
<text xml:space="preserve" text-anchor="middle" x="2182" y="-167.98" font-family="Arial" font-size="14.00" fill="#c6c5fe">services/ai/providers/base.ts</text>
</g>
<!-- services/ai/providers/factory.ts&#45;&gt;services/ai/providers/base.ts -->
<g id="edge87" class="edge">
<title>services/ai/providers/factory.ts&#45;&gt;services/ai/providers/base.ts</title>
<path fill="none" stroke="#757575" d="M1758.3,-147.75C1784.15,-150.96 1812.41,-154.15 1838.5,-156.4 1918.57,-163.32 2009.42,-167.67 2077.43,-170.24"/>
<polygon fill="#757575" stroke="#757575" points="2076.93,-173.72 2087.06,-170.59 2077.19,-166.72 2076.93,-173.72"/>
</g>
<!-- services/ai/providers/openai.ts -->
<g id="node53" class="node">
<title>services/ai/providers/openai.ts</title>
<path fill="none" stroke="#c6c5fe" d="M2032.96,-147.28C2032.96,-147.28 1851.29,-147.28 1851.29,-147.28 1847.33,-147.28 1843.38,-143.32 1843.38,-139.36 1843.38,-139.36 1843.38,-131.44 1843.38,-131.44 1843.38,-127.49 1847.33,-123.53 1851.29,-123.53 1851.29,-123.53 2032.96,-123.53 2032.96,-123.53 2036.92,-123.53 2040.88,-127.49 2040.88,-131.44 2040.88,-131.44 2040.88,-139.36 2040.88,-139.36 2040.88,-143.32 2036.92,-147.28 2032.96,-147.28"/>
<text xml:space="preserve" text-anchor="middle" x="1942.12" y="-129.98" font-family="Arial" font-size="14.00" fill="#c6c5fe">services/ai/providers/openai.ts</text>
</g>
<!-- services/ai/providers/factory.ts&#45;&gt;services/ai/providers/openai.ts -->
<g id="edge88" class="edge">
<title>services/ai/providers/factory.ts&#45;&gt;services/ai/providers/openai.ts</title>
<path fill="none" stroke="#757575" d="M1766.07,-135.4C1787.42,-135.4 1810.15,-135.4 1831.91,-135.4"/>
<polygon fill="#757575" stroke="#757575" points="1831.68,-138.9 1841.68,-135.4 1831.68,-131.9 1831.68,-138.9"/>
</g>
<!-- services/ai/providers/base.ts&#45;&gt;services/ai/types.ts -->
<g id="edge85" class="edge">
<title>services/ai/providers/base.ts&#45;&gt;services/ai/types.ts</title>
<path fill="none" stroke="#757575" d="M2244.41,-161.07C2265.05,-156.93 2288.27,-152.27 2309.69,-147.97"/>
<polygon fill="#757575" stroke="#757575" points="2310.1,-151.46 2319.22,-146.06 2308.73,-144.59 2310.1,-151.46"/>
</g>
<!-- services/ai/providers/openai.ts&#45;&gt;services/ai/types.ts -->
<g id="edge90" class="edge">
<title>services/ai/providers/openai.ts&#45;&gt;services/ai/types.ts</title>
<path fill="none" stroke="#757575" d="M2041.13,-134.96C2121.27,-134.59 2232.95,-134.08 2306.39,-133.75"/>
<polygon fill="#757575" stroke="#757575" points="2306.34,-137.25 2316.33,-133.7 2306.31,-130.25 2306.34,-137.25"/>
</g>
<!-- services/ai/providers/openai.ts&#45;&gt;services/ai/providers/base.ts -->
<g id="edge89" class="edge">
<title>services/ai/providers/openai.ts&#45;&gt;services/ai/providers/base.ts</title>
<path fill="none" stroke="#757575" d="M2020.36,-147.74C2043.43,-151.43 2068.9,-155.49 2092.62,-159.28"/>
<polygon fill="#757575" stroke="#757575" points="2091.83,-162.7 2102.25,-160.82 2092.93,-155.79 2091.83,-162.7"/>
</g>
<!-- services/ragService.ts&#45;&gt;lib/prisma.ts -->
<g id="edge99" class="edge">
<title>services/ragService.ts&#45;&gt;lib/prisma.ts</title>
<path fill="none" stroke="#757575" d="M1237.94,-221.06C1383.71,-233.21 1704.32,-264.71 1802.5,-313.4 1856.62,-340.24 1903.33,-395.83 1926.18,-426.3"/>
<polygon fill="#757575" stroke="#757575" points="1923.1,-428.03 1931.84,-434.02 1928.75,-423.89 1923.1,-428.03"/>
</g>
<!-- services/ragService.ts&#45;&gt;services/ai/index.ts -->
<g id="edge100" class="edge">
<title>services/ragService.ts&#45;&gt;services/ai/index.ts</title>
<path fill="none" stroke="#757575" d="M1201.62,-203.08C1243.31,-189.19 1311.2,-166.57 1356.89,-151.35"/>
<polygon fill="#757575" stroke="#757575" points="1357.9,-154.7 1366.28,-148.22 1355.69,-148.06 1357.9,-154.7"/>
</g>
<!-- services/chat/costService.ts -->
<g id="node55" class="node">
<title>services/chat/costService.ts</title>
<path fill="none" stroke="#cfffac" d="M205.71,-966.28C205.71,-966.28 39.04,-966.28 39.04,-966.28 35.08,-966.28 31.12,-962.32 31.12,-958.36 31.12,-958.36 31.12,-950.44 31.12,-950.44 31.12,-946.49 35.08,-942.53 39.04,-942.53 39.04,-942.53 205.71,-942.53 205.71,-942.53 209.67,-942.53 213.62,-946.49 213.62,-950.44 213.62,-950.44 213.62,-958.36 213.62,-958.36 213.62,-962.32 209.67,-966.28 205.71,-966.28"/>
<text xml:space="preserve" text-anchor="middle" x="122.38" y="-948.98" font-family="Arial" font-size="14.00" fill="#cfffac">services/chat/costService.ts</text>
</g>
<!-- types/express/index.d.ts -->
<g id="node56" class="node">
<title>types/express/index.d.ts</title>
<path fill="none" stroke="#cfffac" d="M194.83,-1008.28C194.83,-1008.28 49.92,-1008.28 49.92,-1008.28 45.96,-1008.28 42,-1004.32 42,-1000.36 42,-1000.36 42,-992.44 42,-992.44 42,-988.49 45.96,-984.53 49.92,-984.53 49.92,-984.53 194.83,-984.53 194.83,-984.53 198.79,-984.53 202.75,-988.49 202.75,-992.44 202.75,-992.44 202.75,-1000.36 202.75,-1000.36 202.75,-1004.32 198.79,-1008.28 194.83,-1008.28"/>
<text xml:space="preserve" text-anchor="middle" x="122.38" y="-990.98" font-family="Arial" font-size="14.00" fill="#cfffac">types/express/index.d.ts</text>
</g>
<!-- types/index.ts -->
<g id="node57" class="node">
<title>types/index.ts</title>
<path fill="none" stroke="#cfffac" d="M163.71,-1050.28C163.71,-1050.28 81.04,-1050.28 81.04,-1050.28 77.08,-1050.28 73.12,-1046.32 73.12,-1042.36 73.12,-1042.36 73.12,-1034.44 73.12,-1034.44 73.12,-1030.49 77.08,-1026.53 81.04,-1026.53 81.04,-1026.53 163.71,-1026.53 163.71,-1026.53 167.67,-1026.53 171.62,-1030.49 171.62,-1034.44 171.62,-1034.44 171.62,-1042.36 171.62,-1042.36 171.62,-1046.32 167.67,-1050.28 163.71,-1050.28"/>
<text xml:space="preserve" text-anchor="middle" x="122.38" y="-1032.98" font-family="Arial" font-size="14.00" fill="#cfffac">types/index.ts</text>
</g>
</g>
</svg>
