<svg xmlns="http://www.w3.org/2000/svg" viewBox="0 0 32 32"><g><circle cx="16" cy="16" r="16" fill="#10A37F"/><g><path d="M16 7.5c2.5 0 4.5 2 4.5 4.5 0 .6-.1 1.2-.3 1.7l2.2 1.3c.7.4 1.1 1.2 1.1 2 0 .8-.4 1.6-1.1 2l-2.2 1.3c.2.5.3 1.1.3 1.7 0 2.5-2 4.5-4.5 4.5s-4.5-2-4.5-4.5c0-.6.1-1.2.3-1.7l-2.2-1.3c-.7-.4-1.1-1.2-1.1-2 0-.8.4-1.6 1.1-2l2.2-1.3c-.2-.5-.3-1.1-.3-1.7 0-2.5 2-4.5 4.5-4.5zm0 2c-1.4 0-2.5 1.1-2.5 2.5 0 .3.1.6.2.9l.2.4-2.7 1.6c-.2.1-.3.4-.3.6s.1.5.3.6l2.7 1.6-.2.4c-.1.3-.2.6-.2.9 0 1.4 1.1 2.5 2.5 2.5s2.5-1.1 2.5-2.5c0-.3-.1-.6-.2-.9l-.2-.4 2.7-1.6c.2-.1.3-.4.3-.6s-.1-.5-.3-.6l-2.7-1.6.2-.4c.1-.3.2-.6.2-.9 0-1.4-1.1-2.5-2.5-2.5z" fill="#fff"/></g></g></svg>